%FSLAX43Y43*%
%MOMM*%
G71*
G01*
G75*
G04 Layer_Physical_Order=4*
G04 Layer_Color=16711680*
%ADD10R,0.600X1.000*%
%ADD11R,0.400X1.400*%
%ADD12R,2.300X1.900*%
%ADD13R,1.775X1.900*%
%ADD14R,0.650X0.500*%
%ADD15R,1.000X2.250*%
%ADD16R,1.400X1.150*%
%ADD17R,1.600X1.000*%
%ADD18R,2.500X3.000*%
%ADD19O,0.800X0.400*%
%ADD20O,0.250X0.700*%
%ADD21O,0.700X0.250*%
%ADD22R,4.500X4.500*%
%ADD23R,1.200X1.200*%
%ADD24R,1.100X0.600*%
%ADD25R,1.100X1.000*%
%ADD26R,0.350X0.700*%
%ADD27R,0.700X0.700*%
%ADD28R,0.282X0.205*%
%ADD29R,0.550X0.600*%
%ADD30R,0.650X0.800*%
%ADD31R,0.500X0.650*%
%ADD32R,0.762X0.762*%
%ADD33R,0.205X0.282*%
%ADD34R,0.600X0.900*%
%ADD35R,0.800X0.650*%
%ADD36R,0.600X0.550*%
G04:AMPARAMS|DCode=37|XSize=0.205mm|YSize=0.282mm|CornerRadius=0mm|HoleSize=0mm|Usage=FLASHONLY|Rotation=135.000|XOffset=0mm|YOffset=0mm|HoleType=Round|Shape=Rectangle|*
%AMROTATEDRECTD37*
4,1,4,0.172,0.027,-0.027,-0.172,-0.172,-0.027,0.027,0.172,0.172,0.027,0.0*
%
%ADD37ROTATEDRECTD37*%

G04:AMPARAMS|DCode=38|XSize=0.205mm|YSize=0.282mm|CornerRadius=0mm|HoleSize=0mm|Usage=FLASHONLY|Rotation=225.000|XOffset=0mm|YOffset=0mm|HoleType=Round|Shape=Rectangle|*
%AMROTATEDRECTD38*
4,1,4,-0.027,0.172,0.172,-0.027,0.027,-0.172,-0.172,0.027,-0.027,0.172,0.0*
%
%ADD38ROTATEDRECTD38*%

%ADD39R,0.900X0.600*%
%ADD40R,1.200X1.200*%
%ADD41R,0.700X0.700*%
%ADD42C,0.254*%
%ADD43C,0.203*%
%ADD44C,0.180*%
%ADD45C,0.150*%
%ADD46C,0.300*%
%ADD47C,0.125*%
%ADD48C,0.200*%
%ADD49C,0.114*%
%ADD50C,0.250*%
%ADD51C,0.205*%
%ADD52R,0.450X2.959*%
%ADD53R,2.025X0.450*%
%ADD54R,1.650X0.550*%
%ADD55R,0.601X0.571*%
%ADD56R,0.763X0.125*%
%ADD57R,0.600X0.670*%
%ADD58R,0.598X0.716*%
%ADD59R,2.386X0.197*%
%ADD60R,0.350X3.200*%
%ADD61R,1.700X1.700*%
%ADD62C,1.700*%
%ADD63R,1.700X1.700*%
%ADD64C,2.400*%
%ADD65C,1.050*%
%ADD66C,3.600*%
%ADD67C,0.762*%
%ADD68C,0.500*%
%ADD69C,0.450*%
%ADD70C,0.400*%
%ADD71C,0.550*%
%ADD72C,0.500*%
%ADD73C,1.600*%
G04:AMPARAMS|DCode=74|XSize=2.524mm|YSize=2.524mm|CornerRadius=0mm|HoleSize=0mm|Usage=FLASHONLY|Rotation=0.000|XOffset=0mm|YOffset=0mm|HoleType=Round|Shape=Relief|Width=0.254mm|Gap=0.254mm|Entries=4|*
%AMTHD74*
7,0,0,2.524,2.016,0.254,45*
%
%ADD74THD74*%
%ADD75C,2.100*%
G04:AMPARAMS|DCode=76|XSize=3.124mm|YSize=3.124mm|CornerRadius=0mm|HoleSize=0mm|Usage=FLASHONLY|Rotation=0.000|XOffset=0mm|YOffset=0mm|HoleType=Round|Shape=Relief|Width=0.254mm|Gap=0.254mm|Entries=4|*
%AMTHD76*
7,0,0,3.124,2.616,0.254,45*
%
%ADD76THD76*%
G04:AMPARAMS|DCode=77|XSize=1.45mm|YSize=1.45mm|CornerRadius=0mm|HoleSize=0mm|Usage=FLASHONLY|Rotation=0.000|XOffset=0mm|YOffset=0mm|HoleType=Round|Shape=Relief|Width=0.2mm|Gap=0.2mm|Entries=4|*
%AMTHD77*
7,0,0,1.450,1.050,0.200,45*
%
%ADD77THD77*%
%ADD78C,1.250*%
G04:AMPARAMS|DCode=79|XSize=4.224mm|YSize=4.224mm|CornerRadius=0mm|HoleSize=0mm|Usage=FLASHONLY|Rotation=0.000|XOffset=0mm|YOffset=0mm|HoleType=Round|Shape=Relief|Width=0.254mm|Gap=0.254mm|Entries=4|*
%AMTHD79*
7,0,0,4.224,3.716,0.254,45*
%
%ADD79THD79*%
%ADD80C,0.800*%
%ADD81C,0.850*%
%ADD82C,0.400*%
%ADD83C,2.200*%
%ADD84C,3.300*%
%ADD85C,0.930*%
%ADD86C,1.270*%
%ADD87R,1.300X1.600*%
%ADD88R,0.600X0.250*%
%ADD89R,1.600X1.500*%
%ADD90C,0.280*%
%ADD91R,1.700X0.350*%
%ADD92R,1.300X0.600*%
%ADD93R,0.350X0.850*%
%ADD94R,0.950X1.750*%
%ADD95C,0.300*%
%ADD96C,0.800*%
G36*
X-462Y-59538D02*
X-59538D01*
Y-23106D01*
X-59432Y-23000D01*
X-53500Y-23000D01*
Y-19000D01*
X-59538D01*
Y-462D01*
X-54325D01*
X-54081Y-649D01*
X-53793Y-769D01*
X-53491Y-809D01*
X-53483Y-812D01*
X-43434D01*
X-43426Y-809D01*
X-43124Y-769D01*
X-42836Y-649D01*
X-42592Y-462D01*
X-21441D01*
X-21197Y-649D01*
X-20909Y-769D01*
X-20607Y-809D01*
X-20599Y-812D01*
X-10600D01*
X-10592Y-809D01*
X-10290Y-769D01*
X-10002Y-649D01*
X-9758Y-462D01*
X-462D01*
Y-59538D01*
D02*
G37*
%LPC*%
G36*
X-6970Y-32801D02*
X-7231Y-32836D01*
X-7474Y-32937D01*
X-7683Y-33097D01*
X-7843Y-33306D01*
X-7944Y-33549D01*
X-7979Y-33810D01*
X-7944Y-34071D01*
X-7843Y-34314D01*
X-7683Y-34523D01*
X-7474Y-34683D01*
X-7231Y-34784D01*
X-6970Y-34819D01*
X-6709Y-34784D01*
X-6466Y-34683D01*
X-6257Y-34523D01*
X-6096Y-34314D01*
X-5996Y-34071D01*
X-5961Y-33810D01*
X-5996Y-33549D01*
X-6096Y-33306D01*
X-6257Y-33097D01*
X-6466Y-32937D01*
X-6709Y-32836D01*
X-6970Y-32801D01*
D02*
G37*
G36*
X-4430D02*
X-4691Y-32836D01*
X-4934Y-32937D01*
X-5143Y-33097D01*
X-5303Y-33306D01*
X-5404Y-33549D01*
X-5439Y-33810D01*
X-5404Y-34071D01*
X-5303Y-34314D01*
X-5143Y-34523D01*
X-4934Y-34683D01*
X-4691Y-34784D01*
X-4430Y-34819D01*
X-4169Y-34784D01*
X-3926Y-34683D01*
X-3717Y-34523D01*
X-3556Y-34314D01*
X-3456Y-34071D01*
X-3421Y-33810D01*
X-3456Y-33549D01*
X-3556Y-33306D01*
X-3717Y-33097D01*
X-3926Y-32937D01*
X-4169Y-32836D01*
X-4430Y-32801D01*
D02*
G37*
G36*
Y-35341D02*
X-4691Y-35376D01*
X-4934Y-35477D01*
X-5143Y-35637D01*
X-5303Y-35846D01*
X-5404Y-36089D01*
X-5439Y-36350D01*
X-5404Y-36611D01*
X-5303Y-36854D01*
X-5143Y-37063D01*
X-4934Y-37223D01*
X-4691Y-37324D01*
X-4430Y-37359D01*
X-4169Y-37324D01*
X-3926Y-37223D01*
X-3717Y-37063D01*
X-3556Y-36854D01*
X-3456Y-36611D01*
X-3421Y-36350D01*
X-3456Y-36089D01*
X-3556Y-35846D01*
X-3717Y-35637D01*
X-3926Y-35477D01*
X-4169Y-35376D01*
X-4430Y-35341D01*
D02*
G37*
G36*
X-49100Y-32692D02*
X-49256Y-32723D01*
X-49388Y-32812D01*
X-49477Y-32944D01*
X-49508Y-33100D01*
X-49477Y-33256D01*
X-49388Y-33388D01*
X-49256Y-33477D01*
X-49100Y-33508D01*
X-48944Y-33477D01*
X-48812Y-33388D01*
X-48789Y-33355D01*
X-45425D01*
X-44374Y-34405D01*
X-44292Y-34460D01*
X-44276Y-34464D01*
X-44194Y-34480D01*
X-43835D01*
X-43723Y-34555D01*
X-43591Y-34581D01*
X-43030Y-35142D01*
Y-37103D01*
X-43150Y-37192D01*
X-43187Y-37181D01*
X-43210Y-37069D01*
X-43298Y-36937D01*
X-43430Y-36848D01*
X-43586Y-36817D01*
X-43743Y-36848D01*
X-43875Y-36937D01*
X-43963Y-37069D01*
X-43994Y-37225D01*
X-43963Y-37381D01*
X-43875Y-37513D01*
X-43841Y-37536D01*
Y-41510D01*
X-43822Y-41608D01*
X-43767Y-41691D01*
X-43602Y-41855D01*
Y-45189D01*
X-43636Y-45212D01*
X-43724Y-45344D01*
X-43755Y-45500D01*
X-43724Y-45656D01*
X-43636Y-45788D01*
X-43504Y-45877D01*
X-43348Y-45908D01*
X-43225Y-45884D01*
X-43109Y-45979D01*
Y-47702D01*
X-43149Y-47729D01*
X-43237Y-47861D01*
X-43268Y-48017D01*
X-43237Y-48173D01*
X-43149Y-48305D01*
X-43016Y-48394D01*
X-42860Y-48425D01*
X-42704Y-48394D01*
X-42572Y-48305D01*
X-42484Y-48173D01*
X-42454Y-48025D01*
X-42454D01*
X-42454Y-48025D01*
X-42416Y-48029D01*
X-42416Y-48029D01*
X-42386Y-48032D01*
X-42305Y-48106D01*
Y-49464D01*
X-42338Y-49487D01*
X-42427Y-49619D01*
X-42458Y-49775D01*
X-42427Y-49931D01*
X-42338Y-50063D01*
X-42206Y-50152D01*
X-42050Y-50183D01*
X-41920Y-50157D01*
X-41836Y-50282D01*
X-41916Y-50401D01*
X-41947Y-50557D01*
X-41916Y-50713D01*
X-41828Y-50845D01*
X-41695Y-50934D01*
X-41539Y-50965D01*
X-41383Y-50934D01*
X-41251Y-50845D01*
X-41162Y-50713D01*
X-41131Y-50557D01*
X-41162Y-50401D01*
X-41251Y-50268D01*
X-41284Y-50246D01*
Y-48308D01*
X-41295Y-48254D01*
Y-47768D01*
X-41179Y-47672D01*
X-41025Y-47703D01*
X-40869Y-47672D01*
X-40737Y-47584D01*
X-40648Y-47451D01*
X-40617Y-47295D01*
X-40648Y-47139D01*
X-40737Y-47007D01*
X-40770Y-46985D01*
Y-39445D01*
X-40790Y-39348D01*
X-40808Y-39320D01*
X-40845Y-39265D01*
X-42058Y-38052D01*
Y-34503D01*
X-42078Y-34405D01*
X-42133Y-34323D01*
X-42911Y-33545D01*
X-42994Y-33489D01*
X-43091Y-33470D01*
X-43586D01*
X-43650Y-33483D01*
X-43736D01*
X-43755Y-33455D01*
X-43879Y-33372D01*
X-44025Y-33343D01*
X-44171Y-33372D01*
X-44295Y-33455D01*
X-44353Y-33541D01*
X-44503Y-33556D01*
X-45139Y-32920D01*
X-45222Y-32865D01*
X-45319Y-32845D01*
X-48789D01*
X-48812Y-32812D01*
X-48944Y-32723D01*
X-49100Y-32692D01*
D02*
G37*
G36*
X-44035Y-29994D02*
X-44201Y-30027D01*
X-44341Y-30121D01*
X-44435Y-30262D01*
X-44468Y-30428D01*
X-44435Y-30594D01*
X-44341Y-30734D01*
X-44201Y-30828D01*
X-44035Y-30861D01*
X-43869Y-30828D01*
X-43729Y-30734D01*
X-43635Y-30594D01*
X-43602Y-30428D01*
X-43635Y-30262D01*
X-43729Y-30121D01*
X-43869Y-30027D01*
X-44035Y-29994D01*
D02*
G37*
G36*
X-4492Y-28792D02*
X-5405D01*
X-5380Y-28985D01*
X-5282Y-29222D01*
X-5125Y-29425D01*
X-4922Y-29582D01*
X-4685Y-29680D01*
X-4492Y-29705D01*
Y-28792D01*
D02*
G37*
G36*
X-6970Y-30261D02*
X-7231Y-30296D01*
X-7474Y-30397D01*
X-7683Y-30557D01*
X-7843Y-30766D01*
X-7944Y-31009D01*
X-7979Y-31270D01*
X-7944Y-31531D01*
X-7843Y-31774D01*
X-7683Y-31983D01*
X-7474Y-32144D01*
X-7231Y-32244D01*
X-6970Y-32279D01*
X-6709Y-32244D01*
X-6466Y-32144D01*
X-6257Y-31983D01*
X-6096Y-31774D01*
X-5996Y-31531D01*
X-5961Y-31270D01*
X-5996Y-31009D01*
X-6096Y-30766D01*
X-6257Y-30557D01*
X-6466Y-30397D01*
X-6709Y-30296D01*
X-6970Y-30261D01*
D02*
G37*
G36*
X-4430D02*
X-4691Y-30296D01*
X-4934Y-30397D01*
X-5143Y-30557D01*
X-5303Y-30766D01*
X-5404Y-31009D01*
X-5439Y-31270D01*
X-5404Y-31531D01*
X-5303Y-31774D01*
X-5143Y-31983D01*
X-4934Y-32144D01*
X-4691Y-32244D01*
X-4430Y-32279D01*
X-4169Y-32244D01*
X-3926Y-32144D01*
X-3717Y-31983D01*
X-3556Y-31774D01*
X-3456Y-31531D01*
X-3421Y-31270D01*
X-3456Y-31009D01*
X-3556Y-30766D01*
X-3717Y-30557D01*
X-3926Y-30397D01*
X-4169Y-30296D01*
X-4430Y-30261D01*
D02*
G37*
G36*
X-6970Y-40421D02*
X-7231Y-40456D01*
X-7474Y-40557D01*
X-7683Y-40717D01*
X-7843Y-40926D01*
X-7944Y-41169D01*
X-7979Y-41430D01*
X-7944Y-41691D01*
X-7843Y-41934D01*
X-7683Y-42143D01*
X-7474Y-42304D01*
X-7231Y-42404D01*
X-6970Y-42439D01*
X-6709Y-42404D01*
X-6466Y-42304D01*
X-6257Y-42143D01*
X-6096Y-41934D01*
X-5996Y-41691D01*
X-5961Y-41430D01*
X-5996Y-41169D01*
X-6096Y-40926D01*
X-6257Y-40717D01*
X-6466Y-40557D01*
X-6709Y-40456D01*
X-6970Y-40421D01*
D02*
G37*
G36*
X-4430D02*
X-4691Y-40456D01*
X-4934Y-40557D01*
X-5143Y-40717D01*
X-5303Y-40926D01*
X-5404Y-41169D01*
X-5439Y-41430D01*
X-5404Y-41691D01*
X-5303Y-41934D01*
X-5143Y-42143D01*
X-4934Y-42304D01*
X-4691Y-42404D01*
X-4430Y-42439D01*
X-4169Y-42404D01*
X-3926Y-42304D01*
X-3717Y-42143D01*
X-3556Y-41934D01*
X-3456Y-41691D01*
X-3421Y-41430D01*
X-3456Y-41169D01*
X-3556Y-40926D01*
X-3717Y-40717D01*
X-3926Y-40557D01*
X-4169Y-40456D01*
X-4430Y-40421D01*
D02*
G37*
G36*
Y-42961D02*
X-4691Y-42996D01*
X-4934Y-43097D01*
X-5143Y-43257D01*
X-5303Y-43466D01*
X-5404Y-43709D01*
X-5439Y-43970D01*
X-5404Y-44231D01*
X-5303Y-44474D01*
X-5143Y-44683D01*
X-4934Y-44843D01*
X-4691Y-44944D01*
X-4430Y-44979D01*
X-4169Y-44944D01*
X-3926Y-44843D01*
X-3717Y-44683D01*
X-3556Y-44474D01*
X-3456Y-44231D01*
X-3421Y-43970D01*
X-3456Y-43709D01*
X-3556Y-43466D01*
X-3717Y-43257D01*
X-3926Y-43097D01*
X-4169Y-42996D01*
X-4430Y-42961D01*
D02*
G37*
G36*
X-32975Y-41576D02*
X-33190Y-41619D01*
X-33372Y-41740D01*
X-33493Y-41922D01*
X-33536Y-42137D01*
X-33493Y-42351D01*
X-33372Y-42533D01*
X-33190Y-42655D01*
X-32975Y-42698D01*
X-32760Y-42655D01*
X-32579Y-42533D01*
X-32457Y-42351D01*
X-32414Y-42137D01*
X-32457Y-41922D01*
X-32579Y-41740D01*
X-32760Y-41619D01*
X-32975Y-41576D01*
D02*
G37*
G36*
X-44631Y-38317D02*
X-44787Y-38348D01*
X-44920Y-38437D01*
X-45008Y-38569D01*
X-45033Y-38695D01*
X-48789D01*
X-48812Y-38662D01*
X-48944Y-38573D01*
X-49100Y-38542D01*
X-49256Y-38573D01*
X-49388Y-38662D01*
X-49477Y-38794D01*
X-49508Y-38950D01*
X-49477Y-39106D01*
X-49388Y-39238D01*
X-49256Y-39327D01*
X-49100Y-39358D01*
X-48944Y-39327D01*
X-48812Y-39238D01*
X-48789Y-39205D01*
X-44856D01*
X-44759Y-39185D01*
X-44676Y-39130D01*
X-44671Y-39125D01*
X-44631Y-39133D01*
X-44475Y-39102D01*
X-44343Y-39013D01*
X-44254Y-38881D01*
X-44223Y-38725D01*
X-44254Y-38569D01*
X-44343Y-38437D01*
X-44475Y-38348D01*
X-44631Y-38317D01*
D02*
G37*
G36*
X-6970Y-35341D02*
X-7231Y-35376D01*
X-7474Y-35477D01*
X-7683Y-35637D01*
X-7843Y-35846D01*
X-7944Y-36089D01*
X-7979Y-36350D01*
X-7944Y-36611D01*
X-7843Y-36854D01*
X-7683Y-37063D01*
X-7474Y-37223D01*
X-7231Y-37324D01*
X-6970Y-37359D01*
X-6709Y-37324D01*
X-6466Y-37223D01*
X-6257Y-37063D01*
X-6096Y-36854D01*
X-5996Y-36611D01*
X-5961Y-36350D01*
X-5996Y-36089D01*
X-6096Y-35846D01*
X-6257Y-35637D01*
X-6466Y-35477D01*
X-6709Y-35376D01*
X-6970Y-35341D01*
D02*
G37*
G36*
Y-37881D02*
X-7231Y-37916D01*
X-7474Y-38017D01*
X-7683Y-38177D01*
X-7843Y-38386D01*
X-7944Y-38629D01*
X-7979Y-38890D01*
X-7944Y-39151D01*
X-7843Y-39394D01*
X-7683Y-39603D01*
X-7474Y-39764D01*
X-7231Y-39864D01*
X-6970Y-39899D01*
X-6709Y-39864D01*
X-6466Y-39764D01*
X-6257Y-39603D01*
X-6096Y-39394D01*
X-5996Y-39151D01*
X-5961Y-38890D01*
X-5996Y-38629D01*
X-6096Y-38386D01*
X-6257Y-38177D01*
X-6466Y-38017D01*
X-6709Y-37916D01*
X-6970Y-37881D01*
D02*
G37*
G36*
X-4430D02*
X-4691Y-37916D01*
X-4934Y-38017D01*
X-5143Y-38177D01*
X-5303Y-38386D01*
X-5404Y-38629D01*
X-5439Y-38890D01*
X-5404Y-39151D01*
X-5303Y-39394D01*
X-5143Y-39603D01*
X-4934Y-39764D01*
X-4691Y-39864D01*
X-4430Y-39899D01*
X-4169Y-39864D01*
X-3926Y-39764D01*
X-3717Y-39603D01*
X-3556Y-39394D01*
X-3456Y-39151D01*
X-3421Y-38890D01*
X-3456Y-38629D01*
X-3556Y-38386D01*
X-3717Y-38177D01*
X-3926Y-38017D01*
X-4169Y-37916D01*
X-4430Y-37881D01*
D02*
G37*
G36*
X-36186Y-16142D02*
X-36649D01*
Y-16529D01*
X-36186D01*
Y-16142D01*
D02*
G37*
G36*
X-26038Y-16062D02*
X-26425D01*
Y-16375D01*
X-26038D01*
Y-16062D01*
D02*
G37*
G36*
X-32212Y-18962D02*
X-32600D01*
Y-19275D01*
X-32212D01*
Y-18962D01*
D02*
G37*
G36*
Y-18525D02*
X-32600D01*
Y-18837D01*
X-32212D01*
Y-18525D01*
D02*
G37*
G36*
X-26038Y-15163D02*
X-26425D01*
Y-15475D01*
X-26038D01*
Y-15163D01*
D02*
G37*
G36*
Y-14725D02*
X-26425D01*
Y-15038D01*
X-26038D01*
Y-14725D01*
D02*
G37*
G36*
X-36186Y-15629D02*
X-36649D01*
Y-16017D01*
X-36186D01*
Y-15629D01*
D02*
G37*
G36*
X-26038Y-15625D02*
X-26425D01*
Y-15938D01*
X-26038D01*
Y-15625D01*
D02*
G37*
G36*
X-4367Y-27755D02*
Y-28667D01*
X-3455D01*
X-3480Y-28475D01*
X-3578Y-28238D01*
X-3735Y-28035D01*
X-3938Y-27878D01*
X-4175Y-27780D01*
X-4367Y-27755D01*
D02*
G37*
G36*
X-41460Y-24488D02*
X-41616Y-24519D01*
X-41748Y-24608D01*
X-41836Y-24740D01*
X-41867Y-24896D01*
X-41860Y-24936D01*
X-41975Y-25051D01*
X-42052Y-25036D01*
X-42125Y-25013D01*
X-42154Y-24865D01*
X-42242Y-24733D01*
X-42375Y-24645D01*
X-42531Y-24614D01*
X-42687Y-24645D01*
X-42819Y-24733D01*
X-42908Y-24865D01*
X-42939Y-25021D01*
X-42908Y-25177D01*
X-42819Y-25310D01*
X-42786Y-25332D01*
Y-25517D01*
X-42918Y-25587D01*
X-43031Y-25512D01*
X-43197Y-25479D01*
X-43363Y-25512D01*
X-43503Y-25606D01*
X-43597Y-25746D01*
X-43630Y-25912D01*
X-43597Y-26078D01*
X-43503Y-26219D01*
X-43363Y-26313D01*
X-43197Y-26346D01*
X-43031Y-26313D01*
X-42918Y-26237D01*
X-42786Y-26308D01*
Y-26792D01*
X-42918Y-26863D01*
X-43025Y-26791D01*
X-43239Y-26749D01*
X-43454Y-26791D01*
X-43636Y-26913D01*
X-43758Y-27095D01*
X-43800Y-27309D01*
X-43758Y-27524D01*
X-43636Y-27706D01*
X-43454Y-27827D01*
X-43239Y-27870D01*
X-43025Y-27827D01*
X-42918Y-27756D01*
X-42786Y-27827D01*
Y-28571D01*
X-42918Y-28642D01*
X-43025Y-28570D01*
X-43239Y-28528D01*
X-43454Y-28570D01*
X-43636Y-28692D01*
X-43758Y-28874D01*
X-43800Y-29088D01*
X-43758Y-29303D01*
X-43636Y-29485D01*
X-43454Y-29607D01*
X-43239Y-29649D01*
X-43025Y-29607D01*
X-42918Y-29535D01*
X-42786Y-29606D01*
Y-29975D01*
X-42766Y-30073D01*
X-42711Y-30155D01*
X-41906Y-30960D01*
X-41880Y-31093D01*
X-41802Y-31208D01*
X-41687Y-31286D01*
X-41550Y-31313D01*
X-41413Y-31286D01*
X-41298Y-31208D01*
X-41238D01*
X-41123Y-31286D01*
X-40986Y-31313D01*
X-40850Y-31286D01*
X-40734Y-31208D01*
X-40656Y-31093D01*
X-40629Y-30956D01*
X-40656Y-30819D01*
X-40734Y-30704D01*
X-40850Y-30626D01*
X-40935Y-30609D01*
X-41824Y-29720D01*
Y-25621D01*
X-41499Y-25296D01*
X-41460Y-25304D01*
X-41304Y-25273D01*
X-41171Y-25184D01*
X-41083Y-25052D01*
X-41052Y-24896D01*
X-41083Y-24740D01*
X-41171Y-24608D01*
X-41304Y-24519D01*
X-41460Y-24488D01*
D02*
G37*
G36*
X-3455Y-28792D02*
X-4367D01*
Y-29705D01*
X-4175Y-29680D01*
X-3938Y-29582D01*
X-3735Y-29425D01*
X-3578Y-29222D01*
X-3480Y-28985D01*
X-3455Y-28792D01*
D02*
G37*
G36*
X-4492Y-27755D02*
X-4685Y-27780D01*
X-4922Y-27878D01*
X-5125Y-28035D01*
X-5282Y-28238D01*
X-5380Y-28475D01*
X-5405Y-28667D01*
X-4492D01*
Y-27755D01*
D02*
G37*
G36*
X-29625Y-22438D02*
X-29938D01*
Y-22825D01*
X-29625D01*
Y-22438D01*
D02*
G37*
G36*
X-32250Y-19475D02*
X-33300D01*
Y-20525D01*
X-33162D01*
X-33092Y-20657D01*
X-33152Y-20747D01*
X-33183Y-20903D01*
X-33152Y-21060D01*
X-33063Y-21192D01*
X-32931Y-21280D01*
X-32775Y-21311D01*
X-32619Y-21280D01*
X-32487Y-21192D01*
X-32398Y-21060D01*
X-32367Y-20903D01*
X-32398Y-20747D01*
X-32458Y-20657D01*
X-32388Y-20525D01*
X-32250D01*
Y-19475D01*
D02*
G37*
G36*
X-41649Y-22827D02*
X-41864Y-22870D01*
X-42046Y-22991D01*
X-42167Y-23173D01*
X-42210Y-23388D01*
X-42167Y-23603D01*
X-42046Y-23785D01*
X-41864Y-23906D01*
X-41649Y-23949D01*
X-41435Y-23906D01*
X-41253Y-23785D01*
X-41131Y-23603D01*
X-41088Y-23388D01*
X-41131Y-23173D01*
X-41253Y-22991D01*
X-41435Y-22870D01*
X-41649Y-22827D01*
D02*
G37*
G36*
X-30938Y-22438D02*
X-31250D01*
Y-22825D01*
X-30938D01*
Y-22438D01*
D02*
G37*
G36*
X-7032Y-51653D02*
X-7945D01*
X-7920Y-51845D01*
X-7822Y-52082D01*
X-7665Y-52285D01*
X-7462Y-52442D01*
X-7225Y-52540D01*
X-7032Y-52565D01*
Y-51653D01*
D02*
G37*
G36*
X-5995D02*
X-6907D01*
Y-52565D01*
X-6715Y-52540D01*
X-6478Y-52442D01*
X-6275Y-52285D01*
X-6118Y-52082D01*
X-6020Y-51845D01*
X-5995Y-51653D01*
D02*
G37*
G36*
X-51327Y-51382D02*
X-52592D01*
Y-52648D01*
X-52309Y-52611D01*
X-51987Y-52477D01*
X-51710Y-52265D01*
X-51498Y-51988D01*
X-51364Y-51666D01*
X-51327Y-51382D01*
D02*
G37*
G36*
X-4430Y-50581D02*
X-4691Y-50616D01*
X-4934Y-50717D01*
X-5143Y-50877D01*
X-5303Y-51086D01*
X-5404Y-51329D01*
X-5439Y-51590D01*
X-5404Y-51851D01*
X-5303Y-52094D01*
X-5143Y-52303D01*
X-4934Y-52464D01*
X-4691Y-52564D01*
X-4430Y-52599D01*
X-4169Y-52564D01*
X-3926Y-52464D01*
X-3717Y-52303D01*
X-3556Y-52094D01*
X-3456Y-51851D01*
X-3421Y-51590D01*
X-3456Y-51329D01*
X-3556Y-51086D01*
X-3717Y-50877D01*
X-3926Y-50717D01*
X-4169Y-50616D01*
X-4430Y-50581D01*
D02*
G37*
G36*
X-57798Y-49992D02*
X-58081Y-50029D01*
X-58403Y-50163D01*
X-58680Y-50375D01*
X-58892Y-50652D01*
X-59026Y-50974D01*
X-59063Y-51257D01*
X-57798D01*
Y-49992D01*
D02*
G37*
G36*
X-57673D02*
Y-51257D01*
X-56407D01*
X-56444Y-50974D01*
X-56578Y-50652D01*
X-56790Y-50375D01*
X-57067Y-50163D01*
X-57389Y-50029D01*
X-57673Y-49992D01*
D02*
G37*
G36*
X-7032Y-50615D02*
X-7225Y-50640D01*
X-7462Y-50738D01*
X-7665Y-50895D01*
X-7822Y-51098D01*
X-7920Y-51335D01*
X-7945Y-51528D01*
X-7032D01*
Y-50615D01*
D02*
G37*
G36*
X-6907D02*
Y-51528D01*
X-5995D01*
X-6020Y-51335D01*
X-6118Y-51098D01*
X-6275Y-50895D01*
X-6478Y-50738D01*
X-6715Y-50640D01*
X-6907Y-50615D01*
D02*
G37*
G36*
X-40455Y-53092D02*
X-41368D01*
Y-54005D01*
X-41175Y-53980D01*
X-40938Y-53882D01*
X-40735Y-53725D01*
X-40578Y-53522D01*
X-40480Y-53285D01*
X-40455Y-53092D01*
D02*
G37*
G36*
X-41493Y-52055D02*
X-41685Y-52080D01*
X-41922Y-52178D01*
X-42125Y-52335D01*
X-42282Y-52538D01*
X-42380Y-52775D01*
X-42405Y-52967D01*
X-41493D01*
Y-52055D01*
D02*
G37*
G36*
X-43700Y-52442D02*
X-43856Y-52473D01*
X-43988Y-52562D01*
X-44077Y-52694D01*
X-44108Y-52850D01*
X-44077Y-53006D01*
X-43988Y-53138D01*
X-43955Y-53161D01*
Y-58064D01*
X-43988Y-58087D01*
X-44077Y-58219D01*
X-44108Y-58375D01*
X-44077Y-58531D01*
X-43988Y-58663D01*
X-43856Y-58752D01*
X-43700Y-58783D01*
X-43544Y-58752D01*
X-43412Y-58663D01*
X-43323Y-58531D01*
X-43292Y-58375D01*
X-43323Y-58219D01*
X-43412Y-58087D01*
X-43445Y-58064D01*
Y-53161D01*
X-43412Y-53138D01*
X-43323Y-53006D01*
X-43292Y-52850D01*
X-43323Y-52694D01*
X-43412Y-52562D01*
X-43544Y-52473D01*
X-43700Y-52442D01*
D02*
G37*
G36*
X-41493Y-53092D02*
X-42405D01*
X-42380Y-53285D01*
X-42282Y-53522D01*
X-42125Y-53725D01*
X-41922Y-53882D01*
X-41685Y-53980D01*
X-41493Y-54005D01*
Y-53092D01*
D02*
G37*
G36*
X-56407Y-51382D02*
X-57673D01*
Y-52648D01*
X-57389Y-52611D01*
X-57067Y-52477D01*
X-56790Y-52265D01*
X-56578Y-51988D01*
X-56444Y-51666D01*
X-56407Y-51382D01*
D02*
G37*
G36*
X-52717D02*
X-53983D01*
X-53946Y-51666D01*
X-53812Y-51988D01*
X-53600Y-52265D01*
X-53323Y-52477D01*
X-53001Y-52611D01*
X-52717Y-52648D01*
Y-51382D01*
D02*
G37*
G36*
X-41368Y-52055D02*
Y-52967D01*
X-40455D01*
X-40480Y-52775D01*
X-40578Y-52538D01*
X-40735Y-52335D01*
X-40938Y-52178D01*
X-41175Y-52080D01*
X-41368Y-52055D01*
D02*
G37*
G36*
X-57798Y-51382D02*
X-59063D01*
X-59026Y-51666D01*
X-58892Y-51988D01*
X-58680Y-52265D01*
X-58403Y-52477D01*
X-58081Y-52611D01*
X-57798Y-52648D01*
Y-51382D01*
D02*
G37*
G36*
X-4430Y-45501D02*
X-4691Y-45536D01*
X-4934Y-45637D01*
X-5143Y-45797D01*
X-5303Y-46006D01*
X-5404Y-46249D01*
X-5439Y-46510D01*
X-5404Y-46771D01*
X-5303Y-47014D01*
X-5143Y-47223D01*
X-4934Y-47383D01*
X-4691Y-47484D01*
X-4430Y-47519D01*
X-4169Y-47484D01*
X-3926Y-47383D01*
X-3717Y-47223D01*
X-3556Y-47014D01*
X-3456Y-46771D01*
X-3421Y-46510D01*
X-3456Y-46249D01*
X-3556Y-46006D01*
X-3717Y-45797D01*
X-3926Y-45637D01*
X-4169Y-45536D01*
X-4430Y-45501D01*
D02*
G37*
G36*
X-57798Y-44912D02*
X-58081Y-44949D01*
X-58403Y-45083D01*
X-58680Y-45295D01*
X-58892Y-45572D01*
X-59026Y-45894D01*
X-59063Y-46178D01*
X-57798D01*
Y-44912D01*
D02*
G37*
G36*
X-51327Y-46303D02*
X-52592D01*
Y-47568D01*
X-52309Y-47531D01*
X-51987Y-47397D01*
X-51710Y-47185D01*
X-51498Y-46908D01*
X-51364Y-46586D01*
X-51327Y-46303D01*
D02*
G37*
G36*
X-6970Y-45501D02*
X-7231Y-45536D01*
X-7474Y-45637D01*
X-7683Y-45797D01*
X-7843Y-46006D01*
X-7944Y-46249D01*
X-7979Y-46510D01*
X-7944Y-46771D01*
X-7843Y-47014D01*
X-7683Y-47223D01*
X-7474Y-47383D01*
X-7231Y-47484D01*
X-6970Y-47519D01*
X-6709Y-47484D01*
X-6466Y-47383D01*
X-6257Y-47223D01*
X-6096Y-47014D01*
X-5996Y-46771D01*
X-5961Y-46510D01*
X-5996Y-46249D01*
X-6096Y-46006D01*
X-6257Y-45797D01*
X-6466Y-45637D01*
X-6709Y-45536D01*
X-6970Y-45501D01*
D02*
G37*
G36*
X-52592Y-44912D02*
Y-46178D01*
X-51327D01*
X-51364Y-45894D01*
X-51498Y-45572D01*
X-51710Y-45295D01*
X-51987Y-45083D01*
X-52309Y-44949D01*
X-52592Y-44912D01*
D02*
G37*
G36*
X-6970Y-42961D02*
X-7231Y-42996D01*
X-7474Y-43097D01*
X-7683Y-43257D01*
X-7843Y-43466D01*
X-7944Y-43709D01*
X-7979Y-43970D01*
X-7944Y-44231D01*
X-7843Y-44474D01*
X-7683Y-44683D01*
X-7474Y-44843D01*
X-7231Y-44944D01*
X-6970Y-44979D01*
X-6709Y-44944D01*
X-6466Y-44843D01*
X-6257Y-44683D01*
X-6096Y-44474D01*
X-5996Y-44231D01*
X-5961Y-43970D01*
X-5996Y-43709D01*
X-6096Y-43466D01*
X-6257Y-43257D01*
X-6466Y-43097D01*
X-6709Y-42996D01*
X-6970Y-42961D01*
D02*
G37*
G36*
X-57673Y-44912D02*
Y-46178D01*
X-56407D01*
X-56444Y-45894D01*
X-56578Y-45572D01*
X-56790Y-45295D01*
X-57067Y-45083D01*
X-57389Y-44949D01*
X-57673Y-44912D01*
D02*
G37*
G36*
X-52717D02*
X-53001Y-44949D01*
X-53323Y-45083D01*
X-53600Y-45295D01*
X-53812Y-45572D01*
X-53946Y-45894D01*
X-53983Y-46178D01*
X-52717D01*
Y-44912D01*
D02*
G37*
G36*
X-55195Y-47172D02*
X-55509Y-47203D01*
X-55810Y-47295D01*
X-56088Y-47443D01*
X-56332Y-47643D01*
X-56532Y-47887D01*
X-56680Y-48165D01*
X-56772Y-48466D01*
X-56803Y-48780D01*
X-56772Y-49094D01*
X-56680Y-49395D01*
X-56532Y-49673D01*
X-56332Y-49917D01*
X-56088Y-50117D01*
X-55810Y-50265D01*
X-55509Y-50357D01*
X-55195Y-50388D01*
X-54881Y-50357D01*
X-54580Y-50265D01*
X-54302Y-50117D01*
X-54058Y-49917D01*
X-53858Y-49673D01*
X-53710Y-49395D01*
X-53618Y-49094D01*
X-53587Y-48780D01*
X-53618Y-48466D01*
X-53710Y-48165D01*
X-53858Y-47887D01*
X-54058Y-47643D01*
X-54302Y-47443D01*
X-54580Y-47295D01*
X-54881Y-47203D01*
X-55195Y-47172D01*
D02*
G37*
G36*
X-6970Y-48041D02*
X-7231Y-48076D01*
X-7474Y-48177D01*
X-7683Y-48337D01*
X-7843Y-48546D01*
X-7944Y-48789D01*
X-7979Y-49050D01*
X-7944Y-49311D01*
X-7843Y-49554D01*
X-7683Y-49763D01*
X-7474Y-49924D01*
X-7231Y-50024D01*
X-6970Y-50059D01*
X-6709Y-50024D01*
X-6466Y-49924D01*
X-6257Y-49763D01*
X-6096Y-49554D01*
X-5996Y-49311D01*
X-5961Y-49050D01*
X-5996Y-48789D01*
X-6096Y-48546D01*
X-6257Y-48337D01*
X-6466Y-48177D01*
X-6709Y-48076D01*
X-6970Y-48041D01*
D02*
G37*
G36*
X-52717Y-49992D02*
X-53001Y-50029D01*
X-53323Y-50163D01*
X-53600Y-50375D01*
X-53812Y-50652D01*
X-53946Y-50974D01*
X-53983Y-51257D01*
X-52717D01*
Y-49992D01*
D02*
G37*
G36*
X-52592D02*
Y-51257D01*
X-51327D01*
X-51364Y-50974D01*
X-51498Y-50652D01*
X-51710Y-50375D01*
X-51987Y-50163D01*
X-52309Y-50029D01*
X-52592Y-49992D01*
D02*
G37*
G36*
X-56407Y-46303D02*
X-57673D01*
Y-47568D01*
X-57389Y-47531D01*
X-57067Y-47397D01*
X-56790Y-47185D01*
X-56578Y-46908D01*
X-56444Y-46586D01*
X-56407Y-46303D01*
D02*
G37*
G36*
X-52717D02*
X-53983D01*
X-53946Y-46586D01*
X-53812Y-46908D01*
X-53600Y-47185D01*
X-53323Y-47397D01*
X-53001Y-47531D01*
X-52717Y-47568D01*
Y-46303D01*
D02*
G37*
G36*
X-4430Y-48041D02*
X-4691Y-48076D01*
X-4934Y-48177D01*
X-5143Y-48337D01*
X-5303Y-48546D01*
X-5404Y-48789D01*
X-5439Y-49050D01*
X-5404Y-49311D01*
X-5303Y-49554D01*
X-5143Y-49763D01*
X-4934Y-49924D01*
X-4691Y-50024D01*
X-4430Y-50059D01*
X-4169Y-50024D01*
X-3926Y-49924D01*
X-3717Y-49763D01*
X-3556Y-49554D01*
X-3456Y-49311D01*
X-3421Y-49050D01*
X-3456Y-48789D01*
X-3556Y-48546D01*
X-3717Y-48337D01*
X-3926Y-48177D01*
X-4169Y-48076D01*
X-4430Y-48041D01*
D02*
G37*
G36*
X-57798Y-46303D02*
X-59063D01*
X-59026Y-46586D01*
X-58892Y-46908D01*
X-58680Y-47185D01*
X-58403Y-47397D01*
X-58081Y-47531D01*
X-57798Y-47568D01*
Y-46303D01*
D02*
G37*
G36*
X-41270Y-9941D02*
X-41531Y-9976D01*
X-41774Y-10076D01*
X-41983Y-10237D01*
X-42143Y-10446D01*
X-42244Y-10689D01*
X-42279Y-10950D01*
X-42244Y-11211D01*
X-42143Y-11454D01*
X-41983Y-11663D01*
X-41774Y-11823D01*
X-41531Y-11924D01*
X-41270Y-11959D01*
X-41009Y-11924D01*
X-40766Y-11823D01*
X-40557Y-11663D01*
X-40396Y-11454D01*
X-40296Y-11211D01*
X-40261Y-10950D01*
X-40296Y-10689D01*
X-40396Y-10446D01*
X-40557Y-10237D01*
X-40766Y-10076D01*
X-41009Y-9976D01*
X-41270Y-9941D01*
D02*
G37*
G36*
X-38730D02*
X-38991Y-9976D01*
X-39234Y-10076D01*
X-39443Y-10237D01*
X-39603Y-10446D01*
X-39704Y-10689D01*
X-39739Y-10950D01*
X-39704Y-11211D01*
X-39603Y-11454D01*
X-39443Y-11663D01*
X-39234Y-11823D01*
X-38991Y-11924D01*
X-38730Y-11959D01*
X-38469Y-11924D01*
X-38226Y-11823D01*
X-38017Y-11663D01*
X-37856Y-11454D01*
X-37756Y-11211D01*
X-37721Y-10950D01*
X-37756Y-10689D01*
X-37856Y-10446D01*
X-38017Y-10237D01*
X-38226Y-10076D01*
X-38469Y-9976D01*
X-38730Y-9941D01*
D02*
G37*
G36*
X-1075Y-11163D02*
X-1538D01*
Y-11550D01*
X-1075D01*
Y-11163D01*
D02*
G37*
G36*
X-26875Y-3312D02*
X-27337D01*
Y-3700D01*
X-26875D01*
Y-3312D01*
D02*
G37*
G36*
X-43146Y-11177D02*
X-43361Y-11220D01*
X-43543Y-11341D01*
X-43664Y-11523D01*
X-43707Y-11738D01*
X-43664Y-11952D01*
X-43543Y-12134D01*
X-43361Y-12256D01*
X-43146Y-12298D01*
X-42932Y-12256D01*
X-42750Y-12134D01*
X-42628Y-11952D01*
X-42586Y-11738D01*
X-42628Y-11523D01*
X-42750Y-11341D01*
X-42932Y-11220D01*
X-43146Y-11177D01*
D02*
G37*
G36*
X-33000Y-683D02*
X-33211Y-711D01*
X-33409Y-792D01*
X-33578Y-922D01*
X-33708Y-1092D01*
X-33789Y-1289D01*
X-33817Y-1500D01*
X-33789Y-1711D01*
X-33708Y-1908D01*
X-33578Y-2078D01*
X-33409Y-2208D01*
X-33211Y-2289D01*
X-33000Y-2317D01*
X-32789Y-2289D01*
X-32660Y-2236D01*
X-32527Y-2369D01*
X-32533Y-2400D01*
X-32500Y-2566D01*
X-32406Y-2706D01*
X-32266Y-2800D01*
X-32100Y-2833D01*
X-32094Y-2832D01*
X-31978Y-2927D01*
Y-4111D01*
X-32111Y-4182D01*
X-32234Y-4100D01*
X-32400Y-4067D01*
X-32566Y-4100D01*
X-32706Y-4194D01*
X-32800Y-4334D01*
X-32833Y-4500D01*
X-32817Y-4584D01*
X-32912Y-4700D01*
X-32975D01*
Y-4700D01*
X-33034Y-4800D01*
X-33200Y-4767D01*
X-33366Y-4800D01*
X-33506Y-4894D01*
X-33600Y-5034D01*
X-33633Y-5200D01*
X-33600Y-5366D01*
X-33506Y-5506D01*
X-33366Y-5600D01*
X-33200Y-5633D01*
X-33034Y-5600D01*
D01*
Y-5600D01*
X-32975Y-5700D01*
Y-5700D01*
X-32912D01*
X-32817Y-5816D01*
X-32833Y-5900D01*
X-32800Y-6066D01*
X-32706Y-6206D01*
X-32566Y-6300D01*
X-32442Y-6325D01*
Y-6475D01*
X-32566Y-6500D01*
X-32706Y-6594D01*
X-32800Y-6734D01*
X-32833Y-6900D01*
X-32800Y-7066D01*
X-32799Y-7068D01*
X-32870Y-7200D01*
X-32975D01*
Y-7247D01*
X-33107Y-7318D01*
X-33134Y-7300D01*
X-33300Y-7267D01*
X-33466Y-7300D01*
X-33606Y-7394D01*
X-33700Y-7534D01*
X-33733Y-7700D01*
X-33700Y-7866D01*
X-33606Y-8006D01*
X-33466Y-8100D01*
X-33300Y-8133D01*
X-33134Y-8100D01*
X-33107Y-8082D01*
X-32975Y-8153D01*
Y-8200D01*
X-32870D01*
X-32799Y-8332D01*
X-32800Y-8334D01*
X-32833Y-8500D01*
X-32800Y-8666D01*
X-32706Y-8806D01*
X-32566Y-8900D01*
X-32400Y-8933D01*
X-32234Y-8900D01*
X-32111Y-8818D01*
X-31978Y-8889D01*
Y-9200D01*
X-31965Y-9268D01*
X-31926Y-9326D01*
X-31868Y-9365D01*
X-31800Y-9378D01*
X-29725D01*
Y-10008D01*
X-29725D01*
Y-10031D01*
X-29733Y-10038D01*
X-29733D01*
X-29841Y-10126D01*
X-29900Y-10114D01*
X-30115Y-10157D01*
X-30297Y-10278D01*
X-30418Y-10460D01*
X-30461Y-10675D01*
X-30418Y-10890D01*
X-30297Y-11072D01*
X-30115Y-11193D01*
X-29900Y-11236D01*
X-29685Y-11193D01*
X-29503Y-11072D01*
X-29382Y-10890D01*
X-29339Y-10675D01*
X-29382Y-10460D01*
X-29503Y-10278D01*
X-29631Y-10194D01*
X-29609Y-10121D01*
X-29609D01*
X-29593Y-10071D01*
D01*
X-29587Y-10050D01*
X-28425D01*
Y-9900D01*
Y-9378D01*
X-28300D01*
X-28232Y-9365D01*
X-28174Y-9326D01*
X-28135Y-9268D01*
X-28122Y-9200D01*
Y-7425D01*
X-28081Y-7375D01*
X-27763D01*
Y-6500D01*
Y-5625D01*
X-28625D01*
Y-5450D01*
X-28845D01*
Y-5106D01*
X-28740Y-5000D01*
X-28025D01*
Y-4000D01*
X-28345D01*
Y-3750D01*
X-28025D01*
Y-3700D01*
X-27925D01*
Y-3700D01*
X-27462D01*
Y-3250D01*
Y-2800D01*
X-27631D01*
X-27691Y-2688D01*
X-27663Y-2646D01*
X-27644Y-2549D01*
Y-2549D01*
Y-1938D01*
X-27484Y-1831D01*
X-27357Y-1641D01*
X-27312Y-1416D01*
X-27357Y-1192D01*
X-27484Y-1002D01*
X-27674Y-875D01*
X-27899Y-830D01*
X-28123Y-875D01*
X-28313Y-1002D01*
X-28440Y-1192D01*
X-28485Y-1416D01*
X-28440Y-1641D01*
X-28313Y-1831D01*
X-28154Y-1938D01*
Y-2443D01*
X-28460Y-2750D01*
X-28773D01*
X-28871Y-2641D01*
X-28874Y-2615D01*
Y-2589D01*
X-28877Y-2581D01*
X-28878Y-2572D01*
X-28890Y-2549D01*
X-28900Y-2524D01*
X-28907Y-2518D01*
X-28911Y-2510D01*
X-28931Y-2494D01*
X-28950Y-2475D01*
X-28958Y-2472D01*
X-28965Y-2466D01*
X-28990Y-2459D01*
X-29014Y-2449D01*
X-29096Y-2432D01*
X-29178Y-2378D01*
X-29232Y-2296D01*
X-29258Y-2165D01*
X-29265Y-2149D01*
X-29268Y-2132D01*
X-29278Y-2117D01*
X-29285Y-2101D01*
X-29297Y-2088D01*
X-29307Y-2074D01*
X-29322Y-2064D01*
X-29334Y-2052D01*
X-29350Y-2045D01*
X-29365Y-2035D01*
X-29382Y-2032D01*
X-29399Y-2025D01*
X-29416D01*
X-29433Y-2022D01*
X-29957D01*
X-30000Y-1878D01*
X-29910Y-1818D01*
X-29783Y-1628D01*
X-29739Y-1403D01*
X-29783Y-1179D01*
X-29910Y-989D01*
X-30101Y-862D01*
X-30325Y-817D01*
X-30549Y-862D01*
X-30740Y-989D01*
X-30867Y-1179D01*
X-30911Y-1403D01*
X-30867Y-1628D01*
X-30740Y-1818D01*
X-30649Y-1878D01*
X-30693Y-2022D01*
X-31606D01*
X-31615Y-2023D01*
X-31624Y-2022D01*
X-31649Y-2030D01*
X-31675Y-2035D01*
X-31682Y-2040D01*
X-31690Y-2043D01*
X-31711Y-2059D01*
X-31733Y-2074D01*
X-31737Y-2081D01*
X-31744Y-2087D01*
X-31752Y-2096D01*
X-31794Y-2094D01*
X-31934Y-2000D01*
X-32100Y-1967D01*
X-32131Y-1973D01*
X-32264Y-1840D01*
X-32211Y-1711D01*
X-32183Y-1500D01*
X-32211Y-1289D01*
X-32292Y-1092D01*
X-32422Y-922D01*
X-32591Y-792D01*
X-32789Y-711D01*
X-33000Y-683D01*
D02*
G37*
G36*
X-1075Y-10650D02*
X-1538D01*
Y-11038D01*
X-1075D01*
Y-10650D01*
D02*
G37*
G36*
X-25525Y-9062D02*
X-26062D01*
Y-10000D01*
X-25525D01*
Y-9900D01*
Y-9062D01*
D02*
G37*
G36*
X-26188Y-8000D02*
X-26725D01*
Y-8938D01*
X-26188D01*
Y-8000D01*
D02*
G37*
G36*
X-25525D02*
X-26062D01*
Y-8938D01*
X-25525D01*
Y-8000D01*
D02*
G37*
G36*
X-46056Y-3348D02*
X-46270Y-3390D01*
X-46452Y-3512D01*
X-46574Y-3694D01*
X-46617Y-3908D01*
X-46574Y-4123D01*
X-46452Y-4305D01*
X-46270Y-4427D01*
X-46056Y-4469D01*
X-45841Y-4427D01*
X-45659Y-4305D01*
X-45538Y-4123D01*
X-45495Y-3908D01*
X-45538Y-3694D01*
X-45659Y-3512D01*
X-45841Y-3390D01*
X-46056Y-3348D01*
D02*
G37*
G36*
X-2275Y-9788D02*
X-2513D01*
Y-10275D01*
X-2275D01*
Y-9788D01*
D02*
G37*
G36*
X-26188Y-9062D02*
X-26725D01*
Y-9900D01*
Y-10000D01*
X-26188D01*
Y-9062D01*
D02*
G37*
G36*
X-7600Y-1110D02*
X-7756Y-1141D01*
X-7888Y-1230D01*
X-7977Y-1362D01*
X-8008Y-1518D01*
X-7977Y-1674D01*
X-7888Y-1806D01*
X-7756Y-1895D01*
X-7600Y-1926D01*
X-7444Y-1895D01*
X-7312Y-1806D01*
X-7223Y-1674D01*
X-7192Y-1518D01*
X-7223Y-1362D01*
X-7312Y-1230D01*
X-7444Y-1141D01*
X-7600Y-1110D01*
D02*
G37*
G36*
X-40842Y-1562D02*
X-41537D01*
Y-2258D01*
X-41402Y-2240D01*
X-41217Y-2164D01*
X-41058Y-2042D01*
X-40936Y-1883D01*
X-40860Y-1698D01*
X-40842Y-1562D01*
D02*
G37*
G36*
X-41662D02*
X-42358D01*
X-42340Y-1698D01*
X-42264Y-1883D01*
X-42142Y-2042D01*
X-41983Y-2164D01*
X-41798Y-2240D01*
X-41662Y-2258D01*
Y-1562D01*
D02*
G37*
G36*
X-45510Y-5814D02*
X-45725Y-5857D01*
X-45907Y-5978D01*
X-46029Y-6160D01*
X-46071Y-6375D01*
X-46029Y-6590D01*
X-45907Y-6772D01*
X-45725Y-6893D01*
X-45510Y-6936D01*
X-45296Y-6893D01*
X-45114Y-6772D01*
X-44992Y-6590D01*
X-44950Y-6375D01*
X-44992Y-6160D01*
X-45114Y-5978D01*
X-45296Y-5857D01*
X-45510Y-5814D01*
D02*
G37*
G36*
X-38600Y-683D02*
X-38811Y-711D01*
X-39008Y-792D01*
X-39178Y-922D01*
X-39308Y-1092D01*
X-39389Y-1289D01*
X-39417Y-1500D01*
X-39389Y-1711D01*
X-39308Y-1908D01*
X-39178Y-2078D01*
X-39008Y-2208D01*
X-38811Y-2289D01*
X-38600Y-2317D01*
X-38389Y-2289D01*
X-38222Y-2220D01*
X-34942Y-5500D01*
Y-6619D01*
X-35081Y-6677D01*
X-37880Y-3878D01*
X-37811Y-3711D01*
X-37783Y-3500D01*
X-37811Y-3289D01*
X-37892Y-3092D01*
X-38022Y-2922D01*
X-38192Y-2792D01*
X-38389Y-2711D01*
X-38600Y-2683D01*
X-38811Y-2711D01*
X-39008Y-2792D01*
X-39178Y-2922D01*
X-39308Y-3092D01*
X-39389Y-3289D01*
X-39417Y-3500D01*
X-39389Y-3711D01*
X-39308Y-3908D01*
X-39178Y-4078D01*
X-39128Y-4116D01*
X-39176Y-4258D01*
X-40500D01*
X-40880Y-3878D01*
X-40811Y-3711D01*
X-40783Y-3500D01*
X-40811Y-3289D01*
X-40892Y-3092D01*
X-41022Y-2922D01*
X-41192Y-2792D01*
X-41389Y-2711D01*
X-41600Y-2683D01*
X-41811Y-2711D01*
X-42008Y-2792D01*
X-42178Y-2922D01*
X-42308Y-3092D01*
X-42389Y-3289D01*
X-42417Y-3500D01*
X-42389Y-3711D01*
X-42308Y-3908D01*
X-42178Y-4078D01*
X-42008Y-4208D01*
X-41811Y-4289D01*
X-41600Y-4317D01*
X-41389Y-4289D01*
X-41222Y-4220D01*
X-40771Y-4671D01*
X-40771D01*
X-40771Y-4671D01*
X-40771Y-4671D01*
Y-4671D01*
X-40693Y-4724D01*
X-40600Y-4742D01*
X-39176D01*
X-39128Y-4884D01*
X-39178Y-4922D01*
X-39308Y-5091D01*
X-39389Y-5289D01*
X-39417Y-5500D01*
X-39389Y-5711D01*
X-39308Y-5908D01*
X-39219Y-6023D01*
X-39286Y-6158D01*
X-40600D01*
X-40880Y-5878D01*
X-40811Y-5711D01*
X-40783Y-5500D01*
X-40811Y-5289D01*
X-40892Y-5091D01*
X-41022Y-4922D01*
X-41192Y-4792D01*
X-41389Y-4711D01*
X-41600Y-4683D01*
X-41811Y-4711D01*
X-42008Y-4792D01*
X-42178Y-4922D01*
X-42308Y-5091D01*
X-42389Y-5289D01*
X-42417Y-5500D01*
X-42389Y-5711D01*
X-42308Y-5908D01*
X-42178Y-6078D01*
X-42008Y-6208D01*
X-41811Y-6289D01*
X-41600Y-6317D01*
X-41389Y-6289D01*
X-41222Y-6220D01*
X-40871Y-6571D01*
X-40871Y-6571D01*
X-40793Y-6624D01*
X-40700Y-6642D01*
X-39030D01*
X-39001Y-6789D01*
X-39008Y-6792D01*
X-39178Y-6922D01*
X-39308Y-7091D01*
X-39389Y-7289D01*
X-39417Y-7500D01*
X-39389Y-7711D01*
X-39308Y-7909D01*
X-39178Y-8078D01*
X-39008Y-8208D01*
X-38811Y-8289D01*
X-38600Y-8317D01*
X-38389Y-8289D01*
X-38300Y-8253D01*
X-38176Y-8336D01*
Y-8593D01*
X-38176Y-8593D01*
X-38176D01*
X-38156Y-8691D01*
X-38145Y-8708D01*
X-38251Y-8814D01*
X-38307Y-8776D01*
X-38400Y-8758D01*
X-40000D01*
X-40880Y-7878D01*
X-40811Y-7711D01*
X-40783Y-7500D01*
X-40811Y-7289D01*
X-40892Y-7091D01*
X-41022Y-6922D01*
X-41192Y-6792D01*
X-41389Y-6711D01*
X-41600Y-6683D01*
X-41811Y-6711D01*
X-42008Y-6792D01*
X-42178Y-6922D01*
X-42308Y-7091D01*
X-42389Y-7289D01*
X-42417Y-7500D01*
X-42389Y-7711D01*
X-42308Y-7909D01*
X-42178Y-8078D01*
X-42008Y-8208D01*
X-41811Y-8289D01*
X-41600Y-8317D01*
X-41389Y-8289D01*
X-41222Y-8220D01*
X-40271Y-9171D01*
X-40193Y-9224D01*
X-40100Y-9242D01*
X-38500D01*
X-33542Y-14200D01*
Y-15605D01*
X-33658Y-15700D01*
X-33700Y-15692D01*
X-33856Y-15723D01*
X-33988Y-15812D01*
X-34011Y-15845D01*
X-34349D01*
Y-15579D01*
X-34669D01*
Y-15304D01*
X-34349D01*
Y-14304D01*
X-35443D01*
X-35443Y-14304D01*
Y-14304D01*
X-35499Y-14304D01*
X-35524D01*
X-35549D01*
X-35605Y-14304D01*
X-35605Y-14304D01*
Y-14304D01*
X-35703D01*
X-35773Y-14172D01*
X-35747Y-14132D01*
X-35716Y-13976D01*
X-35747Y-13820D01*
X-35835Y-13688D01*
X-35968Y-13599D01*
X-36124Y-13568D01*
X-36280Y-13599D01*
X-36412Y-13688D01*
X-36501Y-13820D01*
X-36532Y-13976D01*
X-36501Y-14132D01*
X-36474Y-14172D01*
X-36545Y-14304D01*
X-36699D01*
Y-15304D01*
X-35605D01*
X-35605Y-15304D01*
Y-15304D01*
X-35549Y-15304D01*
X-35524D01*
X-35499D01*
X-35443Y-15304D01*
X-35443Y-15304D01*
Y-15304D01*
X-35179D01*
Y-15579D01*
X-35493D01*
X-35493Y-15579D01*
Y-15579D01*
X-35499Y-15579D01*
X-35599Y-15629D01*
D01*
X-35605Y-15629D01*
X-35605Y-15629D01*
Y-15629D01*
X-36061D01*
Y-16079D01*
Y-16529D01*
X-35605D01*
X-35605Y-16529D01*
Y-16529D01*
X-35599Y-16529D01*
D01*
X-35499Y-16579D01*
X-35493Y-16579D01*
X-35493Y-16579D01*
Y-16579D01*
X-35323D01*
X-35280Y-16723D01*
X-35338Y-16762D01*
X-35465Y-16952D01*
X-35510Y-17176D01*
X-35465Y-17401D01*
X-35338Y-17591D01*
X-35148Y-17718D01*
X-34924Y-17763D01*
X-34699Y-17718D01*
X-34509Y-17591D01*
X-34382Y-17401D01*
X-34337Y-17176D01*
X-34382Y-16952D01*
X-34509Y-16762D01*
X-34568Y-16723D01*
X-34524Y-16579D01*
X-34349D01*
Y-16355D01*
X-34011D01*
X-33988Y-16388D01*
X-33856Y-16477D01*
X-33700Y-16508D01*
X-33544Y-16477D01*
X-33412Y-16388D01*
X-33323Y-16256D01*
X-33315Y-16215D01*
X-33171Y-16171D01*
X-31006Y-18336D01*
X-31063Y-18475D01*
X-31700D01*
Y-18525D01*
X-32087D01*
Y-18900D01*
Y-19275D01*
X-31700D01*
Y-19325D01*
X-31617D01*
Y-19475D01*
X-31900D01*
Y-20525D01*
X-30850D01*
Y-20367D01*
X-30634D01*
X-30519Y-20540D01*
X-30329Y-20667D01*
X-30105Y-20711D01*
X-29880Y-20667D01*
X-29690Y-20540D01*
X-29575Y-20367D01*
X-28339D01*
X-28271Y-20450D01*
X-28247Y-20573D01*
X-28177Y-20677D01*
X-28143Y-20700D01*
Y-20850D01*
X-28177Y-20873D01*
X-28247Y-20977D01*
X-28271Y-21100D01*
X-28339Y-21183D01*
X-29031D01*
X-29062Y-21137D01*
X-29194Y-21048D01*
X-29350Y-21017D01*
X-29459Y-21039D01*
X-29575Y-20944D01*
Y-20925D01*
X-30425D01*
D01*
D01*
X-30425Y-20925D01*
X-30450D01*
Y-20925D01*
X-31300D01*
Y-20925D01*
X-31331Y-20925D01*
X-31446Y-20848D01*
X-31602Y-20817D01*
X-31758Y-20848D01*
X-31891Y-20937D01*
X-31979Y-21069D01*
X-32010Y-21225D01*
X-31979Y-21381D01*
X-31891Y-21513D01*
X-31758Y-21602D01*
X-31602Y-21633D01*
X-31446Y-21602D01*
X-31432Y-21592D01*
X-31300Y-21663D01*
Y-21925D01*
X-31250D01*
Y-22312D01*
X-30875D01*
Y-22375D01*
X-30812D01*
Y-22825D01*
X-30500D01*
Y-22825D01*
X-30500D01*
X-30500Y-22825D01*
X-30375D01*
Y-22825D01*
X-30062D01*
Y-22375D01*
X-30000D01*
Y-22312D01*
X-29625D01*
Y-21925D01*
X-29575D01*
Y-21906D01*
X-29549Y-21885D01*
X-29462Y-21907D01*
X-29401Y-21952D01*
X-29419Y-21994D01*
X-29419Y-21994D01*
X-29419Y-21994D01*
X-29450Y-22150D01*
X-29419Y-22306D01*
X-29331Y-22438D01*
X-29199Y-22527D01*
X-29042Y-22558D01*
X-28886Y-22527D01*
X-28754Y-22438D01*
X-28666Y-22306D01*
X-28635Y-22150D01*
X-28645Y-22095D01*
X-28542Y-21992D01*
X-28165D01*
X-28143Y-22065D01*
Y-22150D01*
X-28177Y-22173D01*
X-28247Y-22277D01*
X-28261Y-22351D01*
X-29148Y-23238D01*
X-30419D01*
X-30516Y-23257D01*
X-30599Y-23312D01*
X-31023Y-23737D01*
X-31079Y-23820D01*
X-31098Y-23917D01*
Y-25087D01*
X-31079Y-25184D01*
X-31023Y-25267D01*
X-29894Y-26396D01*
X-29931Y-26585D01*
X-29887Y-26809D01*
X-29760Y-26999D01*
X-29600Y-27106D01*
Y-29976D01*
X-29789D01*
Y-28966D01*
X-29806Y-28885D01*
X-29809Y-28869D01*
X-29864Y-28786D01*
X-34209Y-24441D01*
Y-20239D01*
X-34176Y-20216D01*
X-34088Y-20084D01*
X-34057Y-19928D01*
X-34088Y-19772D01*
X-34176Y-19639D01*
X-34308Y-19551D01*
X-34464Y-19520D01*
X-34620Y-19551D01*
X-34753Y-19639D01*
X-34841Y-19772D01*
X-34872Y-19928D01*
X-34841Y-20084D01*
X-34775Y-20183D01*
X-34826Y-20324D01*
X-34863Y-20335D01*
X-34917Y-20254D01*
X-35049Y-20165D01*
X-35206Y-20134D01*
X-35362Y-20165D01*
X-35494Y-20254D01*
X-35582Y-20386D01*
X-35613Y-20542D01*
X-35582Y-20698D01*
X-35494Y-20830D01*
X-35460Y-20853D01*
Y-24408D01*
X-35441Y-24505D01*
X-35386Y-24588D01*
X-30701Y-29273D01*
Y-34247D01*
X-30817Y-34342D01*
X-30942Y-34317D01*
X-31098Y-34348D01*
X-31231Y-34437D01*
X-31319Y-34569D01*
X-31350Y-34725D01*
X-31319Y-34881D01*
X-31231Y-35013D01*
X-31197Y-35036D01*
Y-37239D01*
X-31231Y-37262D01*
X-31319Y-37394D01*
X-31350Y-37550D01*
X-31319Y-37706D01*
X-31231Y-37838D01*
X-31098Y-37927D01*
X-30942Y-37958D01*
X-30817Y-37933D01*
X-30701Y-38028D01*
Y-39365D01*
X-31964Y-40629D01*
X-32020Y-40711D01*
X-32039Y-40809D01*
Y-42888D01*
X-32073Y-42910D01*
X-32161Y-43043D01*
X-32192Y-43199D01*
X-32161Y-43355D01*
X-32073Y-43487D01*
X-31940Y-43576D01*
X-31784Y-43607D01*
X-31628Y-43576D01*
X-31496Y-43487D01*
X-31407Y-43355D01*
X-31376Y-43199D01*
X-31407Y-43043D01*
X-31496Y-42910D01*
X-31529Y-42888D01*
Y-40915D01*
X-30546Y-39932D01*
X-30403Y-39975D01*
X-30402Y-39981D01*
X-30313Y-40113D01*
X-30280Y-40136D01*
Y-40800D01*
X-30423Y-40844D01*
X-30462Y-40787D01*
X-30594Y-40698D01*
X-30750Y-40667D01*
X-30906Y-40698D01*
X-31038Y-40787D01*
X-31127Y-40919D01*
X-31158Y-41075D01*
X-31127Y-41231D01*
X-31038Y-41363D01*
X-31005Y-41386D01*
Y-49969D01*
X-32730Y-51695D01*
X-32785Y-51777D01*
X-32805Y-51875D01*
Y-52464D01*
X-32947Y-52512D01*
X-33097Y-52317D01*
X-33306Y-52157D01*
X-33549Y-52056D01*
X-33810Y-52021D01*
X-34071Y-52056D01*
X-34314Y-52157D01*
X-34523Y-52317D01*
X-34675Y-52515D01*
X-34817Y-52467D01*
Y-47168D01*
X-34099Y-46450D01*
X-34060Y-46458D01*
X-33903Y-46427D01*
X-33771Y-46338D01*
X-33683Y-46206D01*
X-33652Y-46050D01*
X-33683Y-45894D01*
X-33771Y-45762D01*
X-33805Y-45739D01*
Y-42900D01*
X-33771Y-42878D01*
X-33683Y-42745D01*
X-33652Y-42589D01*
X-33683Y-42433D01*
X-33771Y-42301D01*
X-33903Y-42212D01*
X-34060Y-42181D01*
X-34216Y-42212D01*
X-34348Y-42301D01*
X-34436Y-42433D01*
X-34467Y-42589D01*
X-34436Y-42745D01*
X-34348Y-42878D01*
X-34314Y-42900D01*
Y-45739D01*
X-34348Y-45762D01*
X-34436Y-45894D01*
X-34467Y-46050D01*
X-34460Y-46090D01*
X-35252Y-46882D01*
X-35308Y-46965D01*
X-35327Y-47063D01*
Y-52502D01*
X-35474Y-52531D01*
X-35477Y-52526D01*
X-35637Y-52317D01*
X-35846Y-52157D01*
X-36089Y-52056D01*
X-36350Y-52021D01*
X-36611Y-52056D01*
X-36854Y-52157D01*
X-37063Y-52317D01*
X-37223Y-52526D01*
X-37324Y-52769D01*
X-37359Y-53030D01*
X-37324Y-53291D01*
X-37223Y-53534D01*
X-37220Y-53539D01*
X-37768Y-54087D01*
X-38445D01*
X-38474Y-53940D01*
X-38386Y-53903D01*
X-38177Y-53743D01*
X-38017Y-53534D01*
X-37916Y-53291D01*
X-37881Y-53030D01*
X-37916Y-52769D01*
X-38017Y-52526D01*
X-38177Y-52317D01*
X-38386Y-52157D01*
X-38629Y-52056D01*
X-38635Y-52055D01*
Y-49668D01*
X-38635Y-49668D01*
X-38635Y-49668D01*
X-38655Y-49571D01*
X-38673Y-49543D01*
X-38673Y-49543D01*
X-38710Y-49488D01*
Y-49488D01*
X-38710Y-49488D01*
X-39108Y-49090D01*
X-39100Y-49050D01*
X-39132Y-48894D01*
X-39220Y-48762D01*
X-39253Y-48739D01*
Y-42698D01*
X-39110Y-42655D01*
X-39083Y-42695D01*
X-38901Y-42816D01*
X-38687Y-42859D01*
X-38472Y-42816D01*
X-38290Y-42695D01*
X-38216Y-42584D01*
X-38066D01*
X-38013Y-42663D01*
X-37980Y-42686D01*
Y-44515D01*
X-38013Y-44538D01*
X-38102Y-44670D01*
X-38133Y-44826D01*
X-38102Y-44982D01*
X-38013Y-45114D01*
X-37881Y-45203D01*
X-37725Y-45234D01*
X-37569Y-45203D01*
X-37437Y-45114D01*
X-37348Y-44982D01*
X-37317Y-44826D01*
X-37348Y-44670D01*
X-37437Y-44538D01*
X-37470Y-44515D01*
Y-42686D01*
X-37437Y-42663D01*
X-37348Y-42531D01*
X-37342Y-42501D01*
X-37198Y-42515D01*
X-37198Y-42515D01*
Y-42515D01*
X-37198Y-42515D01*
X-37110Y-42647D01*
X-37076Y-42670D01*
Y-43897D01*
X-37110Y-43919D01*
X-37198Y-44052D01*
X-37229Y-44208D01*
X-37198Y-44364D01*
X-37110Y-44496D01*
X-36977Y-44585D01*
X-36821Y-44616D01*
X-36665Y-44585D01*
X-36533Y-44496D01*
X-36444Y-44364D01*
X-36413Y-44208D01*
X-36444Y-44052D01*
X-36533Y-43919D01*
X-36566Y-43897D01*
Y-42670D01*
X-36533Y-42647D01*
X-36444Y-42515D01*
X-36413Y-42359D01*
X-36444Y-42203D01*
X-36529Y-42077D01*
X-36496Y-42015D01*
X-36449Y-41945D01*
X-35435D01*
X-35255Y-41921D01*
X-35185Y-41892D01*
X-35087Y-41851D01*
X-34943Y-41741D01*
X-32519Y-39317D01*
X-32408Y-39173D01*
X-32373Y-39089D01*
X-32339Y-39005D01*
X-32315Y-38825D01*
Y-32010D01*
X-32339Y-31830D01*
X-32388Y-31711D01*
X-32408Y-31662D01*
X-32519Y-31518D01*
X-37741Y-26296D01*
Y-20080D01*
X-37764Y-19900D01*
X-37793Y-19830D01*
X-37834Y-19732D01*
X-37945Y-19588D01*
X-46914Y-10618D01*
X-46924Y-10542D01*
X-47010Y-10335D01*
X-47146Y-10158D01*
X-47324Y-10022D01*
X-47530Y-9936D01*
X-47752Y-9907D01*
X-47974Y-9936D01*
X-48109Y-9992D01*
X-48244Y-9936D01*
X-48466Y-9907D01*
X-48688Y-9936D01*
X-48894Y-10022D01*
X-49072Y-10158D01*
X-49208Y-10335D01*
X-49294Y-10542D01*
X-49323Y-10764D01*
X-49294Y-10986D01*
X-49208Y-11193D01*
X-49072Y-11370D01*
X-48894Y-11507D01*
X-48688Y-11592D01*
X-48612Y-11602D01*
X-48468Y-11746D01*
X-48324Y-11857D01*
X-48194Y-11911D01*
X-48156Y-11926D01*
X-48105Y-11933D01*
X-39513Y-20525D01*
Y-26742D01*
X-39489Y-26922D01*
X-39454Y-27006D01*
X-39419Y-27090D01*
X-39309Y-27234D01*
X-34612Y-31931D01*
X-34683Y-32063D01*
X-34833Y-32033D01*
X-34989Y-32064D01*
X-35122Y-32153D01*
X-35144Y-32186D01*
X-35315D01*
X-35413Y-32205D01*
X-35495Y-32261D01*
X-36305Y-33071D01*
X-36360Y-33153D01*
X-36380Y-33251D01*
Y-36809D01*
X-40238Y-40668D01*
X-40293Y-40750D01*
X-40313Y-40848D01*
Y-46289D01*
X-40346Y-46312D01*
X-40435Y-46444D01*
X-40466Y-46600D01*
X-40435Y-46756D01*
X-40346Y-46888D01*
X-40214Y-46977D01*
X-40058Y-47008D01*
X-39902Y-46977D01*
X-39896Y-46973D01*
X-39763Y-47043D01*
Y-48739D01*
X-39797Y-48762D01*
X-39885Y-48894D01*
X-39916Y-49050D01*
X-39885Y-49206D01*
X-39797Y-49338D01*
X-39664Y-49427D01*
X-39508Y-49458D01*
X-39469Y-49450D01*
X-39145Y-49774D01*
Y-52055D01*
X-39151Y-52056D01*
X-39394Y-52157D01*
X-39603Y-52317D01*
X-39764Y-52526D01*
X-39864Y-52769D01*
X-39899Y-53030D01*
X-39864Y-53291D01*
X-39764Y-53534D01*
X-39603Y-53743D01*
X-39394Y-53903D01*
X-39306Y-53940D01*
X-39335Y-54087D01*
X-39766D01*
X-39864Y-54107D01*
X-39946Y-54162D01*
X-40361Y-54577D01*
X-40417Y-54660D01*
X-40436Y-54757D01*
Y-54989D01*
X-40578Y-55038D01*
X-40717Y-54857D01*
X-40926Y-54696D01*
X-41169Y-54596D01*
X-41430Y-54561D01*
X-41691Y-54596D01*
X-41934Y-54696D01*
X-42143Y-54857D01*
X-42304Y-55066D01*
X-42404Y-55309D01*
X-42439Y-55570D01*
X-42404Y-55831D01*
X-42304Y-56074D01*
X-42143Y-56283D01*
X-41934Y-56444D01*
X-41691Y-56544D01*
X-41430Y-56579D01*
X-41169Y-56544D01*
X-40926Y-56444D01*
X-40717Y-56283D01*
X-40578Y-56102D01*
X-40436Y-56151D01*
Y-56561D01*
X-40417Y-56659D01*
X-40361Y-56742D01*
X-39099Y-58004D01*
X-39016Y-58060D01*
X-38918Y-58079D01*
X-14042D01*
X-13944Y-58060D01*
X-13862Y-58004D01*
X-10572Y-54715D01*
X-10517Y-54633D01*
X-10498Y-54535D01*
Y-32325D01*
X-10253D01*
Y-31231D01*
X-10253Y-31231D01*
D01*
D01*
X-10253Y-31175D01*
Y-31169D01*
Y-31150D01*
X-10253Y-31125D01*
X-10253Y-31069D01*
X-10253Y-31069D01*
X-10253D01*
Y-30079D01*
X-10137Y-29984D01*
X-10057Y-30000D01*
X-9833Y-29955D01*
X-9642Y-29828D01*
X-9515Y-29638D01*
X-9471Y-29414D01*
X-9515Y-29190D01*
X-9642Y-28999D01*
X-9833Y-28872D01*
X-10057Y-28828D01*
X-10134Y-28843D01*
X-10250Y-28748D01*
Y-27756D01*
X-10250Y-27756D01*
D01*
D01*
X-10250Y-27700D01*
Y-27694D01*
Y-27675D01*
X-10250Y-27650D01*
X-10250Y-27594D01*
X-10250Y-27594D01*
X-10250D01*
Y-27330D01*
X-10076D01*
X-9969Y-27490D01*
X-9779Y-27617D01*
X-9555Y-27661D01*
X-9330Y-27617D01*
X-9140Y-27490D01*
X-9013Y-27299D01*
X-8968Y-27075D01*
X-9013Y-26851D01*
X-9140Y-26660D01*
X-9330Y-26533D01*
X-9555Y-26489D01*
X-9779Y-26533D01*
X-9969Y-26660D01*
X-10076Y-26820D01*
X-10250D01*
Y-26500D01*
X-10967D01*
X-10996Y-26471D01*
Y-25216D01*
X-10963Y-25193D01*
X-10874Y-25061D01*
X-10843Y-24905D01*
X-10874Y-24749D01*
X-10963Y-24617D01*
X-11095Y-24528D01*
X-11251Y-24497D01*
X-11407Y-24528D01*
X-11428Y-24435D01*
X-11428Y-24435D01*
X-11428D01*
X-11471Y-24220D01*
X-11592Y-24038D01*
X-11774Y-23917D01*
X-11784Y-23915D01*
X-11770Y-23766D01*
X-11364D01*
X-10194Y-24935D01*
X-10227Y-25097D01*
X-10383Y-25128D01*
X-10515Y-25216D01*
X-10603Y-25349D01*
X-10634Y-25505D01*
X-10603Y-25661D01*
X-10515Y-25793D01*
X-10383Y-25882D01*
X-10227Y-25913D01*
X-10187Y-25905D01*
X-9895Y-26197D01*
X-9812Y-26252D01*
X-9796Y-26256D01*
X-9714Y-26272D01*
X-8751D01*
Y-26517D01*
X-7601D01*
Y-26517D01*
X-7601D01*
X-7601Y-26517D01*
X-7551D01*
Y-26517D01*
X-7231D01*
Y-27730D01*
X-7970D01*
Y-29730D01*
X-5970D01*
Y-27730D01*
X-6722D01*
Y-26517D01*
X-6401D01*
Y-25517D01*
X-7004D01*
X-7087Y-25392D01*
X-7075Y-25362D01*
X-6401D01*
Y-25338D01*
X-6173D01*
X-1855Y-29655D01*
Y-51894D01*
X-2736Y-52775D01*
X-8877D01*
X-8900Y-52742D01*
X-9032Y-52653D01*
X-9188Y-52622D01*
X-9344Y-52653D01*
X-9477Y-52742D01*
X-9565Y-52874D01*
X-9596Y-53030D01*
X-9565Y-53186D01*
X-9477Y-53318D01*
X-9344Y-53407D01*
X-9188Y-53438D01*
X-9032Y-53407D01*
X-8900Y-53318D01*
X-8877Y-53285D01*
X-2630D01*
X-2532Y-53265D01*
X-2450Y-53210D01*
X-1420Y-52180D01*
X-1365Y-52098D01*
X-1345Y-52000D01*
Y-29550D01*
X-1365Y-29452D01*
X-1383Y-29425D01*
X-1420Y-29370D01*
X-3751Y-27038D01*
X-3680Y-26906D01*
X-3651Y-26912D01*
X-3437Y-26869D01*
X-3255Y-26748D01*
X-3133Y-26566D01*
X-3090Y-26351D01*
X-3127Y-26169D01*
X-874Y-23917D01*
X-822Y-23838D01*
X-804Y-23746D01*
X-804Y-23746D01*
Y-12854D01*
X-822Y-12762D01*
X-874Y-12683D01*
X-1869Y-11689D01*
X-1812Y-11550D01*
X-1663D01*
Y-11100D01*
Y-10650D01*
X-2125D01*
Y-10650D01*
X-2175D01*
X-2225Y-10600D01*
Y-10600D01*
X-2940D01*
X-2970Y-10569D01*
Y-10325D01*
X-2875D01*
Y-10275D01*
X-2638D01*
Y-9725D01*
X-2575D01*
Y-9663D01*
X-2275D01*
Y-9189D01*
X-2275Y-9189D01*
D01*
X-2264Y-9184D01*
D01*
X-2176Y-9148D01*
D01*
X-2154Y-9139D01*
X-2132Y-9136D01*
X-1700Y-9568D01*
Y-10375D01*
X-700D01*
Y-9225D01*
D01*
Y-9225D01*
X-700Y-9225D01*
Y-9175D01*
X-700D01*
Y-8025D01*
X-1008D01*
Y-7250D01*
X-1026Y-7157D01*
X-1079Y-7079D01*
X-3299Y-4859D01*
X-3377Y-4806D01*
X-3470Y-4788D01*
X-3600D01*
X-3704Y-4633D01*
X-3885Y-4512D01*
X-4100Y-4469D01*
X-4315Y-4512D01*
X-4497Y-4633D01*
X-4618Y-4815D01*
X-4661Y-5030D01*
X-4618Y-5245D01*
X-4497Y-5427D01*
X-4315Y-5548D01*
X-4100Y-5591D01*
X-3885Y-5548D01*
X-3704Y-5427D01*
X-3654Y-5352D01*
X-3505Y-5338D01*
X-3048Y-5794D01*
X-3080Y-5955D01*
X-3305Y-6000D01*
X-3495Y-6127D01*
X-3622Y-6317D01*
X-3666Y-6542D01*
X-3622Y-6766D01*
X-3495Y-6956D01*
X-3305Y-7083D01*
X-3091Y-7126D01*
Y-7126D01*
D01*
X-3095Y-7164D01*
X-3095Y-7164D01*
X-3098Y-7200D01*
X-3166Y-7275D01*
X-3575D01*
Y-7325D01*
X-3575D01*
X-3575Y-7325D01*
X-3575Y-7325D01*
X-3812D01*
Y-7875D01*
X-3875D01*
Y-7938D01*
X-4175D01*
Y-8345D01*
X-4700D01*
Y-8025D01*
X-5700D01*
Y-8358D01*
X-6745D01*
X-6775Y-8312D01*
X-6908Y-8223D01*
X-7064Y-8192D01*
X-7220Y-8223D01*
X-7352Y-8312D01*
X-7441Y-8444D01*
X-7444Y-8460D01*
X-7587Y-8504D01*
X-8508Y-7583D01*
Y-5319D01*
X-8462Y-5288D01*
X-8373Y-5156D01*
X-8342Y-5000D01*
X-8373Y-4844D01*
X-8462Y-4712D01*
X-8594Y-4623D01*
X-8750Y-4592D01*
X-8906Y-4623D01*
X-9038Y-4712D01*
X-9127Y-4844D01*
X-9158Y-5000D01*
X-9127Y-5156D01*
X-9038Y-5288D01*
X-8992Y-5319D01*
Y-7683D01*
X-8974Y-7776D01*
X-8921Y-7855D01*
X-8921Y-7855D01*
X-8921Y-7855D01*
X-8921Y-7855D01*
Y-7855D01*
X-7414Y-9362D01*
X-7449Y-9538D01*
X-7404Y-9762D01*
X-7277Y-9952D01*
X-7087Y-10079D01*
X-6863Y-10124D01*
X-6659Y-10083D01*
X-5875Y-10867D01*
Y-11510D01*
X-5903Y-11522D01*
D01*
X-6014Y-11568D01*
X-7366Y-10216D01*
X-7473Y-10144D01*
X-7600Y-10119D01*
X-9390D01*
X-9434Y-9975D01*
X-9428Y-9972D01*
X-9307Y-9790D01*
X-9264Y-9575D01*
X-9307Y-9360D01*
X-9428Y-9178D01*
X-9570Y-9084D01*
Y-6551D01*
X-9590Y-6454D01*
X-9645Y-6371D01*
X-10521Y-5495D01*
X-10604Y-5440D01*
X-10701Y-5420D01*
X-14625D01*
Y-5375D01*
Y-4675D01*
X-16120D01*
Y-4025D01*
X-15800D01*
Y-3025D01*
X-16120D01*
Y-2757D01*
X-15960Y-2651D01*
X-15833Y-2460D01*
X-15789Y-2236D01*
X-15833Y-2012D01*
X-15960Y-1822D01*
X-16151Y-1694D01*
X-16375Y-1650D01*
X-16599Y-1694D01*
X-16790Y-1822D01*
X-16917Y-2012D01*
X-16961Y-2236D01*
X-16917Y-2460D01*
X-16790Y-2651D01*
X-16630Y-2757D01*
Y-3025D01*
X-16950D01*
D01*
D01*
X-16950Y-3025D01*
X-17000D01*
Y-3025D01*
X-18150D01*
Y-3270D01*
X-18969D01*
X-19920Y-2320D01*
X-20002Y-2265D01*
X-20100Y-2245D01*
X-21236D01*
X-21329Y-2107D01*
X-21207Y-1925D01*
X-21165Y-1710D01*
X-21207Y-1496D01*
X-21329Y-1314D01*
X-21511Y-1192D01*
X-21725Y-1150D01*
X-21940Y-1192D01*
X-22122Y-1314D01*
X-22243Y-1496D01*
X-22286Y-1710D01*
X-22243Y-1925D01*
X-22122Y-2107D01*
X-22214Y-2245D01*
X-23000D01*
X-23098Y-2265D01*
X-23180Y-2320D01*
X-23430Y-2570D01*
X-23485Y-2652D01*
X-23505Y-2750D01*
Y-4569D01*
X-23657Y-4722D01*
X-26754D01*
X-26822Y-4735D01*
X-26880Y-4774D01*
X-26919Y-4832D01*
X-26933Y-4900D01*
Y-5471D01*
X-26921Y-5527D01*
X-26947Y-5558D01*
X-26987Y-5585D01*
X-27047Y-5625D01*
X-27638D01*
Y-6500D01*
Y-7375D01*
X-27079D01*
X-26919Y-7482D01*
X-26933Y-7550D01*
Y-7689D01*
X-26919Y-7758D01*
X-26880Y-7816D01*
X-26822Y-7854D01*
X-26754Y-7868D01*
X-25491D01*
X-25491D01*
X-25491D01*
X-25457Y-7861D01*
X-25423Y-7854D01*
X-25423Y-7854D01*
X-25423D01*
X-25403Y-7841D01*
X-25365Y-7816D01*
X-25365Y-7816D01*
X-25365Y-7816D01*
X-25330Y-7781D01*
X-25314Y-7758D01*
X-25291Y-7723D01*
X-25291Y-7723D01*
X-25291Y-7723D01*
X-25286Y-7695D01*
X-25278Y-7655D01*
X-25278Y-7604D01*
X-24962D01*
Y-7098D01*
X-24837D01*
Y-7604D01*
X-24522D01*
X-24522Y-7655D01*
Y-7689D01*
Y-7689D01*
X-24509Y-7758D01*
X-24470Y-7816D01*
X-24412Y-7854D01*
X-24344Y-7868D01*
X-23981D01*
Y-9325D01*
X-23956Y-9452D01*
X-23884Y-9559D01*
X-22759Y-10684D01*
X-22652Y-10756D01*
X-22525Y-10781D01*
X-17425D01*
Y-11740D01*
X-17780D01*
X-17835Y-11657D01*
X-18025Y-11530D01*
X-18250Y-11485D01*
X-18474Y-11530D01*
X-18664Y-11657D01*
X-18791Y-11847D01*
X-18836Y-12071D01*
X-18791Y-12296D01*
X-18664Y-12486D01*
X-18474Y-12613D01*
X-18250Y-12658D01*
X-18025Y-12613D01*
X-17835Y-12486D01*
X-17780Y-12403D01*
X-17462D01*
X-17425Y-12439D01*
Y-13100D01*
X-16425D01*
Y-12681D01*
X-16175D01*
Y-12825D01*
X-15681D01*
Y-14475D01*
X-16175D01*
Y-15212D01*
X-16314Y-15269D01*
X-18523Y-13059D01*
X-18602Y-13007D01*
X-18695Y-12988D01*
X-22351D01*
X-22395Y-12845D01*
X-22394Y-12844D01*
X-22273Y-12662D01*
X-22230Y-12448D01*
X-22273Y-12233D01*
X-22394Y-12051D01*
X-22576Y-11930D01*
X-22791Y-11887D01*
X-23006Y-11930D01*
X-23187Y-12051D01*
X-23309Y-12233D01*
X-23352Y-12448D01*
X-23309Y-12662D01*
X-23187Y-12844D01*
X-23187Y-12845D01*
X-23231Y-12988D01*
X-28263D01*
X-28294Y-12942D01*
X-28426Y-12854D01*
X-28582Y-12822D01*
X-28738Y-12854D01*
X-28870Y-12942D01*
X-28959Y-13074D01*
X-28990Y-13230D01*
X-28959Y-13386D01*
X-28870Y-13519D01*
X-28738Y-13607D01*
X-28582Y-13638D01*
X-28426Y-13607D01*
X-28294Y-13519D01*
X-28263Y-13472D01*
X-25251D01*
X-25236Y-13622D01*
X-25249Y-13624D01*
X-25440Y-13751D01*
X-25567Y-13942D01*
X-25611Y-14166D01*
X-25567Y-14390D01*
X-25525Y-14453D01*
X-25525Y-14675D01*
X-25525D01*
X-25525Y-14725D01*
X-25913D01*
Y-15100D01*
Y-15475D01*
X-25525D01*
X-25525Y-15525D01*
X-25525D01*
X-25525Y-15575D01*
D01*
X-25525Y-15625D01*
X-25913D01*
Y-16000D01*
Y-16375D01*
X-25525D01*
Y-16425D01*
X-24942D01*
X-24942Y-16425D01*
Y-17645D01*
X-24980Y-17702D01*
X-25130Y-17702D01*
X-25159Y-17659D01*
X-25247Y-17600D01*
X-25288Y-17592D01*
Y-17850D01*
X-25413D01*
Y-17592D01*
X-25453Y-17600D01*
X-25541Y-17659D01*
X-25570Y-17702D01*
X-25720Y-17702D01*
X-25773Y-17623D01*
X-25877Y-17553D01*
X-26000Y-17529D01*
X-26123Y-17553D01*
X-26227Y-17623D01*
X-26250Y-17657D01*
X-26400D01*
X-26423Y-17623D01*
X-26527Y-17553D01*
X-26650Y-17529D01*
X-26733Y-17461D01*
Y-16925D01*
X-26733Y-16925D01*
X-26748Y-16848D01*
X-26751Y-16832D01*
X-26804Y-16754D01*
X-31158Y-12400D01*
Y-10936D01*
X-31176Y-10844D01*
X-31229Y-10765D01*
X-34458Y-7536D01*
Y-5400D01*
X-34476Y-5307D01*
X-34529Y-5229D01*
X-37880Y-1878D01*
X-37811Y-1711D01*
X-37783Y-1500D01*
X-37811Y-1289D01*
X-37892Y-1092D01*
X-38022Y-922D01*
X-38192Y-792D01*
X-38389Y-711D01*
X-38600Y-683D01*
D02*
G37*
G36*
X-41662Y-742D02*
X-41798Y-760D01*
X-41983Y-836D01*
X-42142Y-958D01*
X-42264Y-1117D01*
X-42340Y-1302D01*
X-42358Y-1438D01*
X-41662D01*
Y-742D01*
D02*
G37*
G36*
X-36760Y-12399D02*
X-36974Y-12441D01*
X-37156Y-12563D01*
X-37278Y-12745D01*
X-37320Y-12960D01*
X-37278Y-13174D01*
X-37156Y-13356D01*
X-36974Y-13478D01*
X-36760Y-13520D01*
X-36545Y-13478D01*
X-36363Y-13356D01*
X-36241Y-13174D01*
X-36199Y-12960D01*
X-36241Y-12745D01*
X-36363Y-12563D01*
X-36545Y-12441D01*
X-36760Y-12399D01*
D02*
G37*
G36*
X-41537Y-742D02*
Y-1438D01*
X-40842D01*
X-40860Y-1302D01*
X-40936Y-1117D01*
X-41058Y-958D01*
X-41217Y-836D01*
X-41402Y-760D01*
X-41537Y-742D01*
D02*
G37*
G36*
X-26875Y-2800D02*
X-27337D01*
Y-3188D01*
X-26875D01*
Y-2800D01*
D02*
G37*
G36*
X-3938Y-7325D02*
X-4175D01*
Y-7812D01*
X-3938D01*
Y-7325D01*
D02*
G37*
G36*
X-26000Y-683D02*
X-26211Y-711D01*
X-26408Y-792D01*
X-26578Y-922D01*
X-26708Y-1092D01*
X-26789Y-1289D01*
X-26817Y-1500D01*
X-26789Y-1711D01*
X-26708Y-1908D01*
X-26578Y-2078D01*
X-26408Y-2208D01*
X-26211Y-2289D01*
X-26000Y-2317D01*
X-25789Y-2289D01*
X-25756Y-2276D01*
X-25711Y-2300D01*
X-25633D01*
X-25624Y-2347D01*
X-25605Y-2443D01*
X-25600Y-2466D01*
X-25506Y-2606D01*
X-25366Y-2700D01*
X-25200Y-2733D01*
X-25034Y-2700D01*
X-24894Y-2606D01*
X-24800Y-2466D01*
X-24767Y-2300D01*
X-24800Y-2134D01*
X-24894Y-1994D01*
X-25034Y-1900D01*
X-25153Y-1876D01*
X-25224Y-1744D01*
X-25211Y-1711D01*
X-25183Y-1500D01*
X-25211Y-1289D01*
X-25292Y-1092D01*
X-25422Y-922D01*
X-25591Y-792D01*
X-25789Y-711D01*
X-26000Y-683D01*
D02*
G37*
%LPD*%
G36*
X-16675Y-7325D02*
X-14655D01*
Y-7644D01*
X-15010Y-8000D01*
X-15725D01*
Y-8050D01*
X-15825D01*
Y-8050D01*
X-16288D01*
Y-8500D01*
Y-8950D01*
X-16156D01*
X-16117Y-9045D01*
X-16200Y-9170D01*
X-17502D01*
X-17592Y-9050D01*
X-17562Y-8950D01*
X-17375D01*
Y-8562D01*
X-17900D01*
Y-8500D01*
X-17962D01*
Y-8050D01*
X-18094D01*
X-18151Y-7911D01*
X-17469Y-7230D01*
X-16675D01*
Y-7325D01*
D02*
G37*
G36*
X-23419Y-7475D02*
X-23370Y-7519D01*
Y-7646D01*
X-23419Y-7689D01*
X-24344D01*
Y-7689D01*
Y-7655D01*
X-24344Y-7600D01*
X-24344Y-7600D01*
X-24344D01*
Y-6543D01*
X-25456D01*
Y-7600D01*
X-25456Y-7600D01*
X-25456D01*
X-25456Y-7655D01*
X-25491Y-7689D01*
X-26754D01*
Y-7550D01*
X-25825D01*
Y-6950D01*
X-25875D01*
Y-6812D01*
X-26300D01*
Y-6688D01*
X-25875D01*
Y-6550D01*
X-25825D01*
Y-5950D01*
X-25875D01*
Y-5812D01*
X-26300D01*
Y-5750D01*
X-26362D01*
Y-5500D01*
X-26725D01*
D01*
X-26725D01*
X-26754Y-5471D01*
Y-4900D01*
X-23419D01*
Y-7475D01*
D02*
G37*
G36*
X-18175Y-18338D02*
Y-18825D01*
X-17862D01*
Y-18375D01*
X-17737D01*
Y-18825D01*
X-17425D01*
D01*
X-17425D01*
X-17325Y-18925D01*
Y-19408D01*
X-18125Y-20208D01*
X-19469D01*
X-19527Y-20069D01*
X-18629Y-19171D01*
X-18629Y-19171D01*
X-18576Y-19093D01*
X-18558Y-19000D01*
Y-18525D01*
X-18314Y-18281D01*
X-18175Y-18338D01*
D02*
G37*
G36*
X-20074Y-2886D02*
X-20131Y-3025D01*
X-21325D01*
Y-3075D01*
X-21737D01*
Y-3500D01*
Y-3925D01*
X-21325D01*
Y-3975D01*
X-20955D01*
Y-4675D01*
X-22375D01*
Y-5344D01*
X-23241D01*
Y-5026D01*
X-23070Y-4855D01*
X-23033Y-4800D01*
X-23015Y-4773D01*
X-22995Y-4675D01*
Y-2856D01*
X-22894Y-2755D01*
X-20206D01*
X-20074Y-2886D01*
D02*
G37*
G36*
X-35170Y-35102D02*
X-35014Y-35133D01*
X-34869Y-35104D01*
X-34763Y-35210D01*
X-34766Y-35225D01*
X-34735Y-35381D01*
X-34647Y-35513D01*
X-34514Y-35602D01*
X-34358Y-35633D01*
X-34203Y-35602D01*
X-34087Y-35697D01*
Y-38379D01*
X-35880Y-40173D01*
X-36615D01*
X-36714Y-40060D01*
X-36693Y-39900D01*
X-36722Y-39678D01*
X-36808Y-39471D01*
X-36944Y-39294D01*
X-37121Y-39158D01*
X-37222Y-39116D01*
X-37251Y-38969D01*
X-35386Y-37104D01*
X-35331Y-37021D01*
X-35311Y-36923D01*
X-35311Y-36923D01*
X-35311Y-36923D01*
Y-36923D01*
Y-35166D01*
X-35179Y-35096D01*
X-35170Y-35102D01*
D02*
G37*
G36*
X-22375Y-6025D02*
Y-6675D01*
X-22325D01*
Y-6675D01*
X-22325Y-6675D01*
X-22325Y-6675D01*
Y-6912D01*
X-21350D01*
Y-6975D01*
X-21288D01*
Y-7275D01*
X-20375D01*
D01*
X-20375D01*
X-20331Y-7319D01*
Y-7531D01*
X-20400Y-7634D01*
X-20425Y-7756D01*
X-20694Y-8025D01*
X-21325D01*
Y-8075D01*
X-21737D01*
Y-8500D01*
Y-8925D01*
X-21325D01*
Y-8975D01*
X-21031D01*
Y-9225D01*
X-21225D01*
Y-9275D01*
X-21325D01*
Y-9275D01*
X-21788D01*
Y-9725D01*
X-21850D01*
Y-9788D01*
X-22375D01*
Y-9935D01*
X-22514Y-9993D01*
X-23319Y-9188D01*
Y-7833D01*
X-23300Y-7822D01*
X-23251Y-7778D01*
X-23248Y-7774D01*
X-23244Y-7772D01*
X-23228Y-7747D01*
X-23209Y-7722D01*
X-23208Y-7718D01*
X-23206Y-7714D01*
X-23200Y-7684D01*
X-23192Y-7655D01*
X-23193Y-7650D01*
X-23192Y-7646D01*
Y-7519D01*
X-23193Y-7514D01*
X-23192Y-7509D01*
X-23200Y-7480D01*
X-23206Y-7450D01*
X-23208Y-7446D01*
X-23209Y-7442D01*
X-23228Y-7418D01*
X-23241Y-7398D01*
Y-6006D01*
X-22375D01*
Y-6025D01*
D02*
G37*
G36*
X-12193Y-23915D02*
X-12203Y-23917D01*
X-12385Y-24038D01*
X-12507Y-24220D01*
X-12550Y-24435D01*
X-12507Y-24649D01*
X-12385Y-24831D01*
X-12244Y-24926D01*
Y-26500D01*
X-12489D01*
Y-27594D01*
X-12489Y-27594D01*
X-12489D01*
X-12489Y-27650D01*
Y-27675D01*
Y-27700D01*
X-12489Y-27756D01*
X-12489Y-27756D01*
X-12489D01*
Y-28850D01*
X-11979D01*
X-11935Y-28994D01*
X-11940Y-28997D01*
X-12067Y-29187D01*
X-12111Y-29411D01*
X-12067Y-29635D01*
X-11940Y-29826D01*
X-11931Y-29831D01*
X-11974Y-29975D01*
X-12489D01*
Y-31069D01*
X-12489Y-31069D01*
X-12489D01*
X-12489Y-31125D01*
Y-31150D01*
Y-31175D01*
X-12489Y-31231D01*
X-12489Y-31231D01*
X-12489D01*
Y-32325D01*
X-12244D01*
Y-53917D01*
X-15021Y-56695D01*
X-18500D01*
X-18509Y-56545D01*
X-18509D01*
Y-56545D01*
X-18315Y-56520D01*
X-18078Y-56422D01*
X-17875Y-56265D01*
X-17718Y-56062D01*
X-17620Y-55825D01*
X-17595Y-55632D01*
X-19545D01*
X-19520Y-55825D01*
X-19422Y-56062D01*
X-19265Y-56265D01*
X-19062Y-56422D01*
X-18825Y-56520D01*
X-18631Y-56545D01*
X-18640Y-56695D01*
X-20848D01*
X-20858Y-56545D01*
X-20849Y-56544D01*
X-20606Y-56444D01*
X-20397Y-56283D01*
X-20237Y-56074D01*
X-20136Y-55831D01*
X-20101Y-55570D01*
X-20136Y-55309D01*
X-20237Y-55066D01*
X-20397Y-54857D01*
X-20606Y-54696D01*
X-20849Y-54596D01*
X-21110Y-54561D01*
X-21371Y-54596D01*
X-21614Y-54696D01*
X-21823Y-54857D01*
X-21983Y-55066D01*
X-22084Y-55309D01*
X-22119Y-55570D01*
X-22084Y-55831D01*
X-21983Y-56074D01*
X-21823Y-56283D01*
X-21614Y-56444D01*
X-21371Y-56544D01*
X-21362Y-56545D01*
X-21372Y-56695D01*
X-23388D01*
X-23398Y-56545D01*
X-23389Y-56544D01*
X-23146Y-56444D01*
X-22937Y-56283D01*
X-22777Y-56074D01*
X-22676Y-55831D01*
X-22641Y-55570D01*
X-22676Y-55309D01*
X-22777Y-55066D01*
X-22937Y-54857D01*
X-23146Y-54696D01*
X-23389Y-54596D01*
X-23650Y-54561D01*
X-23911Y-54596D01*
X-24154Y-54696D01*
X-24363Y-54857D01*
X-24524Y-55066D01*
X-24537Y-55098D01*
X-24684Y-55069D01*
Y-53531D01*
X-24537Y-53502D01*
X-24524Y-53534D01*
X-24363Y-53743D01*
X-24154Y-53903D01*
X-23911Y-54004D01*
X-23650Y-54039D01*
X-23389Y-54004D01*
X-23146Y-53903D01*
X-22937Y-53743D01*
X-22777Y-53534D01*
X-22676Y-53291D01*
X-22641Y-53030D01*
X-22676Y-52769D01*
X-22777Y-52526D01*
X-22937Y-52317D01*
X-23146Y-52157D01*
X-23389Y-52056D01*
X-23650Y-52021D01*
X-23911Y-52056D01*
X-24154Y-52157D01*
X-24363Y-52317D01*
X-24524Y-52526D01*
X-24537Y-52558D01*
X-24684Y-52529D01*
Y-48982D01*
X-24495Y-48792D01*
X-24458Y-48737D01*
X-24440Y-48710D01*
X-24420Y-48612D01*
Y-43575D01*
X-24414Y-43574D01*
X-24171Y-43473D01*
X-23962Y-43313D01*
X-23802Y-43104D01*
X-23701Y-42861D01*
X-23666Y-42600D01*
X-23701Y-42339D01*
X-23802Y-42096D01*
X-23962Y-41887D01*
X-24171Y-41727D01*
X-24414Y-41626D01*
X-24675Y-41591D01*
X-24936Y-41626D01*
X-25179Y-41727D01*
X-25388Y-41887D01*
X-25549Y-42096D01*
X-25649Y-42339D01*
X-25684Y-42600D01*
X-25649Y-42861D01*
X-25549Y-43104D01*
X-25388Y-43313D01*
X-25179Y-43473D01*
X-24936Y-43574D01*
X-24930Y-43575D01*
Y-48507D01*
X-25119Y-48696D01*
X-25175Y-48779D01*
X-25194Y-48876D01*
Y-52452D01*
X-25336Y-52500D01*
X-25477Y-52317D01*
X-25686Y-52157D01*
X-25929Y-52056D01*
X-26190Y-52021D01*
X-26451Y-52056D01*
X-26694Y-52157D01*
X-26903Y-52317D01*
X-27058Y-52519D01*
X-27176Y-52479D01*
X-27200Y-52469D01*
Y-51725D01*
X-27217Y-51643D01*
X-27220Y-51627D01*
X-27275Y-51545D01*
X-28097Y-50722D01*
Y-47595D01*
X-28064Y-47573D01*
X-27975Y-47440D01*
X-27944Y-47284D01*
X-27975Y-47128D01*
X-28064Y-46996D01*
X-28196Y-46908D01*
X-28352Y-46877D01*
X-28508Y-46908D01*
X-28640Y-46996D01*
X-28729Y-47128D01*
X-28760Y-47284D01*
X-28729Y-47440D01*
X-28640Y-47573D01*
X-28607Y-47595D01*
Y-50828D01*
X-28607Y-50828D01*
X-28607D01*
X-28588Y-50926D01*
X-28532Y-51008D01*
X-27710Y-51830D01*
Y-52465D01*
X-27857Y-52526D01*
X-28017Y-52317D01*
X-28226Y-52157D01*
X-28469Y-52056D01*
X-28730Y-52021D01*
X-28991Y-52056D01*
X-29234Y-52157D01*
X-29443Y-52317D01*
X-29604Y-52526D01*
X-29704Y-52769D01*
X-29739Y-53030D01*
X-29704Y-53291D01*
X-29604Y-53534D01*
X-29443Y-53743D01*
X-29234Y-53903D01*
X-28991Y-54004D01*
X-28730Y-54039D01*
X-28469Y-54004D01*
X-28226Y-53903D01*
X-28017Y-53743D01*
X-27857Y-53534D01*
X-27710Y-53595D01*
Y-54190D01*
X-28221Y-54700D01*
X-28226Y-54696D01*
X-28469Y-54596D01*
X-28730Y-54561D01*
X-28991Y-54596D01*
X-29234Y-54696D01*
X-29443Y-54857D01*
X-29604Y-55066D01*
X-29704Y-55309D01*
X-29739Y-55570D01*
X-29704Y-55831D01*
X-29604Y-56074D01*
X-29443Y-56283D01*
X-29234Y-56444D01*
X-28991Y-56544D01*
X-28730Y-56579D01*
X-28469Y-56544D01*
X-28226Y-56444D01*
X-28017Y-56283D01*
X-27857Y-56074D01*
X-27756Y-55831D01*
X-27721Y-55570D01*
X-27756Y-55309D01*
X-27857Y-55066D01*
X-27860Y-55061D01*
X-27275Y-54476D01*
X-27238Y-54420D01*
X-27220Y-54393D01*
X-27200Y-54295D01*
Y-53591D01*
X-27176Y-53581D01*
X-27058Y-53541D01*
X-26903Y-53743D01*
X-26694Y-53903D01*
X-26451Y-54004D01*
X-26190Y-54039D01*
X-25929Y-54004D01*
X-25686Y-53903D01*
X-25477Y-53743D01*
X-25336Y-53560D01*
X-25194Y-53608D01*
Y-54992D01*
X-25336Y-55040D01*
X-25477Y-54857D01*
X-25686Y-54696D01*
X-25929Y-54596D01*
X-26190Y-54561D01*
X-26451Y-54596D01*
X-26694Y-54696D01*
X-26903Y-54857D01*
X-27063Y-55066D01*
X-27164Y-55309D01*
X-27199Y-55570D01*
X-27164Y-55831D01*
X-27063Y-56074D01*
X-26903Y-56283D01*
X-26694Y-56444D01*
X-26451Y-56544D01*
X-26442Y-56545D01*
X-26452Y-56695D01*
X-27039D01*
X-27062Y-56662D01*
X-27194Y-56573D01*
X-27350Y-56542D01*
X-27506Y-56573D01*
X-27638Y-56662D01*
X-27727Y-56794D01*
X-27758Y-56950D01*
X-27727Y-57106D01*
X-27638Y-57238D01*
X-27506Y-57327D01*
X-27350Y-57358D01*
X-27194Y-57327D01*
X-27062Y-57238D01*
X-27039Y-57205D01*
X-14916D01*
X-14818Y-57185D01*
X-14736Y-57130D01*
X-11809Y-54203D01*
X-11772Y-54148D01*
X-11753Y-54121D01*
X-11734Y-54023D01*
Y-32325D01*
X-11489D01*
Y-31231D01*
X-11489Y-31231D01*
D01*
D01*
X-11489Y-31175D01*
Y-31169D01*
Y-31150D01*
X-11489Y-31125D01*
X-11489Y-31069D01*
X-11489Y-31069D01*
X-11489D01*
Y-30296D01*
X-11391Y-30198D01*
X-11253Y-30256D01*
Y-31069D01*
X-11253Y-31069D01*
X-11253D01*
X-11253Y-31125D01*
Y-31150D01*
Y-31175D01*
X-11253Y-31231D01*
X-11253Y-31231D01*
X-11253D01*
Y-32325D01*
X-11008D01*
Y-54429D01*
X-14147Y-57569D01*
X-38813D01*
X-39926Y-56456D01*
Y-56066D01*
X-39779Y-56037D01*
X-39764Y-56074D01*
X-39603Y-56283D01*
X-39394Y-56444D01*
X-39151Y-56544D01*
X-38890Y-56579D01*
X-38629Y-56544D01*
X-38386Y-56444D01*
X-38381Y-56440D01*
X-37690Y-57130D01*
X-37608Y-57185D01*
X-37510Y-57205D01*
X-33100D01*
X-33002Y-57185D01*
X-32920Y-57130D01*
X-32370Y-56580D01*
X-32315Y-56498D01*
X-32295Y-56400D01*
Y-56093D01*
X-32148Y-56063D01*
X-32144Y-56074D01*
X-31983Y-56283D01*
X-31774Y-56444D01*
X-31531Y-56544D01*
X-31270Y-56579D01*
X-31009Y-56544D01*
X-30766Y-56444D01*
X-30557Y-56283D01*
X-30397Y-56074D01*
X-30296Y-55831D01*
X-30261Y-55570D01*
X-30296Y-55309D01*
X-30397Y-55066D01*
X-30557Y-54857D01*
X-30766Y-54696D01*
X-31009Y-54596D01*
X-31270Y-54561D01*
X-31531Y-54596D01*
X-31774Y-54696D01*
X-31983Y-54857D01*
X-32144Y-55066D01*
X-32148Y-55077D01*
X-32295Y-55047D01*
Y-53553D01*
X-32148Y-53523D01*
X-32144Y-53534D01*
X-31983Y-53743D01*
X-31774Y-53903D01*
X-31531Y-54004D01*
X-31270Y-54039D01*
X-31009Y-54004D01*
X-30766Y-53903D01*
X-30557Y-53743D01*
X-30397Y-53534D01*
X-30296Y-53291D01*
X-30261Y-53030D01*
X-30296Y-52769D01*
X-30397Y-52526D01*
X-30557Y-52317D01*
X-30766Y-52157D01*
X-31009Y-52056D01*
X-31270Y-52021D01*
X-31531Y-52056D01*
X-31774Y-52157D01*
X-31983Y-52317D01*
X-32144Y-52526D01*
X-32148Y-52537D01*
X-32295Y-52507D01*
Y-51981D01*
X-30570Y-50255D01*
X-30533Y-50200D01*
X-30515Y-50173D01*
X-30495Y-50075D01*
Y-48850D01*
X-30352Y-48806D01*
X-30313Y-48863D01*
X-30181Y-48952D01*
X-30025Y-48983D01*
X-29869Y-48952D01*
X-29737Y-48863D01*
X-29648Y-48731D01*
X-29617Y-48575D01*
X-29648Y-48419D01*
X-29737Y-48287D01*
X-29770Y-48264D01*
Y-46430D01*
X-29634Y-46338D01*
X-29501Y-46427D01*
X-29345Y-46458D01*
X-29189Y-46427D01*
X-29057Y-46338D01*
X-28968Y-46206D01*
X-28937Y-46050D01*
X-28968Y-45894D01*
X-29057Y-45762D01*
X-29090Y-45739D01*
Y-35121D01*
X-28958Y-35050D01*
X-28881Y-35102D01*
X-28725Y-35133D01*
X-28569Y-35102D01*
X-28437Y-35013D01*
X-28348Y-34881D01*
X-28317Y-34725D01*
X-28348Y-34569D01*
X-28437Y-34437D01*
X-28480Y-34407D01*
Y-33615D01*
X-28348Y-33544D01*
X-28262Y-33602D01*
X-28106Y-33633D01*
X-27950Y-33602D01*
X-27817Y-33513D01*
X-27729Y-33381D01*
X-27698Y-33225D01*
X-27729Y-33069D01*
X-27817Y-32937D01*
X-27851Y-32914D01*
Y-32326D01*
X-27606D01*
Y-31176D01*
D01*
Y-31176D01*
X-27606Y-31176D01*
Y-31126D01*
X-27606D01*
Y-29976D01*
X-27658D01*
X-27701Y-29832D01*
X-27691Y-29826D01*
X-27564Y-29635D01*
X-27519Y-29411D01*
X-27546Y-29275D01*
X-27408Y-29218D01*
X-27281Y-29408D01*
X-27121Y-29515D01*
Y-29976D01*
X-27366D01*
Y-31070D01*
X-27366Y-31070D01*
X-27366D01*
X-27366Y-31126D01*
Y-31151D01*
Y-31176D01*
X-27366Y-31232D01*
X-27366Y-31232D01*
X-27366D01*
Y-32326D01*
X-27121D01*
Y-38084D01*
X-27263Y-38178D01*
X-27384Y-38360D01*
X-27427Y-38575D01*
X-27384Y-38790D01*
X-27263Y-38972D01*
X-27081Y-39093D01*
X-26866Y-39136D01*
X-26652Y-39093D01*
X-26470Y-38972D01*
X-26348Y-38790D01*
X-26305Y-38575D01*
X-26348Y-38360D01*
X-26470Y-38178D01*
X-26611Y-38084D01*
Y-32326D01*
X-26366D01*
Y-31232D01*
X-26366Y-31232D01*
D01*
D01*
X-26366Y-31176D01*
Y-31170D01*
Y-31151D01*
X-26366Y-31126D01*
X-26366Y-31070D01*
X-26366Y-31070D01*
X-26366D01*
Y-29976D01*
X-26611D01*
Y-29515D01*
X-26452Y-29408D01*
X-26324Y-29218D01*
X-26280Y-28994D01*
X-26324Y-28769D01*
X-26452Y-28579D01*
X-26611Y-28472D01*
Y-27634D01*
X-26473Y-27576D01*
X-26072Y-27977D01*
X-26170Y-28124D01*
X-26214Y-28348D01*
X-26170Y-28573D01*
X-26043Y-28763D01*
X-25883Y-28870D01*
Y-29976D01*
X-26127D01*
Y-31070D01*
X-26127Y-31070D01*
X-26127D01*
X-26127Y-31126D01*
Y-31151D01*
Y-31176D01*
X-26127Y-31232D01*
X-26127Y-31232D01*
X-26127D01*
Y-32326D01*
X-25881D01*
Y-34237D01*
X-26018Y-34328D01*
X-26139Y-34510D01*
X-26182Y-34725D01*
X-26139Y-34940D01*
X-26018Y-35122D01*
X-25836Y-35243D01*
X-25621Y-35286D01*
X-25407Y-35243D01*
X-25225Y-35122D01*
X-25103Y-34940D01*
X-25060Y-34725D01*
X-25103Y-34510D01*
X-25225Y-34328D01*
X-25372Y-34230D01*
Y-32326D01*
X-25127D01*
Y-31232D01*
X-25127Y-31232D01*
D01*
D01*
X-25127Y-31176D01*
Y-31170D01*
Y-31151D01*
X-25127Y-31126D01*
X-25127Y-31070D01*
X-25127Y-31070D01*
X-25127D01*
Y-29976D01*
X-25373D01*
Y-28870D01*
X-25214Y-28763D01*
X-25087Y-28573D01*
X-25042Y-28348D01*
X-25079Y-28163D01*
X-24947Y-28092D01*
X-24642Y-28397D01*
Y-28576D01*
X-24802Y-28683D01*
X-24929Y-28873D01*
X-24973Y-29098D01*
X-24929Y-29322D01*
X-24802Y-29512D01*
X-24642Y-29619D01*
Y-29976D01*
X-24887D01*
Y-31070D01*
X-24887Y-31070D01*
X-24887D01*
X-24887Y-31126D01*
Y-31151D01*
Y-31176D01*
X-24887Y-31232D01*
X-24887Y-31232D01*
X-24887D01*
Y-32326D01*
X-24642D01*
Y-36139D01*
X-24675Y-36162D01*
X-24764Y-36294D01*
X-24795Y-36450D01*
X-24764Y-36606D01*
X-24675Y-36738D01*
X-24543Y-36827D01*
X-24387Y-36858D01*
X-24348Y-36850D01*
X-22390Y-38808D01*
Y-41625D01*
X-22396Y-41626D01*
X-22639Y-41727D01*
X-22848Y-41887D01*
X-23008Y-42096D01*
X-23109Y-42339D01*
X-23144Y-42600D01*
X-23109Y-42861D01*
X-23008Y-43104D01*
X-22848Y-43313D01*
X-22639Y-43473D01*
X-22396Y-43574D01*
X-22135Y-43609D01*
X-21874Y-43574D01*
X-21631Y-43473D01*
X-21422Y-43313D01*
X-21261Y-43104D01*
X-21161Y-42861D01*
X-21126Y-42600D01*
X-21161Y-42339D01*
X-21261Y-42096D01*
X-21422Y-41887D01*
X-21631Y-41727D01*
X-21874Y-41626D01*
X-21880Y-41625D01*
Y-38702D01*
X-21900Y-38605D01*
X-21955Y-38522D01*
X-23987Y-36489D01*
X-23979Y-36450D01*
X-24010Y-36294D01*
X-24099Y-36162D01*
X-24132Y-36139D01*
Y-32326D01*
X-23887D01*
Y-31232D01*
X-23887Y-31232D01*
D01*
D01*
X-23887Y-31176D01*
Y-31170D01*
Y-31151D01*
X-23887Y-31126D01*
X-23887Y-31070D01*
X-23887Y-31070D01*
X-23887D01*
Y-29976D01*
X-24132D01*
Y-29619D01*
X-23973Y-29512D01*
X-23845Y-29322D01*
X-23801Y-29098D01*
X-23845Y-28873D01*
X-23973Y-28683D01*
X-24132Y-28576D01*
Y-28291D01*
X-24152Y-28194D01*
X-24207Y-28111D01*
X-24948Y-27370D01*
X-25031Y-27315D01*
X-25128Y-27295D01*
X-25541D01*
X-25873Y-26964D01*
X-25815Y-26825D01*
X-25350D01*
Y-26775D01*
X-24962D01*
Y-26400D01*
Y-26025D01*
X-25350D01*
X-25350Y-25975D01*
D01*
Y-25925D01*
D01*
X-25350Y-25875D01*
X-24962D01*
Y-25500D01*
X-24900D01*
Y-25438D01*
X-24450D01*
Y-25138D01*
X-24311Y-25081D01*
X-23895Y-25497D01*
Y-26032D01*
X-23941Y-26063D01*
X-24030Y-26195D01*
X-24061Y-26351D01*
X-24030Y-26507D01*
X-23941Y-26640D01*
X-23809Y-26728D01*
X-23653Y-26759D01*
X-23497Y-26728D01*
X-23462Y-26705D01*
X-23330Y-26775D01*
Y-27149D01*
X-23490Y-27256D01*
X-23617Y-27446D01*
X-23661Y-27670D01*
X-23617Y-27895D01*
X-23490Y-28085D01*
X-23330Y-28191D01*
Y-29976D01*
X-23648D01*
Y-31126D01*
X-23648Y-31126D01*
X-23648Y-31176D01*
X-23648D01*
Y-32326D01*
X-23402D01*
Y-33732D01*
X-23544Y-33826D01*
X-23666Y-34008D01*
X-23708Y-34223D01*
X-23666Y-34437D01*
X-23544Y-34619D01*
X-23362Y-34741D01*
X-23148Y-34784D01*
X-22933Y-34741D01*
X-22751Y-34619D01*
X-22629Y-34437D01*
X-22587Y-34223D01*
X-22629Y-34008D01*
X-22751Y-33826D01*
X-22893Y-33732D01*
Y-32326D01*
X-22648D01*
Y-31611D01*
X-22547Y-31511D01*
X-22408Y-31568D01*
Y-32326D01*
X-22163D01*
Y-33234D01*
X-22305Y-33328D01*
X-22426Y-33510D01*
X-22469Y-33725D01*
X-22426Y-33940D01*
X-22305Y-34122D01*
X-22123Y-34243D01*
X-21908Y-34286D01*
X-21693Y-34243D01*
X-21512Y-34122D01*
X-21390Y-33940D01*
X-21347Y-33725D01*
X-21390Y-33510D01*
X-21512Y-33328D01*
X-21653Y-33234D01*
Y-32326D01*
X-21408D01*
Y-31611D01*
X-21307Y-31511D01*
X-21169Y-31568D01*
Y-32326D01*
X-20707D01*
Y-41119D01*
X-20741Y-41142D01*
X-20829Y-41274D01*
X-20860Y-41430D01*
X-20829Y-41586D01*
X-20741Y-41718D01*
X-20707Y-41741D01*
Y-49447D01*
X-20741Y-49470D01*
X-20829Y-49602D01*
X-20860Y-49758D01*
X-20829Y-49914D01*
X-20741Y-50046D01*
X-20609Y-50135D01*
X-20452Y-50166D01*
X-20296Y-50135D01*
X-20164Y-50046D01*
X-20076Y-49914D01*
X-20045Y-49758D01*
X-20076Y-49602D01*
X-20164Y-49470D01*
X-20198Y-49447D01*
Y-41741D01*
X-20164Y-41718D01*
X-20076Y-41586D01*
X-20045Y-41430D01*
X-20076Y-41274D01*
X-20164Y-41142D01*
X-20198Y-41119D01*
Y-32326D01*
X-20169D01*
Y-31176D01*
D01*
Y-31176D01*
X-20169Y-31176D01*
Y-31126D01*
X-20169D01*
Y-29976D01*
X-20414D01*
Y-27846D01*
X-20254Y-27740D01*
X-20127Y-27549D01*
X-20082Y-27325D01*
X-20127Y-27101D01*
X-20254Y-26910D01*
X-20414Y-26804D01*
Y-26152D01*
X-20380Y-26129D01*
X-20292Y-25997D01*
X-20261Y-25841D01*
X-20292Y-25685D01*
X-20380Y-25552D01*
X-20512Y-25464D01*
X-20669Y-25433D01*
X-20825Y-25464D01*
X-20957Y-25552D01*
X-21045Y-25685D01*
X-21076Y-25841D01*
X-21045Y-25997D01*
X-20957Y-26129D01*
X-20923Y-26152D01*
Y-26804D01*
X-21083Y-26910D01*
X-21210Y-27101D01*
X-21255Y-27325D01*
X-21224Y-27479D01*
X-21330Y-27585D01*
X-21331Y-27585D01*
X-21487Y-27616D01*
X-21521Y-27639D01*
X-21653Y-27568D01*
Y-26611D01*
X-21494Y-26504D01*
X-21366Y-26314D01*
X-21322Y-26090D01*
X-21366Y-25866D01*
X-21494Y-25675D01*
X-21684Y-25548D01*
X-21908Y-25504D01*
X-22096Y-25541D01*
X-23440Y-24198D01*
X-23432Y-24048D01*
X-23400Y-24021D01*
X-23277Y-23997D01*
X-23173Y-23927D01*
X-23150Y-23893D01*
X-23000D01*
X-22977Y-23927D01*
X-22873Y-23997D01*
X-22750Y-24021D01*
X-22627Y-23997D01*
X-22523Y-23927D01*
X-22500Y-23893D01*
X-22350D01*
X-22327Y-23927D01*
X-22223Y-23997D01*
X-22100Y-24021D01*
X-21977Y-23997D01*
X-21873Y-23927D01*
X-21803Y-23823D01*
X-21792Y-23766D01*
X-15128D01*
X-15033Y-23881D01*
X-15058Y-24010D01*
X-15050Y-24049D01*
X-15283Y-24282D01*
X-15339Y-24365D01*
X-15358Y-24463D01*
Y-24869D01*
X-15502Y-24912D01*
X-15616Y-24741D01*
X-15798Y-24619D01*
X-16013Y-24577D01*
X-16227Y-24619D01*
X-16409Y-24741D01*
X-16531Y-24923D01*
X-16531Y-24924D01*
X-16610Y-24977D01*
X-16674Y-25003D01*
X-16794Y-24923D01*
X-16950Y-24892D01*
X-17106Y-24923D01*
X-17238Y-25012D01*
X-17327Y-25144D01*
X-17358Y-25300D01*
X-17327Y-25456D01*
X-17262Y-25553D01*
X-17365Y-25622D01*
X-17492Y-25812D01*
X-17536Y-26037D01*
X-17492Y-26261D01*
X-17365Y-26451D01*
X-17205Y-26558D01*
Y-29976D01*
X-17450D01*
Y-31070D01*
X-17450Y-31070D01*
X-17450D01*
X-17450Y-31126D01*
Y-31151D01*
Y-31176D01*
X-17450Y-31232D01*
X-17450Y-31232D01*
X-17450D01*
Y-32326D01*
X-17205D01*
Y-32966D01*
X-17238Y-32988D01*
X-17327Y-33121D01*
X-17358Y-33277D01*
X-17327Y-33433D01*
X-17238Y-33565D01*
X-17106Y-33653D01*
X-16950Y-33684D01*
X-16794Y-33653D01*
X-16662Y-33565D01*
X-16573Y-33433D01*
X-16542Y-33277D01*
X-16573Y-33121D01*
X-16662Y-32988D01*
X-16695Y-32966D01*
Y-32326D01*
X-16450D01*
Y-31232D01*
X-16450Y-31232D01*
D01*
D01*
X-16450Y-31176D01*
Y-31170D01*
Y-31151D01*
X-16450Y-31126D01*
X-16450Y-31070D01*
X-16450Y-31070D01*
X-16450D01*
Y-29976D01*
X-16695D01*
Y-26558D01*
X-16535Y-26451D01*
X-16411Y-26265D01*
X-16267Y-26308D01*
Y-30238D01*
X-16267Y-30238D01*
X-16267D01*
X-16248Y-30336D01*
X-16200Y-30408D01*
Y-31126D01*
X-16200Y-31126D01*
X-16200Y-31176D01*
X-16200D01*
Y-32326D01*
X-15200D01*
Y-31611D01*
X-15100Y-31511D01*
X-14961Y-31569D01*
Y-32325D01*
X-14716D01*
Y-46985D01*
X-14750Y-47007D01*
X-14838Y-47139D01*
X-14869Y-47295D01*
X-14838Y-47451D01*
X-14750Y-47584D01*
X-14617Y-47672D01*
X-14461Y-47703D01*
X-14305Y-47672D01*
X-14173Y-47584D01*
X-14084Y-47451D01*
X-14053Y-47295D01*
X-14084Y-47139D01*
X-14173Y-47007D01*
X-14206Y-46985D01*
Y-32325D01*
X-13961D01*
Y-31175D01*
D01*
Y-31175D01*
X-13961Y-31175D01*
Y-31125D01*
X-13961D01*
Y-29975D01*
X-14010D01*
X-14053Y-29831D01*
X-14047Y-29827D01*
X-13920Y-29637D01*
X-13875Y-29413D01*
X-13920Y-29188D01*
X-14047Y-28998D01*
X-14053Y-28994D01*
X-14010Y-28850D01*
X-13961D01*
Y-27700D01*
D01*
Y-27700D01*
X-13961Y-27700D01*
Y-27650D01*
X-13961D01*
Y-26500D01*
X-14206D01*
Y-26280D01*
X-14065Y-26185D01*
X-13943Y-26003D01*
X-13900Y-25789D01*
X-13943Y-25574D01*
X-14065Y-25392D01*
X-14247Y-25271D01*
X-14461Y-25228D01*
X-14676Y-25271D01*
X-14716Y-25298D01*
X-14848Y-25227D01*
Y-24568D01*
X-14690Y-24410D01*
X-14650Y-24418D01*
X-14494Y-24387D01*
X-14362Y-24298D01*
X-14274Y-24166D01*
X-14243Y-24010D01*
X-14268Y-23881D01*
X-14173Y-23766D01*
X-12208D01*
X-12193Y-23915D01*
D02*
G37*
G36*
X-10080Y-6657D02*
Y-9084D01*
X-10222Y-9178D01*
X-10343Y-9360D01*
X-10386Y-9575D01*
X-10343Y-9790D01*
X-10222Y-9972D01*
X-10216Y-9975D01*
X-10260Y-10119D01*
X-14525D01*
Y-9975D01*
X-16175D01*
Y-10119D01*
X-18552D01*
X-18622Y-9986D01*
X-18558Y-9891D01*
X-18514Y-9666D01*
X-18558Y-9442D01*
X-18685Y-9252D01*
X-18845Y-9145D01*
Y-9000D01*
X-18525D01*
Y-8950D01*
X-18425D01*
Y-8950D01*
X-18097D01*
X-18053Y-9094D01*
X-18117Y-9137D01*
X-18206Y-9269D01*
X-18237Y-9425D01*
X-18206Y-9581D01*
X-18117Y-9713D01*
X-17985Y-9802D01*
X-17829Y-9833D01*
X-17673Y-9802D01*
X-17541Y-9713D01*
X-17518Y-9680D01*
X-16075D01*
X-15977Y-9660D01*
X-15895Y-9605D01*
X-15290Y-9000D01*
X-14575D01*
Y-8285D01*
X-14220Y-7930D01*
X-14165Y-7848D01*
X-14145Y-7750D01*
Y-6656D01*
X-13992D01*
X-13936Y-6740D01*
X-13746Y-6867D01*
X-13522Y-6911D01*
X-13298Y-6867D01*
X-13107Y-6740D01*
X-13052Y-6656D01*
X-12012D01*
X-11825Y-6844D01*
X-11800Y-6966D01*
X-11706Y-7106D01*
X-11566Y-7200D01*
X-11400Y-7233D01*
X-11234Y-7200D01*
X-11094Y-7106D01*
X-11000Y-6966D01*
X-10967Y-6800D01*
X-11000Y-6634D01*
X-11094Y-6494D01*
X-11234Y-6400D01*
X-11356Y-6375D01*
X-11641Y-6091D01*
X-11667Y-6073D01*
X-11623Y-5930D01*
X-10807D01*
X-10080Y-6657D01*
D02*
G37*
G36*
X-17325Y-22092D02*
Y-22675D01*
X-16475D01*
Y-22430D01*
X-16225D01*
Y-22956D01*
X-21103D01*
X-21514Y-22545D01*
X-21597Y-22490D01*
X-21694Y-22470D01*
X-21758Y-22483D01*
X-21779Y-22400D01*
X-21779Y-22400D01*
X-21779D01*
X-21803Y-22277D01*
X-21873Y-22173D01*
X-21907Y-22150D01*
Y-22000D01*
X-21873Y-21977D01*
X-21803Y-21873D01*
X-21779Y-21750D01*
X-21711Y-21667D01*
X-21419D01*
X-21388Y-21713D01*
X-21256Y-21802D01*
X-21100Y-21833D01*
X-20944Y-21802D01*
X-20812Y-21713D01*
X-20812Y-21713D01*
X-20812Y-21713D01*
D01*
X-20811Y-21712D01*
X-20775Y-21725D01*
Y-21725D01*
X-19775D01*
Y-21675D01*
X-19388D01*
Y-21300D01*
X-19325D01*
Y-21237D01*
X-18875D01*
Y-21042D01*
X-18375D01*
X-17325Y-22092D01*
D02*
G37*
G36*
X-19255Y-3705D02*
X-19173Y-3760D01*
X-19075Y-3780D01*
X-18150D01*
Y-4025D01*
X-17000D01*
Y-4025D01*
X-17000D01*
X-17000Y-4025D01*
X-16950D01*
Y-4025D01*
X-16630D01*
Y-4675D01*
X-16675D01*
Y-5375D01*
Y-5994D01*
X-17538D01*
X-18741Y-4791D01*
X-18848Y-4719D01*
X-18975Y-4694D01*
X-20325D01*
Y-4675D01*
X-20445D01*
Y-3975D01*
X-20075D01*
Y-3081D01*
X-19936Y-3024D01*
X-19255Y-3705D01*
D02*
G37*
G36*
X-34743Y-10033D02*
X-34787Y-10176D01*
X-34815Y-10182D01*
X-34997Y-10303D01*
X-35118Y-10485D01*
X-35161Y-10700D01*
X-35138Y-10812D01*
X-35271Y-10883D01*
X-37666Y-8488D01*
Y-8179D01*
X-37685Y-8082D01*
X-37741Y-7999D01*
X-37874Y-7865D01*
X-37811Y-7711D01*
X-37783Y-7500D01*
X-37811Y-7289D01*
X-37892Y-7092D01*
X-37768Y-7009D01*
X-34743Y-10033D01*
D02*
G37*
G36*
X-14075Y-10925D02*
X-14075D01*
Y-11875D01*
X-13581D01*
Y-13525D01*
X-14075D01*
Y-14475D01*
X-13050D01*
X-13025Y-14480D01*
X-12435D01*
X-12275Y-14640D01*
Y-15348D01*
X-12275Y-15348D01*
X-12275D01*
X-12275Y-15354D01*
X-12225Y-15454D01*
D01*
X-12225Y-15460D01*
X-12225Y-15460D01*
X-12225D01*
Y-15917D01*
X-11325D01*
Y-15460D01*
X-11325Y-15460D01*
D01*
X-11275Y-15354D01*
X-11275Y-15354D01*
D01*
Y-15354D01*
Y-15354D01*
X-11275Y-15348D01*
X-11275Y-15348D01*
X-11275D01*
Y-14204D01*
X-11990D01*
X-12149Y-14045D01*
X-12232Y-13990D01*
X-12329Y-13970D01*
X-12425D01*
Y-13525D01*
X-12919D01*
Y-11875D01*
X-12425D01*
Y-11731D01*
X-12275D01*
Y-11875D01*
X-10625D01*
Y-11655D01*
X-10152D01*
X-10062Y-11775D01*
X-10092Y-11875D01*
X-10175D01*
Y-12825D01*
X-8525D01*
Y-12782D01*
X-8226D01*
X-7970Y-13039D01*
Y-14490D01*
X-6095D01*
X-6037Y-14629D01*
X-6536Y-15127D01*
X-6709Y-15056D01*
X-6970Y-15021D01*
X-7231Y-15056D01*
X-7474Y-15156D01*
X-7683Y-15317D01*
X-7843Y-15526D01*
X-7944Y-15769D01*
X-7979Y-16030D01*
X-7944Y-16291D01*
X-7843Y-16534D01*
X-7683Y-16743D01*
X-7474Y-16903D01*
X-7231Y-17004D01*
X-6970Y-17039D01*
X-6709Y-17004D01*
X-6466Y-16903D01*
X-6257Y-16743D01*
X-6096Y-16534D01*
X-5996Y-16291D01*
X-5961Y-16030D01*
X-5996Y-15769D01*
X-6067Y-15596D01*
X-5466Y-14994D01*
X-5394Y-14887D01*
X-5369Y-14760D01*
Y-14102D01*
X-5227Y-14053D01*
X-5125Y-14185D01*
X-4922Y-14342D01*
X-4685Y-14440D01*
X-4492Y-14465D01*
Y-13490D01*
Y-12515D01*
X-4685Y-12540D01*
X-4922Y-12638D01*
X-5125Y-12795D01*
X-5227Y-12927D01*
X-5369Y-12878D01*
Y-12350D01*
X-5394Y-12223D01*
X-5466Y-12116D01*
X-5843Y-11739D01*
X-5797Y-11628D01*
D01*
X-5785Y-11600D01*
X-4725D01*
Y-11600D01*
X-4725D01*
X-4725Y-11600D01*
X-4675D01*
Y-11600D01*
X-3960D01*
X-2721Y-12839D01*
X-2758Y-13028D01*
X-2714Y-13252D01*
X-2587Y-13442D01*
X-2397Y-13569D01*
X-2172Y-13614D01*
X-1948Y-13569D01*
X-1758Y-13442D01*
X-1631Y-13252D01*
X-1586Y-13028D01*
X-1628Y-12818D01*
X-1495Y-12747D01*
X-1288Y-12955D01*
Y-23645D01*
X-3469Y-25827D01*
X-3651Y-25790D01*
X-3866Y-25833D01*
X-4048Y-25955D01*
X-4169Y-26137D01*
X-4212Y-26351D01*
X-4206Y-26380D01*
X-4338Y-26451D01*
X-5887Y-24903D01*
X-5969Y-24847D01*
X-6067Y-24828D01*
X-6401D01*
Y-24362D01*
X-7116D01*
X-7477Y-24001D01*
X-7560Y-23945D01*
X-7657Y-23926D01*
X-8644D01*
X-9629Y-22941D01*
X-9712Y-22885D01*
X-9810Y-22866D01*
X-11086D01*
X-11184Y-22885D01*
X-11266Y-22941D01*
X-11281Y-22956D01*
X-12275D01*
Y-21175D01*
X-13925D01*
Y-22956D01*
X-14575D01*
Y-21175D01*
X-16225D01*
Y-21920D01*
X-16475D01*
Y-21675D01*
X-16525D01*
Y-21288D01*
X-16900D01*
Y-21163D01*
X-16525D01*
Y-20775D01*
D01*
Y-20775D01*
X-16525Y-20775D01*
Y-20725D01*
X-16525D01*
Y-20337D01*
X-16900D01*
Y-20212D01*
X-16525D01*
Y-19825D01*
X-16475D01*
Y-19780D01*
X-14125D01*
X-14027Y-19760D01*
X-13945Y-19705D01*
X-13565Y-19325D01*
X-12275D01*
Y-17375D01*
X-13925D01*
Y-18965D01*
X-14231Y-19270D01*
X-14575D01*
Y-17375D01*
X-16225D01*
Y-19270D01*
X-16475D01*
Y-18825D01*
X-16500D01*
Y-18462D01*
X-16900D01*
Y-18337D01*
X-16500D01*
Y-17975D01*
X-16500D01*
Y-17925D01*
X-16450Y-17875D01*
X-16450D01*
Y-16925D01*
X-17350D01*
D01*
D01*
X-17350Y-16925D01*
X-17375D01*
Y-16925D01*
X-18225D01*
Y-16925D01*
X-18368Y-16925D01*
X-18469Y-16794D01*
X-18646Y-16658D01*
X-18853Y-16572D01*
X-19075Y-16543D01*
X-19297Y-16572D01*
X-19300Y-16573D01*
X-19425Y-16490D01*
Y-16300D01*
X-19625D01*
Y-15500D01*
X-20975D01*
Y-16208D01*
X-21067Y-16300D01*
X-21175D01*
Y-16408D01*
X-21407Y-16640D01*
X-21545Y-16582D01*
Y-16211D01*
X-21512Y-16188D01*
X-21423Y-16056D01*
X-21392Y-15900D01*
X-21423Y-15744D01*
X-21512Y-15612D01*
X-21644Y-15523D01*
X-21800Y-15492D01*
X-21956Y-15523D01*
X-22088Y-15612D01*
X-22177Y-15744D01*
X-22208Y-15900D01*
X-22177Y-16056D01*
X-22088Y-16188D01*
X-22055Y-16211D01*
Y-17444D01*
X-22149Y-17539D01*
X-22223Y-17553D01*
X-22327Y-17623D01*
X-22380Y-17702D01*
X-22530D01*
X-22559Y-17659D01*
X-22647Y-17600D01*
X-22688Y-17592D01*
Y-17809D01*
X-22736Y-17842D01*
X-22744Y-17850D01*
X-22812D01*
Y-17592D01*
X-22853Y-17600D01*
X-22941Y-17659D01*
X-22970Y-17702D01*
X-23010D01*
X-23081Y-17570D01*
X-23047Y-17519D01*
X-23018Y-17373D01*
X-23047Y-17226D01*
X-23130Y-17102D01*
X-23254Y-17019D01*
X-23400Y-16990D01*
X-23546Y-17019D01*
X-23670Y-17102D01*
X-23750Y-17102D01*
X-23762Y-17084D01*
X-23808Y-17053D01*
Y-16425D01*
X-23375D01*
Y-16375D01*
X-22987D01*
Y-16000D01*
Y-15625D01*
X-23375D01*
X-23375Y-15575D01*
D01*
Y-15525D01*
D01*
X-23375Y-15475D01*
X-22987D01*
Y-15100D01*
Y-14725D01*
X-23375D01*
Y-14675D01*
X-24375D01*
Y-15525D01*
X-24375Y-15525D01*
X-24375Y-15575D01*
X-24375D01*
Y-16126D01*
X-24405Y-16134D01*
X-24525Y-16045D01*
Y-15575D01*
D01*
Y-15575D01*
X-24525Y-15575D01*
Y-15525D01*
X-24525D01*
Y-14675D01*
X-24525D01*
X-24525Y-14453D01*
X-24483Y-14390D01*
X-24439Y-14166D01*
X-24483Y-13942D01*
X-24610Y-13751D01*
X-24801Y-13624D01*
X-24814Y-13622D01*
X-24799Y-13472D01*
X-18795D01*
X-15434Y-16834D01*
X-15355Y-16886D01*
X-15262Y-16905D01*
X-9566D01*
X-9472Y-17047D01*
X-9290Y-17168D01*
X-9075Y-17211D01*
X-8860Y-17168D01*
X-8678Y-17047D01*
X-8557Y-16865D01*
X-8514Y-16650D01*
X-8557Y-16435D01*
X-8678Y-16253D01*
X-8860Y-16132D01*
X-9075Y-16089D01*
X-9290Y-16132D01*
X-9472Y-16253D01*
X-9583Y-16420D01*
X-11325D01*
Y-16042D01*
X-12225D01*
Y-16420D01*
X-12475D01*
Y-16420D01*
Y-16325D01*
X-12475Y-16314D01*
X-12475Y-16314D01*
X-12475D01*
Y-15962D01*
X-14025D01*
Y-16314D01*
X-14025Y-16314D01*
X-14025D01*
X-14025Y-16325D01*
X-14120Y-16420D01*
X-15162D01*
X-16019Y-15564D01*
X-15962Y-15425D01*
X-14525D01*
Y-14475D01*
X-15019D01*
Y-12825D01*
X-14525D01*
Y-11875D01*
X-16175D01*
Y-12019D01*
X-16425D01*
X-16425Y-11950D01*
D01*
Y-11900D01*
X-16425D01*
Y-10781D01*
X-16175D01*
Y-10925D01*
X-14525D01*
Y-10781D01*
X-14075D01*
Y-10925D01*
D02*
G37*
G36*
X-29400Y-2366D02*
X-29306Y-2506D01*
X-29166Y-2600D01*
X-29049Y-2624D01*
X-29061Y-2750D01*
X-29175D01*
Y-3750D01*
X-28855D01*
Y-4000D01*
X-29175D01*
Y-4050D01*
X-29275D01*
Y-4050D01*
X-29737D01*
Y-4500D01*
Y-4950D01*
X-29396D01*
X-29355Y-5000D01*
Y-5450D01*
X-29575D01*
Y-6050D01*
Y-6550D01*
Y-7050D01*
X-29525D01*
Y-7188D01*
X-29100D01*
Y-7250D01*
X-29038D01*
Y-7500D01*
X-28675D01*
Y-7425D01*
X-28300D01*
Y-9200D01*
X-28475D01*
Y-9062D01*
X-29675D01*
Y-9200D01*
X-31800D01*
Y-8150D01*
X-31800D01*
X-31725D01*
X-31710Y-8150D01*
X-31710Y-8150D01*
Y-8150D01*
X-31263D01*
Y-7700D01*
Y-7250D01*
X-31710D01*
X-31710Y-7250D01*
Y-7250D01*
X-31725Y-7250D01*
X-31800Y-7175D01*
Y-5650D01*
X-31800D01*
X-31725D01*
X-31710Y-5650D01*
X-31710Y-5650D01*
Y-5650D01*
X-31263D01*
Y-5200D01*
Y-4750D01*
X-31710D01*
X-31710Y-4750D01*
Y-4750D01*
X-31725Y-4750D01*
X-31800Y-4675D01*
Y-2711D01*
X-31794Y-2706D01*
X-31700Y-2566D01*
X-31667Y-2400D01*
X-31687Y-2298D01*
X-31606Y-2200D01*
X-29433D01*
X-29400Y-2366D01*
D02*
G37*
%LPC*%
G36*
X-25875Y-5500D02*
X-26237D01*
Y-5688D01*
X-25875D01*
Y-5500D01*
D02*
G37*
G36*
X-24394Y-5764D02*
X-24837D01*
Y-6207D01*
X-24394D01*
Y-5764D01*
D02*
G37*
G36*
X-24962D02*
X-25406D01*
Y-6207D01*
X-24962D01*
Y-5764D01*
D02*
G37*
G36*
X-26215Y-41600D02*
X-28215D01*
Y-43600D01*
X-27470D01*
Y-47706D01*
X-27503Y-47729D01*
X-27592Y-47861D01*
X-27623Y-48017D01*
X-27592Y-48173D01*
X-27503Y-48305D01*
X-27371Y-48394D01*
X-27215Y-48425D01*
X-27059Y-48394D01*
X-26927Y-48305D01*
X-26838Y-48173D01*
X-26807Y-48017D01*
X-26838Y-47861D01*
X-26927Y-47729D01*
X-26960Y-47706D01*
Y-43600D01*
X-26215D01*
Y-41600D01*
D02*
G37*
G36*
X-13025Y-24783D02*
X-13240Y-24826D01*
X-13422Y-24947D01*
X-13543Y-25129D01*
X-13586Y-25344D01*
X-13543Y-25558D01*
X-13422Y-25740D01*
X-13280Y-25835D01*
Y-26500D01*
X-13725D01*
Y-27594D01*
X-13725Y-27594D01*
X-13725D01*
X-13725Y-27650D01*
Y-27675D01*
Y-27700D01*
X-13725Y-27756D01*
X-13725Y-27756D01*
X-13725D01*
Y-28850D01*
X-13447D01*
X-13403Y-28994D01*
X-13408Y-28997D01*
X-13535Y-29187D01*
X-13579Y-29411D01*
X-13535Y-29635D01*
X-13408Y-29826D01*
X-13399Y-29831D01*
X-13443Y-29975D01*
X-13725D01*
Y-31069D01*
X-13725Y-31069D01*
X-13725D01*
X-13725Y-31125D01*
Y-31150D01*
Y-31175D01*
X-13725Y-31231D01*
X-13725Y-31231D01*
X-13725D01*
Y-32325D01*
X-13480D01*
Y-47706D01*
X-13513Y-47729D01*
X-13602Y-47861D01*
X-13633Y-48017D01*
X-13602Y-48173D01*
X-13513Y-48305D01*
X-13381Y-48394D01*
X-13225Y-48425D01*
X-13069Y-48394D01*
X-12937Y-48305D01*
X-12848Y-48173D01*
X-12817Y-48017D01*
X-12848Y-47861D01*
X-12937Y-47729D01*
X-12970Y-47706D01*
Y-32325D01*
X-12725D01*
Y-31231D01*
X-12725Y-31231D01*
D01*
D01*
X-12725Y-31175D01*
Y-31169D01*
Y-31150D01*
X-12725Y-31125D01*
X-12725Y-31069D01*
X-12725Y-31069D01*
X-12725D01*
Y-29975D01*
X-12725Y-29975D01*
Y-29975D01*
X-12579Y-29826D01*
X-12579Y-29826D01*
X-12579D01*
X-12451Y-29635D01*
X-12407Y-29411D01*
X-12451Y-29187D01*
X-12579Y-28997D01*
X-12725Y-28899D01*
X-12725Y-28850D01*
X-12725D01*
Y-27756D01*
X-12725Y-27756D01*
D01*
D01*
X-12725Y-27700D01*
Y-27694D01*
Y-27675D01*
X-12725Y-27650D01*
X-12725Y-27594D01*
X-12725Y-27594D01*
X-12725D01*
Y-26500D01*
X-12770D01*
Y-25835D01*
X-12628Y-25740D01*
X-12507Y-25558D01*
X-12464Y-25344D01*
X-12507Y-25129D01*
X-12628Y-24947D01*
X-12810Y-24826D01*
X-13025Y-24783D01*
D02*
G37*
G36*
X-17570Y-52030D02*
X-19570D01*
Y-54030D01*
X-17570D01*
Y-52030D01*
D02*
G37*
G36*
X-21862Y-3075D02*
X-22375D01*
Y-3438D01*
X-21862D01*
Y-3075D01*
D02*
G37*
G36*
Y-3562D02*
X-22375D01*
Y-3925D01*
X-21862D01*
Y-3562D01*
D02*
G37*
G36*
X-18632Y-54595D02*
X-18825Y-54620D01*
X-19062Y-54718D01*
X-19265Y-54875D01*
X-19422Y-55078D01*
X-19520Y-55315D01*
X-19545Y-55507D01*
X-18632D01*
Y-54595D01*
D02*
G37*
G36*
X-18507D02*
Y-55507D01*
X-17595D01*
X-17620Y-55315D01*
X-17718Y-55078D01*
X-17875Y-54875D01*
X-18078Y-54718D01*
X-18315Y-54620D01*
X-18507Y-54595D01*
D02*
G37*
G36*
X-21110Y-52021D02*
X-21371Y-52056D01*
X-21614Y-52157D01*
X-21823Y-52317D01*
X-21983Y-52526D01*
X-22084Y-52769D01*
X-22119Y-53030D01*
X-22084Y-53291D01*
X-21983Y-53534D01*
X-21823Y-53743D01*
X-21614Y-53903D01*
X-21371Y-54004D01*
X-21110Y-54039D01*
X-20849Y-54004D01*
X-20606Y-53903D01*
X-20397Y-53743D01*
X-20237Y-53534D01*
X-20136Y-53291D01*
X-20101Y-53030D01*
X-20136Y-52769D01*
X-20237Y-52526D01*
X-20397Y-52317D01*
X-20606Y-52157D01*
X-20849Y-52056D01*
X-21110Y-52021D01*
D02*
G37*
G36*
X-29862Y-4050D02*
X-30325D01*
Y-4438D01*
X-29862D01*
Y-4050D01*
D02*
G37*
G36*
X-24962Y-5195D02*
X-25406D01*
Y-5639D01*
X-24962D01*
Y-5195D01*
D02*
G37*
G36*
X-19429Y-25280D02*
X-19644Y-25323D01*
X-19826Y-25444D01*
X-19947Y-25626D01*
X-19990Y-25841D01*
X-19947Y-26055D01*
X-19826Y-26237D01*
X-19684Y-26332D01*
Y-29976D01*
X-19929D01*
Y-31070D01*
X-19929Y-31070D01*
X-19929D01*
X-19929Y-31126D01*
Y-31151D01*
Y-31176D01*
X-19929Y-31232D01*
X-19929Y-31232D01*
X-19929D01*
Y-32326D01*
X-19684D01*
Y-42364D01*
X-19717Y-42387D01*
X-19806Y-42519D01*
X-19837Y-42675D01*
X-19806Y-42831D01*
X-19717Y-42963D01*
X-19684Y-42986D01*
Y-49960D01*
X-19717Y-49982D01*
X-19806Y-50115D01*
X-19837Y-50271D01*
X-19806Y-50427D01*
X-19717Y-50559D01*
X-19585Y-50647D01*
X-19429Y-50678D01*
X-19273Y-50647D01*
X-19141Y-50559D01*
X-19052Y-50427D01*
X-19021Y-50271D01*
X-19052Y-50115D01*
X-19141Y-49982D01*
X-19174Y-49960D01*
Y-42986D01*
X-19141Y-42963D01*
X-19052Y-42831D01*
X-19021Y-42675D01*
X-19052Y-42519D01*
X-19141Y-42387D01*
X-19174Y-42364D01*
Y-32326D01*
X-18929D01*
Y-31232D01*
X-18929Y-31232D01*
D01*
D01*
X-18929Y-31176D01*
Y-31170D01*
Y-31151D01*
X-18929Y-31126D01*
X-18929Y-31070D01*
X-18929Y-31070D01*
X-18929D01*
Y-29976D01*
X-19174D01*
Y-26332D01*
X-19032Y-26237D01*
X-18911Y-26055D01*
X-18868Y-25841D01*
X-18911Y-25626D01*
X-19032Y-25444D01*
X-19214Y-25323D01*
X-19429Y-25280D01*
D02*
G37*
G36*
X-30675Y-5262D02*
X-31138D01*
Y-5650D01*
X-30675D01*
Y-5262D01*
D02*
G37*
G36*
X-29862Y-4562D02*
X-30325D01*
Y-4950D01*
X-29862D01*
Y-4562D01*
D02*
G37*
G36*
X-30675Y-4750D02*
X-31138D01*
Y-5137D01*
X-30675D01*
Y-4750D01*
D02*
G37*
G36*
X-24394Y-5195D02*
X-24837D01*
Y-5639D01*
X-24394D01*
Y-5195D01*
D02*
G37*
G36*
X-21413Y-7037D02*
X-22325D01*
Y-7275D01*
X-21413D01*
Y-7037D01*
D02*
G37*
G36*
X-11512Y-12875D02*
X-12225D01*
Y-13238D01*
X-11512D01*
Y-12875D01*
D02*
G37*
G36*
X-10675D02*
X-11387D01*
Y-13238D01*
X-10675D01*
Y-12875D01*
D02*
G37*
G36*
X-4367Y-12515D02*
Y-13427D01*
X-3455D01*
X-3480Y-13235D01*
X-3578Y-12998D01*
X-3735Y-12795D01*
X-3938Y-12638D01*
X-4175Y-12540D01*
X-4367Y-12515D01*
D02*
G37*
G36*
X-4430Y-15021D02*
X-4691Y-15056D01*
X-4934Y-15156D01*
X-5143Y-15317D01*
X-5303Y-15526D01*
X-5404Y-15769D01*
X-5439Y-16030D01*
X-5404Y-16291D01*
X-5303Y-16534D01*
X-5143Y-16743D01*
X-4934Y-16903D01*
X-4691Y-17004D01*
X-4430Y-17039D01*
X-4169Y-17004D01*
X-3926Y-16903D01*
X-3717Y-16743D01*
X-3556Y-16534D01*
X-3456Y-16291D01*
X-3421Y-16030D01*
X-3456Y-15769D01*
X-3556Y-15526D01*
X-3717Y-15317D01*
X-3926Y-15156D01*
X-4169Y-15056D01*
X-4430Y-15021D01*
D02*
G37*
G36*
X-2526Y-23077D02*
X-3111D01*
Y-23662D01*
X-3004Y-23648D01*
X-2846Y-23583D01*
X-2710Y-23479D01*
X-2606Y-23343D01*
X-2540Y-23185D01*
X-2526Y-23077D01*
D02*
G37*
G36*
X-24450Y-25562D02*
X-24837D01*
Y-25875D01*
X-24450D01*
Y-25562D01*
D02*
G37*
G36*
X-3174Y-21064D02*
X-3350Y-21087D01*
X-3514Y-21155D01*
X-3655Y-21264D01*
X-3734Y-21366D01*
X-3884D01*
X-3962Y-21264D01*
X-4103Y-21155D01*
X-4267Y-21087D01*
X-4444Y-21064D01*
X-4620Y-21087D01*
X-4784Y-21155D01*
X-4925Y-21264D01*
X-5003Y-21366D01*
X-5154D01*
X-5232Y-21264D01*
X-5373Y-21155D01*
X-5537Y-21087D01*
X-5714Y-21064D01*
X-5890Y-21087D01*
X-6054Y-21155D01*
X-6195Y-21264D01*
X-6273Y-21366D01*
X-6424D01*
X-6502Y-21264D01*
X-6643Y-21155D01*
X-6807Y-21087D01*
X-6984Y-21064D01*
X-7160Y-21087D01*
X-7324Y-21155D01*
X-7465Y-21264D01*
X-7543Y-21366D01*
X-7694D01*
X-7772Y-21264D01*
X-7913Y-21155D01*
X-8077Y-21087D01*
X-8253Y-21064D01*
X-8430Y-21087D01*
X-8594Y-21155D01*
X-8735Y-21264D01*
X-8843Y-21405D01*
X-8911Y-21569D01*
X-8934Y-21745D01*
X-8911Y-21921D01*
X-8843Y-22085D01*
X-8735Y-22226D01*
X-8632Y-22305D01*
Y-22455D01*
X-8735Y-22534D01*
X-8843Y-22675D01*
X-8911Y-22839D01*
X-8934Y-23015D01*
X-8911Y-23191D01*
X-8843Y-23355D01*
X-8735Y-23496D01*
X-8594Y-23605D01*
X-8430Y-23673D01*
X-8253Y-23696D01*
X-8077Y-23673D01*
X-7913Y-23605D01*
X-7772Y-23496D01*
X-7678Y-23373D01*
X-7528D01*
X-7447Y-23479D01*
X-7311Y-23583D01*
X-7153Y-23648D01*
X-7046Y-23662D01*
Y-23015D01*
X-6921D01*
Y-23662D01*
X-6814Y-23648D01*
X-6656Y-23583D01*
X-6520Y-23479D01*
X-6424Y-23353D01*
X-6273D01*
X-6177Y-23479D01*
X-6041Y-23583D01*
X-5883Y-23648D01*
X-5776Y-23662D01*
Y-23015D01*
X-5651D01*
Y-23662D01*
X-5544Y-23648D01*
X-5386Y-23583D01*
X-5250Y-23479D01*
X-5169Y-23373D01*
X-5019D01*
X-4925Y-23496D01*
X-4784Y-23605D01*
X-4620Y-23673D01*
X-4444Y-23696D01*
X-4267Y-23673D01*
X-4103Y-23605D01*
X-3962Y-23496D01*
X-3868Y-23373D01*
X-3718D01*
X-3637Y-23479D01*
X-3501Y-23583D01*
X-3343Y-23648D01*
X-3236Y-23662D01*
Y-23015D01*
X-3174D01*
Y-22952D01*
X-2526D01*
X-2540Y-22845D01*
X-2606Y-22687D01*
X-2710Y-22551D01*
X-2815Y-22471D01*
Y-22321D01*
X-2692Y-22226D01*
X-2584Y-22085D01*
X-2516Y-21921D01*
X-2493Y-21745D01*
X-2516Y-21569D01*
X-2584Y-21405D01*
X-2692Y-21264D01*
X-2833Y-21155D01*
X-2997Y-21087D01*
X-3174Y-21064D01*
D02*
G37*
G36*
X-18875Y-21362D02*
X-19263D01*
Y-21675D01*
X-18875D01*
Y-21362D01*
D02*
G37*
G36*
X-22475Y-16062D02*
X-22862D01*
Y-16375D01*
X-22475D01*
Y-16062D01*
D02*
G37*
G36*
X-3455Y-13552D02*
X-4367D01*
Y-14465D01*
X-4175Y-14440D01*
X-3938Y-14342D01*
X-3735Y-14185D01*
X-3578Y-13982D01*
X-3480Y-13745D01*
X-3455Y-13552D01*
D02*
G37*
G36*
X-12475Y-15475D02*
X-13188D01*
Y-15837D01*
X-12475D01*
Y-15475D01*
D02*
G37*
G36*
X-22475Y-14725D02*
X-22862D01*
Y-15038D01*
X-22475D01*
Y-14725D01*
D02*
G37*
G36*
Y-15163D02*
X-22862D01*
Y-15475D01*
X-22475D01*
Y-15163D01*
D02*
G37*
G36*
X-11512Y-13363D02*
X-12225D01*
Y-13725D01*
X-11512D01*
Y-13363D01*
D02*
G37*
G36*
X-10675D02*
X-11387D01*
Y-13725D01*
X-10675D01*
Y-13363D01*
D02*
G37*
G36*
X-13312Y-15475D02*
X-14025D01*
Y-15837D01*
X-13312D01*
Y-15475D01*
D02*
G37*
G36*
X-22475Y-15625D02*
X-22862D01*
Y-15938D01*
X-22475D01*
Y-15625D01*
D02*
G37*
G36*
X-17375Y-8050D02*
X-17837D01*
Y-8438D01*
X-17375D01*
Y-8050D01*
D02*
G37*
G36*
X-16413D02*
X-16875D01*
Y-8438D01*
X-16413D01*
Y-8050D01*
D02*
G37*
G36*
X-13360Y-7609D02*
X-13575Y-7652D01*
X-13757Y-7773D01*
X-13878Y-7955D01*
X-13921Y-8170D01*
X-13878Y-8384D01*
X-13757Y-8566D01*
X-13575Y-8688D01*
X-13360Y-8731D01*
X-13146Y-8688D01*
X-12964Y-8566D01*
X-12842Y-8384D01*
X-12799Y-8170D01*
X-12842Y-7955D01*
X-12964Y-7773D01*
X-13146Y-7652D01*
X-13360Y-7609D01*
D02*
G37*
G36*
X-21862Y-8075D02*
X-22375D01*
Y-8438D01*
X-21862D01*
Y-8075D01*
D02*
G37*
G36*
X-30675Y-7250D02*
X-31138D01*
Y-7637D01*
X-30675D01*
Y-7250D01*
D02*
G37*
G36*
X-29163Y-7312D02*
X-29525D01*
Y-7500D01*
X-29163D01*
Y-7312D01*
D02*
G37*
G36*
X-30675Y-7762D02*
X-31138D01*
Y-8150D01*
X-30675D01*
Y-7762D01*
D02*
G37*
G36*
X-16161Y-33402D02*
X-16317Y-33433D01*
X-16450Y-33522D01*
X-16538Y-33654D01*
X-16569Y-33810D01*
X-16538Y-33966D01*
X-16450Y-34098D01*
X-16416Y-34121D01*
Y-45191D01*
X-16447Y-45212D01*
X-16535Y-45344D01*
X-16566Y-45500D01*
X-16535Y-45656D01*
X-16447Y-45788D01*
X-16315Y-45877D01*
X-16159Y-45908D01*
X-16002Y-45877D01*
X-15870Y-45788D01*
X-15782Y-45656D01*
X-15751Y-45500D01*
X-15782Y-45344D01*
X-15870Y-45212D01*
X-15906Y-45187D01*
Y-34121D01*
X-15873Y-34098D01*
X-15785Y-33966D01*
X-15753Y-33810D01*
X-15785Y-33654D01*
X-15873Y-33522D01*
X-16005Y-33433D01*
X-16161Y-33402D01*
D02*
G37*
G36*
X-21862Y-8562D02*
X-22375D01*
Y-8925D01*
X-21862D01*
Y-8562D01*
D02*
G37*
G36*
X-21913Y-9275D02*
X-22375D01*
Y-9663D01*
X-21913D01*
Y-9275D01*
D02*
G37*
G36*
X-18190Y-24757D02*
X-18404Y-24800D01*
X-18586Y-24922D01*
X-18708Y-25103D01*
X-18750Y-25318D01*
X-18708Y-25533D01*
X-18586Y-25715D01*
X-18444Y-25809D01*
Y-26500D01*
X-18690D01*
Y-27594D01*
X-18690Y-27594D01*
X-18690D01*
X-18690Y-27650D01*
Y-27675D01*
Y-27700D01*
X-18690Y-27756D01*
X-18690Y-27756D01*
X-18690D01*
Y-28850D01*
X-18641D01*
X-18597Y-28994D01*
X-18604Y-28998D01*
X-18731Y-29188D01*
X-18776Y-29413D01*
X-18731Y-29637D01*
X-18604Y-29827D01*
X-18596Y-29832D01*
X-18640Y-29976D01*
X-18690D01*
Y-31070D01*
X-18690Y-31070D01*
X-18690D01*
X-18690Y-31126D01*
Y-31151D01*
Y-31176D01*
X-18690Y-31232D01*
X-18690Y-31232D01*
X-18690D01*
Y-32326D01*
X-18570D01*
X-18478Y-32463D01*
X-18566Y-32596D01*
X-18597Y-32752D01*
X-18566Y-32908D01*
X-18478Y-33040D01*
X-18346Y-33129D01*
X-18190Y-33160D01*
X-18033Y-33129D01*
X-17901Y-33040D01*
X-17813Y-32908D01*
X-17782Y-32752D01*
X-17813Y-32596D01*
X-17901Y-32463D01*
X-17809Y-32326D01*
X-17690D01*
Y-31232D01*
X-17690Y-31232D01*
D01*
D01*
X-17690Y-31176D01*
Y-31170D01*
Y-31151D01*
X-17690Y-31126D01*
X-17690Y-31070D01*
X-17690Y-31070D01*
X-17690D01*
Y-29976D01*
X-17739D01*
X-17783Y-29832D01*
X-17775Y-29827D01*
X-17648Y-29637D01*
X-17603Y-29413D01*
X-17648Y-29188D01*
X-17775Y-28998D01*
X-17782Y-28994D01*
X-17738Y-28850D01*
X-17690D01*
Y-27756D01*
X-17690Y-27756D01*
D01*
D01*
X-17690Y-27700D01*
Y-27694D01*
Y-27675D01*
X-17690Y-27650D01*
X-17690Y-27594D01*
X-17690Y-27594D01*
X-17690D01*
Y-26500D01*
X-17935D01*
Y-25809D01*
X-17793Y-25715D01*
X-17671Y-25533D01*
X-17629Y-25318D01*
X-17671Y-25103D01*
X-17793Y-24922D01*
X-17975Y-24800D01*
X-18190Y-24757D01*
D02*
G37*
G36*
X-24450Y-26025D02*
X-24837D01*
Y-26337D01*
X-24450D01*
Y-26025D01*
D02*
G37*
G36*
Y-26462D02*
X-24837D01*
Y-26775D01*
X-24450D01*
Y-26462D01*
D02*
G37*
G36*
X-28475Y-8000D02*
X-29013D01*
Y-8938D01*
X-28475D01*
Y-8000D01*
D02*
G37*
G36*
X-36000Y-38817D02*
X-36156Y-38848D01*
X-36288Y-38937D01*
X-36377Y-39069D01*
X-36408Y-39225D01*
X-36377Y-39381D01*
X-36288Y-39513D01*
X-36156Y-39602D01*
X-36000Y-39633D01*
X-35844Y-39602D01*
X-35712Y-39513D01*
X-35623Y-39381D01*
X-35592Y-39225D01*
X-35623Y-39069D01*
X-35712Y-38937D01*
X-35844Y-38848D01*
X-36000Y-38817D01*
D02*
G37*
G36*
X-16413Y-8562D02*
X-16875D01*
Y-8950D01*
X-16413D01*
Y-8562D01*
D02*
G37*
G36*
X-29138Y-8000D02*
X-29675D01*
Y-8938D01*
X-29138D01*
Y-8000D01*
D02*
G37*
%LPD*%
D14*
X-31200Y-18900D02*
D03*
X-32150D02*
D03*
X-25025Y-15100D02*
D03*
X-25975D02*
D03*
X-25025Y-16000D02*
D03*
X-25975D02*
D03*
X-23875Y-15100D02*
D03*
X-22925D02*
D03*
X-23875Y-16000D02*
D03*
X-22925D02*
D03*
X-20275Y-21300D02*
D03*
X-19325D02*
D03*
X-25850Y-25500D02*
D03*
X-24900D02*
D03*
X-25850Y-26400D02*
D03*
X-24900D02*
D03*
D29*
X-20300Y-16200D02*
D03*
Y-17200D02*
D03*
Y-19200D02*
D03*
Y-18200D02*
D03*
X-16900Y-17400D02*
D03*
Y-18400D02*
D03*
D30*
X-25627Y-31751D02*
D03*
Y-30551D02*
D03*
X-15700Y-30551D02*
D03*
Y-31751D02*
D03*
X-23148Y-30551D02*
D03*
Y-31751D02*
D03*
X-21908Y-30551D02*
D03*
Y-31751D02*
D03*
X-10753Y-30550D02*
D03*
Y-31750D02*
D03*
X-11989Y-30550D02*
D03*
Y-31750D02*
D03*
X-13225Y-30550D02*
D03*
Y-31750D02*
D03*
X-14461Y-30550D02*
D03*
Y-31750D02*
D03*
X-18190Y-30551D02*
D03*
Y-31751D02*
D03*
X-16950Y-30551D02*
D03*
Y-31751D02*
D03*
X-19429Y-30551D02*
D03*
Y-31751D02*
D03*
X-20669Y-30551D02*
D03*
Y-31751D02*
D03*
X-28106Y-30551D02*
D03*
Y-31751D02*
D03*
X-29345Y-30551D02*
D03*
Y-31751D02*
D03*
X-26866Y-30551D02*
D03*
Y-31751D02*
D03*
X-24387Y-30551D02*
D03*
Y-31751D02*
D03*
X-11775Y-15979D02*
D03*
Y-14779D02*
D03*
X-16925Y-12525D02*
D03*
Y-11325D02*
D03*
X-1200Y-9800D02*
D03*
Y-8600D02*
D03*
X-5200Y-8600D02*
D03*
Y-9800D02*
D03*
X-18190Y-27075D02*
D03*
Y-28275D02*
D03*
X-14461Y-27075D02*
D03*
Y-28275D02*
D03*
X-13225Y-27075D02*
D03*
Y-28275D02*
D03*
X-11989Y-27075D02*
D03*
Y-28275D02*
D03*
X-10750Y-27075D02*
D03*
Y-28275D02*
D03*
X-28106Y-28275D02*
D03*
Y-27075D02*
D03*
D31*
X-16900Y-22175D02*
D03*
Y-21225D02*
D03*
Y-19325D02*
D03*
Y-20275D02*
D03*
X-17800Y-17425D02*
D03*
Y-18375D02*
D03*
X-30000Y-21425D02*
D03*
Y-22375D02*
D03*
X-30875Y-21425D02*
D03*
Y-22375D02*
D03*
D32*
X-24900Y-5701D02*
D03*
Y-7098D02*
D03*
D35*
X-21850Y-9725D02*
D03*
X-20650D02*
D03*
X-16375Y-3525D02*
D03*
X-17575D02*
D03*
X-36124Y-16079D02*
D03*
X-34924D02*
D03*
X-34924Y-14804D02*
D03*
X-36124D02*
D03*
X-32400Y-7700D02*
D03*
X-31200D02*
D03*
X-1600Y-11100D02*
D03*
X-2800D02*
D03*
X-4100D02*
D03*
X-5300D02*
D03*
X-6976Y-26017D02*
D03*
X-8176D02*
D03*
X-6976Y-24862D02*
D03*
X-8176D02*
D03*
X-31200Y-5200D02*
D03*
X-32400D02*
D03*
X-17900Y-8500D02*
D03*
X-19100D02*
D03*
X-16350D02*
D03*
X-15150D02*
D03*
X-28600Y-3250D02*
D03*
X-27400D02*
D03*
X-29800Y-4500D02*
D03*
X-28600D02*
D03*
D39*
X-20700Y-8500D02*
D03*
X-21800D02*
D03*
X-20700Y-3500D02*
D03*
X-21800D02*
D03*
D41*
X-32775Y-20000D02*
D03*
X-31375D02*
D03*
D44*
X-38050Y-40755D02*
X-37557Y-41249D01*
X-38050Y-40755D02*
Y-40400D01*
X-37557Y-41249D02*
X-35435D01*
X-37399Y-40869D02*
X-35592D01*
X-37550Y-40718D02*
X-37399Y-40869D01*
X-37550Y-40718D02*
Y-39900D01*
X-35592Y-40869D02*
X-33391Y-38667D01*
X-35435Y-41249D02*
X-33011Y-38825D01*
X-38437Y-26584D02*
Y-20080D01*
X-47752Y-10764D02*
X-38437Y-20080D01*
X-38817Y-26742D02*
Y-20237D01*
X-47800Y-11254D02*
X-38817Y-20237D01*
X-38437Y-26584D02*
X-33011Y-32010D01*
X-38817Y-26742D02*
X-33391Y-32168D01*
X-33011Y-38825D02*
Y-32010D01*
X-33391Y-38667D02*
Y-32168D01*
X-47976Y-11254D02*
X-47800D01*
X-48466Y-10764D02*
X-47976Y-11254D01*
X-20300Y-18200D02*
X-19600D01*
X-20100Y-17400D02*
X-19075D01*
D45*
X-31075Y-21225D02*
X-30875Y-21425D01*
X-31602Y-21225D02*
X-31075D01*
X-42860Y-48113D02*
X-42854D01*
Y-41710D01*
X-40058Y-46592D02*
Y-40848D01*
X-37725Y-44826D02*
Y-42375D01*
X-9810Y-23121D02*
X-8750Y-24181D01*
X-11086Y-23121D02*
X-9810D01*
X-11176Y-23211D02*
X-11086Y-23121D01*
X-21209Y-23211D02*
X-11176D01*
X-30025Y-48575D02*
Y-39825D01*
Y-48611D02*
Y-48575D01*
X-43348Y-45500D02*
Y-41749D01*
X-43586Y-41510D02*
X-43348Y-41749D01*
X-43586Y-41510D02*
Y-37225D01*
X-43286Y-41278D02*
X-42854Y-41710D01*
X-36125Y-36915D02*
Y-33251D01*
X-35315Y-32441D01*
X-34833D01*
X-30029Y-24275D02*
X-28571D01*
X-28542Y-23642D02*
X-27950Y-23050D01*
X-28542Y-24850D02*
Y-23642D01*
X-28106Y-27075D02*
Y-25287D01*
X-28542Y-24850D02*
X-28106Y-25287D01*
X-35206Y-24408D02*
Y-20542D01*
X-29042Y-23492D02*
X-27950Y-22400D01*
X-30419Y-23492D02*
X-29042D01*
X-30843Y-23917D02*
X-30419Y-23492D01*
X-35072Y-47063D02*
X-34060Y-46050D01*
X-35072Y-54292D02*
Y-47063D01*
X-36350Y-55570D02*
X-35072Y-54292D01*
X-34060Y-46050D02*
Y-42589D01*
X-39508Y-49050D02*
X-38890Y-49668D01*
Y-53030D02*
Y-49668D01*
X-39508Y-49050D02*
Y-40866D01*
X-35566Y-36923D01*
Y-33729D01*
X-40058Y-40848D02*
X-36125Y-36915D01*
X-30942Y-37550D02*
Y-34725D01*
X-29875Y-37075D02*
Y-32874D01*
X-40986Y-30956D02*
Y-30919D01*
X-42079Y-25516D02*
X-41460Y-24896D01*
X-43586Y-34225D02*
X-42775Y-35036D01*
Y-37316D02*
Y-35036D01*
X-43286Y-37827D02*
X-42775Y-37316D01*
X-43091Y-33725D02*
X-42313Y-34503D01*
Y-38157D02*
Y-34503D01*
Y-38157D02*
X-41025Y-39445D01*
X-41550Y-48297D02*
Y-42583D01*
Y-48297D02*
X-41539Y-48308D01*
X-28352Y-50828D02*
Y-47284D01*
Y-50828D02*
X-27455Y-51725D01*
Y-54295D02*
Y-51725D01*
X-28730Y-55570D02*
X-27455Y-54295D01*
X-24930Y-56950D02*
X-14916D01*
X-27350D02*
X-24930D01*
X-24939Y-56941D02*
X-24930Y-56950D01*
X-24939Y-56941D02*
Y-48876D01*
X-24675Y-48612D01*
Y-42600D01*
X-27215Y-48017D02*
Y-42600D01*
X-44856Y-38950D02*
X-44631Y-38725D01*
X-49100Y-38950D02*
X-44856D01*
X-49150D02*
X-49100D01*
X-49120Y-33100D02*
X-45319D01*
X-44194Y-34225D01*
X-43586D01*
X-11251Y-26577D02*
Y-24905D01*
X-27899Y-2549D02*
Y-1416D01*
X-28600Y-3250D02*
X-27899Y-2549D01*
X-4100Y-11100D02*
X-2172Y-13028D01*
X-2575Y-7875D02*
Y-7047D01*
X-24387Y-29098D02*
Y-28291D01*
X-25128Y-27550D02*
X-24387Y-28291D01*
X-25647Y-27550D02*
X-25128D01*
X-19100Y-9666D02*
Y-8500D01*
X-16375Y-5025D02*
Y-3525D01*
Y-2236D01*
X-34924Y-17176D02*
Y-16079D01*
X-30325Y-3312D02*
Y-1403D01*
X-13225Y-27075D02*
X-13025Y-26875D01*
X-15700Y-31841D02*
Y-31751D01*
X-20452Y-41430D02*
Y-31751D01*
Y-49758D02*
Y-41430D01*
X-14461Y-30550D02*
Y-28275D01*
X-41025Y-47295D02*
Y-39445D01*
X-11989Y-27075D02*
Y-24435D01*
X-37662Y-54342D02*
X-36350Y-53030D01*
X-39766Y-54342D02*
X-37662D01*
X-40181Y-54757D02*
X-39766Y-54342D01*
X-40181Y-56561D02*
Y-54757D01*
Y-56561D02*
X-38918Y-57824D01*
X-14042D01*
X-10753Y-54535D01*
X-14916Y-56950D02*
X-11989Y-54023D01*
X-10753Y-54535D02*
Y-31750D01*
X-11989Y-54023D02*
Y-31750D01*
X-13225Y-48017D02*
Y-31750D01*
X-14461Y-47295D02*
Y-31750D01*
X-16161Y-45450D02*
Y-33810D01*
X-25627Y-34725D02*
Y-31751D01*
X-18190Y-30551D02*
Y-28275D01*
X-19429Y-42675D02*
Y-31751D01*
X-21908Y-33725D02*
Y-31751D01*
X-23148Y-34223D02*
Y-31751D01*
X-24387Y-36450D02*
Y-31751D01*
X-26866Y-38575D02*
Y-31751D01*
X-28106Y-33225D02*
Y-31751D01*
X-29345Y-46050D02*
Y-31751D01*
X-18190Y-27075D02*
Y-25318D01*
X-19429Y-30551D02*
Y-25841D01*
X-23725Y-24273D02*
X-21908Y-26090D01*
Y-30551D02*
Y-26090D01*
X-23075Y-30551D02*
Y-25401D01*
X-24387Y-30551D02*
Y-29098D01*
X-28106Y-30551D02*
Y-28275D01*
X-26500Y-25500D02*
X-25850D01*
X-32550Y-51875D02*
X-30750Y-50075D01*
X-32550Y-56400D02*
Y-51875D01*
X-33100Y-56950D02*
X-32550Y-56400D01*
X-37510Y-56950D02*
X-33100D01*
X-38890Y-55570D02*
X-37510Y-56950D01*
X-43700Y-58375D02*
Y-52850D01*
X-30750Y-50075D02*
Y-41075D01*
X-5200Y-8600D02*
X-3425D01*
X-3225Y-8400D01*
Y-7875D01*
X-14125Y-19525D02*
X-13025Y-18425D01*
X-16900Y-19325D02*
X-16700Y-19525D01*
X-14125D01*
X-17829Y-9425D02*
X-16075D01*
X-13250Y-14000D02*
X-13025Y-14225D01*
X-12329D01*
X-11775Y-14779D01*
X-23675Y-5100D02*
X-23250Y-4675D01*
X-28600Y-4500D02*
Y-3250D01*
X-15650Y-5675D02*
X-10701D01*
X-9825Y-6551D01*
Y-9575D02*
Y-6551D01*
X-11450Y-11400D02*
X-9825D01*
X-16075Y-9425D02*
X-15150Y-8500D01*
X-20100Y-2500D02*
X-19075Y-3525D01*
X-17575D01*
X-16375Y-5025D02*
X-15650D01*
X-30875Y-21425D02*
X-30000D01*
X-23875Y-16000D02*
Y-15100D01*
X-24050Y-16175D02*
X-23875Y-16000D01*
X-25675Y-20775D02*
Y-20775D01*
X-15150Y-8500D02*
X-14400Y-7750D01*
X-19100Y-8500D02*
X-17575Y-6975D01*
X-16900Y-22175D02*
X-15425D01*
X-3225Y-10675D02*
Y-9725D01*
Y-10675D02*
X-2800Y-11100D01*
X-3875Y-10875D02*
Y-9725D01*
X-4100Y-11100D02*
X-3875Y-10875D01*
X-23250Y-4675D02*
Y-2750D01*
X-23000Y-2500D01*
X-20100D01*
X-17575Y-6975D02*
X-15650D01*
X-29100Y-5750D02*
Y-5000D01*
X-28600Y-4500D01*
X-29700Y-16100D02*
X-27950Y-17850D01*
X-29700Y-16100D02*
Y-16100D01*
X-34903D02*
X-33700D01*
X-34924Y-16079D02*
Y-14804D01*
X-36124Y-14804D02*
Y-13976D01*
X-14400Y-7750D02*
Y-6325D01*
X-22100Y-17850D02*
X-21800Y-17550D01*
Y-15900D01*
X-2630Y-53030D02*
X-1600Y-52000D01*
X-9188Y-53030D02*
X-2630D01*
X-34464Y-24546D02*
X-30044Y-28966D01*
X-31784Y-40809D02*
X-30446Y-39471D01*
X-31784Y-43199D02*
Y-40809D01*
X-32775Y-20903D02*
Y-20000D01*
X-24375Y-24101D02*
X-23075Y-25401D01*
X-30446Y-39471D02*
Y-29167D01*
X-42050Y-49775D02*
Y-39800D01*
X-19429Y-50271D02*
Y-42675D01*
X-20700Y-4950D02*
Y-3500D01*
X-25628Y-30549D02*
Y-28348D01*
Y-30549D02*
X-25627Y-30551D01*
X-13025Y-26875D02*
Y-25344D01*
X-3080Y-6542D02*
X-2575Y-7047D01*
X-25628Y-28348D02*
Y-28060D01*
X-36821Y-44208D02*
Y-42359D01*
X-2575Y-8064D02*
Y-7875D01*
Y-8064D02*
X-2027Y-8612D01*
X-1200Y-9800D02*
Y-9708D01*
X-2027Y-8881D02*
X-1200Y-9708D01*
X-2027Y-8881D02*
Y-8612D01*
X-33814Y-12700D02*
X-33400D01*
X-37921Y-8593D02*
X-33814Y-12700D01*
X-37921Y-8593D02*
Y-8179D01*
X-38600Y-7500D02*
X-37921Y-8179D01*
X-34464Y-24546D02*
Y-19928D01*
X-35206Y-24408D02*
X-30446Y-29167D01*
X-26866Y-30551D02*
Y-27258D01*
X-27625Y-26499D02*
X-26866Y-27258D01*
X-27625Y-26499D02*
Y-24081D01*
X-26975Y-26222D02*
X-25647Y-27550D01*
X-26975Y-26222D02*
Y-24850D01*
X-27300Y-26389D02*
X-25628Y-28060D01*
X-27300Y-26389D02*
Y-24401D01*
X-26975Y-24076D01*
X-30044Y-32705D02*
X-29875Y-32874D01*
X-30044Y-32705D02*
Y-28966D01*
X-43586Y-33725D02*
X-43091D01*
X-43286Y-41278D02*
Y-37827D01*
X-41539Y-50557D02*
Y-48308D01*
X-20669Y-30551D02*
Y-27325D01*
Y-25841D01*
X-26975Y-24850D02*
X-26325Y-24200D01*
X-16950Y-30551D02*
Y-25300D01*
X-16013Y-30238D02*
Y-25138D01*
Y-30238D02*
X-15700Y-30551D01*
X-15103Y-24463D02*
X-14650Y-24010D01*
X-15103Y-31154D02*
Y-24463D01*
X-15700Y-31751D02*
X-15103Y-31154D01*
X-14461Y-27075D02*
Y-25789D01*
X-21908Y-31751D02*
X-21331Y-31174D01*
Y-27993D01*
X-22450Y-30050D02*
Y-26863D01*
X-23148Y-31751D02*
X-22450Y-31053D01*
Y-31052D01*
X-22458Y-31044D02*
X-22450Y-31052D01*
X-22458Y-31044D02*
Y-30058D01*
X-22450Y-30050D01*
X-6976Y-28724D02*
Y-26017D01*
Y-28724D02*
X-6970Y-28730D01*
X-7564Y-25430D02*
X-6976Y-26017D01*
X-11251Y-26577D02*
X-10753Y-27075D01*
X-10750D02*
X-9555D01*
X-9714Y-26017D02*
X-8176D01*
X-10227Y-25505D02*
X-9714Y-26017D01*
X-7657Y-24181D02*
X-6976Y-24862D01*
X-8750Y-24181D02*
X-7657D01*
X-8216Y-24862D02*
X-8176D01*
X-8459Y-24619D02*
X-8216Y-24862D01*
X-9256Y-24619D02*
X-8459D01*
X-10225Y-23650D02*
X-9256Y-24619D01*
X-21694Y-22725D02*
X-21209Y-23211D01*
X-22100Y-23700D02*
X-21911Y-23511D01*
X-11259D01*
X-9340Y-25430D01*
X-7564D01*
X-6976Y-24862D02*
X-6931D01*
X-6710Y-25083D01*
X-6067D01*
X-1600Y-29550D01*
Y-52000D02*
Y-29550D01*
X-11989Y-28390D02*
Y-28275D01*
Y-28390D02*
X-11525Y-28853D01*
Y-29411D02*
Y-28853D01*
Y-29972D02*
Y-29414D01*
X-11989Y-30435D02*
X-11525Y-29972D01*
X-12993Y-29411D02*
Y-28507D01*
X-13225Y-28275D02*
X-12993Y-28507D01*
Y-30318D02*
Y-29411D01*
X-13225Y-30550D02*
X-12993Y-30318D01*
X-10517Y-28953D02*
X-10057Y-29414D01*
X-10517Y-28953D02*
Y-28508D01*
X-10750Y-28275D02*
X-10517Y-28508D01*
Y-30320D02*
Y-29874D01*
X-10057Y-29414D01*
X-29345Y-30551D02*
Y-26585D01*
X-30843Y-25087D02*
Y-23917D01*
Y-25087D02*
X-29345Y-26585D01*
X-28725Y-25401D02*
X-28720Y-25406D01*
Y-28870D02*
Y-25406D01*
X-28900Y-29050D02*
X-28720Y-28870D01*
X-28900Y-29673D02*
Y-29050D01*
Y-29673D02*
X-28735Y-29838D01*
Y-34725D02*
Y-29838D01*
X-22135Y-42600D02*
Y-38702D01*
X-24387Y-36450D02*
X-22135Y-38702D01*
X-18190Y-32752D02*
Y-31751D01*
X-16950Y-33277D02*
Y-31751D01*
X-35566Y-33729D02*
X-35062Y-33225D01*
X-42531Y-29975D02*
Y-25021D01*
Y-29975D02*
X-41550Y-30956D01*
X-42079Y-29826D02*
X-40986Y-30919D01*
X-42079Y-29826D02*
Y-25516D01*
D46*
X-36850Y-39770D02*
X-36644Y-39975D01*
X-36850Y-39770D02*
Y-39661D01*
Y-39162D01*
X-18250Y-12071D02*
X-17325D01*
X-16925Y-12471D01*
Y-12525D02*
Y-12471D01*
X-23650Y-9325D02*
Y-6051D01*
Y-9325D02*
X-22525Y-10450D01*
X-20700Y-9675D02*
X-20650Y-9725D01*
X-20700Y-9675D02*
Y-8500D01*
X-22525Y-10450D02*
X-7600D01*
X-20000Y-7800D02*
Y-6650D01*
X-20325Y-6325D02*
X-20000Y-6650D01*
X-21350Y-6325D02*
X-20325D01*
X-20700Y-8500D02*
X-20000Y-7800D01*
X-14400Y-6325D02*
X-11875D01*
X-11400Y-6800D01*
X-16925Y-12525D02*
X-16750Y-12350D01*
X-15350D01*
X-16925Y-11325D02*
Y-10475D01*
X-15350Y-14950D02*
Y-12350D01*
X-13250Y-14000D02*
Y-11400D01*
X-11450D02*
X-11450Y-11400D01*
X-13250Y-11400D02*
X-11450D01*
X-7600Y-10450D02*
X-5700Y-12350D01*
Y-14760D02*
Y-12350D01*
X-6970Y-16030D02*
X-5700Y-14760D01*
X-33300Y-7700D02*
X-32400D01*
X-32400Y-8500D02*
X-32400Y-8500D01*
Y-7700D01*
X-32400Y-6900D02*
X-32400Y-6900D01*
Y-7700D02*
Y-6900D01*
X-32400Y-5900D02*
Y-5200D01*
X-33200D02*
X-32400D01*
Y-4500D01*
X-24900Y-5675D02*
X-21350D01*
X-15650Y-6325D02*
X-14400D01*
X-17675D02*
X-15650D01*
X-18975Y-5025D02*
X-17675Y-6325D01*
X-21350Y-5025D02*
X-18975D01*
D47*
X-28642Y-21750D02*
X-27950D01*
X-29042Y-22150D02*
X-28642Y-21750D01*
X-8750Y-7683D02*
X-6896Y-9538D01*
X-8750Y-7683D02*
Y-5000D01*
X-6896Y-9538D02*
X-6863D01*
X-44025Y-33725D02*
X-43586D01*
X-44025Y-33725D02*
X-44025Y-33725D01*
X-25675Y-20125D02*
X-25350Y-19800D01*
X-49120Y-33100D02*
X-49100D01*
X-2800Y-11100D02*
X-1046Y-12854D01*
Y-23746D02*
Y-12854D01*
X-3651Y-26351D02*
X-1046Y-23746D01*
X-4100Y-5030D02*
X-3470D01*
X-25025Y-15100D02*
Y-14166D01*
X-18695Y-13230D02*
X-15262Y-16663D01*
X-28582Y-13230D02*
X-18695D01*
X-21751Y-19476D02*
X-21475Y-19200D01*
X-22448Y-19476D02*
X-21751D01*
X-22751Y-19174D02*
X-22448Y-19476D01*
X-25350Y-17850D02*
Y-16625D01*
X-23075Y-20125D02*
X-19925D01*
X-24700Y-17850D02*
Y-16325D01*
X-24050Y-18500D02*
Y-17850D01*
Y-16175D01*
X-23725Y-24273D02*
Y-21425D01*
X-22425D02*
X-20400D01*
X-23400Y-17850D02*
Y-17373D01*
X-23725Y-18825D02*
X-23400Y-18500D01*
X-24050Y-19150D02*
X-23725Y-19475D01*
X-25350Y-19150D02*
X-25025Y-19475D01*
X-26975Y-24076D02*
Y-23375D01*
X-16900Y-21175D02*
X-16475D01*
X-16325Y-21025D01*
Y-20425D01*
X-16475Y-20275D02*
X-16325Y-20425D01*
X-16900Y-20275D02*
X-16475D01*
X-21850Y-9725D02*
X-21800Y-9675D01*
Y-8500D01*
X-22525Y-6975D02*
X-21350D01*
X-17125Y-8500D02*
X-16350D01*
X-17900D02*
X-17125D01*
X-21800Y-7825D02*
X-21800Y-7825D01*
X-21800Y-8500D02*
Y-7825D01*
X-17800Y-19025D02*
Y-18375D01*
X-17775Y-18400D01*
X-16900D01*
X-22100Y-20450D02*
X-18025D01*
X-21800Y-20800D02*
X-18275D01*
X-16900Y-22175D01*
X-18025Y-20450D02*
X-16900Y-19325D01*
X-1600Y-11100D02*
X-900D01*
X-3875Y-7100D02*
X-3875Y-7100D01*
X-3875Y-7875D02*
Y-7100D01*
X-2800Y-8800D02*
X-2575Y-9025D01*
Y-9725D02*
Y-9025D01*
X-41600Y-7500D02*
X-40100Y-9000D01*
X-41600Y-3500D02*
X-40600Y-4500D01*
X-24900Y-26400D02*
Y-25500D01*
X-25850Y-26400D02*
Y-25500D01*
X-25675Y-23375D02*
X-25350Y-23050D01*
X-16925Y-17425D02*
X-16900Y-17400D01*
X-17800Y-17425D02*
X-16925D01*
X-18800Y-18425D02*
X-17800Y-17425D01*
X-21475Y-19200D02*
X-20300D01*
X-18800Y-19000D02*
Y-18425D01*
X-19925Y-20125D02*
X-18800Y-19000D01*
X-23400Y-19800D02*
X-23075Y-20125D01*
X-20400Y-21425D02*
X-20275Y-21300D01*
X-22100Y-21100D02*
X-21800Y-20800D01*
X-22750Y-21100D02*
X-22425Y-21425D01*
X-22750Y-21100D02*
Y-20450D01*
X-31375Y-20125D02*
X-27625D01*
X-31375Y-19075D02*
X-31200Y-18900D01*
X-31375Y-20000D02*
Y-19075D01*
X-30000Y-21425D02*
X-27625D01*
X-25975Y-16000D02*
Y-15100D01*
X-25025Y-16000D02*
Y-15100D01*
X-22925Y-16000D02*
Y-15100D01*
X-25975Y-16000D02*
X-25350Y-16625D01*
X-27625Y-21425D02*
X-27300Y-21100D01*
X-26975Y-22725D02*
Y-22725D01*
X-26650Y-22400D01*
X-27625Y-20125D02*
X-27300Y-20450D01*
X-25025Y-16000D02*
X-24700Y-16325D01*
X-26975Y-18175D02*
X-26650Y-18500D01*
X-26975Y-18825D02*
X-26650Y-19150D01*
X-26975Y-19475D02*
X-26650Y-19800D01*
X-27625Y-18825D02*
X-27300Y-19150D01*
X-27625Y-18175D02*
X-27300Y-18500D01*
X-21400Y-17300D02*
X-20300Y-16200D01*
X-23075Y-18825D02*
X-23075D01*
X-23400Y-19150D02*
X-23075Y-18825D01*
X-25675Y-20775D02*
X-25350Y-20450D01*
Y-21100D02*
X-25025Y-20775D01*
X-24700Y-20450D01*
X-22751Y-18524D02*
X-22402Y-18175D01*
X-11450Y-13350D02*
Y-12650D01*
X-26975Y-18175D02*
Y-16925D01*
X-38600Y-3500D02*
X-35075Y-7025D01*
X-41600Y-5500D02*
X-40700Y-6400D01*
X-40100Y-9000D02*
X-38400D01*
X-41600Y-1500D02*
X-40500D01*
X-30875Y-22375D02*
X-30000D01*
Y-23000D02*
Y-22375D01*
X-1250Y-8550D02*
X-1200Y-8600D01*
X-1250Y-8550D02*
Y-7250D01*
X-3470Y-5030D02*
X-1250Y-7250D01*
X-15262Y-16663D02*
X-9087D01*
X-9075Y-16650D01*
X-7064Y-8600D02*
X-5200D01*
X-29100Y-6250D02*
X-27950D01*
X-29525Y-19475D02*
X-26975D01*
X-29350Y-19150D02*
X-27950D01*
X-28725Y-18175D02*
X-27625D01*
X-32175Y-15225D02*
Y-11143D01*
Y-15225D02*
X-28900Y-18500D01*
X-27950D01*
X-29175Y-18825D02*
X-27625D01*
X-33300Y-15700D02*
X-29525Y-19475D01*
X-33300Y-15700D02*
Y-14100D01*
X-38400Y-9000D02*
X-33300Y-14100D01*
X-32900Y-15600D02*
X-29350Y-19150D01*
X-32500Y-15500D02*
X-29175Y-18825D01*
X-31800Y-15100D02*
X-28725Y-18175D01*
X-35075Y-7761D02*
Y-7025D01*
Y-7761D02*
X-31800Y-11036D01*
Y-15100D02*
Y-11036D01*
X-38600Y-5500D02*
X-38336D01*
X-32500Y-11336D01*
Y-15500D02*
Y-11336D01*
X-35500Y-7818D02*
X-32175Y-11143D01*
X-40600Y-4500D02*
X-38300D01*
X-35500Y-7300D01*
Y-7818D02*
Y-7300D01*
X-31400Y-12500D02*
X-26975Y-16925D01*
X-31400Y-12500D02*
Y-10936D01*
X-34700Y-7636D02*
X-31400Y-10936D01*
X-34700Y-7636D02*
Y-5400D01*
X-38600Y-1500D02*
X-34700Y-5400D01*
X-27625Y-22075D02*
X-27300Y-21750D01*
X-25025Y-22725D02*
X-24700Y-23050D01*
X-26325Y-21425D02*
X-26000Y-21100D01*
X-22100Y-19150D02*
X-21900D01*
X-20950Y-18200D01*
X-20300D01*
X-19700Y-18200D02*
X-19600D01*
X-19600D01*
X-19600D02*
X-19600Y-18200D01*
X-22100Y-18500D02*
X-21710D01*
X-20300Y-17200D02*
X-20100Y-17400D01*
X-21400Y-17800D02*
Y-17300D01*
X-22402Y-18175D02*
X-21775D01*
X-21400Y-17800D01*
X-23075Y-22075D02*
X-22750Y-21750D01*
X-23400Y-22400D02*
X-23075Y-22725D01*
X-25025Y-21425D02*
X-24700Y-21100D01*
X-23725Y-21425D02*
X-23400Y-21100D01*
X-24375Y-20775D02*
X-24050Y-20450D01*
X-22750Y-17850D02*
Y-16175D01*
X-22925Y-16000D02*
X-22750Y-16175D01*
Y-22400D02*
X-22425Y-22725D01*
X-24875Y-25475D02*
X-24275D01*
X-26975Y-23375D02*
X-26650Y-23050D01*
X-25675Y-18175D02*
X-25350Y-18500D01*
X-25025Y-18825D02*
X-24700Y-18500D01*
X-26325Y-19475D02*
X-26000Y-19800D01*
X-21710Y-18500D02*
X-20805Y-17595D01*
X-20695D01*
X-20300Y-17200D01*
X-6863Y-9538D02*
X-5300Y-11100D01*
X-22600Y-3500D02*
X-21800D01*
X-38034Y-6400D02*
X-32900Y-11534D01*
X-40700Y-6400D02*
X-38034D01*
X-32900Y-15600D02*
Y-11534D01*
X-25350Y-23700D02*
X-23653Y-25397D01*
Y-26351D02*
Y-25397D01*
X-24375Y-24101D02*
Y-20775D01*
X-25675Y-25300D02*
Y-23375D01*
X-27625Y-24081D02*
Y-22075D01*
X-26325Y-24200D02*
Y-21425D01*
X-22425Y-22725D02*
X-21694D01*
D48*
X-4550Y-9800D02*
X-4550Y-9800D01*
X-5200Y-9800D02*
X-4550D01*
X-33000Y-1500D02*
X-32100Y-2400D01*
X-26000Y-1500D02*
X-25200Y-2300D01*
Y-2300D02*
Y-2300D01*
D61*
X-27215Y-42600D02*
D03*
X-18570Y-53030D02*
D03*
D62*
X-24675Y-42600D02*
D03*
X-22135D02*
D03*
X-6970Y-16030D02*
D03*
X-4430D02*
D03*
Y-13490D02*
D03*
Y-51590D02*
D03*
X-6970Y-41430D02*
D03*
X-4430D02*
D03*
Y-43970D02*
D03*
X-6970D02*
D03*
X-4430Y-46510D02*
D03*
X-6970D02*
D03*
X-4430Y-49050D02*
D03*
X-6970D02*
D03*
Y-51590D02*
D03*
Y-38890D02*
D03*
Y-36350D02*
D03*
X-4430D02*
D03*
X-6970Y-33810D02*
D03*
X-4430D02*
D03*
X-6970Y-31270D02*
D03*
X-4430D02*
D03*
Y-28730D02*
D03*
Y-38890D02*
D03*
X-41270Y-10950D02*
D03*
X-38730D02*
D03*
X-28730Y-55570D02*
D03*
X-18570D02*
D03*
X-21110D02*
D03*
Y-53030D02*
D03*
X-23650Y-55570D02*
D03*
Y-53030D02*
D03*
X-26190Y-55570D02*
D03*
Y-53030D02*
D03*
X-28730D02*
D03*
X-41430D02*
D03*
X-38890D02*
D03*
Y-55570D02*
D03*
X-36350Y-53030D02*
D03*
Y-55570D02*
D03*
X-33810Y-53030D02*
D03*
Y-55570D02*
D03*
X-31270D02*
D03*
Y-53030D02*
D03*
X-41430Y-55570D02*
D03*
D63*
X-6970Y-13490D02*
D03*
Y-28730D02*
D03*
D64*
X-55195Y-48780D02*
D03*
X-52655Y-46240D02*
D03*
X-57735Y-51320D02*
D03*
X-52655D02*
D03*
X-57735Y-46240D02*
D03*
D65*
X-3174Y-23015D02*
D03*
Y-21745D02*
D03*
X-8253D02*
D03*
X-6984D02*
D03*
X-5714D02*
D03*
X-4444D02*
D03*
Y-23015D02*
D03*
X-5714D02*
D03*
X-6984D02*
D03*
X-8253D02*
D03*
D66*
X-57650Y-57650D02*
D03*
X-2350D02*
D03*
X-57650Y-2350D02*
D03*
X-2350D02*
D03*
D67*
X-37649Y-33824D02*
D03*
Y-35475D02*
D03*
Y-37126D02*
D03*
X-39300Y-33824D02*
D03*
Y-35475D02*
D03*
Y-37126D02*
D03*
X-40951Y-33824D02*
D03*
Y-35475D02*
D03*
Y-37126D02*
D03*
D68*
X-28691Y-39179D02*
D03*
X-38550Y-31062D02*
D03*
X-36781Y-8775D02*
D03*
X-30575Y-12525D02*
D03*
X-28582Y-13230D02*
D03*
X-42800Y-39800D02*
D03*
X-42860Y-48017D02*
D03*
X-40058Y-46600D02*
D03*
X-37725Y-42375D02*
D03*
X-30942Y-37550D02*
D03*
X-19075Y-17400D02*
D03*
X-7064Y-8600D02*
D03*
X-14650Y-24010D02*
D03*
X-30025Y-48575D02*
D03*
X-43542Y-32413D02*
D03*
X-43348Y-45500D02*
D03*
X-34833Y-32441D02*
D03*
X-33853Y-29778D02*
D03*
X-34358Y-35225D02*
D03*
X-29345Y-46050D02*
D03*
X-34060Y-42589D02*
D03*
X-38050Y-40400D02*
D03*
X-37550Y-39900D02*
D03*
X-29875Y-37075D02*
D03*
X-41539Y-50557D02*
D03*
X-47752Y-10764D02*
D03*
X-48466D02*
D03*
X-28352Y-47284D02*
D03*
X-27215Y-48017D02*
D03*
X-27350Y-56950D02*
D03*
X-44631Y-38725D02*
D03*
X-17829Y-9425D02*
D03*
X-37725Y-44826D02*
D03*
X-36821Y-44208D02*
D03*
X-20452Y-41430D02*
D03*
X-44650Y-11100D02*
D03*
X-19497Y-22362D02*
D03*
X-11251Y-24905D02*
D03*
X-10227Y-25505D02*
D03*
X-25350Y-17373D02*
D03*
X-18675Y-21475D02*
D03*
X-9188Y-53030D02*
D03*
X-13225Y-48017D02*
D03*
X-16161Y-33810D02*
D03*
X-16159Y-45500D02*
D03*
X-28725Y-25401D02*
D03*
X-26500Y-25500D02*
D03*
X-43700Y-58375D02*
D03*
Y-52850D02*
D03*
X-30750Y-41075D02*
D03*
X-34060Y-46050D02*
D03*
X-30025Y-39825D02*
D03*
X-43586Y-37225D02*
D03*
X-40250Y-39735D02*
D03*
X-16325Y-20725D02*
D03*
X-9825Y-11400D02*
D03*
X-35014Y-35725D02*
D03*
X-31450Y-31271D02*
D03*
X-12100Y-9750D02*
D03*
X-22525Y-6975D02*
D03*
X-17125Y-8500D02*
D03*
X-21800Y-7825D02*
D03*
X-28300Y-5300D02*
D03*
X-27200Y-9000D02*
D03*
X-24900Y-8100D02*
D03*
X-17800Y-19025D02*
D03*
X-4550Y-9800D02*
D03*
X-900Y-11100D02*
D03*
X-3875Y-7100D02*
D03*
X-2800Y-8800D02*
D03*
X-7600Y-1518D02*
D03*
X-11450Y-12650D02*
D03*
X-33400Y-12700D02*
D03*
X-40500Y-1500D02*
D03*
X-30000Y-23000D02*
D03*
X-29042Y-22150D02*
D03*
X-29350Y-21425D02*
D03*
X-21100Y-21425D02*
D03*
X-8750Y-5000D02*
D03*
X-17225Y-7600D02*
D03*
X-34125Y-2150D02*
D03*
X-25100Y-10700D02*
D03*
X-27200Y-7800D02*
D03*
X-25100Y-9000D02*
D03*
X-29700Y-16100D02*
D03*
X-33700D02*
D03*
X-36124Y-13976D02*
D03*
X-21800Y-15900D02*
D03*
X-19600Y-18200D02*
D03*
X-31784Y-43199D02*
D03*
X-31602Y-21225D02*
D03*
X-32775Y-20903D02*
D03*
X-22756Y-17373D02*
D03*
X-24050D02*
D03*
X-39508Y-49050D02*
D03*
X-24275Y-25475D02*
D03*
X-42050Y-49775D02*
D03*
Y-39800D02*
D03*
X-20452Y-49758D02*
D03*
X-19429Y-50271D02*
D03*
Y-42675D02*
D03*
X-36821Y-42359D02*
D03*
X-22600Y-3500D02*
D03*
X-34464Y-19928D02*
D03*
X-35206Y-20542D02*
D03*
X-24387Y-36450D02*
D03*
X-30942Y-34725D02*
D03*
X-28725D02*
D03*
X-41550Y-42583D02*
D03*
X-41025Y-47295D02*
D03*
X-14461D02*
D03*
X-23653Y-26351D02*
D03*
X-20669Y-25841D02*
D03*
X-16950Y-25300D02*
D03*
X-21331Y-27993D02*
D03*
X-22450Y-26863D02*
D03*
X-10225Y-23650D02*
D03*
X-32829Y-50192D02*
D03*
X-17962Y-34340D02*
D03*
Y-35770D02*
D03*
Y-37103D02*
D03*
X-4382Y-25084D02*
D03*
X-9208Y-30609D02*
D03*
X-52644Y-36947D02*
D03*
X-53128Y-36575D02*
D03*
X-53076Y-35946D02*
D03*
X-52674Y-35586D02*
D03*
X-50746Y-35524D02*
D03*
X-50767Y-35014D02*
D03*
Y-36885D02*
D03*
X-49075Y-32297D02*
D03*
X-50850Y-36225D02*
D03*
X-46825Y-37750D02*
D03*
Y-37100D02*
D03*
X-46150D02*
D03*
Y-35475D02*
D03*
X-49100Y-33100D02*
D03*
Y-38950D02*
D03*
X-57140Y-25947D02*
D03*
X-57122Y-23843D02*
D03*
X-46150Y-34075D02*
D03*
X-46800D02*
D03*
X-46475Y-33650D02*
D03*
X-50775Y-37400D02*
D03*
X-49134Y-40059D02*
D03*
X-23567Y-40095D02*
D03*
X-8580Y-28763D02*
D03*
X-45825Y-33650D02*
D03*
X-47125D02*
D03*
X-35062Y-33225D02*
D03*
X-28106D02*
D03*
X-18190Y-32752D02*
D03*
X-16950Y-33277D02*
D03*
X-41460Y-24896D02*
D03*
X-42531Y-25021D02*
D03*
X-23567Y-29150D02*
D03*
X-36000Y-39225D02*
D03*
X-35014Y-34725D02*
D03*
X-40181Y-29474D02*
D03*
X-40303Y-27998D02*
D03*
X-40250Y-25912D02*
D03*
X-40178Y-26598D02*
D03*
X-37275Y-29575D02*
D03*
D69*
X-22889Y-8570D02*
D03*
X-9314Y-47462D02*
D03*
X-8988Y-31774D02*
D03*
X-40550Y-44434D02*
D03*
X-44025Y-33725D02*
D03*
X-23400Y-17373D02*
D03*
X-31450Y-32546D02*
D03*
X-36850Y-39661D02*
D03*
X-43675Y-33225D02*
D03*
D70*
X-43586Y-34225D02*
D03*
X-25675Y-20125D02*
D03*
X-40396Y-31151D02*
D03*
X-25025Y-19475D02*
D03*
X-25025Y-18825D02*
D03*
X-23725Y-19475D02*
D03*
X-23725Y-18825D02*
D03*
X-25675Y-18175D02*
D03*
X-23075Y-18825D02*
D03*
Y-22725D02*
D03*
X-23075Y-22075D02*
D03*
X-25025Y-21425D02*
D03*
X-26975Y-18825D02*
D03*
X-25675Y-20775D02*
D03*
X-25025D02*
D03*
X-26325Y-19475D02*
D03*
X-25025Y-22725D02*
D03*
X-26975Y-22725D02*
D03*
X-40986Y-30956D02*
D03*
X-41550D02*
D03*
D71*
X-52015Y-42276D02*
D03*
X-44035Y-30428D02*
D03*
X-43140Y-28216D02*
D03*
X-43197Y-25912D02*
D03*
X-20000Y-7800D02*
D03*
X-50475Y-7478D02*
D03*
X-27300Y-5300D02*
D03*
X-33300Y-7700D02*
D03*
X-32400Y-8500D02*
D03*
Y-6900D02*
D03*
Y-5900D02*
D03*
X-33200Y-5200D02*
D03*
X-32400Y-4500D02*
D03*
X-11400Y-6800D02*
D03*
X-17500Y-5600D02*
D03*
X-32100Y-2400D02*
D03*
X-25200Y-2300D02*
D03*
X-29000Y-2200D02*
D03*
X-48850Y-38025D02*
D03*
X-52450Y-36225D02*
D03*
X-47450Y-37500D02*
D03*
X-57735Y-48145D02*
D03*
Y-49415D02*
D03*
X-55830Y-51320D02*
D03*
X-54560D02*
D03*
X-52655Y-48145D02*
D03*
Y-49415D02*
D03*
X-54296Y-46264D02*
D03*
X-56080Y-46254D02*
D03*
X-52674Y-34827D02*
D03*
X-52535Y-37637D02*
D03*
X-58030Y-43980D02*
D03*
X-57030Y-41980D02*
D03*
X-58030Y-39980D02*
D03*
X-57030Y-37980D02*
D03*
X-58030Y-35980D02*
D03*
X-57030Y-33980D02*
D03*
X-58030Y-31980D02*
D03*
X-56974Y-24930D02*
D03*
X-56030Y-43980D02*
D03*
X-55030Y-37980D02*
D03*
X-56030Y-35980D02*
D03*
X-55030Y-33980D02*
D03*
X-56030Y-23980D02*
D03*
X-54030D02*
D03*
X-52030Y-43980D02*
D03*
Y-39980D02*
D03*
X-51030Y-33980D02*
D03*
X-59200Y-23430D02*
D03*
Y-24930D02*
D03*
Y-26430D02*
D03*
Y-27930D02*
D03*
Y-29430D02*
D03*
Y-30930D02*
D03*
X-57767Y-29890D02*
D03*
X-54398Y-33270D02*
D03*
X-56056Y-31578D02*
D03*
X-52473Y-32496D02*
D03*
X-56974Y-27829D02*
D03*
X-55597Y-29388D02*
D03*
X-54059Y-30942D02*
D03*
X-48278Y-35312D02*
D03*
X-48352Y-37201D02*
D03*
X-53986Y-39064D02*
D03*
X-55284Y-40261D02*
D03*
X-56007Y-42229D02*
D03*
X-56391Y-40733D02*
D03*
X-51051Y-38618D02*
D03*
X-53251Y-40990D02*
D03*
X-54319Y-42143D02*
D03*
X-54255Y-43981D02*
D03*
X-56974Y-26670D02*
D03*
X-53030Y-21980D02*
D03*
X-53072Y-20014D02*
D03*
X-53164Y-18585D02*
D03*
X-59200Y-18439D02*
D03*
X-57090D02*
D03*
X-55074Y-18413D02*
D03*
X-58080Y-54480D02*
D03*
X-57080Y-16480D02*
D03*
X-58080Y-14480D02*
D03*
X-57080Y-12480D02*
D03*
X-58080Y-10480D02*
D03*
X-57080Y-8480D02*
D03*
X-58080Y-6480D02*
D03*
X-56080Y-54480D02*
D03*
X-55080Y-16480D02*
D03*
X-56080Y-14480D02*
D03*
X-55080Y-12480D02*
D03*
X-56080Y-10480D02*
D03*
X-55080Y-8480D02*
D03*
X-56080Y-6480D02*
D03*
X-53080Y-56480D02*
D03*
X-54080Y-54480D02*
D03*
X-53080Y-28480D02*
D03*
X-54080Y-26480D02*
D03*
X-53080Y-16480D02*
D03*
X-54080Y-14480D02*
D03*
X-53080Y-12480D02*
D03*
X-54080Y-10480D02*
D03*
X-51080Y-56480D02*
D03*
X-52080Y-54480D02*
D03*
X-51080Y-48480D02*
D03*
X-52080Y-30480D02*
D03*
X-51080Y-28480D02*
D03*
X-52080Y-26480D02*
D03*
X-51080Y-24480D02*
D03*
Y-20480D02*
D03*
Y-16480D02*
D03*
X-52080Y-14480D02*
D03*
X-51080Y-12480D02*
D03*
X-52080Y-10480D02*
D03*
X-49080Y-56480D02*
D03*
X-50080Y-54480D02*
D03*
X-49080Y-52480D02*
D03*
X-50080Y-50480D02*
D03*
X-49080Y-48480D02*
D03*
Y-44480D02*
D03*
X-50080Y-42480D02*
D03*
X-49080Y-28480D02*
D03*
X-50080Y-26480D02*
D03*
X-49080Y-24480D02*
D03*
X-50080Y-22480D02*
D03*
X-49080Y-20480D02*
D03*
X-50080Y-18480D02*
D03*
X-49080Y-16480D02*
D03*
X-50080Y-14480D02*
D03*
X-47080Y-56480D02*
D03*
X-48080Y-54480D02*
D03*
X-47080Y-52480D02*
D03*
X-48080Y-50480D02*
D03*
X-47080Y-48480D02*
D03*
X-48080Y-46480D02*
D03*
X-47080Y-44480D02*
D03*
X-48080Y-42480D02*
D03*
Y-30480D02*
D03*
X-47080Y-28480D02*
D03*
X-48080Y-26480D02*
D03*
X-47080Y-24480D02*
D03*
X-48080Y-22480D02*
D03*
X-47080Y-20480D02*
D03*
X-48080Y-18480D02*
D03*
X-47080Y-16480D02*
D03*
X-48080Y-14480D02*
D03*
X-47080Y-8480D02*
D03*
X-46080Y-30480D02*
D03*
Y-26480D02*
D03*
Y-22480D02*
D03*
X-45080Y-20480D02*
D03*
X-46080Y-18480D02*
D03*
X-44080Y-22480D02*
D03*
Y-18480D02*
D03*
X-51757Y-17977D02*
D03*
X-51875Y-23049D02*
D03*
X-52922Y-25040D02*
D03*
X-55473Y-25364D02*
D03*
X-55517Y-27517D02*
D03*
X-54339Y-29567D02*
D03*
X-51256Y-32236D02*
D03*
X-46821Y-32241D02*
D03*
X-48763Y-34418D02*
D03*
X-53939Y-34684D02*
D03*
X-55370Y-32457D02*
D03*
X-57154Y-30953D02*
D03*
X-58481Y-33917D02*
D03*
X-53438Y-38179D02*
D03*
X-58570Y-41674D02*
D03*
Y-37899D02*
D03*
D82*
X-9350Y-12400D02*
X-8068D01*
X-6978Y-13490D01*
D86*
X-41600Y-1500D02*
D03*
X-26000D02*
D03*
X-33000Y-1500D02*
D03*
X-38600Y-7500D02*
D03*
Y-3500D02*
D03*
X-41600Y-7500D02*
D03*
X-38600Y-5500D02*
D03*
X-41600D02*
D03*
Y-3500D02*
D03*
X-38600Y-1500D02*
D03*
D87*
X-15400Y-22150D02*
D03*
Y-18350D02*
D03*
X-13100D02*
D03*
Y-22150D02*
D03*
D88*
X-29100Y-5750D02*
D03*
Y-6250D02*
D03*
Y-7250D02*
D03*
Y-6750D02*
D03*
X-26300D02*
D03*
Y-7250D02*
D03*
Y-6250D02*
D03*
Y-5750D02*
D03*
D89*
X-27700Y-6500D02*
D03*
D90*
X-22100Y-23700D02*
D03*
Y-23050D02*
D03*
Y-22400D02*
D03*
Y-21750D02*
D03*
Y-20450D02*
D03*
Y-19800D02*
D03*
Y-19150D02*
D03*
Y-21100D02*
D03*
X-22750D02*
D03*
X-23400D02*
D03*
X-24050D02*
D03*
X-24700D02*
D03*
X-25350D02*
D03*
X-26000D02*
D03*
X-26650D02*
D03*
X-27300D02*
D03*
X-27950D02*
D03*
X-22750Y-23700D02*
D03*
X-23400D02*
D03*
X-24050D02*
D03*
X-24700D02*
D03*
X-25350D02*
D03*
X-26000D02*
D03*
X-26650D02*
D03*
X-27300D02*
D03*
X-27950D02*
D03*
X-22750Y-23050D02*
D03*
X-23400D02*
D03*
X-24050D02*
D03*
X-24700D02*
D03*
X-25350D02*
D03*
X-26000D02*
D03*
X-26650D02*
D03*
X-27300D02*
D03*
X-27950D02*
D03*
X-22750Y-22400D02*
D03*
X-23400D02*
D03*
X-24050D02*
D03*
X-24700D02*
D03*
X-25350D02*
D03*
X-26000D02*
D03*
X-26650D02*
D03*
X-27300D02*
D03*
X-27950D02*
D03*
X-22750Y-21750D02*
D03*
X-23400D02*
D03*
X-24050D02*
D03*
X-24700D02*
D03*
X-25350D02*
D03*
X-26000D02*
D03*
X-26650D02*
D03*
X-27300D02*
D03*
X-27950D02*
D03*
X-22750Y-20450D02*
D03*
X-23400D02*
D03*
X-24050D02*
D03*
X-24700D02*
D03*
X-25350D02*
D03*
X-26000D02*
D03*
X-26650D02*
D03*
X-27300D02*
D03*
X-27950D02*
D03*
X-22750Y-19800D02*
D03*
X-23400D02*
D03*
X-24050D02*
D03*
X-24700D02*
D03*
X-25350D02*
D03*
X-26000D02*
D03*
X-26650D02*
D03*
X-27300D02*
D03*
X-27950D02*
D03*
X-22750Y-19150D02*
D03*
X-23400D02*
D03*
X-24050D02*
D03*
X-24700D02*
D03*
X-25350D02*
D03*
X-26000D02*
D03*
X-26650D02*
D03*
X-27300D02*
D03*
X-27950D02*
D03*
X-22100Y-18500D02*
D03*
X-22750D02*
D03*
X-23400D02*
D03*
X-24050D02*
D03*
X-24700D02*
D03*
X-25350D02*
D03*
X-26000D02*
D03*
X-26650D02*
D03*
X-27300D02*
D03*
X-27950D02*
D03*
X-22100Y-17850D02*
D03*
X-22750D02*
D03*
X-23400D02*
D03*
X-24050D02*
D03*
X-24700D02*
D03*
X-25350D02*
D03*
X-26000D02*
D03*
X-26650D02*
D03*
X-27300D02*
D03*
X-27950D02*
D03*
D91*
X-21350Y-6975D02*
D03*
Y-6325D02*
D03*
Y-5675D02*
D03*
Y-5025D02*
D03*
X-15650Y-6975D02*
D03*
Y-6325D02*
D03*
Y-5675D02*
D03*
Y-5025D02*
D03*
D92*
X-9350Y-12350D02*
D03*
X-11450Y-11400D02*
D03*
Y-13300D02*
D03*
X-15350Y-14950D02*
D03*
X-13250Y-15900D02*
D03*
Y-14000D02*
D03*
Y-11400D02*
D03*
X-15350Y-10450D02*
D03*
Y-12350D02*
D03*
D93*
X-3875Y-9725D02*
D03*
X-3225D02*
D03*
X-2575D02*
D03*
Y-7875D02*
D03*
X-3225D02*
D03*
X-3875D02*
D03*
D94*
X-26125Y-9000D02*
D03*
X-29075D02*
D03*
D95*
X-28571Y-24275D02*
D03*
D96*
X-27899Y-1416D02*
D03*
X-2172Y-13028D02*
D03*
X-6863Y-9538D02*
D03*
X-30105Y-20125D02*
D03*
X-25628Y-28348D02*
D03*
X-19100Y-9666D02*
D03*
X-16375Y-2236D02*
D03*
X-18250Y-12071D02*
D03*
X-34924Y-17176D02*
D03*
X-25025Y-14166D02*
D03*
X-13522Y-6325D02*
D03*
X-30325Y-1403D02*
D03*
X-18190Y-29413D02*
D03*
X-14461D02*
D03*
X-16950Y-26037D02*
D03*
X-21908Y-26090D02*
D03*
X-23075Y-27670D02*
D03*
X-20669Y-27325D02*
D03*
X-26866Y-28994D02*
D03*
X-29345Y-26585D02*
D03*
X-24387Y-29098D02*
D03*
X-3080Y-6542D02*
D03*
X-28106Y-29411D02*
D03*
X-9555Y-27075D02*
D03*
X-11525Y-29411D02*
D03*
X-12993D02*
D03*
X-10057Y-29414D02*
D03*
X-30029Y-24275D02*
D03*
X-32975Y-42137D02*
D03*
X-43239Y-27309D02*
D03*
X-4100Y-5030D02*
D03*
X-34600Y-10700D02*
D03*
X-13360Y-8170D02*
D03*
X-29900Y-10675D02*
D03*
X-21725Y-1710D02*
D03*
X-38687Y-42298D02*
D03*
X-36760Y-12960D02*
D03*
X-26866Y-38575D02*
D03*
X-9075Y-16650D02*
D03*
X-23148Y-34223D02*
D03*
X-21908Y-33725D02*
D03*
X-45510Y-6375D02*
D03*
X-43146Y-11738D02*
D03*
X-46056Y-3908D02*
D03*
X-11989Y-24435D02*
D03*
X-9825Y-9575D02*
D03*
X-25621Y-34725D02*
D03*
X-19429Y-25841D02*
D03*
X-14461Y-25789D02*
D03*
X-18190Y-25318D02*
D03*
X-16013Y-25138D02*
D03*
X-13025Y-25344D02*
D03*
X-3651Y-26351D02*
D03*
X-43239Y-29088D02*
D03*
X-22791Y-12448D02*
D03*
X-41649Y-23388D02*
D03*
M02*
