%FSLAX43Y43*%
%MOMM*%
G71*
G01*
G75*
G04 Layer_Physical_Order=1*
G04 Layer_Color=255*
%ADD10R,0.600X1.000*%
%ADD11R,0.400X1.400*%
%ADD12R,2.300X1.900*%
%ADD13R,1.775X1.900*%
%ADD14R,0.650X0.500*%
%ADD15R,1.000X2.250*%
%ADD16R,1.400X1.150*%
%ADD17R,1.600X1.000*%
%ADD18R,2.500X3.000*%
%ADD19O,0.800X0.400*%
%ADD20O,0.250X0.700*%
%ADD21O,0.700X0.250*%
%ADD22R,4.500X4.500*%
%ADD23R,1.200X1.200*%
%ADD24R,1.100X0.600*%
%ADD25R,1.100X1.000*%
%ADD26R,0.350X0.700*%
%ADD27R,0.700X0.700*%
%ADD28R,0.282X0.205*%
%ADD29R,0.550X0.600*%
%ADD30R,0.650X0.800*%
%ADD31R,0.500X0.650*%
%ADD32R,0.762X0.762*%
%ADD33R,0.205X0.282*%
%ADD34R,0.600X0.900*%
%ADD35R,0.800X0.650*%
%ADD36R,0.600X0.550*%
G04:AMPARAMS|DCode=37|XSize=0.205mm|YSize=0.282mm|CornerRadius=0mm|HoleSize=0mm|Usage=FLASHONLY|Rotation=135.000|XOffset=0mm|YOffset=0mm|HoleType=Round|Shape=Rectangle|*
%AMROTATEDRECTD37*
4,1,4,0.172,0.027,-0.027,-0.172,-0.172,-0.027,0.027,0.172,0.172,0.027,0.0*
%
%ADD37ROTATEDRECTD37*%

G04:AMPARAMS|DCode=38|XSize=0.205mm|YSize=0.282mm|CornerRadius=0mm|HoleSize=0mm|Usage=FLASHONLY|Rotation=225.000|XOffset=0mm|YOffset=0mm|HoleType=Round|Shape=Rectangle|*
%AMROTATEDRECTD38*
4,1,4,-0.027,0.172,0.172,-0.027,0.027,-0.172,-0.172,0.027,-0.027,0.172,0.0*
%
%ADD38ROTATEDRECTD38*%

%ADD39R,0.900X0.600*%
%ADD40R,1.200X1.200*%
%ADD41R,0.700X0.700*%
%ADD42C,0.254*%
%ADD43C,0.203*%
%ADD44C,0.180*%
%ADD45C,0.150*%
%ADD46C,0.300*%
%ADD47C,0.125*%
%ADD48C,0.200*%
%ADD49C,0.114*%
%ADD50C,0.250*%
%ADD51C,0.205*%
%ADD52R,0.450X2.959*%
%ADD53R,2.025X0.450*%
%ADD54R,1.650X0.550*%
%ADD55R,0.601X0.571*%
%ADD56R,0.763X0.125*%
%ADD57R,0.600X0.670*%
%ADD58R,0.598X0.716*%
%ADD59R,2.386X0.197*%
%ADD60R,0.350X3.200*%
%ADD61R,1.700X1.700*%
%ADD62C,1.700*%
%ADD63R,1.700X1.700*%
%ADD64C,2.400*%
%ADD65C,1.050*%
%ADD66C,3.600*%
%ADD67C,0.762*%
%ADD68C,0.500*%
%ADD69C,0.450*%
%ADD70C,0.400*%
%ADD71C,0.550*%
G36*
X-41958Y-42583D02*
X-41927Y-42739D01*
X-41838Y-42871D01*
X-41706Y-42960D01*
X-41550Y-42991D01*
X-41394Y-42960D01*
X-41262Y-42871D01*
X-41134Y-42859D01*
X-40112Y-43880D01*
X-40030Y-43935D01*
X-39932Y-43955D01*
X-37297D01*
X-37202Y-44071D01*
X-37229Y-44208D01*
X-37198Y-44364D01*
X-37148Y-44439D01*
X-37219Y-44571D01*
X-37414D01*
X-37437Y-44538D01*
X-37569Y-44449D01*
X-37725Y-44418D01*
X-37881Y-44449D01*
X-38013Y-44538D01*
X-38102Y-44670D01*
X-38133Y-44826D01*
X-38102Y-44982D01*
X-38014Y-45113D01*
X-38023Y-45129D01*
X-38101Y-45245D01*
X-43037D01*
X-43059Y-45212D01*
X-43191Y-45123D01*
X-43348Y-45092D01*
X-43504Y-45123D01*
X-43636Y-45212D01*
X-43776Y-45118D01*
Y-42480D01*
X-42778D01*
Y-42480D01*
X-42778D01*
X-42778Y-42480D01*
X-42728D01*
Y-42480D01*
X-42475D01*
X-41958Y-42583D01*
D02*
G37*
G36*
X-2730Y-33131D02*
Y-41909D01*
X-3921Y-43100D01*
X-3926Y-43097D01*
X-4169Y-42996D01*
X-4430Y-42961D01*
X-4691Y-42996D01*
X-4934Y-43097D01*
X-5143Y-43257D01*
X-5303Y-43466D01*
X-5404Y-43709D01*
X-5439Y-43970D01*
X-5404Y-44231D01*
X-5303Y-44474D01*
X-5143Y-44683D01*
X-4934Y-44843D01*
X-4897Y-44859D01*
X-4927Y-45006D01*
X-5574D01*
X-6100Y-44479D01*
X-6096Y-44474D01*
X-5996Y-44231D01*
X-5961Y-43970D01*
X-5996Y-43709D01*
X-6096Y-43466D01*
X-6257Y-43257D01*
X-6466Y-43097D01*
X-6513Y-43077D01*
X-6483Y-42930D01*
X-5675D01*
X-5577Y-42910D01*
X-5495Y-42855D01*
X-4939Y-42300D01*
X-4934Y-42304D01*
X-4691Y-42404D01*
X-4430Y-42439D01*
X-4169Y-42404D01*
X-3926Y-42304D01*
X-3717Y-42143D01*
X-3556Y-41934D01*
X-3456Y-41691D01*
X-3421Y-41430D01*
X-3456Y-41169D01*
X-3556Y-40926D01*
X-3717Y-40717D01*
X-3926Y-40557D01*
X-4169Y-40456D01*
X-4430Y-40421D01*
X-4691Y-40456D01*
X-4934Y-40557D01*
X-5143Y-40717D01*
X-5303Y-40926D01*
X-5404Y-41169D01*
X-5439Y-41430D01*
X-5404Y-41691D01*
X-5303Y-41934D01*
X-5300Y-41939D01*
X-5781Y-42420D01*
X-6384D01*
X-6433Y-42278D01*
X-6257Y-42143D01*
X-6096Y-41934D01*
X-5996Y-41691D01*
X-5961Y-41430D01*
X-5996Y-41169D01*
X-6096Y-40926D01*
X-6257Y-40717D01*
X-6466Y-40557D01*
X-6709Y-40456D01*
X-6970Y-40421D01*
X-7231Y-40456D01*
X-7474Y-40557D01*
X-7683Y-40717D01*
X-7843Y-40926D01*
X-7944Y-41169D01*
X-7945Y-41175D01*
X-20142D01*
X-20164Y-41142D01*
X-20296Y-41053D01*
X-20452Y-41022D01*
X-20609Y-41053D01*
X-20741Y-41142D01*
X-20829Y-41274D01*
X-20860Y-41430D01*
X-20829Y-41586D01*
X-20741Y-41718D01*
X-20609Y-41807D01*
X-20452Y-41838D01*
X-20296Y-41807D01*
X-20164Y-41718D01*
X-20142Y-41685D01*
X-7945D01*
X-7944Y-41691D01*
X-7843Y-41934D01*
X-7683Y-42143D01*
X-7507Y-42278D01*
X-7556Y-42420D01*
X-19118D01*
X-19141Y-42387D01*
X-19273Y-42298D01*
X-19429Y-42267D01*
X-19585Y-42298D01*
X-19717Y-42387D01*
X-19806Y-42519D01*
X-19837Y-42675D01*
X-19806Y-42831D01*
X-19717Y-42963D01*
X-19585Y-43052D01*
X-19429Y-43083D01*
X-19273Y-43052D01*
X-19141Y-42963D01*
X-19118Y-42930D01*
X-7457D01*
X-7427Y-43077D01*
X-7474Y-43097D01*
X-7683Y-43257D01*
X-7843Y-43466D01*
X-7944Y-43709D01*
X-7979Y-43970D01*
X-7944Y-44231D01*
X-7843Y-44474D01*
X-7683Y-44683D01*
X-7474Y-44843D01*
X-7463Y-44848D01*
X-7493Y-44995D01*
X-8082D01*
X-8180Y-45015D01*
X-8262Y-45070D01*
X-8988Y-45795D01*
X-15716D01*
X-15786Y-45663D01*
X-15782Y-45656D01*
X-15751Y-45500D01*
X-15782Y-45344D01*
X-15870Y-45212D01*
X-16002Y-45123D01*
X-16159Y-45092D01*
X-16315Y-45123D01*
X-16447Y-45212D01*
X-16469Y-45245D01*
X-37349D01*
X-37371Y-45213D01*
X-37300Y-45081D01*
X-31653D01*
X-31555Y-45062D01*
X-31473Y-45006D01*
X-28354Y-41887D01*
X-28215Y-41945D01*
Y-43600D01*
X-26215D01*
Y-41600D01*
X-27870D01*
X-27928Y-41461D01*
X-26945Y-40479D01*
X-25372D01*
X-25274Y-40459D01*
X-25191Y-40404D01*
X-23112Y-38325D01*
X-7953D01*
X-7870Y-38449D01*
X-7944Y-38629D01*
X-7979Y-38890D01*
X-7944Y-39151D01*
X-7843Y-39394D01*
X-7683Y-39603D01*
X-7474Y-39764D01*
X-7231Y-39864D01*
X-6970Y-39899D01*
X-6709Y-39864D01*
X-6466Y-39764D01*
X-6257Y-39603D01*
X-6096Y-39394D01*
X-5996Y-39151D01*
X-5961Y-38890D01*
X-5996Y-38629D01*
X-6096Y-38386D01*
X-6257Y-38177D01*
X-6443Y-38034D01*
X-6395Y-37892D01*
X-5789D01*
X-5300Y-38381D01*
X-5303Y-38386D01*
X-5404Y-38629D01*
X-5439Y-38890D01*
X-5404Y-39151D01*
X-5303Y-39394D01*
X-5143Y-39603D01*
X-4934Y-39764D01*
X-4691Y-39864D01*
X-4430Y-39899D01*
X-4169Y-39864D01*
X-3926Y-39764D01*
X-3717Y-39603D01*
X-3556Y-39394D01*
X-3456Y-39151D01*
X-3421Y-38890D01*
X-3456Y-38629D01*
X-3556Y-38386D01*
X-3717Y-38177D01*
X-3926Y-38017D01*
X-4169Y-37916D01*
X-4430Y-37881D01*
X-4691Y-37916D01*
X-4934Y-38017D01*
X-4939Y-38020D01*
X-5503Y-37457D01*
X-5585Y-37402D01*
X-5683Y-37382D01*
X-6464D01*
X-6493Y-37235D01*
X-6466Y-37223D01*
X-6257Y-37063D01*
X-6096Y-36854D01*
X-5996Y-36611D01*
X-5961Y-36350D01*
X-5996Y-36089D01*
X-6096Y-35846D01*
X-6255Y-35639D01*
X-6188Y-35505D01*
X-5636D01*
X-5300Y-35841D01*
X-5303Y-35846D01*
X-5404Y-36089D01*
X-5439Y-36350D01*
X-5404Y-36611D01*
X-5303Y-36854D01*
X-5143Y-37063D01*
X-4934Y-37223D01*
X-4691Y-37324D01*
X-4430Y-37359D01*
X-4169Y-37324D01*
X-3926Y-37223D01*
X-3717Y-37063D01*
X-3556Y-36854D01*
X-3456Y-36611D01*
X-3421Y-36350D01*
X-3456Y-36089D01*
X-3556Y-35846D01*
X-3717Y-35637D01*
X-3926Y-35477D01*
X-4169Y-35376D01*
X-4430Y-35341D01*
X-4691Y-35376D01*
X-4934Y-35477D01*
X-4939Y-35480D01*
X-5340Y-35080D01*
X-4939Y-34680D01*
X-4934Y-34683D01*
X-4691Y-34784D01*
X-4430Y-34819D01*
X-4169Y-34784D01*
X-3926Y-34683D01*
X-3717Y-34523D01*
X-3556Y-34314D01*
X-3456Y-34071D01*
X-3421Y-33810D01*
X-3456Y-33549D01*
X-3556Y-33306D01*
X-3703Y-33114D01*
X-3637Y-32980D01*
X-2881D01*
X-2730Y-33131D01*
D02*
G37*
G36*
X-52775Y-33237D02*
X-52838Y-33301D01*
X-52855D01*
X-52879Y-33231D01*
X-52774Y-33229D01*
X-52775Y-33237D01*
D02*
G37*
G36*
X-7970Y-27730D02*
X-7970D01*
Y-29711D01*
X-9555D01*
Y-29500D01*
X-10705D01*
D01*
D01*
X-10705Y-29500D01*
X-10755D01*
Y-29500D01*
X-11905D01*
Y-29745D01*
X-20064D01*
X-21283Y-28526D01*
X-21239Y-28383D01*
X-21175Y-28370D01*
X-21042Y-28281D01*
X-20954Y-28149D01*
X-20923Y-27993D01*
X-20931Y-27954D01*
X-20564Y-27587D01*
X-7970D01*
Y-27730D01*
D02*
G37*
G36*
X-51800Y-35425D02*
X-52025D01*
X-51800Y-35200D01*
Y-35425D01*
D02*
G37*
G36*
X-51400Y-35400D02*
X-51600D01*
Y-35200D01*
X-51400Y-35400D01*
D02*
G37*
G36*
X-20607Y-809D02*
X-20599Y-812D01*
X-10600D01*
X-10592Y-809D01*
X-10295Y-770D01*
X-10200Y-853D01*
Y-4500D01*
X-13925D01*
Y-4275D01*
X-14150D01*
Y-3850D01*
X-16400D01*
Y-4275D01*
X-17275D01*
Y-4500D01*
X-17500D01*
Y-5167D01*
X-17666Y-5200D01*
X-17806Y-5294D01*
X-17900Y-5434D01*
X-17933Y-5600D01*
X-17900Y-5766D01*
X-17835Y-5863D01*
X-17895Y-5975D01*
X-18038D01*
Y-6425D01*
X-18163D01*
Y-5975D01*
X-18475D01*
D01*
D01*
X-18475Y-5975D01*
X-18600D01*
Y-5975D01*
X-18938D01*
Y-6400D01*
X-19000D01*
Y-6463D01*
X-19400D01*
Y-6700D01*
X-21000D01*
Y-853D01*
X-20905Y-770D01*
X-20607Y-809D01*
D02*
G37*
G36*
X-29251Y-28319D02*
X-29169Y-28375D01*
X-29071Y-28394D01*
X-23770D01*
X-22831Y-29333D01*
X-22889Y-29471D01*
X-23953D01*
Y-31034D01*
X-22641D01*
Y-29719D01*
X-22502Y-29662D01*
X-18707Y-33457D01*
X-18652Y-33494D01*
X-18625Y-33512D01*
X-18527Y-33531D01*
X-17261D01*
X-17238Y-33565D01*
X-17106Y-33653D01*
X-16950Y-33684D01*
X-16794Y-33653D01*
X-16698Y-33590D01*
X-16581Y-33619D01*
X-16543Y-33644D01*
X-16538Y-33654D01*
X-16569Y-33810D01*
X-16538Y-33966D01*
X-16450Y-34098D01*
X-16317Y-34187D01*
X-16161Y-34218D01*
X-16005Y-34187D01*
X-15873Y-34098D01*
X-15851Y-34065D01*
X-7945D01*
X-7944Y-34071D01*
X-7843Y-34314D01*
X-7683Y-34523D01*
X-7730Y-34662D01*
X-22827D01*
X-22870Y-34519D01*
X-22859Y-34511D01*
X-22771Y-34379D01*
X-22740Y-34223D01*
X-22765Y-34096D01*
X-22670Y-33980D01*
X-22219D01*
X-22196Y-34013D01*
X-22064Y-34102D01*
X-21908Y-34133D01*
X-21752Y-34102D01*
X-21620Y-34013D01*
X-21531Y-33881D01*
X-21500Y-33725D01*
X-21531Y-33569D01*
X-21620Y-33437D01*
X-21752Y-33348D01*
X-21908Y-33317D01*
X-22064Y-33348D01*
X-22196Y-33437D01*
X-22219Y-33470D01*
X-27628D01*
X-27723Y-33354D01*
X-27698Y-33225D01*
X-27729Y-33069D01*
X-27817Y-32937D01*
X-27950Y-32848D01*
X-28106Y-32817D01*
X-28262Y-32848D01*
X-28394Y-32937D01*
X-28416Y-32970D01*
X-29291D01*
Y-31721D01*
X-30975D01*
X-31013Y-31696D01*
X-31111Y-31677D01*
X-31628D01*
Y-31334D01*
X-32203D01*
Y-31271D01*
X-32266D01*
Y-30846D01*
X-32678D01*
X-32678Y-30796D01*
X-32678D01*
Y-30789D01*
X-32572Y-30683D01*
X-31253D01*
Y-30529D01*
X-30728D01*
X-30624Y-30508D01*
X-30570Y-30471D01*
X-29291D01*
Y-29121D01*
X-31241D01*
Y-29833D01*
X-31253D01*
Y-29833D01*
X-33203D01*
Y-30321D01*
X-33208Y-30326D01*
X-33264Y-30409D01*
X-33283Y-30506D01*
X-33283Y-30506D01*
X-33283D01*
X-33283Y-30506D01*
X-33283D01*
Y-30796D01*
X-33928D01*
Y-31065D01*
X-36683D01*
X-36781Y-31084D01*
X-36863Y-31140D01*
X-37073Y-31349D01*
X-37222Y-31335D01*
X-37295Y-31226D01*
Y-31158D01*
X-36752Y-30614D01*
X-35869D01*
Y-30564D01*
X-35456D01*
Y-30139D01*
Y-29714D01*
X-35789D01*
X-35846Y-29576D01*
X-35666Y-29396D01*
X-35161D01*
Y-28446D01*
Y-27446D01*
X-35757D01*
X-35785Y-27441D01*
X-35973D01*
X-35997Y-27417D01*
Y-26298D01*
X-36112D01*
Y-25725D01*
X-39837D01*
Y-26348D01*
X-39897D01*
Y-27748D01*
X-39837D01*
Y-27898D01*
X-39947D01*
Y-29398D01*
X-38585D01*
X-38456Y-29526D01*
X-38514Y-29664D01*
X-38675D01*
Y-29714D01*
X-39088D01*
Y-30139D01*
X-39150D01*
Y-30202D01*
X-39725D01*
Y-30229D01*
X-39864Y-30286D01*
X-40427Y-29723D01*
X-40504Y-29671D01*
Y-29167D01*
X-40554D01*
Y-28754D01*
X-40979D01*
Y-28692D01*
X-41042D01*
Y-28117D01*
X-41344D01*
Y-27874D01*
X-41335Y-27865D01*
X-40566D01*
Y-26753D01*
X-41678D01*
Y-26760D01*
X-41725D01*
Y-26760D01*
X-42775D01*
Y-27067D01*
X-42920D01*
X-42951Y-27021D01*
X-43083Y-26933D01*
X-43239Y-26901D01*
X-43387Y-26931D01*
X-43503Y-26836D01*
Y-26378D01*
X-43371Y-26307D01*
X-43363Y-26313D01*
X-43197Y-26346D01*
X-43031Y-26313D01*
X-42907Y-26230D01*
X-42775Y-26301D01*
Y-26410D01*
X-41734D01*
X-41734Y-26410D01*
Y-26410D01*
X-41725Y-26410D01*
X-41725D01*
X-41628Y-26418D01*
X-41619Y-26418D01*
X-41619Y-26418D01*
Y-26418D01*
X-41184D01*
Y-25912D01*
Y-25406D01*
X-41245D01*
X-41288Y-25263D01*
X-41171Y-25184D01*
X-41083Y-25052D01*
X-41052Y-24896D01*
X-40744Y-24835D01*
X-32736D01*
X-29251Y-28319D01*
D02*
G37*
G36*
X-52295Y-33823D02*
X-52349Y-33765D01*
X-52341Y-33757D01*
X-52293Y-33709D01*
X-52295Y-33823D01*
D02*
G37*
G36*
X-7944Y-31531D02*
X-7843Y-31774D01*
X-7704Y-31956D01*
X-7771Y-32090D01*
X-9006D01*
X-9103Y-32110D01*
X-9186Y-32165D01*
X-9518Y-32497D01*
X-17879D01*
X-17901Y-32463D01*
X-18033Y-32375D01*
X-18190Y-32344D01*
X-18229Y-32352D01*
X-18370Y-32211D01*
X-18453Y-32156D01*
X-18550Y-32136D01*
X-18707D01*
X-19180Y-31663D01*
X-19122Y-31525D01*
X-7945D01*
X-7944Y-31531D01*
D02*
G37*
G36*
X-7843Y-47014D02*
X-7683Y-47223D01*
X-7481Y-47378D01*
X-7524Y-47503D01*
X-7531Y-47520D01*
X-8332D01*
X-8429Y-47540D01*
X-8512Y-47595D01*
X-9237Y-48320D01*
X-12787D01*
X-12858Y-48188D01*
X-12848Y-48173D01*
X-12817Y-48017D01*
X-12848Y-47861D01*
X-12937Y-47729D01*
X-13069Y-47640D01*
X-13225Y-47609D01*
X-13381Y-47640D01*
X-13513Y-47729D01*
X-13536Y-47762D01*
X-14181D01*
X-14225Y-47618D01*
X-14173Y-47584D01*
X-14084Y-47451D01*
X-14053Y-47295D01*
X-14084Y-47139D01*
X-14173Y-47007D01*
X-14185Y-46998D01*
X-14142Y-46855D01*
X-7910D01*
X-7843Y-47014D01*
D02*
G37*
G36*
X-20729Y-49383D02*
X-20819Y-49503D01*
X-27998D01*
X-28079Y-49519D01*
X-28096Y-49522D01*
X-28178Y-49578D01*
X-30761Y-52160D01*
X-30766Y-52157D01*
X-31009Y-52056D01*
X-31270Y-52021D01*
X-31531Y-52056D01*
X-31774Y-52157D01*
X-31779Y-52160D01*
X-34345Y-49595D01*
X-34427Y-49540D01*
X-34525Y-49520D01*
X-39234D01*
X-39262Y-49425D01*
X-39173Y-49305D01*
X-20753D01*
X-20729Y-49383D01*
D02*
G37*
G36*
X-11905Y-30500D02*
X-10755D01*
Y-30500D01*
X-10755D01*
X-10755Y-30500D01*
X-10705D01*
Y-30500D01*
X-9555D01*
Y-30274D01*
X-7549D01*
X-7500Y-30416D01*
X-7683Y-30557D01*
X-7843Y-30766D01*
X-7944Y-31009D01*
X-7945Y-31015D01*
X-19259D01*
X-19881Y-30393D01*
X-19823Y-30255D01*
X-11905D01*
Y-30500D01*
D02*
G37*
G36*
X-34432Y-45887D02*
X-34436Y-45894D01*
X-34467Y-46050D01*
X-34436Y-46206D01*
X-34432Y-46213D01*
X-34503Y-46345D01*
X-39747D01*
X-39769Y-46312D01*
X-39902Y-46223D01*
X-40058Y-46192D01*
X-40214Y-46223D01*
X-40346Y-46312D01*
X-40435Y-46444D01*
X-40466Y-46600D01*
X-40435Y-46756D01*
X-40346Y-46888D01*
X-40333Y-46897D01*
X-40377Y-47040D01*
X-40714D01*
X-40737Y-47007D01*
X-40869Y-46919D01*
X-41025Y-46887D01*
X-41181Y-46919D01*
X-41313Y-47007D01*
X-41402Y-47139D01*
X-41433Y-47295D01*
X-41402Y-47451D01*
X-41313Y-47584D01*
X-41261Y-47618D01*
X-41305Y-47762D01*
X-42550D01*
X-42572Y-47729D01*
X-42704Y-47640D01*
X-42860Y-47609D01*
X-43016Y-47640D01*
X-43149Y-47729D01*
X-43237Y-47861D01*
X-43268Y-48017D01*
X-43237Y-48173D01*
X-43149Y-48305D01*
X-43016Y-48394D01*
X-42860Y-48425D01*
X-42704Y-48394D01*
X-42572Y-48305D01*
X-42550Y-48272D01*
X-30463D01*
X-30392Y-48404D01*
X-30402Y-48419D01*
X-30433Y-48575D01*
X-30412Y-48679D01*
X-30507Y-48795D01*
X-39198D01*
X-39220Y-48762D01*
X-39352Y-48673D01*
X-39508Y-48642D01*
X-39664Y-48673D01*
X-39797Y-48762D01*
X-39885Y-48894D01*
X-39916Y-49050D01*
X-39885Y-49206D01*
X-39797Y-49338D01*
X-39740Y-49377D01*
X-39783Y-49520D01*
X-41739D01*
X-41762Y-49487D01*
X-41894Y-49398D01*
X-42050Y-49367D01*
X-42206Y-49398D01*
X-42338Y-49487D01*
X-42427Y-49619D01*
X-42458Y-49775D01*
X-42427Y-49931D01*
X-42338Y-50063D01*
X-42206Y-50152D01*
X-42050Y-50183D01*
X-41920Y-50157D01*
X-41836Y-50282D01*
X-41916Y-50401D01*
X-41947Y-50557D01*
X-41916Y-50713D01*
X-41828Y-50845D01*
X-41695Y-50934D01*
X-41539Y-50965D01*
X-41383Y-50934D01*
X-41251Y-50845D01*
X-41229Y-50812D01*
X-34574D01*
X-33447Y-51939D01*
X-33530Y-52064D01*
X-33549Y-52056D01*
X-33810Y-52021D01*
X-34071Y-52056D01*
X-34314Y-52157D01*
X-34523Y-52317D01*
X-34683Y-52526D01*
X-34784Y-52769D01*
X-34819Y-53030D01*
X-34784Y-53291D01*
X-34683Y-53534D01*
X-34523Y-53743D01*
X-34314Y-53903D01*
X-34071Y-54004D01*
X-33810Y-54039D01*
X-33549Y-54004D01*
X-33306Y-53903D01*
X-33097Y-53743D01*
X-32947Y-53548D01*
X-32805Y-53596D01*
Y-54290D01*
X-32785Y-54388D01*
X-32730Y-54470D01*
X-32140Y-55061D01*
X-32144Y-55066D01*
X-32244Y-55309D01*
X-32279Y-55570D01*
X-32244Y-55831D01*
X-32144Y-56074D01*
X-31983Y-56283D01*
X-31774Y-56444D01*
X-31531Y-56544D01*
X-31522Y-56545D01*
X-31532Y-56695D01*
X-33548D01*
X-33558Y-56545D01*
X-33549Y-56544D01*
X-33306Y-56444D01*
X-33097Y-56283D01*
X-32937Y-56074D01*
X-32836Y-55831D01*
X-32801Y-55570D01*
X-32836Y-55309D01*
X-32937Y-55066D01*
X-33097Y-54857D01*
X-33306Y-54696D01*
X-33549Y-54596D01*
X-33810Y-54561D01*
X-34071Y-54596D01*
X-34314Y-54696D01*
X-34523Y-54857D01*
X-34683Y-55066D01*
X-34784Y-55309D01*
X-34819Y-55570D01*
X-34784Y-55831D01*
X-34683Y-56074D01*
X-34523Y-56283D01*
X-34314Y-56444D01*
X-34071Y-56544D01*
X-34062Y-56545D01*
X-34072Y-56695D01*
X-36088D01*
X-36098Y-56545D01*
X-36089Y-56544D01*
X-35846Y-56444D01*
X-35637Y-56283D01*
X-35477Y-56074D01*
X-35376Y-55831D01*
X-35341Y-55570D01*
X-35376Y-55309D01*
X-35477Y-55066D01*
X-35637Y-54857D01*
X-35846Y-54696D01*
X-36089Y-54596D01*
X-36350Y-54561D01*
X-36611Y-54596D01*
X-36854Y-54696D01*
X-37063Y-54857D01*
X-37223Y-55066D01*
X-37324Y-55309D01*
X-37359Y-55570D01*
X-37324Y-55831D01*
X-37223Y-56074D01*
X-37063Y-56283D01*
X-36854Y-56444D01*
X-36611Y-56544D01*
X-36602Y-56545D01*
X-36612Y-56695D01*
X-38628D01*
X-38638Y-56545D01*
X-38629Y-56544D01*
X-38386Y-56444D01*
X-38177Y-56283D01*
X-38017Y-56074D01*
X-37916Y-55831D01*
X-37881Y-55570D01*
X-37916Y-55309D01*
X-38017Y-55066D01*
X-38177Y-54857D01*
X-38353Y-54722D01*
X-38304Y-54580D01*
X-37645D01*
X-37547Y-54560D01*
X-37465Y-54505D01*
X-36859Y-53900D01*
X-36854Y-53903D01*
X-36611Y-54004D01*
X-36350Y-54039D01*
X-36089Y-54004D01*
X-35846Y-53903D01*
X-35637Y-53743D01*
X-35477Y-53534D01*
X-35376Y-53291D01*
X-35341Y-53030D01*
X-35376Y-52769D01*
X-35477Y-52526D01*
X-35637Y-52317D01*
X-35846Y-52157D01*
X-36089Y-52056D01*
X-36350Y-52021D01*
X-36611Y-52056D01*
X-36854Y-52157D01*
X-37063Y-52317D01*
X-37223Y-52526D01*
X-37324Y-52769D01*
X-37359Y-53030D01*
X-37324Y-53291D01*
X-37223Y-53534D01*
X-37220Y-53539D01*
X-37751Y-54070D01*
X-38403D01*
X-38433Y-53923D01*
X-38386Y-53903D01*
X-38177Y-53743D01*
X-38017Y-53534D01*
X-37916Y-53291D01*
X-37881Y-53030D01*
X-37916Y-52769D01*
X-38017Y-52526D01*
X-38177Y-52317D01*
X-38386Y-52157D01*
X-38629Y-52056D01*
X-38890Y-52021D01*
X-39151Y-52056D01*
X-39394Y-52157D01*
X-39603Y-52317D01*
X-39764Y-52526D01*
X-39864Y-52769D01*
X-39899Y-53030D01*
X-39864Y-53291D01*
X-39764Y-53534D01*
X-39603Y-53743D01*
X-39394Y-53903D01*
X-39347Y-53923D01*
X-39377Y-54070D01*
X-41009D01*
X-41038Y-53923D01*
X-40938Y-53882D01*
X-40735Y-53725D01*
X-40578Y-53522D01*
X-40480Y-53285D01*
X-40455Y-53092D01*
X-42405D01*
X-42380Y-53285D01*
X-42282Y-53522D01*
X-42125Y-53725D01*
X-41922Y-53882D01*
X-41822Y-53923D01*
X-41851Y-54070D01*
X-43207D01*
X-43916Y-53361D01*
X-43846Y-53229D01*
X-43700Y-53258D01*
X-43544Y-53227D01*
X-43412Y-53138D01*
X-43323Y-53006D01*
X-43292Y-52850D01*
X-43323Y-52694D01*
X-43412Y-52562D01*
X-43544Y-52473D01*
X-43700Y-52442D01*
X-43776Y-52059D01*
Y-45882D01*
X-43636Y-45788D01*
X-43504Y-45877D01*
X-43348Y-45908D01*
X-43191Y-45877D01*
X-43059Y-45788D01*
X-43037Y-45755D01*
X-34503D01*
X-34432Y-45887D01*
D02*
G37*
G36*
X-21197Y-649D02*
X-21171Y-660D01*
D01*
X-21160Y-774D01*
X-21160D01*
X-21160D01*
Y-774D01*
Y-774D01*
X-21160Y-774D01*
X-21162Y-780D01*
X-21165Y-785D01*
X-21171Y-813D01*
X-21178Y-842D01*
X-21177Y-847D01*
X-21178Y-853D01*
Y-1455D01*
X-21415D01*
X-21437Y-1422D01*
X-21569Y-1333D01*
X-21725Y-1302D01*
X-21881Y-1333D01*
X-22014Y-1422D01*
X-22102Y-1554D01*
X-22133Y-1710D01*
X-22102Y-1866D01*
X-22014Y-1999D01*
X-21881Y-2087D01*
X-21725Y-2118D01*
X-21569Y-2087D01*
X-21437Y-1999D01*
X-21415Y-1965D01*
X-21178D01*
Y-6700D01*
X-21165Y-6768D01*
X-21126Y-6826D01*
X-21068Y-6865D01*
X-21000Y-6878D01*
X-19400D01*
Y-6975D01*
Y-6975D01*
X-19400Y-6981D01*
X-19400Y-6981D01*
X-19400D01*
Y-7338D01*
X-19000D01*
Y-7400D01*
X-18938D01*
Y-7825D01*
X-18600D01*
Y-7825D01*
X-18600D01*
X-18600Y-7825D01*
X-18475Y-7825D01*
Y-7825D01*
X-18163D01*
Y-7375D01*
X-18100D01*
Y-7312D01*
X-17725D01*
Y-6925D01*
X-17675D01*
Y-5937D01*
X-17670Y-5922D01*
X-17660Y-5898D01*
Y-5889D01*
X-17658Y-5880D01*
X-17660Y-5854D01*
Y-5828D01*
X-17664Y-5820D01*
X-17665Y-5811D01*
X-17677Y-5788D01*
X-17687Y-5764D01*
X-17732Y-5696D01*
X-17751Y-5600D01*
X-17732Y-5504D01*
X-17678Y-5422D01*
X-17596Y-5368D01*
X-17465Y-5342D01*
X-17449Y-5335D01*
X-17432Y-5332D01*
X-17417Y-5322D01*
X-17401Y-5315D01*
X-17388Y-5303D01*
X-17374Y-5293D01*
X-17369Y-5285D01*
X-17285Y-5310D01*
X-17225Y-5335D01*
Y-5975D01*
X-16962D01*
Y-5150D01*
X-16837D01*
Y-5975D01*
X-16625D01*
Y-6025D01*
X-16400D01*
Y-6450D01*
X-16236D01*
Y-6975D01*
X-16337D01*
Y-7600D01*
Y-8225D01*
X-16236D01*
Y-8400D01*
X-17550D01*
Y-8982D01*
X-17673Y-9048D01*
X-17829Y-9017D01*
X-17985Y-9048D01*
X-18117Y-9137D01*
X-18206Y-9269D01*
X-18237Y-9425D01*
X-18229Y-9465D01*
X-21980Y-13216D01*
X-22035Y-13298D01*
X-22055Y-13396D01*
Y-15589D01*
X-22088Y-15612D01*
X-22177Y-15744D01*
X-22208Y-15900D01*
X-22177Y-16056D01*
X-22088Y-16188D01*
X-21956Y-16277D01*
X-21800Y-16308D01*
X-21644Y-16277D01*
X-21512Y-16188D01*
X-21423Y-16056D01*
X-21392Y-15900D01*
X-21423Y-15744D01*
X-21512Y-15612D01*
X-21545Y-15589D01*
Y-13502D01*
X-17869Y-9825D01*
X-17829Y-9833D01*
X-17673Y-9802D01*
X-17550Y-9868D01*
Y-10200D01*
X-16236D01*
Y-12439D01*
X-20092Y-16295D01*
X-20203Y-16439D01*
X-20243Y-16537D01*
X-20272Y-16607D01*
X-20296Y-16787D01*
Y-17711D01*
X-20342Y-17771D01*
X-20428Y-17978D01*
X-20457Y-18200D01*
X-20428Y-18422D01*
X-20408Y-18469D01*
X-20533Y-18553D01*
X-22536Y-16550D01*
Y-12759D01*
X-22503Y-12736D01*
X-22414Y-12604D01*
X-22383Y-12448D01*
X-22385Y-12440D01*
X-22120Y-12175D01*
X-22059Y-12084D01*
X-22055Y-12066D01*
X-22039Y-11985D01*
X-21645D01*
Y-11085D01*
X-22595D01*
D01*
X-22595D01*
X-22625Y-11055D01*
Y-10250D01*
Y-10042D01*
X-22375D01*
Y-10400D01*
X-21225D01*
Y-10400D01*
X-21225D01*
X-21225Y-10400D01*
X-21175D01*
Y-10400D01*
X-20025D01*
Y-9400D01*
X-20758D01*
X-22858Y-7300D01*
Y-950D01*
X-22858Y-950D01*
X-22876Y-857D01*
X-22894Y-831D01*
X-22929Y-779D01*
X-22929Y-779D01*
X-23107Y-601D01*
X-23049Y-462D01*
X-21441D01*
X-21197Y-649D01*
D02*
G37*
G36*
X-57918Y-24538D02*
X-57919Y-24550D01*
X-58005D01*
X-58003Y-24548D01*
Y-24475D01*
X-58003Y-24454D01*
X-57918Y-24538D01*
D02*
G37*
G36*
X-2122Y-24575D02*
Y-25556D01*
X-3142Y-26576D01*
X-3250Y-26518D01*
X-3271Y-26492D01*
X-3243Y-26351D01*
X-3274Y-26195D01*
X-3363Y-26063D01*
X-3495Y-25974D01*
X-3651Y-25943D01*
X-3807Y-25974D01*
X-3940Y-26063D01*
X-3962Y-26096D01*
X-14026D01*
X-14097Y-25964D01*
X-14084Y-25945D01*
X-14053Y-25789D01*
X-14074Y-25685D01*
X-13979Y-25569D01*
X-13356D01*
X-13313Y-25632D01*
X-13181Y-25721D01*
X-13025Y-25752D01*
X-12869Y-25721D01*
X-12737Y-25632D01*
X-12648Y-25500D01*
X-12617Y-25344D01*
X-12638Y-25240D01*
X-12543Y-25124D01*
X-12316D01*
X-12283Y-25145D01*
X-12186Y-25165D01*
X-11559D01*
X-11539Y-25193D01*
X-11407Y-25282D01*
X-11251Y-25313D01*
X-11095Y-25282D01*
X-10963Y-25193D01*
X-10874Y-25061D01*
X-10843Y-24905D01*
X-10874Y-24749D01*
X-10829Y-24619D01*
X-10829Y-24619D01*
X-10732Y-24638D01*
X-2487D01*
X-2390Y-24619D01*
X-2307Y-24564D01*
X-2261Y-24517D01*
X-2122Y-24575D01*
D02*
G37*
G36*
X-20380Y-23180D02*
X-20298Y-23235D01*
X-20200Y-23255D01*
X-17534D01*
X-17047Y-23742D01*
X-17104Y-23881D01*
X-20909D01*
X-22719Y-22070D01*
X-22745Y-21938D01*
X-22823Y-21823D01*
X-22938Y-21745D01*
X-23075Y-21718D01*
X-23212Y-21745D01*
X-23327Y-21823D01*
X-23405Y-21938D01*
X-23432Y-22075D01*
X-23405Y-22212D01*
X-23327Y-22327D01*
X-23212Y-22405D01*
X-23080Y-22431D01*
X-21468Y-24042D01*
X-21526Y-24181D01*
X-21941D01*
X-23583Y-22539D01*
Y-20173D01*
X-23445Y-20116D01*
X-20380Y-23180D01*
D02*
G37*
G36*
X-462Y-59538D02*
X-59538D01*
Y-23125D01*
X-58775D01*
Y-23000D01*
X-58609D01*
Y-24602D01*
X-58599Y-24652D01*
Y-25076D01*
X-58609Y-25126D01*
Y-28153D01*
X-58609Y-28153D01*
X-58570Y-28350D01*
X-58459Y-28516D01*
X-53194Y-33781D01*
X-53169Y-33797D01*
X-52844Y-34122D01*
X-52816Y-34164D01*
X-52212Y-34768D01*
Y-35036D01*
X-52292Y-35115D01*
X-52333Y-35142D01*
X-52465Y-35341D01*
X-52512Y-35575D01*
X-52465Y-35809D01*
X-52333Y-36008D01*
X-52203Y-36094D01*
X-52206Y-36098D01*
X-52219Y-36162D01*
X-52022D01*
X-51900Y-36187D01*
X-51500D01*
X-51378Y-36162D01*
X-51181D01*
X-51194Y-36098D01*
X-51197Y-36094D01*
X-51067Y-36008D01*
X-50935Y-35809D01*
X-50888Y-35575D01*
X-50935Y-35341D01*
X-51067Y-35142D01*
X-51110Y-35114D01*
X-51112Y-35112D01*
X-51112Y-35112D01*
X-51188Y-35036D01*
Y-34556D01*
X-51188Y-34556D01*
X-51227Y-34360D01*
X-51338Y-34194D01*
X-51338Y-34194D01*
X-51775Y-33756D01*
X-51728Y-33709D01*
X-51981Y-33456D01*
X-52001Y-33425D01*
X-52002Y-33424D01*
X-52003Y-33422D01*
X-52037Y-33400D01*
X-52438Y-32998D01*
X-52447Y-32990D01*
X-52453Y-32977D01*
X-52476Y-32957D01*
X-52494Y-32933D01*
X-52522Y-32915D01*
X-52774Y-32663D01*
X-52774D01*
X-52863D01*
X-57584Y-27941D01*
Y-26213D01*
X-57392D01*
Y-25681D01*
X-57517D01*
Y-25618D01*
X-57517D01*
Y-25272D01*
X-57512Y-25254D01*
X-57514Y-25234D01*
X-57510Y-25215D01*
X-57511Y-25210D01*
X-57511Y-25209D01*
X-57517Y-25179D01*
Y-25143D01*
Y-24600D01*
X-57513Y-24583D01*
X-57512Y-24571D01*
X-57513Y-24559D01*
X-57511Y-24550D01*
X-57512Y-24545D01*
X-57510Y-24536D01*
X-57517Y-24502D01*
Y-24138D01*
D01*
Y-24138D01*
X-57464Y-24085D01*
X-57394D01*
Y-23553D01*
X-57584D01*
Y-23400D01*
X-57200D01*
Y-23000D01*
X-53500D01*
Y-19000D01*
X-57475D01*
Y-18875D01*
X-58325D01*
Y-19000D01*
X-58775D01*
Y-18875D01*
X-59538D01*
Y-462D01*
X-54325D01*
X-54081Y-649D01*
X-53999Y-792D01*
Y-792D01*
X-53999Y-792D01*
X-54005Y-820D01*
X-54012Y-848D01*
X-54011Y-854D01*
X-54012Y-860D01*
Y-6700D01*
X-53999Y-6768D01*
X-53960Y-6826D01*
X-53902Y-6865D01*
X-53834Y-6878D01*
X-52550D01*
Y-6947D01*
Y-6947D01*
D01*
Y-6953D01*
Y-6953D01*
Y-6953D01*
X-52500Y-7053D01*
D01*
X-52500Y-7059D01*
X-52500Y-7059D01*
X-52500D01*
Y-7416D01*
X-52100D01*
Y-7478D01*
X-52037D01*
Y-7903D01*
X-51700D01*
Y-7903D01*
X-51700D01*
X-51700Y-7903D01*
X-51575Y-7903D01*
Y-7903D01*
X-51263D01*
Y-7453D01*
X-51200D01*
Y-7391D01*
X-50825D01*
Y-7003D01*
X-50775D01*
Y-6878D01*
X-50334D01*
X-50266Y-6865D01*
X-50208Y-6826D01*
X-50169Y-6768D01*
X-50156Y-6700D01*
Y-5975D01*
X-50059D01*
Y-5975D01*
X-49797D01*
Y-5150D01*
X-49672D01*
Y-5975D01*
X-49459D01*
Y-6025D01*
X-49234D01*
Y-6450D01*
X-48995D01*
Y-7053D01*
X-49097D01*
Y-7678D01*
Y-8303D01*
X-48995D01*
Y-8478D01*
X-50309D01*
Y-10278D01*
X-49319D01*
X-49236Y-10403D01*
X-49294Y-10542D01*
X-49323Y-10764D01*
X-49294Y-10986D01*
X-49208Y-11193D01*
X-49072Y-11370D01*
X-48894Y-11507D01*
X-48688Y-11592D01*
X-48466Y-11621D01*
X-48244Y-11592D01*
X-48109Y-11536D01*
X-47974Y-11592D01*
X-47752Y-11621D01*
X-47530Y-11592D01*
X-47324Y-11507D01*
X-47146Y-11370D01*
X-47010Y-11193D01*
X-46924Y-10986D01*
X-46895Y-10764D01*
X-46924Y-10542D01*
X-46982Y-10403D01*
X-46899Y-10278D01*
X-46010D01*
Y-10469D01*
X-46010Y-10469D01*
X-46010D01*
X-46010Y-10475D01*
X-45960Y-10575D01*
D01*
X-45960Y-10581D01*
X-45960Y-10581D01*
X-45960D01*
Y-11038D01*
X-45060D01*
Y-10581D01*
X-45060Y-10581D01*
D01*
X-45010Y-10475D01*
X-45010Y-10475D01*
D01*
D01*
Y-10475D01*
Y-10475D01*
Y-10475D01*
Y-10475D01*
Y-10469D01*
Y-10469D01*
D01*
Y-10455D01*
X-44790D01*
X-43546Y-11698D01*
X-43554Y-11738D01*
X-43523Y-11894D01*
X-43435Y-12026D01*
X-43401Y-12048D01*
Y-14374D01*
X-43425D01*
Y-15374D01*
X-42275D01*
Y-15374D01*
X-42275D01*
X-42275Y-15374D01*
X-42225D01*
Y-15374D01*
X-41904D01*
Y-23077D01*
X-41938Y-23100D01*
X-41960Y-23133D01*
X-42454D01*
X-42551Y-23153D01*
X-42634Y-23208D01*
X-44238Y-24812D01*
X-44293Y-24895D01*
X-44313Y-24992D01*
Y-29662D01*
X-44293Y-29759D01*
X-44238Y-29842D01*
X-44196Y-29884D01*
X-44210Y-30034D01*
X-44341Y-30121D01*
X-44435Y-30262D01*
X-44468Y-30428D01*
X-44453Y-30507D01*
X-44492Y-30547D01*
X-44554Y-30638D01*
X-44563Y-30688D01*
X-44735D01*
Y-31938D01*
X-44685D01*
Y-32351D01*
X-43835D01*
Y-31938D01*
X-43785D01*
Y-31565D01*
X-43609D01*
X-43132Y-32042D01*
Y-32430D01*
X-43192Y-32442D01*
X-43291Y-32509D01*
X-43358Y-32608D01*
X-43381Y-32725D01*
X-43358Y-32842D01*
X-43291Y-32941D01*
X-43291Y-32941D01*
X-43291D01*
X-43255Y-33045D01*
X-43255Y-33045D01*
X-43255D01*
X-43311Y-33127D01*
X-43317Y-33162D01*
X-42850D01*
Y-33287D01*
X-43317D01*
X-43311Y-33323D01*
X-43292Y-33351D01*
X-43362Y-33483D01*
X-43736D01*
X-43755Y-33455D01*
X-43879Y-33372D01*
X-44025Y-33343D01*
X-44171Y-33372D01*
X-44295Y-33455D01*
X-44378Y-33579D01*
X-44407Y-33725D01*
X-44378Y-33871D01*
X-44295Y-33995D01*
X-44171Y-34078D01*
X-44025Y-34107D01*
D01*
D01*
D01*
X-44025Y-34107D01*
D01*
X-43938Y-34197D01*
X-43943Y-34225D01*
X-43916Y-34362D01*
X-43839Y-34477D01*
X-43723Y-34555D01*
X-43586Y-34582D01*
X-43450Y-34555D01*
X-43435Y-34545D01*
X-43367Y-34591D01*
X-43396Y-34738D01*
X-43534Y-34766D01*
X-44925D01*
Y-33975D01*
X-46075D01*
Y-34250D01*
X-46087D01*
Y-34725D01*
Y-35200D01*
X-46075D01*
Y-35475D01*
Y-35750D01*
X-46087D01*
Y-36225D01*
Y-36700D01*
X-46075D01*
Y-36975D01*
X-44925D01*
Y-36134D01*
X-43407D01*
X-43323Y-36191D01*
X-43330Y-36225D01*
X-43311Y-36323D01*
X-43300Y-36338D01*
X-43371Y-36470D01*
X-43758D01*
X-43856Y-36490D01*
X-43938Y-36545D01*
X-44260Y-36866D01*
X-44315Y-36949D01*
X-44335Y-37047D01*
Y-38068D01*
X-44592Y-38325D01*
X-44631Y-38317D01*
X-44787Y-38348D01*
X-44920Y-38437D01*
X-45008Y-38569D01*
X-45039Y-38725D01*
X-45008Y-38881D01*
X-44920Y-39013D01*
X-44886Y-39036D01*
Y-54629D01*
X-44886Y-54629D01*
X-44886D01*
X-44867Y-54726D01*
X-44811Y-54809D01*
X-42490Y-57130D01*
X-42407Y-57185D01*
X-42310Y-57205D01*
X-27661D01*
X-27638Y-57238D01*
X-27506Y-57327D01*
X-27350Y-57358D01*
X-27194Y-57327D01*
X-27062Y-57238D01*
X-26973Y-57106D01*
X-26942Y-56950D01*
X-26973Y-56794D01*
X-27062Y-56662D01*
X-27194Y-56573D01*
X-27350Y-56542D01*
X-27506Y-56573D01*
X-27638Y-56662D01*
X-27661Y-56695D01*
X-28468D01*
X-28478Y-56545D01*
X-28469Y-56544D01*
X-28226Y-56444D01*
X-28017Y-56283D01*
X-27857Y-56074D01*
X-27756Y-55831D01*
X-27721Y-55570D01*
X-27756Y-55309D01*
X-27857Y-55066D01*
X-28017Y-54857D01*
X-28226Y-54696D01*
X-28469Y-54596D01*
X-28730Y-54561D01*
X-28991Y-54596D01*
X-29234Y-54696D01*
X-29443Y-54857D01*
X-29604Y-55066D01*
X-29704Y-55309D01*
X-29739Y-55570D01*
X-29704Y-55831D01*
X-29604Y-56074D01*
X-29443Y-56283D01*
X-29234Y-56444D01*
X-28991Y-56544D01*
X-28982Y-56545D01*
X-28992Y-56695D01*
X-31008D01*
X-31018Y-56545D01*
X-31009Y-56544D01*
X-30766Y-56444D01*
X-30557Y-56283D01*
X-30397Y-56074D01*
X-30296Y-55831D01*
X-30261Y-55570D01*
X-30296Y-55309D01*
X-30397Y-55066D01*
X-30400Y-55061D01*
X-29810Y-54470D01*
X-29755Y-54388D01*
X-29735Y-54290D01*
X-29735Y-54290D01*
X-29735Y-54290D01*
Y-54290D01*
Y-53596D01*
X-29593Y-53548D01*
X-29443Y-53743D01*
X-29234Y-53903D01*
X-28991Y-54004D01*
X-28730Y-54039D01*
X-28469Y-54004D01*
X-28226Y-53903D01*
X-28017Y-53743D01*
X-27857Y-53534D01*
X-27756Y-53291D01*
X-27721Y-53030D01*
X-27756Y-52769D01*
X-27857Y-52526D01*
X-28017Y-52317D01*
X-28226Y-52157D01*
X-28469Y-52056D01*
X-28730Y-52021D01*
X-28991Y-52056D01*
X-29010Y-52064D01*
X-29093Y-51939D01*
X-27680Y-50526D01*
X-19740D01*
X-19717Y-50559D01*
X-19585Y-50647D01*
X-19429Y-50678D01*
X-19273Y-50647D01*
X-19141Y-50559D01*
X-19052Y-50427D01*
X-19021Y-50271D01*
X-19052Y-50115D01*
X-19141Y-49982D01*
X-19273Y-49894D01*
X-19429Y-49863D01*
X-19585Y-49894D01*
X-19717Y-49982D01*
X-19740Y-50016D01*
X-19978D01*
X-20073Y-49900D01*
X-20045Y-49758D01*
X-20076Y-49602D01*
X-20164Y-49470D01*
X-20196Y-49448D01*
X-20152Y-49305D01*
X-7945D01*
X-7944Y-49311D01*
X-7843Y-49554D01*
X-7683Y-49763D01*
X-7474Y-49924D01*
X-7231Y-50024D01*
X-6970Y-50059D01*
X-6709Y-50024D01*
X-6466Y-49924D01*
X-6257Y-49763D01*
X-6096Y-49554D01*
X-5996Y-49311D01*
X-5961Y-49050D01*
X-5996Y-48789D01*
X-6096Y-48546D01*
X-6257Y-48337D01*
X-6466Y-48177D01*
X-6405Y-48030D01*
X-5811D01*
X-5300Y-48541D01*
X-5303Y-48546D01*
X-5404Y-48789D01*
X-5439Y-49050D01*
X-5404Y-49311D01*
X-5303Y-49554D01*
X-5143Y-49763D01*
X-4934Y-49924D01*
X-4691Y-50024D01*
X-4430Y-50059D01*
X-4169Y-50024D01*
X-3926Y-49924D01*
X-3717Y-49763D01*
X-3556Y-49554D01*
X-3456Y-49311D01*
X-3421Y-49050D01*
X-3456Y-48789D01*
X-3556Y-48546D01*
X-3717Y-48337D01*
X-3926Y-48177D01*
X-4169Y-48076D01*
X-4430Y-48041D01*
X-4691Y-48076D01*
X-4934Y-48177D01*
X-4939Y-48180D01*
X-5525Y-47595D01*
X-5607Y-47540D01*
X-5705Y-47520D01*
X-6409D01*
X-6416Y-47503D01*
X-6459Y-47378D01*
X-6257Y-47223D01*
X-6096Y-47014D01*
X-5996Y-46771D01*
X-5961Y-46510D01*
X-5996Y-46249D01*
X-6096Y-46006D01*
X-6183Y-45893D01*
X-6070Y-45794D01*
X-6044Y-45820D01*
X-5989Y-45857D01*
X-5961Y-45876D01*
X-5864Y-45895D01*
X-5405D01*
X-5300Y-46001D01*
X-5303Y-46006D01*
X-5404Y-46249D01*
X-5439Y-46510D01*
X-5404Y-46771D01*
X-5303Y-47014D01*
X-5143Y-47223D01*
X-4934Y-47383D01*
X-4691Y-47484D01*
X-4430Y-47519D01*
X-4169Y-47484D01*
X-3926Y-47383D01*
X-3717Y-47223D01*
X-3556Y-47014D01*
X-3456Y-46771D01*
X-3421Y-46510D01*
X-3456Y-46249D01*
X-3556Y-46006D01*
X-3717Y-45797D01*
X-3898Y-45658D01*
X-3850Y-45516D01*
X-3815D01*
X-3717Y-45496D01*
X-3635Y-45441D01*
X-1995Y-43801D01*
X-1939Y-43718D01*
X-1920Y-43621D01*
Y-32773D01*
X-1936Y-32692D01*
X-1939Y-32676D01*
X-1995Y-32593D01*
X-2423Y-32165D01*
X-2506Y-32110D01*
X-2603Y-32090D01*
X-3629D01*
X-3696Y-31956D01*
X-3556Y-31774D01*
X-3456Y-31531D01*
X-3421Y-31270D01*
X-3456Y-31009D01*
X-3556Y-30766D01*
X-3717Y-30557D01*
X-3926Y-30397D01*
X-4169Y-30296D01*
X-4430Y-30261D01*
X-4691Y-30296D01*
X-4913Y-30388D01*
X-5508Y-29793D01*
X-5600Y-29732D01*
X-5707Y-29711D01*
X-5970D01*
Y-27730D01*
X-5970D01*
Y-27693D01*
X-5864Y-27587D01*
X-2772D01*
X-2674Y-27568D01*
X-2591Y-27512D01*
X-1189Y-26110D01*
X-1134Y-26027D01*
X-1131Y-26011D01*
X-1115Y-25930D01*
Y-21268D01*
X-1134Y-21170D01*
X-1189Y-21088D01*
X-1985Y-20292D01*
X-2068Y-20236D01*
X-2166Y-20217D01*
X-6980D01*
X-7078Y-20236D01*
X-7161Y-20292D01*
X-7992Y-21123D01*
X-8077Y-21087D01*
X-8253Y-21064D01*
X-8430Y-21087D01*
X-8594Y-21155D01*
X-8735Y-21264D01*
X-8843Y-21405D01*
X-8911Y-21569D01*
X-8934Y-21745D01*
X-8911Y-21921D01*
X-8843Y-22085D01*
X-8735Y-22226D01*
X-8632Y-22305D01*
Y-22455D01*
X-8735Y-22534D01*
X-8843Y-22675D01*
X-8911Y-22839D01*
X-8934Y-23015D01*
X-8911Y-23191D01*
X-8843Y-23355D01*
X-8735Y-23496D01*
X-8594Y-23605D01*
X-8430Y-23673D01*
X-8253Y-23696D01*
X-8077Y-23673D01*
X-7913Y-23605D01*
X-7772Y-23496D01*
X-7678Y-23373D01*
X-7528D01*
X-7447Y-23479D01*
X-7311Y-23583D01*
X-7153Y-23648D01*
X-7046Y-23662D01*
Y-23015D01*
X-6921D01*
Y-23662D01*
X-6814Y-23648D01*
X-6656Y-23583D01*
X-6520Y-23479D01*
X-6424Y-23353D01*
X-6273D01*
X-6177Y-23479D01*
X-6041Y-23583D01*
X-5883Y-23648D01*
X-5776Y-23662D01*
Y-23015D01*
X-5651D01*
Y-23662D01*
X-5544Y-23648D01*
X-5386Y-23583D01*
X-5250Y-23479D01*
X-5169Y-23373D01*
X-5019D01*
X-4925Y-23496D01*
X-4784Y-23605D01*
X-4620Y-23673D01*
X-4444Y-23696D01*
X-4267Y-23673D01*
X-4103Y-23605D01*
X-3962Y-23496D01*
X-3868Y-23373D01*
X-3718D01*
X-3637Y-23479D01*
X-3501Y-23583D01*
X-3343Y-23648D01*
X-3236Y-23662D01*
Y-23015D01*
X-3111D01*
Y-23662D01*
X-3004Y-23648D01*
X-2846Y-23583D01*
X-2710Y-23479D01*
X-2608Y-23346D01*
X-2545Y-23368D01*
X-2466Y-23400D01*
Y-24002D01*
X-2593Y-24129D01*
X-9963D01*
X-10007Y-23985D01*
X-9937Y-23938D01*
X-9848Y-23806D01*
X-9817Y-23650D01*
X-9848Y-23494D01*
X-9937Y-23362D01*
X-10069Y-23273D01*
X-10225Y-23242D01*
X-10381Y-23273D01*
X-10513Y-23362D01*
X-10602Y-23494D01*
X-10633Y-23650D01*
X-10602Y-23806D01*
X-10513Y-23938D01*
X-10443Y-23985D01*
X-10487Y-24129D01*
X-10626D01*
X-11287Y-23468D01*
X-11369Y-23413D01*
X-11467Y-23393D01*
X-14289D01*
X-14370Y-23410D01*
X-14386Y-23413D01*
X-14469Y-23468D01*
X-14611Y-23610D01*
X-14650Y-23602D01*
X-14690Y-23610D01*
X-18372Y-19927D01*
X-18455Y-19872D01*
X-18553Y-19853D01*
X-19233D01*
X-19953Y-19133D01*
X-19869Y-19008D01*
X-19822Y-19028D01*
X-19600Y-19057D01*
X-19378Y-19028D01*
X-19171Y-18942D01*
X-18994Y-18806D01*
X-18858Y-18629D01*
X-18772Y-18422D01*
X-18743Y-18200D01*
X-18745Y-18183D01*
X-18646Y-18142D01*
X-18469Y-18006D01*
X-18333Y-17829D01*
X-18247Y-17622D01*
X-18218Y-17400D01*
X-18247Y-17178D01*
X-18312Y-17021D01*
X-14668Y-13377D01*
X-14557Y-13232D01*
X-14508Y-13114D01*
X-14488Y-13065D01*
X-14464Y-12884D01*
Y-10200D01*
X-13150D01*
Y-10100D01*
X-13075D01*
Y-10100D01*
X-12762D01*
Y-9650D01*
X-12700D01*
Y-9587D01*
X-12325D01*
Y-9200D01*
X-12275D01*
Y-8200D01*
D01*
D01*
X-12175Y-8100D01*
X-12175D01*
Y-7050D01*
X-13225D01*
Y-7169D01*
X-13575D01*
Y-6925D01*
X-13983D01*
Y-6025D01*
X-13925D01*
Y-4678D01*
X-10200D01*
X-10132Y-4665D01*
X-10074Y-4626D01*
X-10035Y-4568D01*
X-10022Y-4500D01*
Y-853D01*
X-10023Y-848D01*
X-10022Y-842D01*
X-10029Y-814D01*
X-10035Y-785D01*
X-10038Y-780D01*
X-10040Y-774D01*
X-10040Y-774D01*
Y-774D01*
Y-774D01*
X-10040D01*
X-10040D01*
X-10030Y-661D01*
X-10030Y-661D01*
X-10002Y-649D01*
X-9758Y-462D01*
X-462D01*
Y-59538D01*
D02*
G37*
G36*
X-31868Y-601D02*
X-32871Y-1604D01*
X-32924Y-1682D01*
X-32942Y-1775D01*
Y-3444D01*
X-32924Y-3536D01*
X-32871Y-3615D01*
X-32871Y-3615D01*
X-32871Y-3615D01*
X-32642Y-3844D01*
Y-4151D01*
X-32706Y-4194D01*
X-32800Y-4334D01*
X-32833Y-4500D01*
X-32800Y-4666D01*
X-32706Y-4806D01*
X-32566Y-4900D01*
X-32400Y-4933D01*
X-32234Y-4900D01*
X-32094Y-4806D01*
X-32000Y-4666D01*
X-31967Y-4500D01*
X-32000Y-4334D01*
X-32094Y-4194D01*
X-32158Y-4151D01*
Y-3744D01*
X-32158Y-3744D01*
X-32176Y-3651D01*
X-32229Y-3572D01*
X-32458Y-3343D01*
Y-2831D01*
X-32326Y-2760D01*
X-32266Y-2800D01*
X-32100Y-2833D01*
X-31934Y-2800D01*
X-31807Y-2716D01*
X-31675Y-2786D01*
Y-3450D01*
X-31280D01*
Y-6350D01*
X-31675D01*
Y-8950D01*
X-31280D01*
Y-9400D01*
X-31625D01*
Y-10144D01*
X-31764Y-10201D01*
X-32120Y-9845D01*
X-32202Y-9790D01*
X-32300Y-9770D01*
X-37805D01*
X-37903Y-9790D01*
X-37930Y-9808D01*
X-37985Y-9845D01*
X-38090Y-9950D01*
X-39730D01*
Y-11950D01*
X-37730D01*
Y-10310D01*
X-37699Y-10280D01*
X-34976D01*
X-34892Y-10407D01*
X-34889Y-10412D01*
X-34977Y-10544D01*
X-35008Y-10700D01*
X-34986Y-10809D01*
X-35081Y-10925D01*
X-36275D01*
Y-12115D01*
X-36720Y-12560D01*
X-36760Y-12552D01*
X-36916Y-12583D01*
X-37048Y-12671D01*
X-37136Y-12803D01*
X-37167Y-12960D01*
X-37136Y-13116D01*
X-37048Y-13248D01*
X-36916Y-13336D01*
X-36760Y-13367D01*
X-36603Y-13336D01*
X-36471Y-13248D01*
X-36383Y-13116D01*
X-36352Y-12960D01*
X-36360Y-12920D01*
X-35915Y-12475D01*
X-35085D01*
X-33788Y-13772D01*
X-33706Y-13827D01*
X-33689Y-13831D01*
X-33608Y-13847D01*
X-31725D01*
Y-14111D01*
X-31725Y-14111D01*
X-31725D01*
X-31725Y-14167D01*
Y-14192D01*
Y-14217D01*
X-31725Y-14273D01*
X-31725Y-14273D01*
X-31725D01*
Y-14537D01*
X-33942D01*
X-34023Y-14553D01*
X-34040Y-14557D01*
X-34122Y-14612D01*
X-35386Y-15875D01*
X-35441Y-15958D01*
X-35460Y-16055D01*
Y-20231D01*
X-35494Y-20254D01*
X-35582Y-20386D01*
X-35613Y-20542D01*
X-35582Y-20698D01*
X-35494Y-20830D01*
X-35362Y-20919D01*
X-35206Y-20950D01*
X-35049Y-20919D01*
X-34917Y-20830D01*
X-34829Y-20698D01*
X-34798Y-20542D01*
X-34829Y-20386D01*
X-34895Y-20287D01*
X-34844Y-20146D01*
X-34807Y-20135D01*
X-34753Y-20216D01*
X-34620Y-20305D01*
X-34464Y-20336D01*
X-34308Y-20305D01*
X-34176Y-20216D01*
X-34088Y-20084D01*
X-34057Y-19928D01*
X-34088Y-19772D01*
X-34176Y-19639D01*
X-34209Y-19617D01*
Y-16316D01*
X-34066Y-16272D01*
X-33988Y-16388D01*
X-33856Y-16477D01*
X-33700Y-16508D01*
X-33544Y-16477D01*
X-33412Y-16388D01*
X-33389Y-16355D01*
X-30011D01*
X-29988Y-16388D01*
X-29856Y-16477D01*
X-29700Y-16508D01*
X-29544Y-16477D01*
X-29412Y-16388D01*
X-29323Y-16256D01*
X-29292Y-16100D01*
X-29323Y-15944D01*
X-29412Y-15812D01*
X-29544Y-15723D01*
X-29700Y-15692D01*
X-29856Y-15723D01*
X-29988Y-15812D01*
X-30011Y-15845D01*
X-30376D01*
X-30433Y-15707D01*
X-30102Y-15375D01*
X-29387D01*
Y-14281D01*
X-29387Y-14281D01*
D01*
D01*
X-29387Y-14225D01*
Y-14219D01*
Y-14200D01*
X-29387Y-14175D01*
X-29387Y-14119D01*
X-29387Y-14119D01*
X-29387D01*
Y-13025D01*
X-29632D01*
Y-10977D01*
X-29612Y-10963D01*
X-29523Y-10831D01*
X-29492Y-10675D01*
X-29523Y-10519D01*
X-29612Y-10387D01*
X-29632Y-10373D01*
Y-10113D01*
X-29648Y-10031D01*
X-29652Y-10015D01*
X-29675Y-9980D01*
Y-9400D01*
X-30569D01*
X-30569Y-9400D01*
Y-9400D01*
X-30625Y-9400D01*
X-30675D01*
Y-9400D01*
X-30720Y-9400D01*
Y-8950D01*
X-30325D01*
Y-6350D01*
X-30720D01*
Y-3450D01*
X-30325D01*
Y-850D01*
D01*
Y-850D01*
X-30292Y-817D01*
X-28625D01*
Y-817D01*
Y-900D01*
X-28625Y-923D01*
X-28625Y-923D01*
X-28625D01*
Y-2088D01*
X-27375D01*
Y-923D01*
X-27375Y-923D01*
D01*
D01*
X-27375Y-900D01*
D01*
X-27292Y-817D01*
X-24675D01*
Y-850D01*
X-24675D01*
Y-2020D01*
X-24876D01*
X-24894Y-1994D01*
X-25034Y-1900D01*
X-25200Y-1867D01*
X-25366Y-1900D01*
X-25506Y-1994D01*
X-25600Y-2134D01*
X-25633Y-2300D01*
X-25600Y-2466D01*
X-25506Y-2606D01*
X-25366Y-2700D01*
X-25200Y-2733D01*
X-25034Y-2700D01*
X-24894Y-2606D01*
X-24876Y-2580D01*
X-24675D01*
Y-3450D01*
X-24242D01*
Y-6350D01*
X-24675D01*
Y-8950D01*
X-24242D01*
Y-9350D01*
X-24575D01*
Y-10250D01*
X-24525D01*
Y-10300D01*
X-24525D01*
Y-11050D01*
X-24138D01*
Y-10675D01*
X-24013D01*
Y-11050D01*
X-23625D01*
Y-11100D01*
X-23595D01*
Y-11650D01*
X-27927Y-15981D01*
X-27982Y-16063D01*
X-28001Y-16161D01*
X-28001Y-16161D01*
X-28001D01*
X-28001Y-16161D01*
X-28001D01*
Y-24317D01*
X-28685Y-25001D01*
X-28725Y-24993D01*
X-28881Y-25024D01*
X-29013Y-25113D01*
X-29102Y-25245D01*
X-29133Y-25401D01*
X-29102Y-25557D01*
X-29013Y-25689D01*
X-28881Y-25778D01*
X-28725Y-25809D01*
X-28569Y-25778D01*
X-28437Y-25689D01*
X-28348Y-25557D01*
X-28317Y-25401D01*
X-28325Y-25362D01*
X-27566Y-24603D01*
X-27529Y-24547D01*
X-27511Y-24520D01*
X-27491Y-24422D01*
Y-16267D01*
X-23211Y-11986D01*
X-23065Y-12023D01*
X-23033Y-12129D01*
X-23079Y-12159D01*
X-23168Y-12292D01*
X-23199Y-12448D01*
X-23168Y-12604D01*
X-23079Y-12736D01*
X-23046Y-12759D01*
Y-16655D01*
X-23046Y-16655D01*
X-23046D01*
X-23026Y-16753D01*
X-22971Y-16836D01*
X-19772Y-20035D01*
X-19829Y-20174D01*
X-20611D01*
X-23131Y-17654D01*
X-23130Y-17643D01*
X-23047Y-17519D01*
X-23018Y-17373D01*
X-23047Y-17226D01*
X-23130Y-17102D01*
X-23254Y-17019D01*
X-23400Y-16990D01*
X-23546Y-17019D01*
X-23670Y-17102D01*
X-23750Y-17102D01*
X-23762Y-17084D01*
X-23894Y-16996D01*
X-24050Y-16965D01*
X-24206Y-16996D01*
X-24338Y-17084D01*
X-24427Y-17216D01*
X-24458Y-17373D01*
X-24427Y-17529D01*
X-24338Y-17661D01*
X-24206Y-17749D01*
X-24050Y-17780D01*
X-23894Y-17749D01*
X-23894Y-17749D01*
X-23894Y-17749D01*
X-23655Y-17745D01*
X-23635Y-17843D01*
X-23580Y-17925D01*
X-21057Y-20448D01*
X-21115Y-20587D01*
X-21603D01*
X-23369Y-18820D01*
X-23395Y-18688D01*
X-23473Y-18573D01*
X-23588Y-18495D01*
X-23725Y-18468D01*
X-23862Y-18495D01*
X-23977Y-18573D01*
X-24029Y-18561D01*
X-24595Y-17995D01*
X-24677Y-17940D01*
X-24775Y-17920D01*
X-25427D01*
X-25538Y-17845D01*
X-25675Y-17818D01*
X-25812Y-17845D01*
X-25927Y-17923D01*
X-26005Y-18038D01*
X-26032Y-18175D01*
X-26005Y-18312D01*
X-25927Y-18427D01*
X-25812Y-18505D01*
X-25675Y-18532D01*
X-25538Y-18505D01*
X-25478Y-18464D01*
X-25330Y-18493D01*
X-25277Y-18573D01*
X-25355Y-18688D01*
X-25382Y-18825D01*
X-25355Y-18962D01*
X-25277Y-19077D01*
Y-19223D01*
X-25277Y-19223D01*
X-25355Y-19338D01*
X-25382Y-19475D01*
X-25355Y-19612D01*
X-25314Y-19672D01*
X-25343Y-19820D01*
X-25423Y-19873D01*
X-25538Y-19795D01*
X-25675Y-19768D01*
X-25812Y-19795D01*
X-25927Y-19873D01*
X-26005Y-19988D01*
X-26031Y-20120D01*
X-26167Y-20257D01*
X-26306Y-20199D01*
Y-19828D01*
X-26188Y-19805D01*
X-26073Y-19727D01*
X-25995Y-19612D01*
X-25968Y-19475D01*
X-25995Y-19338D01*
X-26073Y-19223D01*
X-26188Y-19145D01*
X-26325Y-19118D01*
X-26462Y-19145D01*
X-26577Y-19223D01*
X-26655Y-19338D01*
X-26681Y-19470D01*
X-26741Y-19531D01*
X-26796Y-19613D01*
X-26816Y-19711D01*
Y-22489D01*
X-26816Y-22489D01*
X-26816D01*
X-26796Y-22587D01*
X-26741Y-22669D01*
X-23622Y-25788D01*
X-23651Y-25933D01*
X-23654Y-25944D01*
X-23809Y-25974D01*
X-23941Y-26063D01*
X-24030Y-26195D01*
X-24061Y-26351D01*
X-24030Y-26507D01*
X-23957Y-26617D01*
X-24027Y-26749D01*
X-28476D01*
X-32017Y-23208D01*
X-32100Y-23153D01*
X-32198Y-23133D01*
X-41339D01*
X-41361Y-23100D01*
X-41394Y-23077D01*
Y-15374D01*
X-41075D01*
Y-14374D01*
X-42225D01*
D01*
D01*
X-42225Y-14374D01*
X-42275D01*
Y-14374D01*
X-42891D01*
Y-12048D01*
X-42858Y-12026D01*
X-42769Y-11894D01*
X-42738Y-11738D01*
X-42769Y-11582D01*
X-42858Y-11449D01*
X-42990Y-11361D01*
X-43146Y-11330D01*
X-43186Y-11338D01*
X-44504Y-10020D01*
X-44586Y-9964D01*
X-44684Y-9945D01*
X-45010D01*
Y-9325D01*
X-45205D01*
Y-9070D01*
X-45010D01*
Y-7920D01*
D01*
Y-7920D01*
X-45010Y-7920D01*
Y-7870D01*
X-45010D01*
Y-6720D01*
X-45101D01*
X-45171Y-6588D01*
X-45134Y-6531D01*
X-45103Y-6375D01*
X-45134Y-6219D01*
X-45222Y-6087D01*
X-45354Y-5998D01*
X-45510Y-5967D01*
X-45667Y-5998D01*
X-45799Y-6087D01*
X-45887Y-6219D01*
X-45918Y-6375D01*
X-45887Y-6531D01*
X-45849Y-6588D01*
X-45920Y-6720D01*
X-46010D01*
Y-7172D01*
X-46334D01*
Y-7003D01*
X-46828D01*
Y-6025D01*
X-46759D01*
Y-4678D01*
X-43034D01*
X-42966Y-4665D01*
X-42908Y-4626D01*
X-42869Y-4568D01*
X-42856Y-4500D01*
Y-853D01*
X-42857Y-848D01*
X-42856Y-842D01*
X-42863Y-814D01*
X-42869Y-785D01*
X-42872Y-780D01*
X-42874Y-774D01*
X-42874Y-774D01*
Y-774D01*
Y-774D01*
X-42874D01*
X-42874D01*
X-42864Y-661D01*
X-42864Y-661D01*
X-42836Y-649D01*
X-42592Y-462D01*
X-31926D01*
X-31868Y-601D01*
D02*
G37*
G36*
X-43034Y-853D02*
Y-4500D01*
X-46759D01*
Y-4275D01*
X-46984D01*
Y-3850D01*
X-49234D01*
Y-4275D01*
X-50109D01*
Y-4500D01*
X-50334D01*
Y-6700D01*
X-50825D01*
Y-6565D01*
X-51200D01*
Y-6503D01*
X-51263D01*
Y-6053D01*
X-51575D01*
D01*
D01*
X-51575Y-6053D01*
X-51700Y-6053D01*
Y-6053D01*
X-52037D01*
Y-6478D01*
X-52100D01*
Y-6541D01*
X-52500D01*
Y-6700D01*
X-53834D01*
Y-860D01*
X-53739Y-776D01*
X-53491Y-809D01*
X-53483Y-812D01*
X-43434D01*
X-43426Y-809D01*
X-43129Y-770D01*
X-43034Y-853D01*
D02*
G37*
G36*
X-57919Y-25215D02*
X-57918Y-25218D01*
X-57999Y-25300D01*
X-57999Y-25283D01*
Y-25211D01*
X-57919D01*
X-57919Y-25215D01*
D02*
G37*
G36*
X-27914Y-38968D02*
X-30239Y-41293D01*
X-30372Y-41223D01*
X-30342Y-41075D01*
X-30373Y-40919D01*
X-30462Y-40787D01*
X-30594Y-40698D01*
X-30750Y-40667D01*
X-30906Y-40698D01*
X-31038Y-40787D01*
X-31057Y-40814D01*
X-31200Y-40770D01*
Y-40575D01*
X-32294D01*
X-32294Y-40575D01*
Y-40575D01*
X-32350Y-40575D01*
X-32375D01*
X-32400D01*
X-32456Y-40575D01*
X-32456Y-40575D01*
Y-40575D01*
X-32720D01*
Y-40325D01*
X-32456D01*
X-32456Y-40325D01*
Y-40325D01*
X-32400Y-40325D01*
X-32375D01*
X-32350D01*
X-32294Y-40325D01*
X-32294Y-40325D01*
Y-40325D01*
X-31200D01*
Y-40080D01*
X-30336D01*
X-30313Y-40113D01*
X-30181Y-40202D01*
X-30025Y-40233D01*
X-29869Y-40202D01*
X-29737Y-40113D01*
X-29648Y-39981D01*
X-29617Y-39825D01*
X-29648Y-39669D01*
X-29737Y-39537D01*
X-29869Y-39448D01*
X-30025Y-39417D01*
X-30181Y-39448D01*
X-30313Y-39537D01*
X-30336Y-39570D01*
X-31200D01*
Y-39325D01*
X-32294D01*
X-32294Y-39325D01*
Y-39325D01*
X-32350Y-39325D01*
X-32375D01*
X-32400D01*
X-32456Y-39325D01*
X-32456Y-39325D01*
Y-39325D01*
X-32720D01*
Y-39075D01*
X-32400D01*
Y-39075D01*
X-32400D01*
X-32400Y-39075D01*
X-32350D01*
Y-39075D01*
X-31200D01*
Y-38830D01*
X-27972D01*
X-27914Y-38968D01*
D02*
G37*
G36*
X-36288Y-39513D02*
X-36156Y-39602D01*
X-36000Y-39633D01*
X-35960Y-39625D01*
X-35735Y-39850D01*
X-35793Y-39989D01*
X-35882D01*
Y-40414D01*
Y-40839D01*
X-35469D01*
Y-40889D01*
X-34314D01*
Y-42279D01*
X-34348Y-42301D01*
X-34436Y-42433D01*
X-34467Y-42589D01*
X-34436Y-42745D01*
X-34391Y-42813D01*
X-34462Y-42945D01*
X-39619D01*
X-40076Y-42489D01*
X-40019Y-42350D01*
X-39688D01*
Y-41775D01*
X-39562D01*
Y-42350D01*
X-39200D01*
Y-42350D01*
X-39084D01*
X-39064Y-42454D01*
X-38975Y-42586D01*
X-38843Y-42675D01*
X-38687Y-42706D01*
X-38531Y-42675D01*
X-38398Y-42586D01*
X-38310Y-42454D01*
X-38291Y-42357D01*
X-38264Y-42349D01*
X-38237Y-42354D01*
X-38123Y-42422D01*
X-38102Y-42531D01*
X-38013Y-42663D01*
X-37881Y-42752D01*
X-37725Y-42783D01*
X-37569Y-42752D01*
X-37437Y-42663D01*
X-37348Y-42531D01*
X-37262Y-42509D01*
X-37198Y-42515D01*
X-37198Y-42515D01*
Y-42515D01*
X-37198Y-42515D01*
X-37110Y-42647D01*
X-36977Y-42736D01*
X-36821Y-42767D01*
X-36665Y-42736D01*
X-36533Y-42647D01*
X-36444Y-42515D01*
X-36413Y-42359D01*
X-36444Y-42203D01*
X-36533Y-42071D01*
X-36665Y-41982D01*
X-36821Y-41951D01*
X-36868Y-41960D01*
X-37099Y-41729D01*
X-37182Y-41674D01*
X-37280Y-41654D01*
X-37386D01*
X-37721Y-41319D01*
X-37692Y-41172D01*
X-37621Y-41142D01*
X-37444Y-41006D01*
X-37308Y-40829D01*
X-37253Y-40697D01*
X-37121Y-40642D01*
X-36944Y-40506D01*
X-36808Y-40329D01*
X-36722Y-40122D01*
X-36693Y-39900D01*
X-36722Y-39678D01*
X-36732Y-39655D01*
X-36636Y-39539D01*
X-36550Y-39556D01*
X-36433Y-39533D01*
X-36350Y-39477D01*
X-36312D01*
X-36288Y-39513D01*
D02*
G37*
G36*
X-7685Y-35639D02*
X-7843Y-35846D01*
X-7944Y-36089D01*
X-7945Y-36095D01*
X-22468D01*
X-22526Y-35957D01*
X-22074Y-35505D01*
X-7752D01*
X-7685Y-35639D01*
D02*
G37*
G36*
X-32400Y-12200D02*
X-31250D01*
Y-12200D01*
X-31250D01*
X-31250Y-12200D01*
X-31200D01*
Y-12200D01*
X-30142D01*
Y-13025D01*
X-30387D01*
Y-14119D01*
X-30387Y-14119D01*
X-30387D01*
X-30387Y-14175D01*
Y-14200D01*
Y-14225D01*
X-30387Y-14281D01*
X-30387Y-14281D01*
X-30387D01*
Y-14940D01*
X-30586Y-15139D01*
X-30725Y-15081D01*
Y-14273D01*
X-30725Y-14273D01*
D01*
D01*
X-30725Y-14217D01*
Y-14211D01*
Y-14192D01*
X-30725Y-14167D01*
X-30725Y-14111D01*
X-30725Y-14111D01*
X-30725D01*
Y-13017D01*
X-31725D01*
Y-13337D01*
X-33502D01*
X-33639Y-13201D01*
X-33556Y-13077D01*
X-33400Y-13108D01*
X-33244Y-13077D01*
X-33112Y-12988D01*
X-33023Y-12856D01*
X-32992Y-12700D01*
X-33014Y-12591D01*
X-32919Y-12475D01*
X-32625D01*
Y-11955D01*
X-32400D01*
Y-12200D01*
D02*
G37*
G36*
X-31910Y-34405D02*
X-31828Y-34460D01*
X-31730Y-34480D01*
X-31420D01*
X-31324Y-34596D01*
X-31350Y-34725D01*
X-31319Y-34881D01*
X-31231Y-35013D01*
X-31098Y-35102D01*
X-30942Y-35133D01*
X-30786Y-35102D01*
X-30654Y-35013D01*
X-30632Y-34980D01*
X-29036D01*
X-29013Y-35013D01*
X-28881Y-35102D01*
X-28725Y-35133D01*
X-28569Y-35102D01*
X-28437Y-35013D01*
X-28414Y-34980D01*
X-25932D01*
X-25910Y-35013D01*
X-25777Y-35102D01*
X-25621Y-35133D01*
X-25465Y-35102D01*
X-25333Y-35013D01*
X-25244Y-34881D01*
X-25213Y-34725D01*
X-25239Y-34596D01*
X-25144Y-34480D01*
X-23539D01*
X-23450Y-34600D01*
X-23468Y-34662D01*
X-23867D01*
X-23965Y-34682D01*
X-24048Y-34737D01*
X-26131Y-36820D01*
X-29564D01*
X-29587Y-36787D01*
X-29719Y-36698D01*
X-29875Y-36667D01*
X-30031Y-36698D01*
X-30163Y-36787D01*
X-30186Y-36820D01*
X-32107D01*
Y-36700D01*
X-32107D01*
Y-36187D01*
X-32532D01*
Y-36062D01*
X-32107D01*
Y-35650D01*
X-32057D01*
Y-34454D01*
X-31919Y-34397D01*
X-31910Y-34405D01*
D02*
G37*
G36*
X-7944Y-36611D02*
X-7843Y-36854D01*
X-7683Y-37063D01*
X-7474Y-37223D01*
X-7447Y-37235D01*
X-7476Y-37382D01*
X-23208D01*
X-23265Y-37244D01*
X-22627Y-36605D01*
X-7945D01*
X-7944Y-36611D01*
D02*
G37*
%LPC*%
G36*
X-44323Y-32476D02*
X-44685D01*
Y-32988D01*
X-44323D01*
Y-32476D01*
D02*
G37*
G36*
X-49371Y-32360D02*
X-50221D01*
Y-32772D01*
X-50271D01*
Y-34022D01*
X-50042D01*
Y-35201D01*
X-50146Y-35222D01*
X-50270Y-35305D01*
X-50353Y-35429D01*
X-50382Y-35575D01*
X-50353Y-35721D01*
X-50345Y-35734D01*
X-50433Y-35792D01*
X-50565Y-35991D01*
X-50612Y-36225D01*
X-50565Y-36459D01*
X-50433Y-36658D01*
X-50345Y-36716D01*
X-50353Y-36729D01*
X-50382Y-36875D01*
X-50353Y-37021D01*
X-50270Y-37145D01*
X-50146Y-37228D01*
X-50055Y-37246D01*
Y-38334D01*
X-50283D01*
Y-39584D01*
X-50233D01*
Y-39996D01*
X-49383D01*
Y-39584D01*
X-49333D01*
Y-39430D01*
X-49217Y-39334D01*
X-49100Y-39358D01*
X-48944Y-39327D01*
X-48812Y-39238D01*
X-48723Y-39106D01*
X-48692Y-38950D01*
X-48723Y-38794D01*
X-48812Y-38662D01*
X-48944Y-38573D01*
X-49100Y-38542D01*
X-49217Y-38566D01*
X-49333Y-38470D01*
Y-38334D01*
X-49545D01*
Y-37246D01*
X-49454Y-37228D01*
X-49330Y-37145D01*
X-49247Y-37021D01*
X-49218Y-36875D01*
X-49221Y-36859D01*
X-49126Y-36743D01*
X-48501D01*
X-48451Y-36733D01*
X-48041D01*
X-48000Y-36742D01*
X-47385D01*
X-47375Y-36752D01*
Y-36975D01*
X-47014D01*
X-46975Y-36983D01*
X-46975Y-36983D01*
X-46950D01*
X-46911Y-36975D01*
X-46225D01*
Y-36700D01*
X-46212D01*
Y-36225D01*
Y-35750D01*
X-46225D01*
Y-35475D01*
X-46911D01*
X-46950Y-35467D01*
X-46975D01*
X-46975Y-35467D01*
X-47014Y-35475D01*
X-47375D01*
Y-35652D01*
X-47513D01*
X-47513D01*
D01*
D01*
Y-35652D01*
X-47873D01*
X-47908Y-35644D01*
X-47910Y-35645D01*
X-47913Y-35644D01*
X-47934D01*
X-47972Y-35652D01*
X-48542D01*
X-48581Y-35644D01*
X-48582Y-35644D01*
X-48584Y-35644D01*
X-48597Y-35644D01*
X-48598Y-35645D01*
X-48599Y-35644D01*
X-48634Y-35652D01*
X-48993D01*
Y-35660D01*
X-49135Y-35710D01*
X-49223Y-35603D01*
X-49218Y-35575D01*
X-49247Y-35429D01*
X-49330Y-35305D01*
X-49454Y-35222D01*
X-49558Y-35201D01*
Y-34022D01*
X-49321D01*
Y-33582D01*
X-49205Y-33487D01*
X-49100Y-33508D01*
X-48944Y-33477D01*
X-48812Y-33388D01*
X-48723Y-33256D01*
X-48692Y-33100D01*
X-48723Y-32944D01*
X-48812Y-32812D01*
X-48944Y-32723D01*
X-49100Y-32692D01*
X-49255Y-32723D01*
X-49257Y-32721D01*
X-49371Y-32551D01*
Y-32360D01*
D02*
G37*
G36*
X-46862Y-34788D02*
X-47100D01*
Y-35200D01*
X-46862D01*
Y-34788D01*
D02*
G37*
G36*
Y-34250D02*
X-47100D01*
Y-34663D01*
X-46862D01*
Y-34250D01*
D02*
G37*
G36*
X-46394Y-34250D02*
Y-34250D01*
X-46450Y-34250D01*
X-46475D01*
X-46500D01*
X-46556Y-34250D01*
X-46556Y-34250D01*
Y-34250D01*
X-46737D01*
Y-34725D01*
Y-35200D01*
X-46556D01*
X-46556Y-35200D01*
Y-35200D01*
X-46500Y-35200D01*
X-46475D01*
X-46450D01*
X-46394Y-35200D01*
X-46394Y-35200D01*
Y-35200D01*
X-46212D01*
Y-34725D01*
Y-34250D01*
X-46394D01*
X-46394Y-34250D01*
D02*
G37*
G36*
X-4492Y-27755D02*
X-4685Y-27780D01*
X-4922Y-27878D01*
X-5125Y-28035D01*
X-5282Y-28238D01*
X-5380Y-28475D01*
X-5405Y-28667D01*
X-4492D01*
Y-27755D01*
D02*
G37*
G36*
X-4367D02*
Y-28667D01*
X-3455D01*
X-3480Y-28475D01*
X-3578Y-28238D01*
X-3735Y-28035D01*
X-3938Y-27878D01*
X-4175Y-27780D01*
X-4367Y-27755D01*
D02*
G37*
G36*
X-4492Y-28792D02*
X-5405D01*
X-5380Y-28985D01*
X-5282Y-29222D01*
X-5125Y-29425D01*
X-4922Y-29582D01*
X-4685Y-29680D01*
X-4492Y-29705D01*
Y-28792D01*
D02*
G37*
G36*
X-3455D02*
X-4367D01*
Y-29705D01*
X-4175Y-29680D01*
X-3938Y-29582D01*
X-3735Y-29425D01*
X-3578Y-29222D01*
X-3480Y-28985D01*
X-3455Y-28792D01*
D02*
G37*
G36*
X-40554Y-28117D02*
X-40917D01*
Y-28629D01*
X-40554D01*
Y-28117D01*
D02*
G37*
G36*
X-26500Y-25092D02*
X-26656Y-25123D01*
X-26788Y-25212D01*
X-26877Y-25344D01*
X-26908Y-25500D01*
X-26877Y-25656D01*
X-26788Y-25788D01*
X-26656Y-25877D01*
X-26500Y-25908D01*
X-26344Y-25877D01*
X-26212Y-25788D01*
X-26123Y-25656D01*
X-26092Y-25500D01*
X-26123Y-25344D01*
X-26212Y-25212D01*
X-26344Y-25123D01*
X-26500Y-25092D01*
D02*
G37*
G36*
X-40616Y-25406D02*
X-41059D01*
Y-25850D01*
X-40616D01*
Y-25406D01*
D02*
G37*
G36*
Y-25975D02*
X-41059D01*
Y-26418D01*
X-40616D01*
Y-25975D01*
D02*
G37*
G36*
X-10227Y-25097D02*
X-10383Y-25128D01*
X-10515Y-25216D01*
X-10603Y-25349D01*
X-10634Y-25505D01*
X-10603Y-25661D01*
X-10515Y-25793D01*
X-10383Y-25882D01*
X-10227Y-25913D01*
X-10070Y-25882D01*
X-9938Y-25793D01*
X-9850Y-25661D01*
X-9819Y-25505D01*
X-9850Y-25349D01*
X-9938Y-25216D01*
X-10070Y-25128D01*
X-10227Y-25097D01*
D02*
G37*
G36*
X-34819Y-29714D02*
X-35331D01*
Y-30077D01*
X-34819D01*
Y-29714D01*
D02*
G37*
G36*
X-22641Y-31159D02*
X-23953D01*
Y-32721D01*
X-22641D01*
Y-31159D01*
D02*
G37*
G36*
X-49859Y-31722D02*
X-50221D01*
Y-32235D01*
X-49859D01*
Y-31722D01*
D02*
G37*
G36*
X-43835Y-32476D02*
X-44198D01*
Y-32988D01*
X-43835D01*
Y-32476D01*
D02*
G37*
G36*
X-24078Y-31159D02*
X-25391D01*
Y-32721D01*
X-24078D01*
Y-31159D01*
D02*
G37*
G36*
X-49371Y-31722D02*
X-49734D01*
Y-32235D01*
X-49371D01*
Y-31722D01*
D02*
G37*
G36*
X-34819Y-30202D02*
X-35331D01*
Y-30564D01*
X-34819D01*
Y-30202D01*
D02*
G37*
G36*
X-39213Y-29714D02*
X-39725D01*
Y-30077D01*
X-39213D01*
Y-29714D01*
D02*
G37*
G36*
X-31628Y-30846D02*
X-32141D01*
Y-31209D01*
X-31628D01*
Y-30846D01*
D02*
G37*
G36*
X-24078Y-29471D02*
X-25391D01*
Y-31034D01*
X-24078D01*
Y-29471D01*
D02*
G37*
G36*
X-56407Y-51382D02*
X-57673D01*
Y-52648D01*
X-57389Y-52611D01*
X-57067Y-52477D01*
X-56790Y-52265D01*
X-56578Y-51988D01*
X-56444Y-51666D01*
X-56407Y-51382D01*
D02*
G37*
G36*
X-52717D02*
X-53983D01*
X-53946Y-51666D01*
X-53812Y-51988D01*
X-53600Y-52265D01*
X-53323Y-52477D01*
X-53001Y-52611D01*
X-52717Y-52648D01*
Y-51382D01*
D02*
G37*
G36*
X-41368Y-52055D02*
Y-52967D01*
X-40455D01*
X-40480Y-52775D01*
X-40578Y-52538D01*
X-40735Y-52335D01*
X-40938Y-52178D01*
X-41175Y-52080D01*
X-41368Y-52055D01*
D02*
G37*
G36*
X-57798Y-51382D02*
X-59063D01*
X-59026Y-51666D01*
X-58892Y-51988D01*
X-58680Y-52265D01*
X-58403Y-52477D01*
X-58081Y-52611D01*
X-57798Y-52648D01*
Y-51382D01*
D02*
G37*
G36*
X-51327D02*
X-52592D01*
Y-52648D01*
X-52309Y-52611D01*
X-51987Y-52477D01*
X-51710Y-52265D01*
X-51498Y-51988D01*
X-51364Y-51666D01*
X-51327Y-51382D01*
D02*
G37*
G36*
X-5995Y-51653D02*
X-6907D01*
Y-52565D01*
X-6715Y-52540D01*
X-6478Y-52442D01*
X-6275Y-52285D01*
X-6118Y-52082D01*
X-6020Y-51845D01*
X-5995Y-51653D01*
D02*
G37*
G36*
X-7032Y-50615D02*
X-7225Y-50640D01*
X-7462Y-50738D01*
X-7665Y-50895D01*
X-7822Y-51098D01*
X-7920Y-51335D01*
X-7945Y-51528D01*
X-7032D01*
Y-50615D01*
D02*
G37*
G36*
X-4430Y-50581D02*
X-4691Y-50616D01*
X-4934Y-50717D01*
X-5143Y-50877D01*
X-5303Y-51086D01*
X-5404Y-51329D01*
X-5439Y-51590D01*
X-5404Y-51851D01*
X-5303Y-52094D01*
X-5143Y-52303D01*
X-4934Y-52464D01*
X-4691Y-52564D01*
X-4430Y-52599D01*
X-4169Y-52564D01*
X-3926Y-52464D01*
X-3717Y-52303D01*
X-3556Y-52094D01*
X-3456Y-51851D01*
X-3421Y-51590D01*
X-3456Y-51329D01*
X-3556Y-51086D01*
X-3717Y-50877D01*
X-3926Y-50717D01*
X-4169Y-50616D01*
X-4430Y-50581D01*
D02*
G37*
G36*
X-7032Y-51653D02*
X-7945D01*
X-7920Y-51845D01*
X-7822Y-52082D01*
X-7665Y-52285D01*
X-7462Y-52442D01*
X-7225Y-52540D01*
X-7032Y-52565D01*
Y-51653D01*
D02*
G37*
G36*
X-41493Y-52055D02*
X-41685Y-52080D01*
X-41922Y-52178D01*
X-42125Y-52335D01*
X-42282Y-52538D01*
X-42380Y-52775D01*
X-42405Y-52967D01*
X-41493D01*
Y-52055D01*
D02*
G37*
G36*
X-17595Y-55632D02*
X-18507D01*
Y-56545D01*
X-18315Y-56520D01*
X-18078Y-56422D01*
X-17875Y-56265D01*
X-17718Y-56062D01*
X-17620Y-55825D01*
X-17595Y-55632D01*
D02*
G37*
G36*
X-18632Y-54595D02*
X-18825Y-54620D01*
X-19062Y-54718D01*
X-19265Y-54875D01*
X-19422Y-55078D01*
X-19520Y-55315D01*
X-19545Y-55507D01*
X-18632D01*
Y-54595D01*
D02*
G37*
G36*
X-21110Y-54561D02*
X-21371Y-54596D01*
X-21614Y-54696D01*
X-21823Y-54857D01*
X-21983Y-55066D01*
X-22084Y-55309D01*
X-22119Y-55570D01*
X-22084Y-55831D01*
X-21983Y-56074D01*
X-21823Y-56283D01*
X-21614Y-56444D01*
X-21371Y-56544D01*
X-21110Y-56579D01*
X-20849Y-56544D01*
X-20606Y-56444D01*
X-20397Y-56283D01*
X-20237Y-56074D01*
X-20136Y-55831D01*
X-20101Y-55570D01*
X-20136Y-55309D01*
X-20237Y-55066D01*
X-20397Y-54857D01*
X-20606Y-54696D01*
X-20849Y-54596D01*
X-21110Y-54561D01*
D02*
G37*
G36*
X-18632Y-55632D02*
X-19545D01*
X-19520Y-55825D01*
X-19422Y-56062D01*
X-19265Y-56265D01*
X-19062Y-56422D01*
X-18825Y-56520D01*
X-18632Y-56545D01*
Y-55632D01*
D02*
G37*
G36*
X-18507Y-54595D02*
Y-55507D01*
X-17595D01*
X-17620Y-55315D01*
X-17718Y-55078D01*
X-17875Y-54875D01*
X-18078Y-54718D01*
X-18315Y-54620D01*
X-18507Y-54595D01*
D02*
G37*
G36*
X-21110Y-52021D02*
X-21371Y-52056D01*
X-21614Y-52157D01*
X-21823Y-52317D01*
X-21983Y-52526D01*
X-22084Y-52769D01*
X-22119Y-53030D01*
X-22084Y-53291D01*
X-21983Y-53534D01*
X-21823Y-53743D01*
X-21614Y-53903D01*
X-21371Y-54004D01*
X-21110Y-54039D01*
X-20849Y-54004D01*
X-20606Y-53903D01*
X-20397Y-53743D01*
X-20237Y-53534D01*
X-20136Y-53291D01*
X-20101Y-53030D01*
X-20136Y-52769D01*
X-20237Y-52526D01*
X-20397Y-52317D01*
X-20606Y-52157D01*
X-20849Y-52056D01*
X-21110Y-52021D01*
D02*
G37*
G36*
X-17570Y-52030D02*
X-19570D01*
Y-54030D01*
X-17570D01*
Y-53310D01*
X-9482D01*
X-9477Y-53318D01*
X-9344Y-53407D01*
X-9188Y-53438D01*
X-9032Y-53407D01*
X-8900Y-53318D01*
X-8811Y-53186D01*
X-8780Y-53030D01*
X-8811Y-52874D01*
X-8900Y-52742D01*
X-9032Y-52653D01*
X-9188Y-52622D01*
X-9344Y-52653D01*
X-9477Y-52742D01*
X-9482Y-52750D01*
X-17570D01*
Y-52030D01*
D02*
G37*
G36*
X-26190Y-52021D02*
X-26451Y-52056D01*
X-26694Y-52157D01*
X-26903Y-52317D01*
X-27063Y-52526D01*
X-27164Y-52769D01*
X-27199Y-53030D01*
X-27164Y-53291D01*
X-27063Y-53534D01*
X-26903Y-53743D01*
X-26694Y-53903D01*
X-26451Y-54004D01*
X-26190Y-54039D01*
X-25929Y-54004D01*
X-25686Y-53903D01*
X-25477Y-53743D01*
X-25317Y-53534D01*
X-25216Y-53291D01*
X-25181Y-53030D01*
X-25216Y-52769D01*
X-25317Y-52526D01*
X-25477Y-52317D01*
X-25686Y-52157D01*
X-25929Y-52056D01*
X-26190Y-52021D01*
D02*
G37*
G36*
X-23650D02*
X-23911Y-52056D01*
X-24154Y-52157D01*
X-24363Y-52317D01*
X-24524Y-52526D01*
X-24624Y-52769D01*
X-24659Y-53030D01*
X-24624Y-53291D01*
X-24524Y-53534D01*
X-24520Y-53539D01*
X-25105Y-54125D01*
X-25160Y-54207D01*
X-25180Y-54305D01*
Y-55009D01*
X-25197Y-55016D01*
X-25322Y-55059D01*
X-25477Y-54857D01*
X-25686Y-54696D01*
X-25929Y-54596D01*
X-26190Y-54561D01*
X-26451Y-54596D01*
X-26694Y-54696D01*
X-26903Y-54857D01*
X-27063Y-55066D01*
X-27164Y-55309D01*
X-27199Y-55570D01*
X-27164Y-55831D01*
X-27063Y-56074D01*
X-26903Y-56283D01*
X-26694Y-56444D01*
X-26451Y-56544D01*
X-26190Y-56579D01*
X-25929Y-56544D01*
X-25686Y-56444D01*
X-25477Y-56283D01*
X-25322Y-56081D01*
X-25197Y-56124D01*
X-25180Y-56131D01*
Y-56544D01*
X-26756Y-58120D01*
X-43389D01*
X-43412Y-58087D01*
X-43544Y-57998D01*
X-43700Y-57967D01*
X-43856Y-57998D01*
X-43988Y-58087D01*
X-44077Y-58219D01*
X-44108Y-58375D01*
X-44077Y-58531D01*
X-43988Y-58663D01*
X-43856Y-58752D01*
X-43700Y-58783D01*
X-43544Y-58752D01*
X-43412Y-58663D01*
X-43389Y-58630D01*
X-26650D01*
X-26552Y-58610D01*
X-26470Y-58555D01*
X-24745Y-56830D01*
X-24690Y-56748D01*
X-24670Y-56650D01*
Y-56135D01*
X-24524Y-56074D01*
X-24363Y-56283D01*
X-24154Y-56444D01*
X-23911Y-56544D01*
X-23650Y-56579D01*
X-23389Y-56544D01*
X-23146Y-56444D01*
X-22937Y-56283D01*
X-22777Y-56074D01*
X-22676Y-55831D01*
X-22641Y-55570D01*
X-22676Y-55309D01*
X-22777Y-55066D01*
X-22937Y-54857D01*
X-23146Y-54696D01*
X-23389Y-54596D01*
X-23650Y-54561D01*
X-23911Y-54596D01*
X-24154Y-54696D01*
X-24363Y-54857D01*
X-24524Y-55066D01*
X-24670Y-55005D01*
Y-54411D01*
X-24159Y-53900D01*
X-24154Y-53903D01*
X-23911Y-54004D01*
X-23650Y-54039D01*
X-23389Y-54004D01*
X-23146Y-53903D01*
X-22937Y-53743D01*
X-22777Y-53534D01*
X-22676Y-53291D01*
X-22641Y-53030D01*
X-22676Y-52769D01*
X-22777Y-52526D01*
X-22937Y-52317D01*
X-23146Y-52157D01*
X-23389Y-52056D01*
X-23650Y-52021D01*
D02*
G37*
G36*
X-6907Y-50615D02*
Y-51528D01*
X-5995D01*
X-6020Y-51335D01*
X-6118Y-51098D01*
X-6275Y-50895D01*
X-6478Y-50738D01*
X-6715Y-50640D01*
X-6907Y-50615D01*
D02*
G37*
G36*
X-52592Y-44912D02*
Y-46178D01*
X-51327D01*
X-51364Y-45894D01*
X-51498Y-45572D01*
X-51710Y-45295D01*
X-51987Y-45083D01*
X-52309Y-44949D01*
X-52592Y-44912D01*
D02*
G37*
G36*
X-24675Y-41591D02*
X-24936Y-41626D01*
X-25179Y-41727D01*
X-25388Y-41887D01*
X-25549Y-42096D01*
X-25649Y-42339D01*
X-25684Y-42600D01*
X-25649Y-42861D01*
X-25549Y-43104D01*
X-25388Y-43313D01*
X-25179Y-43473D01*
X-24936Y-43574D01*
X-24675Y-43609D01*
X-24414Y-43574D01*
X-24171Y-43473D01*
X-23962Y-43313D01*
X-23802Y-43104D01*
X-23701Y-42861D01*
X-23666Y-42600D01*
X-23701Y-42339D01*
X-23802Y-42096D01*
X-23962Y-41887D01*
X-24171Y-41727D01*
X-24414Y-41626D01*
X-24675Y-41591D01*
D02*
G37*
G36*
X-57673Y-44912D02*
Y-46178D01*
X-56407D01*
X-56444Y-45894D01*
X-56578Y-45572D01*
X-56790Y-45295D01*
X-57067Y-45083D01*
X-57389Y-44949D01*
X-57673Y-44912D01*
D02*
G37*
G36*
X-52717D02*
X-53001Y-44949D01*
X-53323Y-45083D01*
X-53600Y-45295D01*
X-53812Y-45572D01*
X-53946Y-45894D01*
X-53983Y-46178D01*
X-52717D01*
Y-44912D01*
D02*
G37*
G36*
X-22135Y-41591D02*
X-22396Y-41626D01*
X-22639Y-41727D01*
X-22848Y-41887D01*
X-23008Y-42096D01*
X-23109Y-42339D01*
X-23144Y-42600D01*
X-23109Y-42861D01*
X-23008Y-43104D01*
X-22848Y-43313D01*
X-22639Y-43473D01*
X-22396Y-43574D01*
X-22135Y-43609D01*
X-21874Y-43574D01*
X-21631Y-43473D01*
X-21422Y-43313D01*
X-21261Y-43104D01*
X-21161Y-42861D01*
X-21126Y-42600D01*
X-21161Y-42339D01*
X-21261Y-42096D01*
X-21422Y-41887D01*
X-21631Y-41727D01*
X-21874Y-41626D01*
X-22135Y-41591D01*
D02*
G37*
G36*
X-49383Y-40121D02*
X-49746D01*
Y-40634D01*
X-49383D01*
Y-40121D01*
D02*
G37*
G36*
X-36007Y-39989D02*
X-36519D01*
Y-40351D01*
X-36007D01*
Y-39989D01*
D02*
G37*
G36*
Y-40476D02*
X-36519D01*
Y-40839D01*
X-36007D01*
Y-40476D01*
D02*
G37*
G36*
X-49871Y-40121D02*
X-50233D01*
Y-40634D01*
X-49871D01*
Y-40121D01*
D02*
G37*
G36*
X-57798Y-44912D02*
X-58081Y-44949D01*
X-58403Y-45083D01*
X-58680Y-45295D01*
X-58892Y-45572D01*
X-59026Y-45894D01*
X-59063Y-46178D01*
X-57798D01*
Y-44912D01*
D02*
G37*
G36*
X-52717Y-49992D02*
X-53001Y-50029D01*
X-53323Y-50163D01*
X-53600Y-50375D01*
X-53812Y-50652D01*
X-53946Y-50974D01*
X-53983Y-51257D01*
X-52717D01*
Y-49992D01*
D02*
G37*
G36*
X-52592D02*
Y-51257D01*
X-51327D01*
X-51364Y-50974D01*
X-51498Y-50652D01*
X-51710Y-50375D01*
X-51987Y-50163D01*
X-52309Y-50029D01*
X-52592Y-49992D01*
D02*
G37*
G36*
X-57798D02*
X-58081Y-50029D01*
X-58403Y-50163D01*
X-58680Y-50375D01*
X-58892Y-50652D01*
X-59026Y-50974D01*
X-59063Y-51257D01*
X-57798D01*
Y-49992D01*
D02*
G37*
G36*
X-57673D02*
Y-51257D01*
X-56407D01*
X-56444Y-50974D01*
X-56578Y-50652D01*
X-56790Y-50375D01*
X-57067Y-50163D01*
X-57389Y-50029D01*
X-57673Y-49992D01*
D02*
G37*
G36*
X-51500Y-36263D02*
X-51900D01*
X-52022Y-36287D01*
X-52219D01*
X-52206Y-36352D01*
X-52203Y-36356D01*
X-52333Y-36442D01*
X-52465Y-36641D01*
X-52512Y-36875D01*
X-52465Y-37109D01*
X-52333Y-37308D01*
X-52229Y-37377D01*
X-52212Y-37393D01*
Y-37744D01*
X-52823Y-38354D01*
X-52850Y-38395D01*
X-53152Y-38697D01*
X-53195Y-38726D01*
X-53195Y-38726D01*
X-55557Y-41088D01*
X-55668Y-41254D01*
X-55707Y-41450D01*
X-55707Y-41450D01*
Y-47263D01*
X-55810Y-47295D01*
X-56088Y-47443D01*
X-56332Y-47643D01*
X-56532Y-47887D01*
X-56680Y-48165D01*
X-56772Y-48466D01*
X-56803Y-48780D01*
X-56772Y-49094D01*
X-56680Y-49395D01*
X-56532Y-49673D01*
X-56332Y-49917D01*
X-56088Y-50117D01*
X-55810Y-50265D01*
X-55509Y-50357D01*
X-55195Y-50388D01*
X-54881Y-50357D01*
X-54580Y-50265D01*
X-54302Y-50117D01*
X-54058Y-49917D01*
X-53858Y-49673D01*
X-53710Y-49395D01*
X-53618Y-49094D01*
X-53587Y-48780D01*
X-53618Y-48466D01*
X-53710Y-48165D01*
X-53858Y-47887D01*
X-54058Y-47643D01*
X-54302Y-47443D01*
X-54580Y-47295D01*
X-54683Y-47263D01*
Y-41663D01*
X-52853Y-39833D01*
X-52759D01*
X-52759D01*
X-52505Y-39579D01*
X-52475Y-39560D01*
X-52474Y-39558D01*
X-52471Y-39557D01*
X-52449Y-39524D01*
X-52423Y-39497D01*
X-52022Y-39096D01*
X-52003Y-39083D01*
X-51991Y-39076D01*
X-51991Y-39075D01*
X-51988Y-39073D01*
X-51976Y-39055D01*
X-51959Y-39041D01*
X-51951Y-39026D01*
X-51712Y-38787D01*
X-51759Y-38739D01*
X-51338Y-38318D01*
X-51338Y-38318D01*
X-51227Y-38152D01*
X-51188Y-37956D01*
X-51188Y-37956D01*
Y-37391D01*
X-51177Y-37381D01*
X-51067Y-37308D01*
X-50935Y-37109D01*
X-50888Y-36875D01*
X-50935Y-36641D01*
X-51067Y-36442D01*
X-51197Y-36356D01*
X-51194Y-36352D01*
X-51181Y-36287D01*
X-51378D01*
X-51500Y-36263D01*
D02*
G37*
G36*
X-52717Y-46303D02*
X-53983D01*
X-53946Y-46586D01*
X-53812Y-46908D01*
X-53600Y-47185D01*
X-53323Y-47397D01*
X-53001Y-47531D01*
X-52717Y-47568D01*
Y-46303D01*
D02*
G37*
G36*
X-51327D02*
X-52592D01*
Y-47568D01*
X-52309Y-47531D01*
X-51987Y-47397D01*
X-51710Y-47185D01*
X-51498Y-46908D01*
X-51364Y-46586D01*
X-51327Y-46303D01*
D02*
G37*
G36*
X-57798D02*
X-59063D01*
X-59026Y-46586D01*
X-58892Y-46908D01*
X-58680Y-47185D01*
X-58403Y-47397D01*
X-58081Y-47531D01*
X-57798Y-47568D01*
Y-46303D01*
D02*
G37*
G36*
X-56407D02*
X-57673D01*
Y-47568D01*
X-57389Y-47531D01*
X-57067Y-47397D01*
X-56790Y-47185D01*
X-56578Y-46908D01*
X-56444Y-46586D01*
X-56407Y-46303D01*
D02*
G37*
G36*
X-47334Y-2362D02*
X-48284D01*
Y-3375D01*
X-47334D01*
Y-2362D01*
D02*
G37*
G36*
X-46259D02*
X-47209D01*
Y-3375D01*
X-46259D01*
Y-2362D01*
D02*
G37*
G36*
X-48584D02*
X-49534D01*
Y-3375D01*
X-48584D01*
Y-2362D01*
D02*
G37*
G36*
X-50909D02*
X-52121D01*
Y-3375D01*
X-50909D01*
Y-2362D01*
D02*
G37*
G36*
X-49659D02*
X-50609D01*
Y-3375D01*
X-49659D01*
Y-2362D01*
D02*
G37*
G36*
X-44746D02*
X-45959D01*
Y-3375D01*
X-44746D01*
Y-2362D01*
D02*
G37*
G36*
X-16825D02*
X-17775D01*
Y-3375D01*
X-16825D01*
Y-2362D01*
D02*
G37*
G36*
X-15750D02*
X-16700D01*
Y-3375D01*
X-15750D01*
Y-2362D01*
D02*
G37*
G36*
X-18075D02*
X-19288D01*
Y-3375D01*
X-18075D01*
Y-2362D01*
D02*
G37*
G36*
X-43409D02*
X-44621D01*
Y-3375D01*
X-43409D01*
Y-2362D01*
D02*
G37*
G36*
X-19413D02*
X-20625D01*
Y-3375D01*
X-19413D01*
Y-2362D01*
D02*
G37*
G36*
X-33200Y-4767D02*
X-33366Y-4800D01*
X-33506Y-4894D01*
X-33600Y-5034D01*
X-33633Y-5200D01*
X-33600Y-5366D01*
X-33506Y-5506D01*
X-33366Y-5600D01*
X-33200Y-5633D01*
X-33034Y-5600D01*
X-32894Y-5506D01*
X-32800Y-5366D01*
X-32767Y-5200D01*
X-32800Y-5034D01*
X-32894Y-4894D01*
X-33034Y-4800D01*
X-33200Y-4767D01*
D02*
G37*
G36*
X-5725Y-2775D02*
X-7275D01*
Y-4325D01*
X-6017D01*
X-5141Y-5201D01*
X-5141Y-5201D01*
X-5089Y-5236D01*
X-5063Y-5254D01*
X-4970Y-5272D01*
X-4970Y-5272D01*
X-4419D01*
X-4388Y-5318D01*
X-4256Y-5407D01*
X-4100Y-5438D01*
X-3944Y-5407D01*
X-3812Y-5318D01*
X-3723Y-5186D01*
X-3692Y-5030D01*
X-3723Y-4874D01*
X-3812Y-4742D01*
X-3944Y-4653D01*
X-4100Y-4622D01*
X-4256Y-4653D01*
X-4388Y-4742D01*
X-4419Y-4788D01*
X-4870D01*
X-5725Y-3933D01*
Y-2775D01*
D02*
G37*
G36*
X-19062Y-5975D02*
X-19400D01*
Y-6338D01*
X-19062D01*
Y-5975D01*
D02*
G37*
G36*
X-50825Y-6053D02*
X-51138D01*
Y-6440D01*
X-50825D01*
Y-6053D01*
D02*
G37*
G36*
X-52162Y-6053D02*
X-52500D01*
Y-6416D01*
X-52162D01*
Y-6053D01*
D02*
G37*
G36*
X-7975Y-2775D02*
X-9525D01*
Y-4325D01*
X-8992D01*
Y-4681D01*
X-9038Y-4712D01*
X-9127Y-4844D01*
X-9158Y-5000D01*
X-9127Y-5156D01*
X-9038Y-5288D01*
X-8906Y-5377D01*
X-8750Y-5408D01*
X-8594Y-5377D01*
X-8462Y-5288D01*
X-8373Y-5156D01*
X-8342Y-5000D01*
X-8373Y-4844D01*
X-8462Y-4712D01*
X-8508Y-4681D01*
Y-4325D01*
X-7975D01*
Y-2775D01*
D02*
G37*
G36*
X-27375Y-2213D02*
X-27938D01*
Y-3400D01*
X-27375D01*
Y-2213D01*
D02*
G37*
G36*
X-52246Y-2362D02*
X-53459D01*
Y-3375D01*
X-52246D01*
Y-2362D01*
D02*
G37*
G36*
X-28062Y-2213D02*
X-28625D01*
Y-3400D01*
X-28062D01*
Y-2213D01*
D02*
G37*
G36*
X-35062D02*
X-35625D01*
Y-3400D01*
X-35062D01*
Y-2213D01*
D02*
G37*
G36*
X-34375D02*
X-34938D01*
Y-3400D01*
X-34375D01*
Y-2213D01*
D02*
G37*
G36*
X-14500Y-2362D02*
X-15450D01*
Y-3375D01*
X-14500D01*
Y-2362D01*
D02*
G37*
G36*
X-15750Y-1225D02*
X-16700D01*
Y-2237D01*
X-15750D01*
Y-1225D01*
D02*
G37*
G36*
X-14500D02*
X-15450D01*
Y-2237D01*
X-14500D01*
Y-1225D01*
D02*
G37*
G36*
X-16825D02*
X-17775D01*
Y-2237D01*
X-16825D01*
Y-1225D01*
D02*
G37*
G36*
X-19413D02*
X-20625D01*
Y-2237D01*
X-19413D01*
Y-1225D01*
D02*
G37*
G36*
X-18075D02*
X-19288D01*
Y-2237D01*
X-18075D01*
Y-1225D01*
D02*
G37*
G36*
X-13425D02*
X-14375D01*
Y-2237D01*
X-13425D01*
Y-1225D01*
D02*
G37*
G36*
X-34375Y-900D02*
X-34938D01*
Y-2088D01*
X-34375D01*
Y-900D01*
D02*
G37*
G36*
X-5725Y-675D02*
X-7275D01*
Y-1095D01*
X-7407Y-1166D01*
X-7444Y-1141D01*
X-7600Y-1110D01*
X-7756Y-1141D01*
X-7843Y-1199D01*
X-7975Y-1128D01*
Y-675D01*
X-9525D01*
Y-2225D01*
X-7975D01*
Y-1908D01*
X-7843Y-1837D01*
X-7756Y-1895D01*
X-7600Y-1926D01*
X-7444Y-1895D01*
X-7407Y-1870D01*
X-7275Y-1941D01*
Y-2225D01*
X-5725D01*
Y-675D01*
D02*
G37*
G36*
X-35062Y-900D02*
X-35625D01*
Y-2088D01*
X-35062D01*
Y-900D01*
D02*
G37*
G36*
X-11913Y-1225D02*
X-13125D01*
Y-2237D01*
X-11913D01*
Y-1225D01*
D02*
G37*
G36*
X-10575D02*
X-11788D01*
Y-2237D01*
X-10575D01*
Y-1225D01*
D02*
G37*
G36*
X-52246D02*
X-53459D01*
Y-2237D01*
X-52246D01*
Y-1225D01*
D02*
G37*
G36*
X-50909D02*
X-52121D01*
Y-2237D01*
X-50909D01*
Y-1225D01*
D02*
G37*
G36*
X-10575Y-2362D02*
X-11788D01*
Y-3375D01*
X-10575D01*
Y-2362D01*
D02*
G37*
G36*
X-13425D02*
X-14375D01*
Y-3375D01*
X-13425D01*
Y-2362D01*
D02*
G37*
G36*
X-11913D02*
X-13125D01*
Y-3375D01*
X-11913D01*
Y-2362D01*
D02*
G37*
G36*
X-49659Y-1225D02*
X-50609D01*
Y-2237D01*
X-49659D01*
Y-1225D01*
D02*
G37*
G36*
X-44746D02*
X-45959D01*
Y-2237D01*
X-44746D01*
Y-1225D01*
D02*
G37*
G36*
X-43409D02*
X-44621D01*
Y-2237D01*
X-43409D01*
Y-1225D01*
D02*
G37*
G36*
X-46259D02*
X-47209D01*
Y-2237D01*
X-46259D01*
Y-1225D01*
D02*
G37*
G36*
X-48584D02*
X-49534D01*
Y-2237D01*
X-48584D01*
Y-1225D01*
D02*
G37*
G36*
X-47334D02*
X-48284D01*
Y-2237D01*
X-47334D01*
Y-1225D01*
D02*
G37*
G36*
X-12325Y-9712D02*
X-12637D01*
Y-10100D01*
X-12325D01*
Y-9712D01*
D02*
G37*
G36*
X-11462D02*
X-11775D01*
Y-10100D01*
X-11462D01*
Y-9712D01*
D02*
G37*
G36*
X-4550Y-9392D02*
X-4706Y-9423D01*
X-4838Y-9512D01*
X-4927Y-9644D01*
X-4958Y-9800D01*
X-4927Y-9956D01*
X-4838Y-10088D01*
X-4706Y-10177D01*
X-4550Y-10208D01*
X-4394Y-10177D01*
X-4262Y-10088D01*
X-4173Y-9956D01*
X-4142Y-9800D01*
X-4173Y-9644D01*
X-4262Y-9512D01*
X-4394Y-9423D01*
X-4550Y-9392D01*
D02*
G37*
G36*
X-45573Y-11163D02*
X-45960D01*
Y-11625D01*
X-45573D01*
Y-11163D01*
D02*
G37*
G36*
X-45060D02*
X-45448D01*
Y-11625D01*
X-45060D01*
Y-11163D01*
D02*
G37*
G36*
X-11025Y-9712D02*
X-11337D01*
Y-10100D01*
X-11025D01*
Y-9712D01*
D02*
G37*
G36*
X-34375Y-7713D02*
X-34938D01*
Y-8900D01*
X-34375D01*
Y-7713D01*
D02*
G37*
G36*
X-28062D02*
X-28625D01*
Y-8900D01*
X-28062D01*
Y-7713D01*
D02*
G37*
G36*
X-35062D02*
X-35625D01*
Y-8900D01*
X-35062D01*
Y-7713D01*
D02*
G37*
G36*
X-7064Y-8192D02*
X-7220Y-8223D01*
X-7352Y-8312D01*
X-7441Y-8444D01*
X-7472Y-8600D01*
X-7461Y-8655D01*
X-9246Y-10440D01*
X-9299Y-10518D01*
X-9317Y-10611D01*
Y-11182D01*
X-9461Y-11225D01*
X-9537Y-11112D01*
X-9570Y-11089D01*
Y-9886D01*
X-9537Y-9863D01*
X-9448Y-9731D01*
X-9417Y-9575D01*
X-9448Y-9419D01*
X-9537Y-9287D01*
X-9669Y-9198D01*
X-9825Y-9167D01*
X-9981Y-9198D01*
X-10113Y-9287D01*
X-10202Y-9419D01*
X-10233Y-9575D01*
X-10202Y-9731D01*
X-10113Y-9863D01*
X-10080Y-9886D01*
Y-11089D01*
X-10113Y-11112D01*
X-10202Y-11244D01*
X-10233Y-11400D01*
X-10202Y-11556D01*
X-10113Y-11688D01*
X-9981Y-11777D01*
X-9825Y-11808D01*
X-9669Y-11777D01*
X-9537Y-11688D01*
X-9461Y-11575D01*
X-9317Y-11618D01*
Y-16331D01*
X-9363Y-16362D01*
X-9452Y-16494D01*
X-9483Y-16650D01*
X-9452Y-16806D01*
X-9363Y-16938D01*
X-9231Y-17027D01*
X-9075Y-17058D01*
X-8919Y-17027D01*
X-8787Y-16938D01*
X-8698Y-16806D01*
X-8667Y-16650D01*
X-8698Y-16494D01*
X-8787Y-16362D01*
X-8833Y-16331D01*
Y-10711D01*
X-7118Y-8997D01*
X-7064Y-9008D01*
X-6908Y-8977D01*
X-6775Y-8888D01*
X-6687Y-8756D01*
X-6656Y-8600D01*
X-6687Y-8444D01*
X-6775Y-8312D01*
X-6908Y-8223D01*
X-7064Y-8192D01*
D02*
G37*
G36*
X-32400Y-8067D02*
X-32566Y-8100D01*
X-32706Y-8194D01*
X-32800Y-8334D01*
X-32833Y-8500D01*
X-32800Y-8666D01*
X-32706Y-8806D01*
X-32566Y-8900D01*
X-32400Y-8933D01*
X-32234Y-8900D01*
X-32094Y-8806D01*
X-32000Y-8666D01*
X-31967Y-8500D01*
X-32000Y-8334D01*
X-32094Y-8194D01*
X-32234Y-8100D01*
X-32400Y-8067D01*
D02*
G37*
G36*
X-40270Y-9950D02*
X-42270D01*
Y-11950D01*
X-40270D01*
Y-9950D01*
D02*
G37*
G36*
X-6970Y-15021D02*
X-7231Y-15056D01*
X-7474Y-15156D01*
X-7683Y-15317D01*
X-7843Y-15526D01*
X-7944Y-15769D01*
X-7979Y-16030D01*
X-7944Y-16291D01*
X-7843Y-16534D01*
X-7683Y-16743D01*
X-7474Y-16903D01*
X-7231Y-17004D01*
X-6970Y-17039D01*
X-6709Y-17004D01*
X-6466Y-16903D01*
X-6257Y-16743D01*
X-6096Y-16534D01*
X-5996Y-16291D01*
X-5961Y-16030D01*
X-5996Y-15769D01*
X-6096Y-15526D01*
X-6257Y-15317D01*
X-6466Y-15156D01*
X-6709Y-15056D01*
X-6970Y-15021D01*
D02*
G37*
G36*
X-4430D02*
X-4691Y-15056D01*
X-4934Y-15156D01*
X-5143Y-15317D01*
X-5303Y-15526D01*
X-5404Y-15769D01*
X-5439Y-16030D01*
X-5404Y-16291D01*
X-5303Y-16534D01*
X-5143Y-16743D01*
X-4934Y-16903D01*
X-4691Y-17004D01*
X-4430Y-17039D01*
X-4169Y-17004D01*
X-3926Y-16903D01*
X-3717Y-16743D01*
X-3556Y-16534D01*
X-3456Y-16291D01*
X-3421Y-16030D01*
X-3456Y-15769D01*
X-3556Y-15526D01*
X-3717Y-15317D01*
X-3926Y-15156D01*
X-4169Y-15056D01*
X-4430Y-15021D01*
D02*
G37*
G36*
X-28582Y-12822D02*
X-28738Y-12854D01*
X-28870Y-12942D01*
X-28959Y-13074D01*
X-28990Y-13230D01*
X-28959Y-13386D01*
X-28870Y-13519D01*
X-28824Y-13550D01*
Y-21239D01*
X-28973Y-21269D01*
X-29062Y-21137D01*
X-29194Y-21048D01*
X-29350Y-21017D01*
X-29506Y-21048D01*
X-29638Y-21137D01*
X-29727Y-21269D01*
X-29758Y-21425D01*
X-29727Y-21581D01*
X-29638Y-21713D01*
X-29506Y-21802D01*
X-29467Y-21810D01*
X-29397Y-21942D01*
X-29419Y-21994D01*
X-29419Y-21994D01*
X-29419Y-21994D01*
X-29450Y-22150D01*
X-29419Y-22306D01*
X-29331Y-22438D01*
X-29199Y-22527D01*
X-29042Y-22558D01*
X-28886Y-22527D01*
X-28754Y-22438D01*
X-28666Y-22306D01*
X-28635Y-22150D01*
X-28645Y-22095D01*
X-28411Y-21861D01*
X-28358Y-21782D01*
X-28340Y-21689D01*
Y-13550D01*
X-28294Y-13519D01*
X-28205Y-13386D01*
X-28174Y-13230D01*
X-28205Y-13074D01*
X-28294Y-12942D01*
X-28426Y-12854D01*
X-28582Y-12822D01*
D02*
G37*
G36*
X-31602Y-20817D02*
X-31758Y-20848D01*
X-31891Y-20937D01*
X-31979Y-21069D01*
X-32010Y-21225D01*
X-31979Y-21381D01*
X-31891Y-21513D01*
X-31758Y-21602D01*
X-31602Y-21633D01*
X-31446Y-21602D01*
X-31314Y-21513D01*
X-31226Y-21381D01*
X-31195Y-21225D01*
X-31226Y-21069D01*
X-31314Y-20937D01*
X-31446Y-20848D01*
X-31602Y-20817D01*
D02*
G37*
G36*
X-32775Y-20496D02*
X-32931Y-20527D01*
X-33063Y-20615D01*
X-33152Y-20747D01*
X-33183Y-20903D01*
X-33152Y-21060D01*
X-33063Y-21192D01*
X-32931Y-21280D01*
X-32775Y-21311D01*
X-32619Y-21280D01*
X-32487Y-21192D01*
X-32398Y-21060D01*
X-32367Y-20903D01*
X-32398Y-20747D01*
X-32487Y-20615D01*
X-32619Y-20527D01*
X-32775Y-20496D01*
D02*
G37*
G36*
X-5970Y-12490D02*
X-7970D01*
Y-14490D01*
X-5970D01*
Y-12490D01*
D02*
G37*
G36*
X-4492Y-12515D02*
X-4685Y-12540D01*
X-4922Y-12638D01*
X-5125Y-12795D01*
X-5282Y-12998D01*
X-5380Y-13235D01*
X-5405Y-13427D01*
X-4492D01*
Y-12515D01*
D02*
G37*
G36*
X-4367D02*
Y-13427D01*
X-3455D01*
X-3480Y-13235D01*
X-3578Y-12998D01*
X-3735Y-12795D01*
X-3938Y-12638D01*
X-4175Y-12540D01*
X-4367Y-12515D01*
D02*
G37*
G36*
X-36124Y-13568D02*
X-36280Y-13599D01*
X-36412Y-13688D01*
X-36501Y-13820D01*
X-36532Y-13976D01*
X-36501Y-14132D01*
X-36412Y-14265D01*
X-36280Y-14353D01*
X-36124Y-14384D01*
X-35968Y-14353D01*
X-35835Y-14265D01*
X-35747Y-14132D01*
X-35716Y-13976D01*
X-35747Y-13820D01*
X-35835Y-13688D01*
X-35968Y-13599D01*
X-36124Y-13568D01*
D02*
G37*
G36*
X-4492Y-13552D02*
X-5405D01*
X-5380Y-13745D01*
X-5282Y-13982D01*
X-5125Y-14185D01*
X-4922Y-14342D01*
X-4685Y-14440D01*
X-4492Y-14465D01*
Y-13552D01*
D02*
G37*
G36*
X-3455D02*
X-4367D01*
Y-14465D01*
X-4175Y-14440D01*
X-3938Y-14342D01*
X-3735Y-14185D01*
X-3578Y-13982D01*
X-3480Y-13745D01*
X-3455Y-13552D01*
D02*
G37*
G36*
X-35062Y-6400D02*
X-35625D01*
Y-7588D01*
X-35062D01*
Y-6400D01*
D02*
G37*
G36*
X-34375D02*
X-34938D01*
Y-7588D01*
X-34375D01*
Y-6400D01*
D02*
G37*
G36*
X-19062Y-7463D02*
X-19400D01*
Y-7825D01*
X-19062D01*
Y-7463D01*
D02*
G37*
G36*
X-49222Y-7053D02*
X-49834D01*
Y-7615D01*
X-49222D01*
Y-7053D01*
D02*
G37*
G36*
X-16462Y-6975D02*
X-17075D01*
Y-7537D01*
X-16462D01*
Y-6975D01*
D02*
G37*
G36*
X-32400Y-5467D02*
X-32566Y-5500D01*
X-32706Y-5594D01*
X-32800Y-5734D01*
X-32833Y-5900D01*
X-32800Y-6066D01*
X-32706Y-6206D01*
X-32566Y-6300D01*
X-32442Y-6325D01*
Y-6475D01*
X-32566Y-6500D01*
X-32706Y-6594D01*
X-32800Y-6734D01*
X-32833Y-6900D01*
X-32800Y-7066D01*
X-32706Y-7206D01*
X-32566Y-7300D01*
X-32400Y-7333D01*
X-32234Y-7300D01*
X-32094Y-7206D01*
X-32000Y-7066D01*
X-31967Y-6900D01*
X-32000Y-6734D01*
X-32094Y-6594D01*
X-32234Y-6500D01*
X-32358Y-6475D01*
Y-6325D01*
X-32234Y-6300D01*
X-32094Y-6206D01*
X-32000Y-6066D01*
X-31967Y-5900D01*
X-32000Y-5734D01*
X-32094Y-5594D01*
X-32234Y-5500D01*
X-32400Y-5467D01*
D02*
G37*
G36*
X-28062Y-6400D02*
X-28625D01*
Y-7588D01*
X-28062D01*
Y-6400D01*
D02*
G37*
G36*
X-27375D02*
X-27938D01*
Y-7588D01*
X-27375D01*
Y-6400D01*
D02*
G37*
G36*
X-17725Y-7438D02*
X-18038D01*
Y-7825D01*
X-17725D01*
Y-7438D01*
D02*
G37*
G36*
X-20000Y-7367D02*
X-20166Y-7400D01*
X-20306Y-7494D01*
X-20400Y-7634D01*
X-20433Y-7800D01*
X-20400Y-7966D01*
X-20306Y-8106D01*
X-20166Y-8200D01*
X-20000Y-8233D01*
X-19834Y-8200D01*
X-19694Y-8106D01*
X-19600Y-7966D01*
X-19567Y-7800D01*
X-19600Y-7634D01*
X-19694Y-7494D01*
X-19834Y-7400D01*
X-20000Y-7367D01*
D02*
G37*
G36*
X-16462Y-7662D02*
X-17075D01*
Y-8225D01*
X-16462D01*
Y-7662D01*
D02*
G37*
G36*
X-49222Y-7740D02*
X-49834D01*
Y-8303D01*
X-49222D01*
Y-7740D01*
D02*
G37*
G36*
X-27375Y-7713D02*
X-27938D01*
Y-8900D01*
X-27375D01*
Y-7713D01*
D02*
G37*
G36*
X-52162Y-7541D02*
X-52500D01*
Y-7903D01*
X-52162D01*
Y-7541D01*
D02*
G37*
G36*
X-50825Y-7516D02*
X-51138D01*
Y-7903D01*
X-50825D01*
Y-7516D01*
D02*
G37*
G36*
X-33300Y-7267D02*
X-33466Y-7300D01*
X-33606Y-7394D01*
X-33700Y-7534D01*
X-33733Y-7700D01*
X-33700Y-7866D01*
X-33606Y-8006D01*
X-33466Y-8100D01*
X-33300Y-8133D01*
X-33134Y-8100D01*
X-32994Y-8006D01*
X-32900Y-7866D01*
X-32867Y-7700D01*
X-32900Y-7534D01*
X-32994Y-7394D01*
X-33134Y-7300D01*
X-33300Y-7267D01*
D02*
G37*
G36*
X-11400Y-6367D02*
X-11566Y-6400D01*
X-11706Y-6494D01*
X-11800Y-6634D01*
X-11833Y-6800D01*
X-11800Y-6966D01*
X-11789Y-6983D01*
X-11825Y-7050D01*
X-11825D01*
X-11825Y-7050D01*
Y-8100D01*
D01*
D01*
X-11825Y-8100D01*
X-11825Y-8200D01*
X-11825D01*
Y-9200D01*
X-11775D01*
Y-9587D01*
X-11025D01*
Y-9200D01*
X-10975D01*
Y-8200D01*
D01*
Y-8200D01*
X-10875Y-8100D01*
X-10775D01*
Y-7050D01*
X-10898D01*
X-10993Y-6934D01*
X-10967Y-6800D01*
X-11000Y-6634D01*
X-11094Y-6494D01*
X-11234Y-6400D01*
X-11400Y-6367D01*
D02*
G37*
%LPD*%
G36*
X-52278Y-38786D02*
X-52279Y-38787D01*
X-52335Y-38730D01*
X-52278Y-38670D01*
X-52278Y-38786D01*
D02*
G37*
G36*
X-52759Y-39267D02*
X-52866Y-39265D01*
X-52865Y-39264D01*
X-52813Y-39212D01*
X-52759Y-39267D01*
D02*
G37*
G36*
X-51414Y-37041D02*
X-51597Y-37224D01*
X-51805D01*
X-51965Y-37064D01*
X-51998Y-37037D01*
X-51996Y-37035D01*
X-51414D01*
Y-37041D01*
D02*
G37*
G36*
X-47838Y-36129D02*
X-47850Y-36127D01*
X-47936D01*
X-47934Y-36125D01*
Y-36052D01*
X-47913D01*
X-47838Y-36129D01*
D02*
G37*
G36*
X-48581Y-36140D02*
X-48583Y-36138D01*
X-48656D01*
X-48669Y-36129D01*
X-48593Y-36052D01*
X-48581Y-36052D01*
Y-36140D01*
D02*
G37*
G36*
X-46950Y-36575D02*
X-46975D01*
X-47225Y-36325D01*
Y-36125D01*
X-46975Y-35875D01*
X-46950D01*
Y-36575D01*
D02*
G37*
D10*
X-57900Y-22500D02*
D03*
X-59200D02*
D03*
X-57900Y-19500D02*
D03*
X-59200D02*
D03*
D11*
X-47134Y-5150D02*
D03*
X-47784D02*
D03*
X-48434D02*
D03*
X-49084D02*
D03*
X-49734D02*
D03*
X-14300D02*
D03*
X-14950D02*
D03*
X-15600D02*
D03*
X-16250D02*
D03*
X-16900D02*
D03*
D12*
X-44684Y-2300D02*
D03*
X-52184D02*
D03*
X-11850D02*
D03*
X-19350D02*
D03*
D13*
X-47271D02*
D03*
X-49597D02*
D03*
X-14438D02*
D03*
X-16763D02*
D03*
D14*
X-32703Y-30258D02*
D03*
X-31753D02*
D03*
X-23125Y-10675D02*
D03*
X-24075D02*
D03*
D15*
X-35000Y-7650D02*
D03*
Y-2150D02*
D03*
X-31000D02*
D03*
Y-7650D02*
D03*
X-28000D02*
D03*
Y-2150D02*
D03*
X-24000D02*
D03*
Y-7650D02*
D03*
D16*
X-36872Y-28648D02*
D03*
X-39072D02*
D03*
Y-27048D02*
D03*
X-36872D02*
D03*
D17*
X-30266Y-29796D02*
D03*
Y-32396D02*
D03*
D18*
X-24016Y-31096D02*
D03*
D19*
X-51700Y-35575D02*
D03*
Y-36225D02*
D03*
Y-36875D02*
D03*
X-49800D02*
D03*
Y-35575D02*
D03*
Y-36225D02*
D03*
D20*
X-36550Y-31925D02*
D03*
X-37050D02*
D03*
X-37550D02*
D03*
X-38050D02*
D03*
X-38550D02*
D03*
X-39050D02*
D03*
X-39550D02*
D03*
X-40050D02*
D03*
X-40550D02*
D03*
X-41050D02*
D03*
X-41550D02*
D03*
X-42050D02*
D03*
Y-39025D02*
D03*
X-41550D02*
D03*
X-41050D02*
D03*
X-40550D02*
D03*
X-40050D02*
D03*
X-39550D02*
D03*
X-39050D02*
D03*
X-38550D02*
D03*
X-38050D02*
D03*
X-37550D02*
D03*
X-37050D02*
D03*
X-36550D02*
D03*
D21*
X-42850Y-32725D02*
D03*
Y-33225D02*
D03*
Y-33725D02*
D03*
Y-34225D02*
D03*
Y-34725D02*
D03*
Y-35225D02*
D03*
Y-35725D02*
D03*
Y-36225D02*
D03*
Y-36725D02*
D03*
Y-37225D02*
D03*
Y-37725D02*
D03*
Y-38225D02*
D03*
X-35750D02*
D03*
Y-37725D02*
D03*
Y-37225D02*
D03*
Y-36725D02*
D03*
Y-36225D02*
D03*
Y-35725D02*
D03*
Y-35225D02*
D03*
Y-34725D02*
D03*
Y-34225D02*
D03*
Y-33725D02*
D03*
Y-33225D02*
D03*
Y-32725D02*
D03*
D22*
X-39300Y-35475D02*
D03*
D23*
X-35500Y-11700D02*
D03*
X-33400D02*
D03*
D24*
X-47059Y-7478D02*
D03*
Y-9378D02*
D03*
X-49159D02*
D03*
X-14300Y-7400D02*
D03*
Y-9300D02*
D03*
X-16400D02*
D03*
D25*
X-49159Y-7678D02*
D03*
X-16400Y-7600D02*
D03*
D26*
X-46800Y-36225D02*
D03*
X-46150D02*
D03*
X-45500D02*
D03*
X-46800Y-34725D02*
D03*
X-46150D02*
D03*
X-45500D02*
D03*
D27*
X-42250Y-25885D02*
D03*
Y-27285D02*
D03*
D28*
X-58058Y-24641D02*
D03*
Y-25115D02*
D03*
D29*
X-52100Y-7478D02*
D03*
Y-6478D02*
D03*
X-19000Y-6400D02*
D03*
Y-7400D02*
D03*
D30*
X-45510Y-9900D02*
D03*
Y-11100D02*
D03*
X-31225Y-13592D02*
D03*
Y-14792D02*
D03*
X-29887Y-13600D02*
D03*
Y-14800D02*
D03*
X-45510Y-7295D02*
D03*
Y-8495D02*
D03*
D31*
X-51200Y-6503D02*
D03*
Y-7453D02*
D03*
X-35586Y-28896D02*
D03*
Y-27946D02*
D03*
X-18100Y-7375D02*
D03*
Y-6425D02*
D03*
X-12700Y-8700D02*
D03*
Y-9650D02*
D03*
X-11400Y-8700D02*
D03*
Y-9650D02*
D03*
D32*
X-41122Y-27309D02*
D03*
Y-25912D02*
D03*
D33*
X-57622Y-23819D02*
D03*
X-58096D02*
D03*
X-48016Y-36193D02*
D03*
X-48491D02*
D03*
X-57619Y-25947D02*
D03*
X-58094D02*
D03*
D34*
X-33625Y-36125D02*
D03*
Y-35025D02*
D03*
X-40979Y-29792D02*
D03*
Y-28692D02*
D03*
X-49808Y-38959D02*
D03*
Y-40059D02*
D03*
X-49796Y-33397D02*
D03*
Y-32297D02*
D03*
X-39625Y-41775D02*
D03*
Y-40675D02*
D03*
X-42206Y-28698D02*
D03*
Y-29798D02*
D03*
X-44260Y-32413D02*
D03*
Y-31313D02*
D03*
X-32532Y-36125D02*
D03*
Y-35025D02*
D03*
D35*
X-11330Y-30000D02*
D03*
X-10130D02*
D03*
X-31825Y-11700D02*
D03*
X-30625D02*
D03*
X-21800Y-9900D02*
D03*
X-20600D02*
D03*
X-31775Y-39825D02*
D03*
X-32975D02*
D03*
X-31775Y-41075D02*
D03*
X-32975D02*
D03*
X-31775Y-38575D02*
D03*
X-32975D02*
D03*
X-42157Y-40730D02*
D03*
X-43357D02*
D03*
X-42153Y-41980D02*
D03*
X-43353D02*
D03*
X-41650Y-14874D02*
D03*
X-42850D02*
D03*
D36*
X-22120Y-11535D02*
D03*
X-23120D02*
D03*
X-23100Y-9800D02*
D03*
X-24100D02*
D03*
X-30150Y-9850D02*
D03*
X-31150D02*
D03*
D37*
X-52465Y-33736D02*
D03*
X-52801Y-33400D02*
D03*
D38*
X-52450Y-38759D02*
D03*
X-52786Y-39095D02*
D03*
D39*
X-33350Y-32546D02*
D03*
X-32250D02*
D03*
X-33303Y-31271D02*
D03*
X-32203D02*
D03*
X-38050Y-30139D02*
D03*
X-39150D02*
D03*
X-36494D02*
D03*
X-35394D02*
D03*
X-35944Y-40414D02*
D03*
X-34844D02*
D03*
D40*
X-8750Y-3550D02*
D03*
Y-1450D02*
D03*
X-6500Y-3550D02*
D03*
Y-1450D02*
D03*
D41*
X-12700Y-7575D02*
D03*
X-11300D02*
D03*
D42*
X-32428Y-30258D02*
X-32053D01*
X-35586Y-28621D02*
Y-28246D01*
D43*
X-40979Y-27998D02*
X-40303D01*
X-40979Y-28692D02*
Y-27998D01*
X-34395Y-29778D02*
X-33853D01*
X-34756Y-30139D02*
X-34395Y-29778D01*
X-35394Y-30139D02*
X-34756D01*
X-38866Y-30746D02*
Y-30139D01*
X-39150D02*
X-38866D01*
Y-30746D02*
X-38550Y-31062D01*
Y-31925D02*
Y-31062D01*
X-44260Y-32413D02*
X-43542D01*
X-33625Y-36125D02*
X-32532D01*
X-40250Y-29388D02*
X-40164Y-29474D01*
X-39867Y-30139D02*
X-39150D01*
X-40164Y-29843D02*
X-39867Y-30139D01*
X-40164Y-29843D02*
Y-29474D01*
X-42206Y-28698D02*
Y-28525D01*
X-42516Y-28216D02*
X-42206Y-28525D01*
X-43140Y-28216D02*
X-42516D01*
X-43197Y-25917D02*
Y-25912D01*
Y-25917D02*
X-43169Y-25945D01*
X-43109Y-25885D01*
X-42250D01*
X-40050Y-31925D02*
Y-31497D01*
X-40396Y-31151D02*
X-40050Y-31497D01*
X-44293Y-31280D02*
X-44260Y-31313D01*
X-44293Y-31280D02*
Y-30746D01*
X-44007Y-30460D01*
X-44275Y-32489D02*
X-44191Y-32406D01*
X-44007Y-31283D02*
X-43492D01*
X-42850Y-31925D01*
Y-32725D02*
Y-31925D01*
X-44058Y-36356D02*
X-43927Y-36225D01*
X-43239D01*
X-43585Y-34725D02*
X-43239D01*
X-43630Y-34680D02*
X-43585Y-34725D01*
X-22791Y-12448D02*
X-22319Y-11976D01*
Y-11734D01*
X-22120Y-11535D01*
X-10130Y-29993D02*
X-5707D01*
X-4430Y-31270D01*
X-37049Y-28648D02*
X-36872D01*
X-40250Y-25912D02*
X-40175Y-25838D01*
X-41122Y-25912D02*
X-40250D01*
X-40180Y-26598D02*
X-39579D01*
X-37273Y-29049D02*
X-36872Y-28648D01*
X-37273Y-29575D02*
Y-29049D01*
D44*
X-38050Y-40400D02*
Y-39025D01*
X-15540Y-8722D02*
Y-5531D01*
X-19600Y-18200D02*
Y-16787D01*
X-15160Y-8722D02*
Y-5890D01*
X-14950Y-5680D01*
Y-5150D01*
X-15160Y-8722D02*
X-14682Y-9200D01*
X-16018D02*
X-15540Y-8722D01*
X-19075Y-16799D02*
X-15160Y-12884D01*
Y-9878D01*
X-19600Y-16787D02*
X-15540Y-12727D01*
Y-9878D01*
X-16018Y-9400D02*
X-15540Y-9878D01*
X-19075Y-17400D02*
Y-16799D01*
X-37550Y-39900D02*
Y-39025D01*
X-47359Y-9378D02*
X-47341D01*
X-47919Y-8818D02*
X-47359Y-9378D01*
X-47919Y-9938D02*
X-47359Y-9378D01*
X-47919Y-5895D02*
X-47784Y-5760D01*
X-47919Y-8818D02*
Y-5895D01*
Y-10597D02*
Y-9938D01*
Y-10597D02*
X-47752Y-10764D01*
X-48299Y-10597D02*
Y-9938D01*
X-48466Y-10764D02*
X-48299Y-10597D01*
X-48434Y-5760D02*
X-48299Y-5895D01*
X-48434Y-5760D02*
Y-5150D01*
X-48299Y-8818D02*
Y-5895D01*
X-48859Y-9378D02*
X-48299Y-8818D01*
X-48859Y-9378D02*
X-48299Y-9938D01*
X-15160Y-9878D02*
X-14682Y-9400D01*
X-31753Y-30258D02*
X-30728D01*
X-30266Y-29796D01*
D45*
X-25799Y-39417D02*
X-22732Y-36350D01*
X-27314Y-39417D02*
X-25799D01*
X-31596Y-43700D02*
X-27314Y-39417D01*
X-25994Y-39064D02*
X-22180Y-35250D01*
X-27649Y-39064D02*
X-25994D01*
X-31784Y-43199D02*
X-27649Y-39064D01*
X-18657Y-25793D02*
X-14465D01*
X-14461Y-25789D01*
X-17428Y-23000D02*
X-15114Y-25314D01*
X-13055D01*
X-13025Y-25344D01*
X-14854Y-24569D02*
X-12872D01*
X-18994Y-20429D02*
X-14854Y-24569D01*
X-17447Y-22499D02*
X-15078Y-24869D01*
X-12227D02*
X-12186Y-24910D01*
X-15078Y-24869D02*
X-12227D01*
X-12186Y-24910D02*
X-11256D01*
X-11251Y-24905D01*
X-12872Y-24569D02*
X-12738Y-24435D01*
X-19404Y-25046D02*
X-18657Y-25793D01*
X-11467Y-23648D02*
X-10732Y-24384D01*
X-14289Y-23648D02*
X-11467D01*
X-14650Y-24010D02*
X-14289Y-23648D01*
X-42350Y-23884D02*
X-32125D01*
X-43758Y-25292D02*
X-42350Y-23884D01*
X-32125D02*
X-28674Y-27336D01*
X-18550Y-32391D02*
X-18190Y-32752D01*
X-18813Y-32391D02*
X-18550D01*
X-23489Y-27715D02*
X-18813Y-32391D01*
X-28895Y-27715D02*
X-23489D01*
X-23299Y-27336D02*
X-19365Y-31270D01*
X-6970D01*
X-23166Y-27004D02*
X-20169Y-30000D01*
X-11330D01*
X-37050Y-39470D02*
X-36106Y-40414D01*
X-42800Y-40173D02*
Y-39800D01*
X-43357Y-40730D02*
X-42800Y-40173D01*
X-42825Y-39800D02*
X-42800D01*
X-44631Y-38725D02*
X-44080Y-38174D01*
Y-37047D01*
X-43758Y-36725D01*
X-42860Y-48017D02*
X-13225D01*
X-7060Y-46600D02*
X-6970Y-46510D01*
X-40058Y-46600D02*
X-7060D01*
X-38387Y-41713D02*
X-37725Y-42375D01*
X-38387Y-41713D02*
Y-41438D01*
X-39050Y-40775D02*
X-38387Y-41438D01*
X-37280Y-41909D02*
X-36830Y-42359D01*
X-37492Y-41909D02*
X-37280D01*
X-38750Y-40651D02*
X-37492Y-41909D01*
X-35160Y-36725D02*
X-34335Y-37550D01*
X-30942D01*
X-34079Y-37075D02*
X-29875D01*
X-34929Y-36225D02*
X-34079Y-37075D01*
X-19922Y-25348D02*
X-19429Y-25841D01*
X-23106Y-25348D02*
X-19922D01*
X-26155Y-22299D02*
X-23106Y-25348D01*
X-22792Y-25046D02*
X-19404D01*
X-24495Y-23343D02*
X-22792Y-25046D01*
X-20716Y-20429D02*
X-18994D01*
X-23400Y-17745D02*
X-20716Y-20429D01*
X-23400Y-17745D02*
Y-17373D01*
X-12738Y-24435D02*
X-11989D01*
X-19339Y-20108D02*
X-18553D01*
X-14650Y-24010D01*
X-9132Y-48575D02*
X-8332Y-47775D01*
X-30025Y-48575D02*
X-9132D01*
X-43348Y-45500D02*
X-16159D01*
X-36830Y-42359D02*
X-36821D01*
X-36865D02*
X-36830D01*
X-39932Y-43700D02*
X-31596D01*
X-34465Y-38025D02*
X-25962D01*
X-24387Y-36450D01*
X-35502Y-32725D02*
X-35493D01*
X-35750D02*
X-35502D01*
X-35217Y-32441D02*
X-34833D01*
X-35502Y-32725D02*
X-35217Y-32441D01*
X-34124Y-31925D02*
X-33502Y-32546D01*
X-36550Y-31925D02*
X-34124D01*
X-35206Y-20542D02*
Y-16055D01*
X-33750Y-35725D02*
X-33625Y-35850D01*
X-33025Y-34325D02*
X-32325Y-35025D01*
X-34614Y-34325D02*
X-33025D01*
X-35533Y-38225D02*
X-35525D01*
X-35750D02*
X-35533D01*
X-34060Y-42589D02*
Y-39698D01*
X-35533Y-38225D02*
X-34060Y-39698D01*
X-26025Y-37075D02*
X-23867Y-34917D01*
X-29875Y-37075D02*
X-26025D01*
X-32975Y-42137D02*
Y-41075D01*
X-26155Y-22299D02*
Y-20605D01*
X-25675Y-20125D01*
X-34468Y-50557D02*
X-32550Y-52475D01*
X-41539Y-50557D02*
X-34468D01*
X-43758Y-29457D02*
Y-25292D01*
X-44058Y-29662D02*
Y-24992D01*
X-43758Y-29457D02*
X-41550Y-31665D01*
X-44058Y-29662D02*
X-42050Y-31670D01*
X-44058Y-24992D02*
X-42454Y-23388D01*
X-42708Y-29798D02*
X-42206D01*
X-43239Y-29266D02*
X-42708Y-29798D01*
X-43239Y-29266D02*
Y-29088D01*
X-39550Y-31925D02*
Y-31375D01*
X-40427Y-30498D02*
X-39550Y-31375D01*
X-41682Y-30498D02*
X-40427D01*
X-40986Y-31217D02*
X-40550Y-31653D01*
X-40986Y-31217D02*
Y-30956D01*
X-41550Y-31174D02*
X-41050Y-31674D01*
X-41550Y-31174D02*
Y-30956D01*
X-42206Y-29974D02*
X-41682Y-30498D01*
X-42206Y-29974D02*
Y-29798D01*
X-38050Y-30139D02*
Y-29572D01*
X-38974Y-28648D02*
X-38050Y-29572D01*
X-39072Y-28648D02*
X-38974D01*
X-38050Y-30139D02*
X-38050Y-30139D01*
X-38050Y-31925D02*
Y-30139D01*
X-36494Y-30139D02*
X-36233Y-29879D01*
Y-29603D01*
X-35586Y-28955D01*
Y-28896D01*
X-36637Y-30139D02*
X-36494D01*
X-37550Y-31052D02*
X-36637Y-30139D01*
X-37550Y-31925D02*
Y-31052D01*
X-36872Y-27048D02*
X-36726D01*
X-41550Y-31925D02*
Y-31665D01*
X-42050Y-31925D02*
Y-31670D01*
X-40550Y-31925D02*
Y-31653D01*
X-41050Y-31925D02*
Y-31674D01*
X-47341Y-9378D02*
X-47059D01*
X-48979D02*
X-48745Y-9144D01*
X-48995Y-9394D02*
X-48979Y-9378D01*
X-39300Y-35475D02*
X-38550Y-34725D01*
Y-31925D01*
X-43758Y-36725D02*
X-42850D01*
X-32198Y-23388D02*
X-28582Y-27004D01*
X-41649Y-23388D02*
X-32198D01*
X-41649D02*
Y-14874D01*
X-37050Y-31687D02*
X-36683Y-31320D01*
X-37050Y-31925D02*
Y-31687D01*
X-43590Y-39009D02*
Y-38740D01*
X-44031Y-39451D02*
X-43590Y-39009D01*
X-44031Y-52519D02*
Y-39451D01*
X-43939Y-38898D02*
Y-38558D01*
X-44331Y-39290D02*
X-43939Y-38898D01*
X-43590Y-38740D02*
X-43075Y-38225D01*
X-44331Y-53307D02*
Y-39290D01*
X-43939Y-38558D02*
X-43106Y-37725D01*
X-42850D01*
X-49800Y-38951D02*
X-49799Y-38950D01*
X-49808Y-38959D02*
X-49800Y-38951D01*
X-49799Y-38950D02*
X-49100D01*
X-49800Y-38951D02*
Y-36875D01*
X-35750Y-36225D02*
X-34929D01*
X-34112Y-11188D02*
X-33654D01*
X-33400Y-11441D01*
Y-11700D02*
Y-11441D01*
X-34600Y-10700D02*
X-34112Y-11188D01*
X-21800Y-15900D02*
Y-13396D01*
X-17829Y-9425D01*
X-9825Y-11400D02*
Y-9575D01*
X-21725Y-1710D02*
X-19721D01*
X-36760Y-12960D02*
X-35500Y-11700D01*
X-20452Y-41430D02*
X-6970D01*
X-23867Y-34917D02*
X-5537D01*
X-43146Y-14578D02*
X-42850Y-14874D01*
X-43146Y-14578D02*
Y-11738D01*
X-44684Y-10200D02*
X-43146Y-11738D01*
X-45300Y-10200D02*
X-44684D01*
X-45300D02*
Y-10110D01*
X-45510Y-9900D02*
X-45300Y-10110D01*
X-41550Y-39800D02*
X-41362Y-39988D01*
Y-41237D02*
Y-39988D01*
X-42105Y-41980D02*
X-41362Y-41237D01*
X-41050Y-42582D02*
Y-39025D01*
X-43357Y-40730D02*
X-43353Y-40734D01*
Y-41980D02*
Y-40734D01*
X-42153Y-41980D02*
X-42105D01*
X-41050Y-42582D02*
X-39932Y-43700D01*
X-40738Y-42187D02*
X-39725Y-43200D01*
X-42050Y-40622D02*
X-41904Y-40768D01*
X-42050Y-40622D02*
Y-39800D01*
X-24567Y-19945D02*
Y-19283D01*
X-25025Y-18825D02*
X-24567Y-19283D01*
X-24209Y-19657D02*
Y-18741D01*
X-25675Y-18175D02*
X-24775D01*
X-25025Y-19993D02*
Y-19475D01*
X-24775Y-18175D02*
X-24209Y-18741D01*
X-20200Y-23000D02*
X-17428D01*
X-23725Y-18825D02*
X-21708Y-20842D01*
X-23725Y-19475D02*
X-20200Y-23000D01*
X-23075Y-22075D02*
X-21014Y-24136D01*
X-37645Y-54325D02*
X-36350Y-53030D01*
X-43313Y-54325D02*
X-37645D01*
X-44331Y-53307D02*
X-43313Y-54325D01*
X-16161Y-33810D02*
X-6970D01*
X-28725Y-25401D02*
X-27746Y-24422D01*
X-38750Y-39499D02*
X-38550Y-39299D01*
Y-39025D01*
X-8882Y-46050D02*
X-8082Y-45250D01*
X-34060Y-46050D02*
X-8882D01*
X-44031Y-52519D02*
X-43700Y-52850D01*
Y-58375D02*
X-26650D01*
X-24925Y-56650D01*
Y-54305D01*
X-23650Y-53030D01*
X-31775Y-41075D02*
X-30750D01*
X-39508Y-49050D02*
X-6970D01*
X-5705Y-47775D02*
X-4430Y-49050D01*
X-31775Y-39825D02*
X-30025D01*
X-31775Y-38575D02*
X-26866D01*
X-32975Y-39825D02*
Y-38575D01*
Y-41075D02*
Y-39825D01*
X-32975Y-41075D02*
X-32975Y-41075D01*
X-35750Y-37725D02*
X-35275D01*
X-34425Y-38575D01*
X-35750Y-34225D02*
X-34949D01*
X-43586Y-37225D02*
X-42850D01*
X-23438Y-37637D02*
X-5683D01*
X-4430Y-38890D01*
X-39615Y-40350D02*
X-39550Y-40285D01*
X-22732Y-36350D02*
X-6970D01*
X-22180Y-35250D02*
X-5530D01*
X-4430Y-36350D01*
X-5537Y-34917D02*
X-4430Y-33810D01*
X-33400Y-11700D02*
X-31825D01*
X-33700Y-16100D02*
X-29700D01*
X-29887Y-13600D02*
Y-10113D01*
X-30150Y-9850D02*
X-29887Y-10113D01*
X-35500Y-11700D02*
X-33608Y-13592D01*
X-31225D01*
X-32300Y-10025D02*
X-30625Y-11700D01*
X-37805Y-10025D02*
X-32300D01*
X-14682Y-9400D02*
X-14591Y-9309D01*
X-14582Y-9300D01*
X-2175Y-43621D02*
Y-32773D01*
X-30654Y-15567D02*
X-29887Y-14800D01*
X-34038Y-15567D02*
X-30654D01*
X-34464Y-15993D02*
X-34038Y-15567D01*
X-34464Y-19928D02*
Y-15993D01*
X-33942Y-14792D02*
X-31225D01*
X-23125Y-10675D02*
X-23100Y-10650D01*
X-39550Y-40285D02*
Y-39025D01*
X-39050Y-40775D02*
Y-39025D01*
X-42050Y-49775D02*
X-34525D01*
X-31270Y-53030D01*
X-42050Y-39800D02*
Y-39025D01*
X-31270Y-53030D02*
X-27998Y-49758D01*
X-20452D01*
X-32550Y-54290D02*
Y-52475D01*
Y-54290D02*
X-31270Y-55570D01*
X-29990Y-54290D01*
X-41550Y-39800D02*
Y-39025D01*
X-29990Y-54290D02*
Y-52475D01*
X-27786Y-50271D01*
X-19429D01*
Y-42675D02*
X-5675D01*
X-4430Y-41430D01*
X-26561Y-19711D02*
X-26325Y-19475D01*
X-38730Y-10950D02*
X-37805Y-10025D01*
X-23218Y-38070D02*
X-7790D01*
X-6970Y-38890D01*
X-38750Y-40651D02*
Y-39499D01*
X-39625Y-40675D02*
X-39418Y-40882D01*
Y-40985D02*
Y-40882D01*
Y-40985D02*
X-39370Y-41033D01*
X-39216D01*
X-38687Y-41562D01*
Y-42298D02*
Y-41562D01*
X-40550Y-39283D02*
Y-39025D01*
X-40738Y-39470D02*
X-40550Y-39283D01*
X-40738Y-42187D02*
Y-39470D01*
X-35206Y-16055D02*
X-33942Y-14792D01*
X-23838Y-22644D02*
Y-20028D01*
X-24209Y-19657D02*
X-23838Y-20028D01*
X-24161Y-22814D02*
X-22240Y-24736D01*
X-24161Y-22814D02*
Y-20352D01*
X-24567Y-19945D02*
X-24161Y-20352D01*
X-25025Y-19993D02*
X-24495Y-20522D01*
X-31730Y-34225D02*
X-23148D01*
X-35750Y-33725D02*
X-34873D01*
X-35750Y-37225D02*
X-35265D01*
X-35750Y-36725D02*
X-35160D01*
X-30942Y-34725D02*
X-28725D01*
X-25621D01*
X-42153Y-41980D02*
X-41550Y-42583D01*
X-43586Y-34225D02*
X-42850D01*
X-8332Y-47775D02*
X-5705D01*
X-2603Y-32345D02*
X-2175Y-32773D01*
X-2775Y-32725D02*
X-2475Y-33025D01*
X-9176Y-33277D02*
X-8625Y-32725D01*
X-2775D01*
X-9006Y-32345D02*
X-2603D01*
X-23653Y-26351D02*
X-3651D01*
X-24495Y-23343D02*
Y-20522D01*
X-23209Y-25841D02*
X-20669D01*
X-26561Y-22489D02*
Y-19711D01*
Y-22489D02*
X-23209Y-25841D01*
X-18772Y-24736D02*
X-18190Y-25318D01*
X-22240Y-24736D02*
X-18772D01*
X-17815Y-24436D02*
X-16950Y-25300D01*
X-22047Y-24436D02*
X-17815D01*
X-23838Y-22644D02*
X-22047Y-24436D01*
X-17014Y-24136D02*
X-16013Y-25138D01*
X-21014Y-24136D02*
X-17014D01*
X-28674Y-27336D02*
X-23299D01*
X-28582Y-27004D02*
X-23166D01*
X-21331Y-27993D02*
X-20670Y-27332D01*
X-10732Y-24384D02*
X-2487D01*
X-2212Y-24108D01*
Y-22707D01*
X-3174Y-21745D02*
X-2212Y-22707D01*
X-2594Y-20855D02*
X-1867Y-21582D01*
X-6093Y-20855D02*
X-2594D01*
X-6984Y-21745D02*
X-6093Y-20855D01*
X-8253Y-21745D02*
X-6980Y-20472D01*
X-2166D01*
X-1369Y-21268D01*
X-22450Y-26863D02*
X-3068D01*
X-1867Y-25662D01*
Y-21582D01*
X-20670Y-27332D02*
X-2772D01*
X-1369Y-25930D01*
Y-21268D01*
X-21708Y-20842D02*
X-20141D01*
X-18484Y-22499D01*
X-17447D01*
X-22791Y-16655D02*
Y-12448D01*
Y-16655D02*
X-19339Y-20108D01*
X-49236Y-40057D02*
X-49130D01*
X-49128Y-40059D01*
X-57148Y-23817D02*
X-57122Y-23843D01*
X-57612Y-23817D02*
X-57148D01*
X-57609Y-25947D02*
X-57140D01*
X-57140Y-25947D01*
X-35265Y-37225D02*
X-34465Y-38025D01*
X-34425Y-38575D02*
X-32975D01*
X-49236Y-40057D02*
X-49236Y-40057D01*
X-49134D01*
X-39725Y-43200D02*
X-31784D01*
X-25553Y-39752D02*
X-23438Y-37637D01*
X-27138Y-39752D02*
X-25553D01*
X-31604Y-44218D02*
X-27138Y-39752D01*
X-36811Y-44218D02*
X-31604D01*
X-36821Y-44208D02*
X-36811Y-44218D01*
X-25372Y-40224D02*
X-23218Y-38070D01*
X-41025Y-47295D02*
X-14461D01*
X-2475Y-42015D02*
Y-33025D01*
X-4430Y-43970D02*
X-2475Y-42015D01*
X-9413Y-32752D02*
X-9006Y-32345D01*
X-8082Y-45250D02*
X-6254D01*
X-5864Y-45640D01*
X-6970Y-43970D02*
X-5679Y-45261D01*
X-3815D01*
X-2175Y-43621D01*
X-5864Y-45640D02*
X-5300D01*
X-4430Y-46510D01*
X-45500Y-34917D02*
X-45167Y-35250D01*
X-45500Y-34917D02*
Y-34725D01*
Y-36225D02*
Y-35975D01*
Y-35983D02*
X-45167Y-35650D01*
Y-35250D02*
X-42875D01*
X-42850Y-35225D01*
X-45167Y-35650D02*
X-43197D01*
X-43122Y-35725D01*
X-42850D01*
X-27051Y-40224D02*
X-25372D01*
X-37462Y-44826D02*
X-31653D01*
X-27051Y-40224D01*
X-35750Y-33225D02*
X-35062D01*
X-31806Y-33725D02*
X-21908D01*
X-23665Y-28139D02*
X-18527Y-33277D01*
X-41727Y-24217D02*
X-32393D01*
X-28895Y-27715D01*
X-41143Y-24580D02*
X-32630D01*
X-29071Y-28139D01*
X-23665D01*
X-18527Y-33277D02*
X-16950D01*
X-18190Y-32752D02*
X-9413D01*
X-16950Y-33277D02*
X-9176D01*
X-35062Y-33225D02*
X-28106D01*
X-34949Y-34225D02*
X-34690Y-33966D01*
X-31989D01*
X-31730Y-34225D01*
X-34873Y-33725D02*
X-34691Y-33543D01*
X-31988D01*
X-31806Y-33725D01*
X-33502Y-32546D02*
X-33350D01*
X-41460Y-24896D02*
X-41143Y-24580D01*
X-42531Y-25021D02*
X-41727Y-24217D01*
X-42454Y-23388D02*
X-41649D01*
X-23567Y-30647D02*
Y-29150D01*
X-24016Y-31096D02*
X-23567Y-30647D01*
X-36106Y-40414D02*
X-35944D01*
X-35161Y-40362D02*
X-35110Y-40414D01*
X-34844D01*
X-37050Y-39470D02*
Y-39025D01*
X-36550Y-39223D02*
Y-39025D01*
Y-39223D02*
X-35877D01*
X-36000Y-39225D02*
X-35236Y-39989D01*
X-33303Y-31271D02*
X-33028D01*
Y-30506D02*
X-32780Y-30258D01*
X-33028Y-31271D02*
Y-30506D01*
X-36683Y-31320D02*
X-33303D01*
X-35750Y-34725D02*
X-35014D01*
X-35014Y-34725D01*
X-34614Y-34325D01*
X-35750Y-35725D02*
X-33750D01*
X-32203Y-31271D02*
X-31450D01*
X-31450Y-31271D01*
X-32250Y-32546D02*
X-31450D01*
X-31450Y-32546D01*
X-33350Y-32546D02*
X-33221D01*
X-32981Y-32307D01*
Y-32175D01*
X-32738Y-31931D01*
X-31111D01*
X-30646Y-32396D01*
X-30266D01*
X-35236Y-40121D02*
Y-39989D01*
X-44631Y-54629D02*
Y-38725D01*
Y-54629D02*
X-42310Y-56950D01*
X-27350D01*
X-36726Y-27048D02*
X-36078Y-27695D01*
X-35785D01*
X-35586Y-27894D01*
X-23125Y-11392D02*
Y-10675D01*
X-27746Y-24422D02*
Y-16161D01*
X-23120Y-11535D01*
D46*
X-16462Y-7662D02*
X-16400Y-7600D01*
X-16462Y-8225D02*
Y-7662D01*
X-16737Y-8500D02*
X-16462Y-8225D01*
X-17125Y-8500D02*
X-16737D01*
X-18000D02*
X-17125D01*
X-14200Y-7500D02*
X-12700D01*
X-14314Y-7386D02*
Y-5672D01*
X-11400Y-7475D02*
Y-6800D01*
D47*
X-28582Y-21689D02*
Y-13261D01*
X-29042Y-22150D02*
X-28582Y-21689D01*
X-9075Y-16650D02*
Y-10611D01*
X-7064Y-8600D01*
X-44025Y-33725D02*
X-42850D01*
X-44025Y-33725D02*
X-44025Y-33725D01*
X-33700Y-35225D02*
X-33625Y-35300D01*
X-35750Y-35225D02*
X-33700D01*
X-40598Y-29894D02*
X-39050Y-31442D01*
X-41356Y-29894D02*
X-40598D01*
X-42275Y-27309D02*
X-42250Y-27285D01*
X-43239Y-27309D02*
X-42275D01*
X-41146Y-27285D02*
X-41122Y-27309D01*
X-42250Y-27285D02*
X-41146D01*
X-39050Y-31925D02*
Y-31442D01*
X-41586Y-29664D02*
X-41356Y-29894D01*
X-41586Y-29664D02*
Y-27774D01*
X-41122Y-27309D01*
X-4970Y-5030D02*
X-4100D01*
X-6250Y-3750D02*
X-4970Y-5030D01*
X-45510Y-11100D02*
X-44650D01*
X-40050Y-41475D02*
X-39900D01*
X-40250Y-41275D02*
X-40050Y-41475D01*
X-40250Y-41275D02*
Y-39735D01*
X-40050Y-39535D01*
Y-39025D01*
X-12800Y-9750D02*
X-11400D01*
X-8750Y-5000D02*
Y-3550D01*
X-17225Y-7600D02*
X-16400D01*
X-16550Y-7450D02*
X-16400Y-7600D01*
X-17425Y-7400D02*
X-17225Y-7600D01*
X-19000Y-7400D02*
X-17425D01*
X-35000Y-7650D02*
Y-2150D01*
X-28000Y-7650D02*
Y-2150D01*
X-24000Y-7650D02*
Y-2150D01*
Y-9700D02*
Y-7650D01*
X-23100Y-10650D02*
Y-9800D01*
X-21900D01*
X-25075Y-10675D02*
X-24075D01*
X-25100Y-10700D02*
X-25075Y-10675D01*
X-23100Y-7400D02*
X-20600Y-9900D01*
X-23475Y-575D02*
X-23100Y-950D01*
Y-7400D02*
Y-950D01*
X-31500Y-575D02*
X-23475D01*
X-17500Y-5647D02*
Y-5600D01*
X-17547D02*
X-17500Y-5647D01*
X-17547Y-5600D02*
X-16914D01*
X-32400Y-4500D02*
Y-3744D01*
X-32700Y-3444D02*
X-32400Y-3744D01*
X-32700Y-3444D02*
Y-1775D01*
X-31500Y-575D01*
X-49800Y-35575D02*
Y-33401D01*
X-49796Y-33397D02*
Y-33100D01*
X-49100D01*
D48*
X-14400Y-9400D02*
X-14200D01*
X-13360Y-8170D02*
X-13052Y-8478D01*
X-12830D01*
Y-8570D02*
Y-8478D01*
Y-8570D02*
X-12700Y-8700D01*
X-13360Y-8170D02*
X-13295D01*
X-12700Y-7575D01*
X-18570Y-53030D02*
X-9188D01*
X-31150Y-9850D02*
X-31000Y-9700D01*
Y-7650D01*
X-49734Y-6650D02*
Y-5150D01*
X-50475Y-7478D02*
X-49441D01*
X-49400Y-7437D01*
X-52100Y-7478D02*
X-50475D01*
X-31000Y-7650D02*
Y-2150D01*
X-8756Y-1518D02*
X-7600D01*
X-6470D01*
X-14314Y-7386D02*
X-14200Y-7500D01*
X-35000Y-2150D02*
X-34125D01*
X-11400Y-8700D02*
Y-7675D01*
X-32100Y-2400D02*
X-31250D01*
X-25200Y-2300D02*
X-24150D01*
X-24000Y-2150D01*
X-29000Y-2200D02*
X-28050D01*
X-28000Y-2150D01*
X-16400Y-9300D02*
X-16010D01*
X-14761Y-9400D02*
X-14682D01*
X-14500D01*
X-14591Y-9309D02*
X-14500Y-9400D01*
X-14400D02*
X-14300Y-9300D01*
X-14500Y-9400D02*
X-14400D01*
X-43239Y-36225D02*
X-42850D01*
X-43193Y-33225D02*
X-42850D01*
X-43350Y-33382D02*
X-43193Y-33225D01*
X-43675D02*
X-42850D01*
X-43350Y-33068D02*
X-43193Y-33225D01*
X-43400Y-36385D02*
X-43239Y-36225D01*
X-43348Y-34628D02*
X-43239Y-34725D01*
X-42850D01*
X-43380Y-34630D02*
X-43348Y-34628D01*
D49*
X-48745Y-9144D02*
X-48704D01*
X-48800D02*
X-48745D01*
X-48859Y-9378D02*
X-48793D01*
X-48979D02*
X-48859D01*
D50*
X-45510Y-9900D02*
Y-8495D01*
X-47059Y-7478D02*
X-45693D01*
X-47134Y-7403D02*
Y-5150D01*
Y-7403D02*
X-47059Y-7478D01*
X-45510Y-7295D02*
Y-6375D01*
X-45510Y-6375D02*
X-45510Y-6375D01*
D51*
X-49700Y-36231D02*
X-48501D01*
X-48000Y-36229D02*
X-46801D01*
X-58097Y-24602D02*
Y-22658D01*
Y-28153D02*
X-52831Y-33419D01*
X-58097Y-28153D02*
Y-25126D01*
X-52454Y-33802D02*
Y-33796D01*
Y-33802D02*
X-51700Y-34556D01*
Y-35575D02*
Y-34556D01*
X-52460Y-38723D02*
Y-38716D01*
X-51700Y-37956D01*
Y-36875D01*
X-55195Y-48780D02*
Y-41450D01*
X-52832Y-39088D01*
X-52825D01*
D52*
X-50750Y-36323D02*
D03*
D53*
X-51787Y-36225D02*
D03*
D54*
X-46700Y-33975D02*
D03*
D55*
X-59200Y-22947D02*
D03*
D56*
X-59156Y-23062D02*
D03*
D57*
X-59201Y-19136D02*
D03*
D58*
X-57899Y-19077D02*
D03*
D59*
X-58345Y-18902D02*
D03*
D60*
X-46150Y-35600D02*
D03*
D61*
X-27215Y-42600D02*
D03*
X-41270Y-10950D02*
D03*
X-38730D02*
D03*
X-18570Y-53030D02*
D03*
D62*
X-24675Y-42600D02*
D03*
X-22135D02*
D03*
X-6970Y-16030D02*
D03*
X-4430D02*
D03*
Y-13490D02*
D03*
Y-51590D02*
D03*
X-6970Y-41430D02*
D03*
X-4430D02*
D03*
Y-43970D02*
D03*
X-6970D02*
D03*
X-4430Y-46510D02*
D03*
X-6970D02*
D03*
X-4430Y-49050D02*
D03*
X-6970D02*
D03*
Y-51590D02*
D03*
Y-38890D02*
D03*
Y-36350D02*
D03*
X-4430D02*
D03*
X-6970Y-33810D02*
D03*
X-4430D02*
D03*
X-6970Y-31270D02*
D03*
X-4430D02*
D03*
Y-28730D02*
D03*
Y-38890D02*
D03*
X-28730Y-55570D02*
D03*
X-18570D02*
D03*
X-21110D02*
D03*
Y-53030D02*
D03*
X-23650Y-55570D02*
D03*
Y-53030D02*
D03*
X-26190Y-55570D02*
D03*
Y-53030D02*
D03*
X-28730D02*
D03*
X-41430D02*
D03*
X-38890D02*
D03*
Y-55570D02*
D03*
X-36350Y-53030D02*
D03*
Y-55570D02*
D03*
X-33810Y-53030D02*
D03*
Y-55570D02*
D03*
X-31270D02*
D03*
Y-53030D02*
D03*
X-41430Y-55570D02*
D03*
D63*
X-6970Y-13490D02*
D03*
Y-28730D02*
D03*
D64*
X-55195Y-48780D02*
D03*
X-52655Y-46240D02*
D03*
X-57735Y-51320D02*
D03*
X-52655D02*
D03*
X-57735Y-46240D02*
D03*
D65*
X-3174Y-23015D02*
D03*
Y-21745D02*
D03*
X-8253D02*
D03*
X-6984D02*
D03*
X-5714D02*
D03*
X-4444D02*
D03*
Y-23015D02*
D03*
X-5714D02*
D03*
X-6984D02*
D03*
X-8253D02*
D03*
D66*
X-57650Y-57650D02*
D03*
X-2350D02*
D03*
X-57650Y-2350D02*
D03*
X-2350D02*
D03*
D67*
X-37649Y-33824D02*
D03*
Y-35475D02*
D03*
Y-37126D02*
D03*
X-39300Y-33824D02*
D03*
Y-35475D02*
D03*
Y-37126D02*
D03*
X-40951Y-33824D02*
D03*
Y-35475D02*
D03*
Y-37126D02*
D03*
D68*
X-28691Y-39179D02*
D03*
X-38550Y-31062D02*
D03*
X-36781Y-8775D02*
D03*
X-30575Y-12525D02*
D03*
X-28582Y-13230D02*
D03*
X-42800Y-39800D02*
D03*
X-42860Y-48017D02*
D03*
X-40058Y-46600D02*
D03*
X-37725Y-42375D02*
D03*
X-30942Y-37550D02*
D03*
X-19075Y-17400D02*
D03*
X-7064Y-8600D02*
D03*
X-14650Y-24010D02*
D03*
X-30025Y-48575D02*
D03*
X-43542Y-32413D02*
D03*
X-43348Y-45500D02*
D03*
X-34833Y-32441D02*
D03*
X-33853Y-29778D02*
D03*
X-34358Y-35225D02*
D03*
X-29345Y-46050D02*
D03*
X-34060Y-42589D02*
D03*
X-38050Y-40400D02*
D03*
X-37550Y-39900D02*
D03*
X-29875Y-37075D02*
D03*
X-32975Y-42137D02*
D03*
X-41539Y-50557D02*
D03*
X-47752Y-10764D02*
D03*
X-48466D02*
D03*
X-43239Y-27309D02*
D03*
X-28352Y-47284D02*
D03*
X-27215Y-48017D02*
D03*
X-27350Y-56950D02*
D03*
X-44631Y-38725D02*
D03*
X-4100Y-5030D02*
D03*
X-34600Y-10700D02*
D03*
X-17829Y-9425D02*
D03*
X-13360Y-8170D02*
D03*
X-29900Y-10675D02*
D03*
X-21725Y-1710D02*
D03*
X-38687Y-42298D02*
D03*
X-37725Y-44826D02*
D03*
X-36821Y-44208D02*
D03*
X-36760Y-12960D02*
D03*
X-20452Y-41430D02*
D03*
X-44650Y-11100D02*
D03*
X-19497Y-22362D02*
D03*
X-11251Y-24905D02*
D03*
X-10227Y-25505D02*
D03*
X-25350Y-17373D02*
D03*
X-18675Y-21475D02*
D03*
X-9188Y-53030D02*
D03*
X-13225Y-48017D02*
D03*
X-16161Y-33810D02*
D03*
X-16159Y-45500D02*
D03*
X-26866Y-38575D02*
D03*
X-28725Y-25401D02*
D03*
X-26500Y-25500D02*
D03*
X-43700Y-58375D02*
D03*
Y-52850D02*
D03*
X-30750Y-41075D02*
D03*
X-34060Y-46050D02*
D03*
X-30025Y-39825D02*
D03*
X-43586Y-37225D02*
D03*
X-40250Y-39735D02*
D03*
X-16325Y-20725D02*
D03*
X-9825Y-11400D02*
D03*
X-35014Y-35725D02*
D03*
X-31450Y-31271D02*
D03*
X-12100Y-9750D02*
D03*
X-22525Y-6975D02*
D03*
X-17125Y-8500D02*
D03*
X-21800Y-7825D02*
D03*
X-28300Y-5300D02*
D03*
X-27200Y-9000D02*
D03*
X-24900Y-8100D02*
D03*
X-17800Y-19025D02*
D03*
X-4550Y-9800D02*
D03*
X-900Y-11100D02*
D03*
X-3875Y-7100D02*
D03*
X-2800Y-8800D02*
D03*
X-7600Y-1518D02*
D03*
X-11450Y-12650D02*
D03*
X-33400Y-12700D02*
D03*
X-40500Y-1500D02*
D03*
X-30000Y-23000D02*
D03*
X-29042Y-22150D02*
D03*
X-29350Y-21425D02*
D03*
X-21100Y-21425D02*
D03*
X-8750Y-5000D02*
D03*
X-17225Y-7600D02*
D03*
X-9075Y-16650D02*
D03*
X-34125Y-2150D02*
D03*
X-25100Y-10700D02*
D03*
X-27200Y-7800D02*
D03*
X-25100Y-9000D02*
D03*
X-29700Y-16100D02*
D03*
X-33700D02*
D03*
X-36124Y-13976D02*
D03*
X-21800Y-15900D02*
D03*
X-19600Y-18200D02*
D03*
X-31784Y-43199D02*
D03*
X-31602Y-21225D02*
D03*
X-32775Y-20903D02*
D03*
X-22756Y-17373D02*
D03*
X-24050D02*
D03*
X-39508Y-49050D02*
D03*
X-23148Y-34223D02*
D03*
X-21908Y-33725D02*
D03*
X-24275Y-25475D02*
D03*
X-42050Y-49775D02*
D03*
Y-39800D02*
D03*
X-20452Y-49758D02*
D03*
X-19429Y-50271D02*
D03*
Y-42675D02*
D03*
X-45510Y-6375D02*
D03*
X-43146Y-11738D02*
D03*
X-46056Y-3908D02*
D03*
X-11989Y-24435D02*
D03*
X-9825Y-9575D02*
D03*
X-36821Y-42359D02*
D03*
X-22600Y-3500D02*
D03*
X-34464Y-19928D02*
D03*
X-35206Y-20542D02*
D03*
X-24387Y-36450D02*
D03*
X-30942Y-34725D02*
D03*
X-28725D02*
D03*
X-25621D02*
D03*
X-41550Y-42583D02*
D03*
X-41025Y-47295D02*
D03*
X-14461D02*
D03*
X-23653Y-26351D02*
D03*
X-20669Y-25841D02*
D03*
X-19429D02*
D03*
X-14461Y-25789D02*
D03*
X-18190Y-25318D02*
D03*
X-16950Y-25300D02*
D03*
X-16013Y-25138D02*
D03*
X-13025Y-25344D02*
D03*
X-21331Y-27993D02*
D03*
X-22450Y-26863D02*
D03*
X-10225Y-23650D02*
D03*
X-3651Y-26351D02*
D03*
X-32829Y-50192D02*
D03*
X-17962Y-34340D02*
D03*
Y-35770D02*
D03*
Y-37103D02*
D03*
X-4382Y-25084D02*
D03*
X-9208Y-30609D02*
D03*
X-52644Y-36947D02*
D03*
X-53128Y-36575D02*
D03*
X-53076Y-35946D02*
D03*
X-52674Y-35586D02*
D03*
X-50746Y-35524D02*
D03*
X-50767Y-35014D02*
D03*
Y-36885D02*
D03*
X-49075Y-32297D02*
D03*
X-50850Y-36225D02*
D03*
X-46825Y-37750D02*
D03*
Y-37100D02*
D03*
X-46150D02*
D03*
Y-35475D02*
D03*
X-49100Y-33100D02*
D03*
Y-38950D02*
D03*
X-57140Y-25947D02*
D03*
X-57122Y-23843D02*
D03*
X-46150Y-34075D02*
D03*
X-46800D02*
D03*
X-46475Y-33650D02*
D03*
X-50775Y-37400D02*
D03*
X-49134Y-40059D02*
D03*
X-23567Y-40095D02*
D03*
X-8580Y-28763D02*
D03*
X-45825Y-33650D02*
D03*
X-47125D02*
D03*
X-35062Y-33225D02*
D03*
X-28106D02*
D03*
X-18190Y-32752D02*
D03*
X-16950Y-33277D02*
D03*
X-41460Y-24896D02*
D03*
X-42531Y-25021D02*
D03*
X-23567Y-29150D02*
D03*
X-36000Y-39225D02*
D03*
X-35014Y-34725D02*
D03*
X-43239Y-29088D02*
D03*
X-22791Y-12448D02*
D03*
X-41649Y-23388D02*
D03*
X-40181Y-29474D02*
D03*
X-40303Y-27998D02*
D03*
X-40250Y-25912D02*
D03*
X-40178Y-26598D02*
D03*
X-37275Y-29575D02*
D03*
D69*
X-22889Y-8570D02*
D03*
X-9314Y-47462D02*
D03*
X-8988Y-31774D02*
D03*
X-40550Y-44434D02*
D03*
X-44025Y-33725D02*
D03*
X-23400Y-17373D02*
D03*
X-31450Y-32546D02*
D03*
X-36850Y-39661D02*
D03*
X-43675Y-33225D02*
D03*
D70*
X-43586Y-34225D02*
D03*
X-25675Y-20125D02*
D03*
X-40396Y-31151D02*
D03*
X-25025Y-19475D02*
D03*
X-25025Y-18825D02*
D03*
X-23725Y-19475D02*
D03*
X-23725Y-18825D02*
D03*
X-25675Y-18175D02*
D03*
X-23075Y-18825D02*
D03*
Y-22725D02*
D03*
X-23075Y-22075D02*
D03*
X-25025Y-21425D02*
D03*
X-26975Y-18825D02*
D03*
X-25675Y-20775D02*
D03*
X-25025D02*
D03*
X-26325Y-19475D02*
D03*
X-25025Y-22725D02*
D03*
X-26975Y-22725D02*
D03*
X-40986Y-30956D02*
D03*
X-41550D02*
D03*
D71*
X-52015Y-42276D02*
D03*
X-44035Y-30428D02*
D03*
X-43140Y-28216D02*
D03*
X-43197Y-25912D02*
D03*
X-20000Y-7800D02*
D03*
X-50475Y-7478D02*
D03*
X-27300Y-5300D02*
D03*
X-33300Y-7700D02*
D03*
X-32400Y-8500D02*
D03*
Y-6900D02*
D03*
Y-5900D02*
D03*
X-33200Y-5200D02*
D03*
X-32400Y-4500D02*
D03*
X-11400Y-6800D02*
D03*
X-17500Y-5600D02*
D03*
X-32100Y-2400D02*
D03*
X-25200Y-2300D02*
D03*
X-29000Y-2200D02*
D03*
X-48850Y-38025D02*
D03*
X-52450Y-36225D02*
D03*
X-47450Y-37500D02*
D03*
X-57735Y-48145D02*
D03*
Y-49415D02*
D03*
X-55830Y-51320D02*
D03*
X-54560D02*
D03*
X-52655Y-48145D02*
D03*
Y-49415D02*
D03*
X-54296Y-46264D02*
D03*
X-56080Y-46254D02*
D03*
X-52674Y-34827D02*
D03*
X-52535Y-37637D02*
D03*
X-58030Y-43980D02*
D03*
X-57030Y-41980D02*
D03*
X-58030Y-39980D02*
D03*
X-57030Y-37980D02*
D03*
X-58030Y-35980D02*
D03*
X-57030Y-33980D02*
D03*
X-58030Y-31980D02*
D03*
X-56974Y-24930D02*
D03*
X-56030Y-43980D02*
D03*
X-55030Y-37980D02*
D03*
X-56030Y-35980D02*
D03*
X-55030Y-33980D02*
D03*
X-56030Y-23980D02*
D03*
X-54030D02*
D03*
X-52030Y-43980D02*
D03*
Y-39980D02*
D03*
X-51030Y-33980D02*
D03*
X-59200Y-23430D02*
D03*
Y-24930D02*
D03*
Y-26430D02*
D03*
Y-27930D02*
D03*
Y-29430D02*
D03*
Y-30930D02*
D03*
X-57767Y-29890D02*
D03*
X-54398Y-33270D02*
D03*
X-56056Y-31578D02*
D03*
X-52473Y-32496D02*
D03*
X-56974Y-27829D02*
D03*
X-55597Y-29388D02*
D03*
X-54059Y-30942D02*
D03*
X-48278Y-35312D02*
D03*
X-48352Y-37201D02*
D03*
X-53986Y-39064D02*
D03*
X-55284Y-40261D02*
D03*
X-56007Y-42229D02*
D03*
X-56391Y-40733D02*
D03*
X-51051Y-38618D02*
D03*
X-53251Y-40990D02*
D03*
X-54319Y-42143D02*
D03*
X-54255Y-43981D02*
D03*
X-56974Y-26670D02*
D03*
X-53030Y-21980D02*
D03*
X-53072Y-20014D02*
D03*
X-53164Y-18585D02*
D03*
X-59200Y-18439D02*
D03*
X-57090D02*
D03*
X-55074Y-18413D02*
D03*
X-58080Y-54480D02*
D03*
X-57080Y-16480D02*
D03*
X-58080Y-14480D02*
D03*
X-57080Y-12480D02*
D03*
X-58080Y-10480D02*
D03*
X-57080Y-8480D02*
D03*
X-58080Y-6480D02*
D03*
X-56080Y-54480D02*
D03*
X-55080Y-16480D02*
D03*
X-56080Y-14480D02*
D03*
X-55080Y-12480D02*
D03*
X-56080Y-10480D02*
D03*
X-55080Y-8480D02*
D03*
X-56080Y-6480D02*
D03*
X-53080Y-56480D02*
D03*
X-54080Y-54480D02*
D03*
X-53080Y-28480D02*
D03*
X-54080Y-26480D02*
D03*
X-53080Y-16480D02*
D03*
X-54080Y-14480D02*
D03*
X-53080Y-12480D02*
D03*
X-54080Y-10480D02*
D03*
X-51080Y-56480D02*
D03*
X-52080Y-54480D02*
D03*
X-51080Y-48480D02*
D03*
X-52080Y-30480D02*
D03*
X-51080Y-28480D02*
D03*
X-52080Y-26480D02*
D03*
X-51080Y-24480D02*
D03*
Y-20480D02*
D03*
Y-16480D02*
D03*
X-52080Y-14480D02*
D03*
X-51080Y-12480D02*
D03*
X-52080Y-10480D02*
D03*
X-49080Y-56480D02*
D03*
X-50080Y-54480D02*
D03*
X-49080Y-52480D02*
D03*
X-50080Y-50480D02*
D03*
X-49080Y-48480D02*
D03*
Y-44480D02*
D03*
X-50080Y-42480D02*
D03*
X-49080Y-28480D02*
D03*
X-50080Y-26480D02*
D03*
X-49080Y-24480D02*
D03*
X-50080Y-22480D02*
D03*
X-49080Y-20480D02*
D03*
X-50080Y-18480D02*
D03*
X-49080Y-16480D02*
D03*
X-50080Y-14480D02*
D03*
X-47080Y-56480D02*
D03*
X-48080Y-54480D02*
D03*
X-47080Y-52480D02*
D03*
X-48080Y-50480D02*
D03*
X-47080Y-48480D02*
D03*
X-48080Y-46480D02*
D03*
X-47080Y-44480D02*
D03*
X-48080Y-42480D02*
D03*
Y-30480D02*
D03*
X-47080Y-28480D02*
D03*
X-48080Y-26480D02*
D03*
X-47080Y-24480D02*
D03*
X-48080Y-22480D02*
D03*
X-47080Y-20480D02*
D03*
X-48080Y-18480D02*
D03*
X-47080Y-16480D02*
D03*
X-48080Y-14480D02*
D03*
X-47080Y-8480D02*
D03*
X-46080Y-30480D02*
D03*
Y-26480D02*
D03*
Y-22480D02*
D03*
X-45080Y-20480D02*
D03*
X-46080Y-18480D02*
D03*
X-44080Y-22480D02*
D03*
Y-18480D02*
D03*
X-51757Y-17977D02*
D03*
X-51875Y-23049D02*
D03*
X-52922Y-25040D02*
D03*
X-55473Y-25364D02*
D03*
X-55517Y-27517D02*
D03*
X-54339Y-29567D02*
D03*
X-51256Y-32236D02*
D03*
X-46821Y-32241D02*
D03*
X-48763Y-34418D02*
D03*
X-53939Y-34684D02*
D03*
X-55370Y-32457D02*
D03*
X-57154Y-30953D02*
D03*
X-58481Y-33917D02*
D03*
X-53438Y-38179D02*
D03*
X-58570Y-41674D02*
D03*
Y-37899D02*
D03*
M02*
