M48
;Layer_Color=9474304
;FILE_FORMAT=2:4
INCH,TZ
;TYPE=PLATED
T1F00S00C0.0079
T2F00S00C0.0098
T3F00S00C0.0130
T4F00S00C0.0256
T5F00S00C0.0394
T6F00S00C0.0591
T7F00S00C0.0630
T8F00S00C0.1063
%
T01
X-8052Y-19590
X-7649Y-19792
X-5693Y-18620
X-5207Y-18904
X-3667Y-18686
X-3617Y-20878
X-6362Y-17913
X-10715Y-18904
X-11162Y-18616
X-11553Y-18130
X-11821Y-19124
X-12925Y-19761
X-13409Y-18130
X-14497Y-17405
X-14852Y-17648
X-15965Y-17494
X-15771Y-18346
X-16152Y-18620
X-16874Y-18904
X-16555Y-19596
X-16354Y-19904
X-15554Y-19311
X-17066Y-17913
X-18535Y-17512
X-19323
X-18929Y-18299
X-19323Y-19087
X-20110
X-20730Y-18955
Y-19455
X-19717Y-19874
X-18929
X-19323Y-20661
X-18535
X-18929Y-21449
X-19717
X-20504
X-21291
X-22079
X-22866
X-22730Y-19455
Y-18955
X-22079Y-18210
X-21376Y-18214
X-21360Y-17315
X-22059Y-17315
X-22846
X-20484
X-18535Y-19087
X-17205Y-20807
Y-22982
X-18535Y-22236
X-19323
X-20110
X-20898
X-21480Y-20205
X-21980
X-10768Y-22421
X-12513Y-17007
X-12982Y-16589
X-13409Y-16767
X-14497Y-16677
X-14852Y-16683
X-15231Y-16653
X-14980Y-15906
X-14783Y-15709
X-14508Y-15615
X-14173Y-15443
X-13785Y-14065
Y-13671
X-13527Y-13868
X-13804Y-13081
X-13714Y-12772
X-12382Y-12814
Y-12312
X-13328Y-11724
X-14675Y-11644
X-15177Y-12229
X-15904Y-12264
X-16136Y-12187
X-16358
X-15819Y-11604
X-15867Y-11023
X-15818Y-10472
X-15846Y-10202
X-16323Y-9802
X-16744Y-9851
X-16397Y-9208
X-17354Y-8850
X-18142
X-18929
X-19717
X-20423Y-9075
X-20878Y-8654
X-20894Y-7880
X-20931Y-7317
X-20377Y-7077
X-20110Y-6488
X-20898
X-21685
X-21683Y-7249
X-22476Y-7259
X-22472Y-6488
X-22866Y-5701
X-22079
X-21291
X-20504
X-19717
X-18929
X-19323Y-6488
X-18535
X-18929Y-7276
X-19717
X-20110Y-8063
X-19323
X-18535
X-17748
X-18142Y-7276
X-17354
X-16987Y-4621
X-17579Y-4370
X-18800Y-4238
X-19081
X-18535Y-3339
X-17917Y-2510
X-19872Y-2944
X-20504Y-4126
X-21291
X-22079
X-22866
X-22472Y-4913
X-21685
X-20898
X-20110
X-21685Y-3339
X-22472
X-22866Y-2551
X-22079
X-23307Y-7259
Y-9224
Y-9815
Y-10406
Y-10996
Y-11587
Y-12177
X-22502Y-12186
X-22743Y-11768
X-22846Y-12591
X-22069Y-12432
X-21799Y-12778
X-21417Y-13098
X-21665Y-13378
X-21236Y-13655
X-20738Y-13711
X-20738Y-14010
X-20896Y-14152
X-20917Y-14400
X-20726Y-14546
X-20683Y-14818
X-21039Y-15031
X-21254Y-15380
X-21665Y-14953
X-22453
X-23059Y-14921
X-22846Y-14165
X-22059
X-22453Y-13378
X-23024Y-13353
X-22846Y-15740
X-23059Y-16407
X-22453Y-16528
X-22050Y-16626
X-21385Y-16592
X-20965Y-16138
X-20484Y-15740
X-20478Y-16644
X-19717Y-16724
X-18929
X-19344Y-15771
X-19331Y-15335
X-19232Y-14970
X-19036Y-14646
X-18681Y-14764
X-18435Y-14862
Y-14606
X-18169
Y-13967
X-18169Y-13415
X-18425
X-18297Y-13248
X-18041
X-18553
X-18433Y-12693
X-19321Y-12715
X-19331Y-13032
X-19198Y-13551
X-19007Y-13902
X-19979Y-13986
X-19987Y-13785
X-20020Y-14262
X-19987Y-14522
X-19990Y-14724
X-20099Y-15204
X-20650Y-14262
X-20091Y-13378
X-20179Y-12691
X-20659Y-12794
X-20504Y-12000
X-21283Y-12182
X-21393Y-11641
X-21889Y-11570
X-21857Y-10834
X-22431Y-10956
Y-10500
X-22496Y-10215
X-22431Y-9815
X-22489Y-9387
X-22059Y-9441
X-21840Y-9986
X-21291Y-10425
X-20504
X-19717
X-18929
X-18142
X-18535Y-11213
X-19323
X-20110
X-20898
X-20835Y-9858
X-21272Y-9441
X-20110Y-9638
X-19323
X-18535
X-17023Y-10752
Y-11452
X-17142Y-12761
X-17195Y-13081
X-17333Y-13278
X-17160Y-13474
Y-14656
X-17571Y-15246
X-16850Y-15669
X-16555
X-15846Y-15644
X-16358Y-16765
X-12106Y-16171
X-11821Y-15679
X-11296Y-15425
X-10577Y-15187
X-11762Y-14596
X-12182Y-14783
Y-13671
X-11309
X-11065Y-13081
X-11309Y-10000
X-10433Y-10039
X-10620Y-8947
X-11434Y-8720
X-11555Y-8435
X-11811Y-9055
X-12442Y-8356
X-12904Y-8230
X-13569Y-7846
X-13860Y-8087
X-13268Y-6339
X-13150Y-5000
X-12038Y-4931
X-11772Y-4203
X-11253Y-5209
X-11693Y-6339
X-10620Y-7411
X-10364Y-7667
X-10108Y-7923
Y-8179
Y-7156
X-10709Y-3543
Y-3071
X-10748Y-2087
X-11142
X-12756Y-2323
Y-2717
Y-3346
X-13110Y-3031
X-13071Y-2047
X-12756Y-1772
X-13622Y-4213
X-14481Y-3455
X-14472Y-5102
X-14222Y-5502
X-18142Y-12000
X-18929
X-21765Y-15851
X-22201Y-16037
X-9278Y-15786
X-8052Y-16311
X-7649Y-16801
X-7072Y-14607
Y-14083
Y-13520
X-7161Y-12894
X-6673Y-13101
X-6363Y-13311
X-8625Y-13278
X-9113Y-13474
X-10087Y-13671
X-9601Y-14350
X-9278Y-11476
X-9312Y-10374
X-9557Y-10030
X-8839Y-10576
X-8398Y-11021
X-8137Y-10174
X-7649
X-7161Y-9968
X-6673Y-9961
X-6304Y-9897
X-5693Y-10153
X-5128Y-9978
X-4720Y-9620
X-4430Y-9805
X-4026Y-10041
X-4026Y-9311
X-5768Y-9453
X-6427Y-8159
X-7352Y-8455
X-7676Y-8804
X-8307Y-8435
X-9085Y-8691
X-9085Y-8947
X-9852Y-8947
Y-8435
Y-8179
X-9852Y-7667
X-9852Y-7411
X-9341
X-9085Y-7411
X-9341Y-7667
X-9469Y-6840
X-9213
X-8959
X-8583Y-6260
X-7510Y-6850
X-7717Y-7165
X-7008Y-7490
X-9980Y-6840
X-9882Y-4213
Y-3543
X-9803Y-3189
X-9011Y-3374
X-8583Y-3081
X-8868Y-2746
X-7874Y-3071
X-6781Y-2992
X-6742Y-3346
X-7019Y-3711
X-6890Y-2205
X-5260Y-3216
X-4764Y-3839
X-3868Y-3770
Y-4488
X-4508Y-4980
X-4488Y-2677
X-3445Y-1969
X-1614Y-1980
X-1526Y-2795
X-1102Y-3465
X-1791Y-3858
X-2781Y-3386
X-354Y-4370
X-3573Y-6555
X-3378Y-11324
X-3625Y-12051
X-3538Y-12510
X-1437Y-10374
X-1725Y-9876
X-8973Y-4901
X-8898Y-1378
X-8553Y-673
X-9921Y-906
X-2992Y-598
X-11417Y-866
X-12638Y-945
X-13435Y-846
X-15945Y-591
X-18132Y-1539
T02
X-17337Y-11979
X-16984Y-11109
X-17007Y-10202
T03
X-16122Y-14617
X-15472
X-14822
Y-13967
Y-13317
X-15472
Y-13967
X-16122
Y-13317
T04
X-3249Y-9061
Y-8561
X-2749
X-2249
X-1749
X-1249
Y-9061
X-1749
X-2249
X-2749
T05
X-9311Y-21878
X-8311
X-7311
Y-20878
X-8311
X-9311
X-2744Y-20311
X-1744
Y-19311
Y-18311
Y-17311
X-2744
Y-18311
Y-19311
X-10311Y-20878
Y-21878
X-11311
Y-20878
X-12311
X-13311
X-14311
X-15311
X-16311
Y-21878
X-15311
X-14311
X-13311
X-12311
X-10715Y-16772
X-15248Y-4311
X-16248
X-2744Y-5311
Y-6311
X-1744
Y-5311
Y-11311
X-2744
Y-12311
Y-13311
Y-14311
Y-15311
Y-16311
X-1744
Y-15311
Y-14311
Y-13311
Y-12311
X-8715Y-16772
X-9715
T06
X-21730Y-19205
T07
X-22730Y-20205
X-20730
Y-18205
X-22730
T08
X-925Y-22697
X-22697
X-925Y-925
X-22697
M30
